<?xml version="1.0" encoding="UTF-8"?>
<!DOCTYPE svg PUBLIC "-//W3C//DTD SVG 1.1//EN"
    "http://www.w3.org/Graphics/SVG/1.1/DTD/svg11.dtd">
<svg xmlns="http://www.w3.org/2000/svg" xmlns:xlink="http://www.w3.org/1999/xlink" version="1.1" width="380" height="228" viewBox="0 0 380 228"><rect width="380" height="228" fill="#000000" /><rect x="171" y="8" width="39" height="30" fill="#000000" fill-opacity="0.5" /><text x="190" y="28" font-size="20" text-anchor="middle" font-family="mono" fill="#00ff00">e.0</text><circle r="4" cx="190" cy="48" fill="#00ff00" /><rect x="64" y="68" width="52" height="30" fill="#000000" fill-opacity="0.5" /><text x="90" y="88" font-size="20" text-anchor="middle" font-family="mono" fill="#00ff00">eL.4</text><circle r="4" cx="90" cy="108" fill="#00ff00" /><rect x="4" y="138" width="13" height="30" fill="#000000" fill-opacity="0.5" /><text x="10" y="158" font-size="20" text-anchor="middle" font-family="mono" fill="#00ff00">(</text><circle r="4" cx="10" cy="128" fill="#00ff00" /><rect x="71" y="128" width="39" height="30" fill="#000000" fill-opacity="0.5" /><text x="90" y="148" font-size="20" text-anchor="middle" font-family="mono" fill="#00ff00">e.0</text><circle r="4" cx="90" cy="168" fill="#00ff00" /><rect x="31" y="198" width="39" height="30" fill="#000000" fill-opacity="0.5" /><text x="50" y="218" font-size="20" text-anchor="middle" font-family="mono" fill="#00ff00">&lt;5&gt;</text><circle r="4" cx="50" cy="188" fill="#00ff00" /><rect x="84" y="198" width="13" height="30" fill="#000000" fill-opacity="0.5" /><text x="90" y="218" font-size="20" text-anchor="middle" font-family="mono" fill="#00ff00">+</text><circle r="4" cx="90" cy="188" fill="#00ff00" /><rect x="111" y="198" width="39" height="30" fill="#000000" fill-opacity="0.5" /><text x="130" y="218" font-size="20" text-anchor="middle" font-family="mono" fill="#00ff00">&lt;6&gt;</text><circle r="4" cx="130" cy="188" fill="#00ff00" /><rect x="164" y="138" width="13" height="30" fill="#000000" fill-opacity="0.5" /><text x="170" y="158" font-size="20" text-anchor="middle" font-family="mono" fill="#00ff00">)</text><circle r="4" cx="170" cy="128" fill="#00ff00" /><rect x="184" y="78" width="13" height="30" fill="#000000" fill-opacity="0.5" /><text x="190" y="98" font-size="20" text-anchor="middle" font-family="mono" fill="#00ff00">+</text><circle r="4" cx="190" cy="68" fill="#00ff00" /><rect x="264" y="68" width="52" height="30" fill="#000000" fill-opacity="0.5" /><text x="290" y="88" font-size="20" text-anchor="middle" font-family="mono" fill="#00ff00">eL.4</text><circle r="4" cx="290" cy="108" fill="#00ff00" /><rect x="204" y="138" width="13" height="30" fill="#000000" fill-opacity="0.5" /><text x="210" y="158" font-size="20" text-anchor="middle" font-family="mono" fill="#00ff00">(</text><circle r="4" cx="210" cy="128" fill="#00ff00" /><rect x="271" y="128" width="39" height="30" fill="#000000" fill-opacity="0.5" /><text x="290" y="148" font-size="20" text-anchor="middle" font-family="mono" fill="#00ff00">e.0</text><circle r="4" cx="290" cy="168" fill="#00ff00" /><rect x="231" y="198" width="39" height="30" fill="#000000" fill-opacity="0.5" /><text x="250" y="218" font-size="20" text-anchor="middle" font-family="mono" fill="#00ff00">&lt;7&gt;</text><circle r="4" cx="250" cy="188" fill="#00ff00" /><rect x="284" y="198" width="13" height="30" fill="#000000" fill-opacity="0.5" /><text x="290" y="218" font-size="20" text-anchor="middle" font-family="mono" fill="#00ff00">+</text><circle r="4" cx="290" cy="188" fill="#00ff00" /><rect x="311" y="198" width="39" height="30" fill="#000000" fill-opacity="0.5" /><text x="330" y="218" font-size="20" text-anchor="middle" font-family="mono" fill="#00ff00">&lt;8&gt;</text><circle r="4" cx="330" cy="188" fill="#00ff00" /><rect x="364" y="138" width="13" height="30" fill="#000000" fill-opacity="0.5" /><text x="370" y="158" font-size="20" text-anchor="middle" font-family="mono" fill="#00ff00">)</text><circle r="4" cx="370" cy="128" fill="#00ff00" /><path d="M 190 48 , 90 108" stroke="#00ff00" stroke-width="1" stroke-linecap="round" /><path d="M 190 48 , 190 68" stroke="#00ff00" stroke-width="1" stroke-linecap="round" /><path d="M 190 48 , 290 108" stroke="#00ff00" stroke-width="1" stroke-linecap="round" /><path d="M 290 108 , 210 128" stroke="#00ff00" stroke-width="1" stroke-linecap="round" /><path d="M 290 108 , 290 168" stroke="#00ff00" stroke-width="1" stroke-linecap="round" /><path d="M 290 108 , 370 128" stroke="#00ff00" stroke-width="1" stroke-linecap="round" /><path d="M 290 168 , 250 188" stroke="#00ff00" stroke-width="1" stroke-linecap="round" /><path d="M 290 168 , 290 188" stroke="#00ff00" stroke-width="1" stroke-linecap="round" /><path d="M 290 168 , 330 188" stroke="#00ff00" stroke-width="1" stroke-linecap="round" /><path d="M 90 108 , 10 128" stroke="#00ff00" stroke-width="1" stroke-linecap="round" /><path d="M 90 108 , 90 168" stroke="#00ff00" stroke-width="1" stroke-linecap="round" /><path d="M 90 108 , 170 128" stroke="#00ff00" stroke-width="1" stroke-linecap="round" /><path d="M 90 168 , 50 188" stroke="#00ff00" stroke-width="1" stroke-linecap="round" /><path d="M 90 168 , 90 188" stroke="#00ff00" stroke-width="1" stroke-linecap="round" /><path d="M 90 168 , 130 188" stroke="#00ff00" stroke-width="1" stroke-linecap="round" /></svg>