<?xml version="1.0" encoding="UTF-8"?>
<!DOCTYPE svg PUBLIC "-//W3C//DTD SVG 1.1//EN"
    "http://www.w3.org/Graphics/SVG/1.1/DTD/svg11.dtd">
<svg xmlns="http://www.w3.org/2000/svg" xmlns:xlink="http://www.w3.org/1999/xlink" version="1.1" width="600" height="228" viewBox="0 0 600 228"><rect width="600" height="228" fill="#000000" /><rect x="281" y="8" width="39" height="30" fill="#000000" fill-opacity="0.5" /><text x="300" y="28" font-size="20" text-anchor="middle" font-family="mono" fill="#00ff00">e.1</text><circle r="4" cx="300" cy="48" fill="#00ff00" /><rect x="214" y="68" width="52" height="30" fill="#000000" fill-opacity="0.5" /><text x="240" y="88" font-size="20" text-anchor="middle" font-family="mono" fill="#00ff00">eL.4</text><circle r="4" cx="240" cy="108" fill="#00ff00" /><rect x="4" y="138" width="13" height="30" fill="#000000" fill-opacity="0.5" /><text x="10" y="158" font-size="20" text-anchor="middle" font-family="mono" fill="#00ff00">(</text><circle r="4" cx="10" cy="128" fill="#00ff00" /><rect x="214" y="128" width="52" height="30" fill="#000000" fill-opacity="0.5" /><text x="240" y="148" font-size="20" text-anchor="middle" font-family="mono" fill="#00ff00">eL.3</text><circle r="4" cx="240" cy="168" fill="#00ff00" /><rect x="27" y="198" width="26" height="30" fill="#000000" fill-opacity="0.5" /><text x="40" y="218" font-size="20" text-anchor="middle" font-family="mono" fill="#00ff00">If</text><circle r="4" cx="40" cy="188" fill="#00ff00" /><rect x="74" y="198" width="52" height="30" fill="#000000" fill-opacity="0.5" /><text x="100" y="218" font-size="20" text-anchor="middle" font-family="mono" fill="#00ff00">True</text><circle r="4" cx="100" cy="188" fill="#00ff00" /><rect x="154" y="198" width="52" height="30" fill="#000000" fill-opacity="0.5" /><text x="180" y="218" font-size="20" text-anchor="middle" font-family="mono" fill="#00ff00">Then</text><circle r="4" cx="180" cy="188" fill="#00ff00" /><rect x="234" y="198" width="52" height="30" fill="#000000" fill-opacity="0.5" /><text x="260" y="218" font-size="20" text-anchor="middle" font-family="mono" fill="#00ff00">True</text><circle r="4" cx="260" cy="188" fill="#00ff00" /><rect x="314" y="198" width="52" height="30" fill="#000000" fill-opacity="0.5" /><text x="340" y="218" font-size="20" text-anchor="middle" font-family="mono" fill="#00ff00">Else</text><circle r="4" cx="340" cy="188" fill="#00ff00" /><rect x="394" y="198" width="52" height="30" fill="#000000" fill-opacity="0.5" /><text x="420" y="218" font-size="20" text-anchor="middle" font-family="mono" fill="#00ff00">True</text><circle r="4" cx="420" cy="188" fill="#00ff00" /><rect x="464" y="138" width="13" height="30" fill="#000000" fill-opacity="0.5" /><text x="470" y="158" font-size="20" text-anchor="middle" font-family="mono" fill="#00ff00">)</text><circle r="4" cx="470" cy="128" fill="#00ff00" /><rect x="487" y="78" width="26" height="30" fill="#000000" fill-opacity="0.5" /><text x="500" y="98" font-size="20" text-anchor="middle" font-family="mono" fill="#00ff00">::</text><circle r="4" cx="500" cy="68" fill="#00ff00" /><rect x="534" y="78" width="52" height="30" fill="#000000" fill-opacity="0.5" /><text x="560" y="98" font-size="20" text-anchor="middle" font-family="mono" fill="#00ff00">Bool</text><circle r="4" cx="560" cy="68" fill="#00ff00" /><path d="M 300 48 , 240 108" stroke="#00ff00" stroke-width="1" stroke-linecap="round" /><path d="M 300 48 , 500 68" stroke="#00ff00" stroke-width="1" stroke-linecap="round" /><path d="M 300 48 , 560 68" stroke="#00ff00" stroke-width="1" stroke-linecap="round" /><path d="M 240 108 , 10 128" stroke="#00ff00" stroke-width="1" stroke-linecap="round" /><path d="M 240 108 , 240 168" stroke="#00ff00" stroke-width="1" stroke-linecap="round" /><path d="M 240 108 , 470 128" stroke="#00ff00" stroke-width="1" stroke-linecap="round" /><path d="M 240 168 , 40 188" stroke="#00ff00" stroke-width="1" stroke-linecap="round" /><path d="M 240 168 , 100 188" stroke="#00ff00" stroke-width="1" stroke-linecap="round" /><path d="M 240 168 , 180 188" stroke="#00ff00" stroke-width="1" stroke-linecap="round" /><path d="M 240 168 , 260 188" stroke="#00ff00" stroke-width="1" stroke-linecap="round" /><path d="M 240 168 , 340 188" stroke="#00ff00" stroke-width="1" stroke-linecap="round" /><path d="M 240 168 , 420 188" stroke="#00ff00" stroke-width="1" stroke-linecap="round" /></svg>