<?xml version="1.0" encoding="UTF-8"?>
<!DOCTYPE svg PUBLIC "-//W3C//DTD SVG 1.1//EN"
    "http://www.w3.org/Graphics/SVG/1.1/DTD/svg11.dtd">
<svg xmlns="http://www.w3.org/2000/svg" xmlns:xlink="http://www.w3.org/1999/xlink" version="1.1" width="940" height="228" viewBox="0 0 940 228"><rect width="940" height="228" fill="#000000" /><rect x="444" y="8" width="52" height="30" fill="#000000" fill-opacity="0.5" /><text x="470" y="28" font-size="20" text-anchor="middle" font-family="mono" fill="#00ff00">eL.3</text><circle r="4" cx="470" cy="48" fill="#00ff00" /><rect x="7" y="78" width="26" height="30" fill="#000000" fill-opacity="0.5" /><text x="20" y="98" font-size="20" text-anchor="middle" font-family="mono" fill="#00ff00">If</text><circle r="4" cx="20" cy="68" fill="#00ff00" /><rect x="264" y="68" width="52" height="30" fill="#000000" fill-opacity="0.5" /><text x="290" y="88" font-size="20" text-anchor="middle" font-family="mono" fill="#00ff00">eL.4</text><circle r="4" cx="290" cy="108" fill="#00ff00" /><rect x="44" y="138" width="13" height="30" fill="#000000" fill-opacity="0.5" /><text x="50" y="158" font-size="20" text-anchor="middle" font-family="mono" fill="#00ff00">(</text><circle r="4" cx="50" cy="128" fill="#00ff00" /><rect x="264" y="128" width="52" height="30" fill="#000000" fill-opacity="0.5" /><text x="290" y="148" font-size="20" text-anchor="middle" font-family="mono" fill="#00ff00">eL.3</text><circle r="4" cx="290" cy="168" fill="#00ff00" /><rect x="67" y="198" width="26" height="30" fill="#000000" fill-opacity="0.5" /><text x="80" y="218" font-size="20" text-anchor="middle" font-family="mono" fill="#00ff00">If</text><circle r="4" cx="80" cy="188" fill="#00ff00" /><rect x="114" y="198" width="52" height="30" fill="#000000" fill-opacity="0.5" /><text x="140" y="218" font-size="20" text-anchor="middle" font-family="mono" fill="#00ff00">True</text><circle r="4" cx="140" cy="188" fill="#00ff00" /><rect x="194" y="198" width="52" height="30" fill="#000000" fill-opacity="0.5" /><text x="220" y="218" font-size="20" text-anchor="middle" font-family="mono" fill="#00ff00">Then</text><circle r="4" cx="220" cy="188" fill="#00ff00" /><rect x="278" y="198" width="65" height="30" fill="#000000" fill-opacity="0.5" /><text x="310" y="218" font-size="20" text-anchor="middle" font-family="mono" fill="#00ff00">False</text><circle r="4" cx="310" cy="188" fill="#00ff00" /><rect x="374" y="198" width="52" height="30" fill="#000000" fill-opacity="0.5" /><text x="400" y="218" font-size="20" text-anchor="middle" font-family="mono" fill="#00ff00">Else</text><circle r="4" cx="400" cy="188" fill="#00ff00" /><rect x="454" y="198" width="52" height="30" fill="#000000" fill-opacity="0.5" /><text x="480" y="218" font-size="20" text-anchor="middle" font-family="mono" fill="#00ff00">True</text><circle r="4" cx="480" cy="188" fill="#00ff00" /><rect x="524" y="138" width="13" height="30" fill="#000000" fill-opacity="0.5" /><text x="530" y="158" font-size="20" text-anchor="middle" font-family="mono" fill="#00ff00">)</text><circle r="4" cx="530" cy="128" fill="#00ff00" /><rect x="554" y="78" width="52" height="30" fill="#000000" fill-opacity="0.5" /><text x="580" y="98" font-size="20" text-anchor="middle" font-family="mono" fill="#00ff00">Then</text><circle r="4" cx="580" cy="68" fill="#00ff00" /><rect x="648" y="78" width="104" height="30" fill="#000000" fill-opacity="0.5" /><text x="700" y="98" font-size="20" text-anchor="middle" font-family="mono" fill="#00ff00">&lt;123456&gt;</text><circle r="4" cx="700" cy="68" fill="#00ff00" /><rect x="794" y="78" width="52" height="30" fill="#000000" fill-opacity="0.5" /><text x="820" y="98" font-size="20" text-anchor="middle" font-family="mono" fill="#00ff00">Else</text><circle r="4" cx="820" cy="68" fill="#00ff00" /><rect x="874" y="78" width="52" height="30" fill="#000000" fill-opacity="0.5" /><text x="900" y="98" font-size="20" text-anchor="middle" font-family="mono" fill="#00ff00">&lt;42&gt;</text><circle r="4" cx="900" cy="68" fill="#00ff00" /><path d="M 470 48 , 20 68" stroke="#00ff00" stroke-width="1" stroke-linecap="round" /><path d="M 470 48 , 290 108" stroke="#00ff00" stroke-width="1" stroke-linecap="round" /><path d="M 470 48 , 580 68" stroke="#00ff00" stroke-width="1" stroke-linecap="round" /><path d="M 470 48 , 700 68" stroke="#00ff00" stroke-width="1" stroke-linecap="round" /><path d="M 470 48 , 820 68" stroke="#00ff00" stroke-width="1" stroke-linecap="round" /><path d="M 470 48 , 900 68" stroke="#00ff00" stroke-width="1" stroke-linecap="round" /><path d="M 290 108 , 50 128" stroke="#00ff00" stroke-width="1" stroke-linecap="round" /><path d="M 290 108 , 290 168" stroke="#00ff00" stroke-width="1" stroke-linecap="round" /><path d="M 290 108 , 530 128" stroke="#00ff00" stroke-width="1" stroke-linecap="round" /><path d="M 290 168 , 80 188" stroke="#00ff00" stroke-width="1" stroke-linecap="round" /><path d="M 290 168 , 140 188" stroke="#00ff00" stroke-width="1" stroke-linecap="round" /><path d="M 290 168 , 220 188" stroke="#00ff00" stroke-width="1" stroke-linecap="round" /><path d="M 290 168 , 310 188" stroke="#00ff00" stroke-width="1" stroke-linecap="round" /><path d="M 290 168 , 400 188" stroke="#00ff00" stroke-width="1" stroke-linecap="round" /><path d="M 290 168 , 480 188" stroke="#00ff00" stroke-width="1" stroke-linecap="round" /></svg>