<?xml version="1.0" encoding="UTF-8"?>
<!DOCTYPE svg PUBLIC "-//W3C//DTD SVG 1.1//EN"
    "http://www.w3.org/Graphics/SVG/1.1/DTD/svg11.dtd">
<svg xmlns="http://www.w3.org/2000/svg" xmlns:xlink="http://www.w3.org/1999/xlink" version="1.1" width="840" height="168" viewBox="0 0 840 168"><rect width="840" height="168" fill="#ffffff" /><rect x="381" y="8" width="78" height="30" fill="#ffffff" fill-opacity="0.5" /><text x="420" y="28" font-size="20" text-anchor="middle" font-family="mono" fill="#000000">expr.0</text><circle r="4" cx="420" cy="48" fill="#000000" /><rect x="7" y="78" width="26" height="30" fill="#ffffff" fill-opacity="0.5" /><text x="20" y="98" font-size="20" text-anchor="middle" font-family="mono" fill="#000000">If</text><circle r="4" cx="20" cy="68" fill="#000000" /><rect x="231" y="68" width="78" height="30" fill="#ffffff" fill-opacity="0.5" /><text x="270" y="88" font-size="20" text-anchor="middle" font-family="mono" fill="#000000">expr.0</text><circle r="4" cx="270" cy="108" fill="#000000" /><rect x="47" y="138" width="26" height="30" fill="#ffffff" fill-opacity="0.5" /><text x="60" y="158" font-size="20" text-anchor="middle" font-family="mono" fill="#000000">If</text><circle r="4" cx="60" cy="128" fill="#000000" /><rect x="94" y="138" width="52" height="30" fill="#ffffff" fill-opacity="0.5" /><text x="120" y="158" font-size="20" text-anchor="middle" font-family="mono" fill="#000000">True</text><circle r="4" cx="120" cy="128" fill="#000000" /><rect x="174" y="138" width="52" height="30" fill="#ffffff" fill-opacity="0.5" /><text x="200" y="158" font-size="20" text-anchor="middle" font-family="mono" fill="#000000">Then</text><circle r="4" cx="200" cy="128" fill="#000000" /><rect x="258" y="138" width="65" height="30" fill="#ffffff" fill-opacity="0.5" /><text x="290" y="158" font-size="20" text-anchor="middle" font-family="mono" fill="#000000">False</text><circle r="4" cx="290" cy="128" fill="#000000" /><rect x="354" y="138" width="52" height="30" fill="#ffffff" fill-opacity="0.5" /><text x="380" y="158" font-size="20" text-anchor="middle" font-family="mono" fill="#000000">Else</text><circle r="4" cx="380" cy="128" fill="#000000" /><rect x="434" y="138" width="52" height="30" fill="#ffffff" fill-opacity="0.5" /><text x="460" y="158" font-size="20" text-anchor="middle" font-family="mono" fill="#000000">True</text><circle r="4" cx="460" cy="128" fill="#000000" /><rect x="514" y="78" width="52" height="30" fill="#ffffff" fill-opacity="0.5" /><text x="540" y="98" font-size="20" text-anchor="middle" font-family="mono" fill="#000000">Then</text><circle r="4" cx="540" cy="68" fill="#000000" /><rect x="594" y="78" width="52" height="30" fill="#ffffff" fill-opacity="0.5" /><text x="620" y="98" font-size="20" text-anchor="middle" font-family="mono" fill="#000000">True</text><circle r="4" cx="620" cy="68" fill="#000000" /><rect x="674" y="78" width="52" height="30" fill="#ffffff" fill-opacity="0.5" /><text x="700" y="98" font-size="20" text-anchor="middle" font-family="mono" fill="#000000">Else</text><circle r="4" cx="700" cy="68" fill="#000000" /><rect x="758" y="78" width="65" height="30" fill="#ffffff" fill-opacity="0.5" /><text x="790" y="98" font-size="20" text-anchor="middle" font-family="mono" fill="#000000">False</text><circle r="4" cx="790" cy="68" fill="#000000" /><path d="M 420 48 , 20 68" stroke="#000000" stroke-width="1" stroke-linecap="round" /><path d="M 420 48 , 270 108" stroke="#000000" stroke-width="1" stroke-linecap="round" /><path d="M 420 48 , 540 68" stroke="#000000" stroke-width="1" stroke-linecap="round" /><path d="M 420 48 , 620 68" stroke="#000000" stroke-width="1" stroke-linecap="round" /><path d="M 420 48 , 700 68" stroke="#000000" stroke-width="1" stroke-linecap="round" /><path d="M 420 48 , 790 68" stroke="#000000" stroke-width="1" stroke-linecap="round" /><path d="M 270 108 , 60 128" stroke="#000000" stroke-width="1" stroke-linecap="round" /><path d="M 270 108 , 120 128" stroke="#000000" stroke-width="1" stroke-linecap="round" /><path d="M 270 108 , 200 128" stroke="#000000" stroke-width="1" stroke-linecap="round" /><path d="M 270 108 , 290 128" stroke="#000000" stroke-width="1" stroke-linecap="round" /><path d="M 270 108 , 380 128" stroke="#000000" stroke-width="1" stroke-linecap="round" /><path d="M 270 108 , 460 128" stroke="#000000" stroke-width="1" stroke-linecap="round" /></svg>