<?xml version="1.0" encoding="UTF-8"?>
<!DOCTYPE svg PUBLIC "-//W3C//DTD SVG 1.1//EN"
    "http://www.w3.org/Graphics/SVG/1.1/DTD/svg11.dtd">
<svg xmlns="http://www.w3.org/2000/svg" xmlns:xlink="http://www.w3.org/1999/xlink" version="1.1" width="540" height="600" viewBox="0 0 540 600"><rect width="540" height="600" fill="#ffffff" /><path d="M 90 300 , 90 180" stroke="#000000" stroke-width="1" stroke-linecap="round" /><path d="M 90 420 , 450 300" stroke="#000000" stroke-width="1" stroke-linecap="round" /><path d="M 270 420 , 450 300" stroke="#000000" stroke-width="1" stroke-linecap="round" /><path d="M 450 300 , 450 180" stroke="#000000" stroke-width="1" stroke-linecap="round" /><path d="M 450 420 , 450 300" stroke="#000000" stroke-width="1" stroke-linecap="round" /><path d="M 450 180 , 270 60" stroke="#000000" stroke-width="1" stroke-linecap="round" stroke-dasharray="1 , 5" /><path d="M 90 180 , 270 60" stroke="#000000" stroke-width="1" stroke-linecap="round" stroke-dasharray="1 , 5" /><path d="M 270 540 , 90 300" stroke="#000000" stroke-width="1" stroke-linecap="round" stroke-dasharray="1 , 5" /><path d="M 270 540 , 90 420" stroke="#000000" stroke-width="1" stroke-linecap="round" stroke-dasharray="1 , 5" /><path d="M 270 540 , 270 420" stroke="#000000" stroke-width="1" stroke-linecap="round" stroke-dasharray="1 , 5" /><path d="M 270 540 , 450 420" stroke="#000000" stroke-width="1" stroke-linecap="round" stroke-dasharray="1 , 5" /><rect x="264" y="550" width="13" height="30" fill="#ffffff" fill-opacity="0.5" /><text x="270" y="570" font-size="20" text-anchor="middle" font-family="mono" fill="#000000">ɛ</text><circle r="4" cx="270" cy="540" fill="#000000" /><rect x="64" y="430" width="52" height="30" fill="#ffffff" fill-opacity="0.5" /><text x="90" y="450" font-size="20" text-anchor="middle" font-family="mono" fill="#000000">bool</text><circle r="4" cx="90" cy="420" fill="#000000" /><rect x="251" y="430" width="39" height="30" fill="#ffffff" fill-opacity="0.5" /><text x="270" y="450" font-size="20" text-anchor="middle" font-family="mono" fill="#000000">int</text><circle r="4" cx="270" cy="420" fill="#000000" /><rect x="431" y="430" width="39" height="30" fill="#ffffff" fill-opacity="0.5" /><text x="450" y="450" font-size="20" text-anchor="middle" font-family="mono" fill="#000000">var</text><circle r="4" cx="450" cy="420" fill="#000000" /><rect x="38" y="260" width="104" height="30" fill="#ffffff" fill-opacity="0.5" /><text x="90" y="280" font-size="20" text-anchor="middle" font-family="mono" fill="#000000">basetype</text><circle r="4" cx="90" cy="300" fill="#000000" /><rect x="424" y="260" width="52" height="30" fill="#ffffff" fill-opacity="0.5" /><text x="450" y="280" font-size="20" text-anchor="middle" font-family="mono" fill="#000000">term</text><circle r="4" cx="450" cy="300" fill="#000000" /><rect x="64" y="140" width="52" height="30" fill="#ffffff" fill-opacity="0.5" /><text x="90" y="160" font-size="20" text-anchor="middle" font-family="mono" fill="#000000">type</text><circle r="4" cx="90" cy="180" fill="#000000" /><rect x="424" y="140" width="52" height="30" fill="#ffffff" fill-opacity="0.5" /><text x="450" y="160" font-size="20" text-anchor="middle" font-family="mono" fill="#000000">expr</text><circle r="4" cx="450" cy="180" fill="#000000" /><rect x="257" y="20" width="26" height="30" fill="#ffffff" fill-opacity="0.5" /><text x="270" y="40" font-size="20" text-anchor="middle" font-family="mono" fill="#000000">.*</text><circle r="4" cx="270" cy="60" fill="#000000" /></svg>