<?xml version="1.0" encoding="UTF-8"?>
<!DOCTYPE svg PUBLIC "-//W3C//DTD SVG 1.1//EN"
    "http://www.w3.org/Graphics/SVG/1.1/DTD/svg11.dtd">
<svg xmlns="http://www.w3.org/2000/svg" xmlns:xlink="http://www.w3.org/1999/xlink" version="1.1" width="340" height="480" viewBox="0 0 340 480"><rect width="340" height="480" fill="#ffffff" /><path d="M 85 300 , 85 180" stroke="#000000" stroke-width="1" stroke-linecap="round" /><path d="M 255 300 , 85 180" stroke="#000000" stroke-width="1" stroke-linecap="round" /><path d="M 85 180 , 170 60" stroke="#000000" stroke-width="1" stroke-linecap="round" stroke-dasharray="1 , 5" /><path d="M 170 420 , 85 300" stroke="#000000" stroke-width="1" stroke-linecap="round" stroke-dasharray="1 , 5" /><path d="M 170 420 , 255 300" stroke="#000000" stroke-width="1" stroke-linecap="round" stroke-dasharray="1 , 5" /><rect x="164" y="430" width="13" height="30" fill="#ffffff" fill-opacity="0.5" /><text x="170" y="450" font-size="20" text-anchor="middle" font-family="mono" fill="#000000">ɛ</text><circle r="4" cx="170" cy="420" fill="#000000" /><rect x="59" y="310" width="52" height="30" fill="#ffffff" fill-opacity="0.5" /><text x="85" y="330" font-size="20" text-anchor="middle" font-family="mono" fill="#000000">bool</text><circle r="4" cx="85" cy="300" fill="#000000" /><rect x="236" y="310" width="39" height="30" fill="#ffffff" fill-opacity="0.5" /><text x="255" y="330" font-size="20" text-anchor="middle" font-family="mono" fill="#000000">int</text><circle r="4" cx="255" cy="300" fill="#000000" /><rect x="59" y="140" width="52" height="30" fill="#ffffff" fill-opacity="0.5" /><text x="85" y="160" font-size="20" text-anchor="middle" font-family="mono" fill="#000000">expr</text><circle r="4" cx="85" cy="180" fill="#000000" /><rect x="157" y="20" width="26" height="30" fill="#ffffff" fill-opacity="0.5" /><text x="170" y="40" font-size="20" text-anchor="middle" font-family="mono" fill="#000000">.*</text><circle r="4" cx="170" cy="60" fill="#000000" /></svg>