<?xml version="1.0" encoding="UTF-8"?>
<!DOCTYPE svg PUBLIC "-//W3C//DTD SVG 1.1//EN"
    "http://www.w3.org/Graphics/SVG/1.1/DTD/svg11.dtd">
<svg xmlns="http://www.w3.org/2000/svg" xmlns:xlink="http://www.w3.org/1999/xlink" version="1.1" width="340" height="228" viewBox="0 0 340 228"><rect width="340" height="228" fill="#ffffff" /><rect x="131" y="8" width="78" height="30" fill="#ffffff" fill-opacity="0.5" /><text x="170" y="28" font-size="20" text-anchor="middle" font-family="mono" fill="#000000">type.0</text><circle r="4" cx="170" cy="48" fill="#000000" /><rect x="11" y="78" width="39" height="30" fill="#ffffff" fill-opacity="0.5" /><text x="30" y="98" font-size="20" text-anchor="middle" font-family="mono" fill="#000000">Int</text><circle r="4" cx="30" cy="68" fill="#000000" /><rect x="67" y="78" width="26" height="30" fill="#ffffff" fill-opacity="0.5" /><text x="80" y="98" font-size="20" text-anchor="middle" font-family="mono" fill="#000000">-&gt;</text><circle r="4" cx="80" cy="68" fill="#000000" /><rect x="155" y="68" width="130" height="30" fill="#ffffff" fill-opacity="0.5" /><text x="220" y="88" font-size="20" text-anchor="middle" font-family="mono" fill="#000000">basetype.2</text><circle r="4" cx="220" cy="108" fill="#000000" /><rect x="104" y="138" width="13" height="30" fill="#ffffff" fill-opacity="0.5" /><text x="110" y="158" font-size="20" text-anchor="middle" font-family="mono" fill="#000000">(</text><circle r="4" cx="110" cy="128" fill="#000000" /><rect x="181" y="128" width="78" height="30" fill="#ffffff" fill-opacity="0.5" /><text x="220" y="148" font-size="20" text-anchor="middle" font-family="mono" fill="#000000">type.0</text><circle r="4" cx="220" cy="168" fill="#000000" /><rect x="134" y="198" width="52" height="30" fill="#ffffff" fill-opacity="0.5" /><text x="160" y="218" font-size="20" text-anchor="middle" font-family="mono" fill="#000000">Bool</text><circle r="4" cx="160" cy="188" fill="#000000" /><rect x="207" y="198" width="26" height="30" fill="#ffffff" fill-opacity="0.5" /><text x="220" y="218" font-size="20" text-anchor="middle" font-family="mono" fill="#000000">-&gt;</text><circle r="4" cx="220" cy="188" fill="#000000" /><rect x="254" y="198" width="52" height="30" fill="#ffffff" fill-opacity="0.5" /><text x="280" y="218" font-size="20" text-anchor="middle" font-family="mono" fill="#000000">Bool</text><circle r="4" cx="280" cy="188" fill="#000000" /><rect x="324" y="138" width="13" height="30" fill="#ffffff" fill-opacity="0.5" /><text x="330" y="158" font-size="20" text-anchor="middle" font-family="mono" fill="#000000">)</text><circle r="4" cx="330" cy="128" fill="#000000" /><path d="M 170 48 , 30 68" stroke="#000000" stroke-width="1" stroke-linecap="round" /><path d="M 170 48 , 80 68" stroke="#000000" stroke-width="1" stroke-linecap="round" /><path d="M 170 48 , 220 108" stroke="#000000" stroke-width="1" stroke-linecap="round" /><path d="M 220 108 , 110 128" stroke="#000000" stroke-width="1" stroke-linecap="round" /><path d="M 220 108 , 220 168" stroke="#000000" stroke-width="1" stroke-linecap="round" /><path d="M 220 108 , 330 128" stroke="#000000" stroke-width="1" stroke-linecap="round" /><path d="M 220 168 , 160 188" stroke="#000000" stroke-width="1" stroke-linecap="round" /><path d="M 220 168 , 220 188" stroke="#000000" stroke-width="1" stroke-linecap="round" /><path d="M 220 168 , 280 188" stroke="#000000" stroke-width="1" stroke-linecap="round" /></svg>