<?xml version="1.0" encoding="UTF-8"?>
<!DOCTYPE svg PUBLIC "-//W3C//DTD SVG 1.1//EN"
    "http://www.w3.org/Graphics/SVG/1.1/DTD/svg11.dtd">
<svg xmlns="http://www.w3.org/2000/svg" xmlns:xlink="http://www.w3.org/1999/xlink" version="1.1" width="340" height="228" viewBox="0 0 340 228"><rect width="340" height="228" fill="#ffffff" /><path d="M 170 48 , 110 108" stroke="#000000" stroke-width="1" stroke-linecap="round" /><path d="M 170 48 , 240 68" stroke="#000000" stroke-width="1" stroke-linecap="round" /><path d="M 170 48 , 300 68" stroke="#000000" stroke-width="1" stroke-linecap="round" /><path d="M 110 108 , 10 128" stroke="#000000" stroke-width="1" stroke-linecap="round" /><path d="M 110 108 , 110 168" stroke="#000000" stroke-width="1" stroke-linecap="round" /><path d="M 110 108 , 210 128" stroke="#000000" stroke-width="1" stroke-linecap="round" /><path d="M 110 168 , 50 188" stroke="#000000" stroke-width="1" stroke-linecap="round" /><path d="M 110 168 , 100 188" stroke="#000000" stroke-width="1" stroke-linecap="round" /><path d="M 110 168 , 160 188" stroke="#000000" stroke-width="1" stroke-linecap="round" /><rect x="139" y="16" width="62" height="14" fill="#ffffff" fill-opacity="1.0" /><rect x="137" y="14" width="66" height="18" fill="#ffffff" fill-opacity="0.9" /><rect x="135" y="12" width="70" height="22" fill="#ffffff" fill-opacity="0.75" /><rect x="134" y="11" width="72" height="24" fill="#ffffff" fill-opacity="0.5" /><rect x="133" y="10" width="74" height="26" fill="#ffffff" fill-opacity="0.25" /><rect x="131" y="8" width="78" height="30" fill="#ffffff" fill-opacity="0.1" /><text x="170" y="28" font-size="20" text-anchor="middle" font-family="mono" fill="#000000">type.0</text><circle r="4" cx="170" cy="48" fill="#000000" /><rect x="53" y="76" width="114" height="14" fill="#ffffff" fill-opacity="1.0" /><rect x="51" y="74" width="118" height="18" fill="#ffffff" fill-opacity="0.9" /><rect x="49" y="72" width="122" height="22" fill="#ffffff" fill-opacity="0.75" /><rect x="48" y="71" width="124" height="24" fill="#ffffff" fill-opacity="0.5" /><rect x="47" y="70" width="126" height="26" fill="#ffffff" fill-opacity="0.25" /><rect x="45" y="68" width="130" height="30" fill="#ffffff" fill-opacity="0.1" /><text x="110" y="88" font-size="20" text-anchor="middle" font-family="mono" fill="#000000">basetype.2</text><circle r="4" cx="110" cy="108" fill="#000000" /><rect x="12" y="146" width="-3" height="14" fill="#ffffff" fill-opacity="1.0" /><rect x="10" y="144" width="1" height="18" fill="#ffffff" fill-opacity="0.9" /><rect x="8" y="142" width="5" height="22" fill="#ffffff" fill-opacity="0.75" /><rect x="7" y="141" width="7" height="24" fill="#ffffff" fill-opacity="0.5" /><rect x="6" y="140" width="9" height="26" fill="#ffffff" fill-opacity="0.25" /><rect x="4" y="138" width="13" height="30" fill="#ffffff" fill-opacity="0.1" /><text x="10" y="158" font-size="20" text-anchor="middle" font-family="mono" fill="#000000">(</text><circle r="4" cx="10" cy="128" fill="#000000" /><rect x="79" y="136" width="62" height="14" fill="#ffffff" fill-opacity="1.0" /><rect x="77" y="134" width="66" height="18" fill="#ffffff" fill-opacity="0.9" /><rect x="75" y="132" width="70" height="22" fill="#ffffff" fill-opacity="0.75" /><rect x="74" y="131" width="72" height="24" fill="#ffffff" fill-opacity="0.5" /><rect x="73" y="130" width="74" height="26" fill="#ffffff" fill-opacity="0.25" /><rect x="71" y="128" width="78" height="30" fill="#ffffff" fill-opacity="0.1" /><text x="110" y="148" font-size="20" text-anchor="middle" font-family="mono" fill="#000000">type.0</text><circle r="4" cx="110" cy="168" fill="#000000" /><rect x="39" y="206" width="23" height="14" fill="#ffffff" fill-opacity="1.0" /><rect x="37" y="204" width="27" height="18" fill="#ffffff" fill-opacity="0.9" /><rect x="35" y="202" width="31" height="22" fill="#ffffff" fill-opacity="0.75" /><rect x="34" y="201" width="33" height="24" fill="#ffffff" fill-opacity="0.5" /><rect x="33" y="200" width="35" height="26" fill="#ffffff" fill-opacity="0.25" /><rect x="31" y="198" width="39" height="30" fill="#ffffff" fill-opacity="0.1" /><text x="50" y="218" font-size="20" text-anchor="middle" font-family="mono" fill="#000000">Int</text><circle r="4" cx="50" cy="188" fill="#000000" /><rect x="95" y="206" width="10" height="14" fill="#ffffff" fill-opacity="1.0" /><rect x="93" y="204" width="14" height="18" fill="#ffffff" fill-opacity="0.9" /><rect x="91" y="202" width="18" height="22" fill="#ffffff" fill-opacity="0.75" /><rect x="90" y="201" width="20" height="24" fill="#ffffff" fill-opacity="0.5" /><rect x="89" y="200" width="22" height="26" fill="#ffffff" fill-opacity="0.25" /><rect x="87" y="198" width="26" height="30" fill="#ffffff" fill-opacity="0.1" /><text x="100" y="218" font-size="20" text-anchor="middle" font-family="mono" fill="#000000">-&gt;</text><circle r="4" cx="100" cy="188" fill="#000000" /><rect x="142" y="206" width="36" height="14" fill="#ffffff" fill-opacity="1.0" /><rect x="140" y="204" width="40" height="18" fill="#ffffff" fill-opacity="0.9" /><rect x="138" y="202" width="44" height="22" fill="#ffffff" fill-opacity="0.75" /><rect x="137" y="201" width="46" height="24" fill="#ffffff" fill-opacity="0.5" /><rect x="136" y="200" width="48" height="26" fill="#ffffff" fill-opacity="0.25" /><rect x="134" y="198" width="52" height="30" fill="#ffffff" fill-opacity="0.1" /><text x="160" y="218" font-size="20" text-anchor="middle" font-family="mono" fill="#000000">Bool</text><circle r="4" cx="160" cy="188" fill="#000000" /><rect x="212" y="146" width="-3" height="14" fill="#ffffff" fill-opacity="1.0" /><rect x="210" y="144" width="1" height="18" fill="#ffffff" fill-opacity="0.9" /><rect x="208" y="142" width="5" height="22" fill="#ffffff" fill-opacity="0.75" /><rect x="207" y="141" width="7" height="24" fill="#ffffff" fill-opacity="0.5" /><rect x="206" y="140" width="9" height="26" fill="#ffffff" fill-opacity="0.25" /><rect x="204" y="138" width="13" height="30" fill="#ffffff" fill-opacity="0.1" /><text x="210" y="158" font-size="20" text-anchor="middle" font-family="mono" fill="#000000">)</text><circle r="4" cx="210" cy="128" fill="#000000" /><rect x="235" y="86" width="10" height="14" fill="#ffffff" fill-opacity="1.0" /><rect x="233" y="84" width="14" height="18" fill="#ffffff" fill-opacity="0.9" /><rect x="231" y="82" width="18" height="22" fill="#ffffff" fill-opacity="0.75" /><rect x="230" y="81" width="20" height="24" fill="#ffffff" fill-opacity="0.5" /><rect x="229" y="80" width="22" height="26" fill="#ffffff" fill-opacity="0.25" /><rect x="227" y="78" width="26" height="30" fill="#ffffff" fill-opacity="0.1" /><text x="240" y="98" font-size="20" text-anchor="middle" font-family="mono" fill="#000000">-&gt;</text><circle r="4" cx="240" cy="68" fill="#000000" /><rect x="282" y="86" width="36" height="14" fill="#ffffff" fill-opacity="1.0" /><rect x="280" y="84" width="40" height="18" fill="#ffffff" fill-opacity="0.9" /><rect x="278" y="82" width="44" height="22" fill="#ffffff" fill-opacity="0.75" /><rect x="277" y="81" width="46" height="24" fill="#ffffff" fill-opacity="0.5" /><rect x="276" y="80" width="48" height="26" fill="#ffffff" fill-opacity="0.25" /><rect x="274" y="78" width="52" height="30" fill="#ffffff" fill-opacity="0.1" /><text x="300" y="98" font-size="20" text-anchor="middle" font-family="mono" fill="#000000">Bool</text><circle r="4" cx="300" cy="68" fill="#000000" /></svg>