<?xml version="1.0" encoding="UTF-8"?>
<!DOCTYPE svg PUBLIC "-//W3C//DTD SVG 1.1//EN"
    "http://www.w3.org/Graphics/SVG/1.1/DTD/svg11.dtd">
<svg xmlns="http://www.w3.org/2000/svg" xmlns:xlink="http://www.w3.org/1999/xlink" version="1.1" width="180" height="108" viewBox="0 0 180 108"><rect width="180" height="108" fill="#ffffff" /><path d="M 90 48 , 30 68" stroke="#000000" stroke-width="1" stroke-linecap="round" /><path d="M 90 48 , 80 68" stroke="#000000" stroke-width="1" stroke-linecap="round" /><path d="M 90 48 , 140 68" stroke="#000000" stroke-width="1" stroke-linecap="round" /><rect x="59" y="16" width="62" height="14" fill="#ffffff" fill-opacity="1.0" /><rect x="57" y="14" width="66" height="18" fill="#ffffff" fill-opacity="0.9" /><rect x="55" y="12" width="70" height="22" fill="#ffffff" fill-opacity="0.75" /><rect x="54" y="11" width="72" height="24" fill="#ffffff" fill-opacity="0.5" /><rect x="53" y="10" width="74" height="26" fill="#ffffff" fill-opacity="0.25" /><rect x="51" y="8" width="78" height="30" fill="#ffffff" fill-opacity="0.1" /><text x="90" y="28" font-size="20" text-anchor="middle" font-family="mono" fill="#000000">type.0</text><circle r="4" cx="90" cy="48" fill="#000000" /><rect x="19" y="86" width="23" height="14" fill="#ffffff" fill-opacity="1.0" /><rect x="17" y="84" width="27" height="18" fill="#ffffff" fill-opacity="0.9" /><rect x="15" y="82" width="31" height="22" fill="#ffffff" fill-opacity="0.75" /><rect x="14" y="81" width="33" height="24" fill="#ffffff" fill-opacity="0.5" /><rect x="13" y="80" width="35" height="26" fill="#ffffff" fill-opacity="0.25" /><rect x="11" y="78" width="39" height="30" fill="#ffffff" fill-opacity="0.1" /><text x="30" y="98" font-size="20" text-anchor="middle" font-family="mono" fill="#000000">Int</text><circle r="4" cx="30" cy="68" fill="#000000" /><rect x="75" y="86" width="10" height="14" fill="#ffffff" fill-opacity="1.0" /><rect x="73" y="84" width="14" height="18" fill="#ffffff" fill-opacity="0.9" /><rect x="71" y="82" width="18" height="22" fill="#ffffff" fill-opacity="0.75" /><rect x="70" y="81" width="20" height="24" fill="#ffffff" fill-opacity="0.5" /><rect x="69" y="80" width="22" height="26" fill="#ffffff" fill-opacity="0.25" /><rect x="67" y="78" width="26" height="30" fill="#ffffff" fill-opacity="0.1" /><text x="80" y="98" font-size="20" text-anchor="middle" font-family="mono" fill="#000000">-&gt;</text><circle r="4" cx="80" cy="68" fill="#000000" /><rect x="122" y="86" width="36" height="14" fill="#ffffff" fill-opacity="1.0" /><rect x="120" y="84" width="40" height="18" fill="#ffffff" fill-opacity="0.9" /><rect x="118" y="82" width="44" height="22" fill="#ffffff" fill-opacity="0.75" /><rect x="117" y="81" width="46" height="24" fill="#ffffff" fill-opacity="0.5" /><rect x="116" y="80" width="48" height="26" fill="#ffffff" fill-opacity="0.25" /><rect x="114" y="78" width="52" height="30" fill="#ffffff" fill-opacity="0.1" /><text x="140" y="98" font-size="20" text-anchor="middle" font-family="mono" fill="#000000">Bool</text><circle r="4" cx="140" cy="68" fill="#000000" /></svg>