<?xml version="1.0" encoding="UTF-8"?>
<!DOCTYPE svg PUBLIC "-//W3C//DTD SVG 1.1//EN"
    "http://www.w3.org/Graphics/SVG/1.1/DTD/svg11.dtd">
<svg xmlns="http://www.w3.org/2000/svg" xmlns:xlink="http://www.w3.org/1999/xlink" version="1.1" width="300" height="168" viewBox="0 0 300 168"><rect width="300" height="168" fill="#ffffff" /><rect x="111" y="8" width="78" height="30" fill="#ffffff" fill-opacity="0.5" /><text x="150" y="28" font-size="20" text-anchor="middle" font-family="mono" fill="#000000">type.0</text><circle r="4" cx="150" cy="48" fill="#000000" /><rect x="11" y="78" width="39" height="30" fill="#ffffff" fill-opacity="0.5" /><text x="30" y="98" font-size="20" text-anchor="middle" font-family="mono" fill="#000000">Int</text><circle r="4" cx="30" cy="68" fill="#000000" /><rect x="67" y="78" width="26" height="30" fill="#ffffff" fill-opacity="0.5" /><text x="80" y="98" font-size="20" text-anchor="middle" font-family="mono" fill="#000000">-&gt;</text><circle r="4" cx="80" cy="68" fill="#000000" /><rect x="161" y="68" width="78" height="30" fill="#ffffff" fill-opacity="0.5" /><text x="200" y="88" font-size="20" text-anchor="middle" font-family="mono" fill="#000000">type.0</text><circle r="4" cx="200" cy="108" fill="#000000" /><rect x="114" y="138" width="52" height="30" fill="#ffffff" fill-opacity="0.5" /><text x="140" y="158" font-size="20" text-anchor="middle" font-family="mono" fill="#000000">Bool</text><circle r="4" cx="140" cy="128" fill="#000000" /><rect x="187" y="138" width="26" height="30" fill="#ffffff" fill-opacity="0.5" /><text x="200" y="158" font-size="20" text-anchor="middle" font-family="mono" fill="#000000">-&gt;</text><circle r="4" cx="200" cy="128" fill="#000000" /><rect x="234" y="138" width="52" height="30" fill="#ffffff" fill-opacity="0.5" /><text x="260" y="158" font-size="20" text-anchor="middle" font-family="mono" fill="#000000">Bool</text><circle r="4" cx="260" cy="128" fill="#000000" /><path d="M 150 48 , 30 68" stroke="#000000" stroke-width="1" stroke-linecap="round" /><path d="M 150 48 , 80 68" stroke="#000000" stroke-width="1" stroke-linecap="round" /><path d="M 150 48 , 200 108" stroke="#000000" stroke-width="1" stroke-linecap="round" /><path d="M 200 108 , 140 128" stroke="#000000" stroke-width="1" stroke-linecap="round" /><path d="M 200 108 , 200 128" stroke="#000000" stroke-width="1" stroke-linecap="round" /><path d="M 200 108 , 260 128" stroke="#000000" stroke-width="1" stroke-linecap="round" /></svg>