<?xml version="1.0" encoding="UTF-8"?>
<!DOCTYPE svg PUBLIC "-//W3C//DTD SVG 1.1//EN"
    "http://www.w3.org/Graphics/SVG/1.1/DTD/svg11.dtd">
<svg xmlns="http://www.w3.org/2000/svg" xmlns:xlink="http://www.w3.org/1999/xlink" version="1.1" width="300" height="168" viewBox="0 0 300 168"><rect width="300" height="168" fill="#ffffff" /><path d="M 150 48 , 30 68" stroke="#000000" stroke-width="1" stroke-linecap="round" /><path d="M 150 48 , 80 68" stroke="#000000" stroke-width="1" stroke-linecap="round" /><path d="M 150 48 , 200 108" stroke="#000000" stroke-width="1" stroke-linecap="round" /><path d="M 200 108 , 140 128" stroke="#000000" stroke-width="1" stroke-linecap="round" /><path d="M 200 108 , 200 128" stroke="#000000" stroke-width="1" stroke-linecap="round" /><path d="M 200 108 , 260 128" stroke="#000000" stroke-width="1" stroke-linecap="round" /><rect x="119" y="16" width="62" height="14" fill="#ffffff" fill-opacity="1.0" /><rect x="117" y="14" width="66" height="18" fill="#ffffff" fill-opacity="0.9" /><rect x="115" y="12" width="70" height="22" fill="#ffffff" fill-opacity="0.75" /><rect x="114" y="11" width="72" height="24" fill="#ffffff" fill-opacity="0.5" /><rect x="113" y="10" width="74" height="26" fill="#ffffff" fill-opacity="0.25" /><rect x="111" y="8" width="78" height="30" fill="#ffffff" fill-opacity="0.1" /><text x="150" y="28" font-size="20" text-anchor="middle" font-family="mono" fill="#000000">type.0</text><circle r="4" cx="150" cy="48" fill="#000000" /><rect x="19" y="86" width="23" height="14" fill="#ffffff" fill-opacity="1.0" /><rect x="17" y="84" width="27" height="18" fill="#ffffff" fill-opacity="0.9" /><rect x="15" y="82" width="31" height="22" fill="#ffffff" fill-opacity="0.75" /><rect x="14" y="81" width="33" height="24" fill="#ffffff" fill-opacity="0.5" /><rect x="13" y="80" width="35" height="26" fill="#ffffff" fill-opacity="0.25" /><rect x="11" y="78" width="39" height="30" fill="#ffffff" fill-opacity="0.1" /><text x="30" y="98" font-size="20" text-anchor="middle" font-family="mono" fill="#000000">Int</text><circle r="4" cx="30" cy="68" fill="#000000" /><rect x="75" y="86" width="10" height="14" fill="#ffffff" fill-opacity="1.0" /><rect x="73" y="84" width="14" height="18" fill="#ffffff" fill-opacity="0.9" /><rect x="71" y="82" width="18" height="22" fill="#ffffff" fill-opacity="0.75" /><rect x="70" y="81" width="20" height="24" fill="#ffffff" fill-opacity="0.5" /><rect x="69" y="80" width="22" height="26" fill="#ffffff" fill-opacity="0.25" /><rect x="67" y="78" width="26" height="30" fill="#ffffff" fill-opacity="0.1" /><text x="80" y="98" font-size="20" text-anchor="middle" font-family="mono" fill="#000000">-&gt;</text><circle r="4" cx="80" cy="68" fill="#000000" /><rect x="169" y="76" width="62" height="14" fill="#ffffff" fill-opacity="1.0" /><rect x="167" y="74" width="66" height="18" fill="#ffffff" fill-opacity="0.9" /><rect x="165" y="72" width="70" height="22" fill="#ffffff" fill-opacity="0.75" /><rect x="164" y="71" width="72" height="24" fill="#ffffff" fill-opacity="0.5" /><rect x="163" y="70" width="74" height="26" fill="#ffffff" fill-opacity="0.25" /><rect x="161" y="68" width="78" height="30" fill="#ffffff" fill-opacity="0.1" /><text x="200" y="88" font-size="20" text-anchor="middle" font-family="mono" fill="#000000">type.0</text><circle r="4" cx="200" cy="108" fill="#000000" /><rect x="122" y="146" width="36" height="14" fill="#ffffff" fill-opacity="1.0" /><rect x="120" y="144" width="40" height="18" fill="#ffffff" fill-opacity="0.9" /><rect x="118" y="142" width="44" height="22" fill="#ffffff" fill-opacity="0.75" /><rect x="117" y="141" width="46" height="24" fill="#ffffff" fill-opacity="0.5" /><rect x="116" y="140" width="48" height="26" fill="#ffffff" fill-opacity="0.25" /><rect x="114" y="138" width="52" height="30" fill="#ffffff" fill-opacity="0.1" /><text x="140" y="158" font-size="20" text-anchor="middle" font-family="mono" fill="#000000">Bool</text><circle r="4" cx="140" cy="128" fill="#000000" /><rect x="195" y="146" width="10" height="14" fill="#ffffff" fill-opacity="1.0" /><rect x="193" y="144" width="14" height="18" fill="#ffffff" fill-opacity="0.9" /><rect x="191" y="142" width="18" height="22" fill="#ffffff" fill-opacity="0.75" /><rect x="190" y="141" width="20" height="24" fill="#ffffff" fill-opacity="0.5" /><rect x="189" y="140" width="22" height="26" fill="#ffffff" fill-opacity="0.25" /><rect x="187" y="138" width="26" height="30" fill="#ffffff" fill-opacity="0.1" /><text x="200" y="158" font-size="20" text-anchor="middle" font-family="mono" fill="#000000">-&gt;</text><circle r="4" cx="200" cy="128" fill="#000000" /><rect x="242" y="146" width="36" height="14" fill="#ffffff" fill-opacity="1.0" /><rect x="240" y="144" width="40" height="18" fill="#ffffff" fill-opacity="0.9" /><rect x="238" y="142" width="44" height="22" fill="#ffffff" fill-opacity="0.75" /><rect x="237" y="141" width="46" height="24" fill="#ffffff" fill-opacity="0.5" /><rect x="236" y="140" width="48" height="26" fill="#ffffff" fill-opacity="0.25" /><rect x="234" y="138" width="52" height="30" fill="#ffffff" fill-opacity="0.1" /><text x="260" y="158" font-size="20" text-anchor="middle" font-family="mono" fill="#000000">Bool</text><circle r="4" cx="260" cy="128" fill="#000000" /></svg>