<?xml version="1.0" encoding="UTF-8"?>
<!DOCTYPE svg PUBLIC "-//W3C//DTD SVG 1.1//EN"
    "http://www.w3.org/Graphics/SVG/1.1/DTD/svg11.dtd">
<svg xmlns="http://www.w3.org/2000/svg" xmlns:xlink="http://www.w3.org/1999/xlink" version="1.1" width="340" height="228" viewBox="0 0 340 228"><rect width="340" height="228" fill="#ffffff" /><rect x="131" y="8" width="78" height="30" fill="#ffffff" fill-opacity="0.5" /><text x="170" y="28" font-size="20" text-anchor="middle" font-family="mono" fill="#000000">type.0</text><circle r="4" cx="170" cy="48" fill="#000000" /><rect x="45" y="68" width="130" height="30" fill="#ffffff" fill-opacity="0.5" /><text x="110" y="88" font-size="20" text-anchor="middle" font-family="mono" fill="#000000">basetype.2</text><circle r="4" cx="110" cy="108" fill="#000000" /><rect x="4" y="138" width="13" height="30" fill="#ffffff" fill-opacity="0.5" /><text x="10" y="158" font-size="20" text-anchor="middle" font-family="mono" fill="#000000">(</text><circle r="4" cx="10" cy="128" fill="#000000" /><rect x="71" y="128" width="78" height="30" fill="#ffffff" fill-opacity="0.5" /><text x="110" y="148" font-size="20" text-anchor="middle" font-family="mono" fill="#000000">type.0</text><circle r="4" cx="110" cy="168" fill="#000000" /><rect x="31" y="198" width="39" height="30" fill="#ffffff" fill-opacity="0.5" /><text x="50" y="218" font-size="20" text-anchor="middle" font-family="mono" fill="#000000">Int</text><circle r="4" cx="50" cy="188" fill="#000000" /><rect x="87" y="198" width="26" height="30" fill="#ffffff" fill-opacity="0.5" /><text x="100" y="218" font-size="20" text-anchor="middle" font-family="mono" fill="#000000">-&gt;</text><circle r="4" cx="100" cy="188" fill="#000000" /><rect x="134" y="198" width="52" height="30" fill="#ffffff" fill-opacity="0.5" /><text x="160" y="218" font-size="20" text-anchor="middle" font-family="mono" fill="#000000">Bool</text><circle r="4" cx="160" cy="188" fill="#000000" /><rect x="204" y="138" width="13" height="30" fill="#ffffff" fill-opacity="0.5" /><text x="210" y="158" font-size="20" text-anchor="middle" font-family="mono" fill="#000000">)</text><circle r="4" cx="210" cy="128" fill="#000000" /><rect x="227" y="78" width="26" height="30" fill="#ffffff" fill-opacity="0.5" /><text x="240" y="98" font-size="20" text-anchor="middle" font-family="mono" fill="#000000">-&gt;</text><circle r="4" cx="240" cy="68" fill="#000000" /><rect x="274" y="78" width="52" height="30" fill="#ffffff" fill-opacity="0.5" /><text x="300" y="98" font-size="20" text-anchor="middle" font-family="mono" fill="#000000">Bool</text><circle r="4" cx="300" cy="68" fill="#000000" /><path d="M 170 48 , 110 108" stroke="#000000" stroke-width="1" stroke-linecap="round" /><path d="M 170 48 , 240 68" stroke="#000000" stroke-width="1" stroke-linecap="round" /><path d="M 170 48 , 300 68" stroke="#000000" stroke-width="1" stroke-linecap="round" /><path d="M 110 108 , 10 128" stroke="#000000" stroke-width="1" stroke-linecap="round" /><path d="M 110 108 , 110 168" stroke="#000000" stroke-width="1" stroke-linecap="round" /><path d="M 110 108 , 210 128" stroke="#000000" stroke-width="1" stroke-linecap="round" /><path d="M 110 168 , 50 188" stroke="#000000" stroke-width="1" stroke-linecap="round" /><path d="M 110 168 , 100 188" stroke="#000000" stroke-width="1" stroke-linecap="round" /><path d="M 110 168 , 160 188" stroke="#000000" stroke-width="1" stroke-linecap="round" /></svg>