<?xml version="1.0" encoding="UTF-8"?>
<!DOCTYPE svg PUBLIC "-//W3C//DTD SVG 1.1//EN"
    "http://www.w3.org/Graphics/SVG/1.1/DTD/svg11.dtd">
<svg xmlns="http://www.w3.org/2000/svg" xmlns:xlink="http://www.w3.org/1999/xlink" version="1.1" width="1840" height="720" viewBox="0 0 1840 720"><rect width="1840" height="720" fill="#000000" /><path d="M 1179 300 , 655 180" stroke="#00ff00" stroke-width="1" stroke-linecap="round" /><path d="M 917 300 , 655 180" stroke="#00ff00" stroke-width="1" stroke-linecap="round" /><path d="M 655 300 , 655 180" stroke="#00ff00" stroke-width="1" stroke-linecap="round" /><path d="M 393 420 , 393 300" stroke="#00ff00" stroke-width="1" stroke-linecap="round" /><path d="M 393 300 , 655 180" stroke="#00ff00" stroke-width="1" stroke-linecap="round" /><path d="M 131 300 , 655 180" stroke="#00ff00" stroke-width="1" stroke-linecap="round" /><path d="M 393 540 , 131 420" stroke="#00ff00" stroke-width="1" stroke-linecap="round" /><path d="M 1441 300 , 655 180" stroke="#00ff00" stroke-width="1" stroke-linecap="round" /><path d="M 131 540 , 131 420" stroke="#00ff00" stroke-width="1" stroke-linecap="round" /><path d="M 1703 300 , 1179 180" stroke="#00ff00" stroke-width="1" stroke-linecap="round" /><path d="M 131 420 , 393 300" stroke="#00ff00" stroke-width="1" stroke-linecap="round" /><path d="M 131 420 , 131 300" stroke="#00ff00" stroke-width="1" stroke-linecap="round" /><path d="M 131 420 , 1441 300" stroke="#00ff00" stroke-width="1" stroke-linecap="round" /><path d="M 1179 420 , 1441 300" stroke="#00ff00" stroke-width="1" stroke-linecap="round" /><path d="M 655 180 , 920 60" stroke="#00ff00" stroke-width="1" stroke-linecap="round" stroke-dasharray="1 , 5" /><path d="M 1179 180 , 920 60" stroke="#00ff00" stroke-width="1" stroke-linecap="round" stroke-dasharray="1 , 5" /><path d="M 917 180 , 920 60" stroke="#00ff00" stroke-width="1" stroke-linecap="round" stroke-dasharray="1 , 5" /><path d="M 393 180 , 920 60" stroke="#00ff00" stroke-width="1" stroke-linecap="round" stroke-dasharray="1 , 5" /><path d="M 920 660 , 1179 300" stroke="#00ff00" stroke-width="1" stroke-linecap="round" stroke-dasharray="1 , 5" /><path d="M 920 660 , 917 300" stroke="#00ff00" stroke-width="1" stroke-linecap="round" stroke-dasharray="1 , 5" /><path d="M 920 660 , 655 300" stroke="#00ff00" stroke-width="1" stroke-linecap="round" stroke-dasharray="1 , 5" /><path d="M 920 660 , 393 420" stroke="#00ff00" stroke-width="1" stroke-linecap="round" stroke-dasharray="1 , 5" /><path d="M 920 660 , 393 540" stroke="#00ff00" stroke-width="1" stroke-linecap="round" stroke-dasharray="1 , 5" /><path d="M 920 660 , 131 540" stroke="#00ff00" stroke-width="1" stroke-linecap="round" stroke-dasharray="1 , 5" /><path d="M 920 660 , 1703 300" stroke="#00ff00" stroke-width="1" stroke-linecap="round" stroke-dasharray="1 , 5" /><path d="M 920 660 , 917 180" stroke="#00ff00" stroke-width="1" stroke-linecap="round" stroke-dasharray="1 , 5" /><path d="M 920 660 , 393 180" stroke="#00ff00" stroke-width="1" stroke-linecap="round" stroke-dasharray="1 , 5" /><path d="M 920 660 , 1179 420" stroke="#00ff00" stroke-width="1" stroke-linecap="round" stroke-dasharray="1 , 5" /><rect x="914" y="670" width="13" height="30" fill="#000000" fill-opacity="0.5" /><text x="920" y="690" font-size="20" text-anchor="middle" font-family="mono" fill="#00ff00">ɛ</text><circle r="4" cx="920" cy="660" fill="#00ff00" /><rect x="92" y="550" width="78" height="30" fill="#000000" fill-opacity="0.5" /><text x="131" y="570" font-size="20" text-anchor="middle" font-family="mono" fill="#00ff00">number</text><circle r="4" cx="131" cy="540" fill="#00ff00" /><rect x="367" y="550" width="52" height="30" fill="#000000" fill-opacity="0.5" /><text x="393" y="570" font-size="20" text-anchor="middle" font-family="mono" fill="#00ff00">bool</text><circle r="4" cx="393" cy="540" fill="#00ff00" /><rect x="99" y="430" width="65" height="30" fill="#000000" fill-opacity="0.5" /><text x="131" y="450" font-size="20" text-anchor="middle" font-family="mono" fill="#00ff00">value</text><circle r="4" cx="131" cy="420" fill="#00ff00" /><rect x="335" y="430" width="117" height="30" fill="#000000" fill-opacity="0.5" /><text x="393" y="450" font-size="20" text-anchor="middle" font-family="mono" fill="#00ff00">(e)(→)in0</text><circle r="4" cx="393" cy="420" fill="#00ff00" /><rect x="1160" y="430" width="39" height="30" fill="#000000" fill-opacity="0.5" /><text x="1179" y="450" font-size="20" text-anchor="middle" font-family="mono" fill="#00ff00">var</text><circle r="4" cx="1179" cy="420" fill="#00ff00" /><rect x="73" y="260" width="117" height="30" fill="#000000" fill-opacity="0.5" /><text x="131" y="280" font-size="20" text-anchor="middle" font-family="mono" fill="#00ff00">(e)(⊢)in1</text><circle r="4" cx="131" cy="300" fill="#00ff00" /><rect x="328" y="260" width="130" height="30" fill="#000000" fill-opacity="0.5" /><text x="393" y="280" font-size="20" text-anchor="middle" font-family="mono" fill="#00ff00">(e)(→*)in0</text><circle r="4" cx="393" cy="300" fill="#00ff00" /><rect x="590" y="260" width="130" height="30" fill="#000000" fill-opacity="0.5" /><text x="655" y="280" font-size="20" text-anchor="middle" font-family="mono" fill="#00ff00">!(e)(⊢)in1</text><circle r="4" cx="655" cy="300" fill="#00ff00" /><rect x="846" y="260" width="143" height="30" fill="#000000" fill-opacity="0.5" /><text x="917" y="280" font-size="20" text-anchor="middle" font-family="mono" fill="#00ff00">!(e)(→*)in0</text><circle r="4" cx="917" cy="300" fill="#00ff00" /><rect x="1114" y="260" width="130" height="30" fill="#000000" fill-opacity="0.5" /><text x="1179" y="280" font-size="20" text-anchor="middle" font-family="mono" fill="#00ff00">!(e)(→)in0</text><circle r="4" cx="1179" cy="300" fill="#00ff00" /><rect x="1428" y="260" width="26" height="30" fill="#000000" fill-opacity="0.5" /><text x="1441" y="280" font-size="20" text-anchor="middle" font-family="mono" fill="#00ff00">eL</text><circle r="4" cx="1441" cy="300" fill="#00ff00" /><rect x="1671" y="260" width="65" height="30" fill="#000000" fill-opacity="0.5" /><text x="1703" y="280" font-size="20" text-anchor="middle" font-family="mono" fill="#00ff00">typeL</text><circle r="4" cx="1703" cy="300" fill="#00ff00" /><rect x="283" y="140" width="221" height="30" fill="#000000" fill-opacity="0.5" /><text x="393" y="160" font-size="20" text-anchor="middle" font-family="mono" fill="#00ff00">typingEnvironment</text><circle r="4" cx="393" cy="180" fill="#00ff00" /><rect x="649" y="140" width="13" height="30" fill="#000000" fill-opacity="0.5" /><text x="655" y="160" font-size="20" text-anchor="middle" font-family="mono" fill="#00ff00">e</text><circle r="4" cx="655" cy="180" fill="#00ff00" /><rect x="878" y="140" width="78" height="30" fill="#000000" fill-opacity="0.5" /><text x="917" y="160" font-size="20" text-anchor="middle" font-family="mono" fill="#00ff00">typing</text><circle r="4" cx="917" cy="180" fill="#00ff00" /><rect x="1153" y="140" width="52" height="30" fill="#000000" fill-opacity="0.5" /><text x="1179" y="160" font-size="20" text-anchor="middle" font-family="mono" fill="#00ff00">type</text><circle r="4" cx="1179" cy="180" fill="#00ff00" /><rect x="907" y="20" width="26" height="30" fill="#000000" fill-opacity="0.5" /><text x="920" y="40" font-size="20" text-anchor="middle" font-family="mono" fill="#00ff00">.*</text><circle r="4" cx="920" cy="60" fill="#00ff00" /></svg>