<?xml version="1.0" encoding="UTF-8"?>
<!DOCTYPE svg PUBLIC "-//W3C//DTD SVG 1.1//EN"
    "http://www.w3.org/Graphics/SVG/1.1/DTD/svg11.dtd">
<svg xmlns="http://www.w3.org/2000/svg" xmlns:xlink="http://www.w3.org/1999/xlink" version="1.1" width="2760" height="840" viewBox="0 0 2760 840"><rect width="2760" height="840" fill="#000000" /><path d="M 173 300 , 345 180" stroke="#00ff00" stroke-width="1" stroke-linecap="round" /><path d="M 518 300 , 345 180" stroke="#00ff00" stroke-width="1" stroke-linecap="round" /><path d="M 863 300 , 345 180" stroke="#00ff00" stroke-width="1" stroke-linecap="round" /><path d="M 1208 300 , 345 180" stroke="#00ff00" stroke-width="1" stroke-linecap="round" /><path d="M 1553 300 , 345 180" stroke="#00ff00" stroke-width="1" stroke-linecap="round" /><path d="M 1898 300 , 1035 180" stroke="#00ff00" stroke-width="1" stroke-linecap="round" /><path d="M 2243 300 , 1035 180" stroke="#00ff00" stroke-width="1" stroke-linecap="round" /><path d="M 2588 300 , 2415 180" stroke="#00ff00" stroke-width="1" stroke-linecap="round" /><path d="M 690 660 , 690 540" stroke="#00ff00" stroke-width="1" stroke-linecap="round" /><path d="M 690 420 , 173 300" stroke="#00ff00" stroke-width="1" stroke-linecap="round" /><path d="M 690 420 , 518 300" stroke="#00ff00" stroke-width="1" stroke-linecap="round" /><path d="M 690 420 , 863 300" stroke="#00ff00" stroke-width="1" stroke-linecap="round" /><path d="M 690 420 , 1208 300" stroke="#00ff00" stroke-width="1" stroke-linecap="round" /><path d="M 690 420 , 1553 300" stroke="#00ff00" stroke-width="1" stroke-linecap="round" /><path d="M 2070 660 , 690 540" stroke="#00ff00" stroke-width="1" stroke-linecap="round" /><path d="M 2070 420 , 1898 300" stroke="#00ff00" stroke-width="1" stroke-linecap="round" /><path d="M 2070 420 , 2243 300" stroke="#00ff00" stroke-width="1" stroke-linecap="round" /><path d="M 690 540 , 690 420" stroke="#00ff00" stroke-width="1" stroke-linecap="round" /><path d="M 2070 540 , 690 420" stroke="#00ff00" stroke-width="1" stroke-linecap="round" /><path d="M 345 180 , 1380 60" stroke="#00ff00" stroke-width="1" stroke-linecap="round" stroke-dasharray="5" /><path d="M 1035 180 , 1380 60" stroke="#00ff00" stroke-width="1" stroke-linecap="round" stroke-dasharray="5" /><path d="M 1725 180 , 1380 60" stroke="#00ff00" stroke-width="1" stroke-linecap="round" stroke-dasharray="5" /><path d="M 2415 180 , 1380 60" stroke="#00ff00" stroke-width="1" stroke-linecap="round" stroke-dasharray="5" /><path d="M 1380 780 , 2588 300" stroke="#00ff00" stroke-width="1" stroke-linecap="round" stroke-dasharray="5" /><path d="M 1380 780 , 690 660" stroke="#00ff00" stroke-width="1" stroke-linecap="round" stroke-dasharray="5" /><path d="M 1380 780 , 2070 660" stroke="#00ff00" stroke-width="1" stroke-linecap="round" stroke-dasharray="5" /><path d="M 1380 780 , 2070 420" stroke="#00ff00" stroke-width="1" stroke-linecap="round" stroke-dasharray="5" /><path d="M 1380 780 , 1725 180" stroke="#00ff00" stroke-width="1" stroke-linecap="round" stroke-dasharray="5" /><path d="M 1380 780 , 2070 540" stroke="#00ff00" stroke-width="1" stroke-linecap="round" stroke-dasharray="5" /><rect x="1374" y="790" width="13" height="30" fill="#000000" fill-opacity="0.5" /><text x="1380" y="810" font-size="20" text-anchor="middle" font-family="mono" fill="#00ff00">ɛ</text><circle r="4" cx="1380" cy="780" fill="#00ff00" /><rect x="664" y="670" width="52" height="30" fill="#000000" fill-opacity="0.5" /><text x="690" y="690" font-size="20" text-anchor="middle" font-family="mono" fill="#00ff00">bool</text><circle r="4" cx="690" cy="660" fill="#00ff00" /><rect x="2031" y="670" width="78" height="30" fill="#000000" fill-opacity="0.5" /><text x="2070" y="690" font-size="20" text-anchor="middle" font-family="mono" fill="#00ff00">number</text><circle r="4" cx="2070" cy="660" fill="#00ff00" /><rect x="658" y="550" width="65" height="30" fill="#000000" fill-opacity="0.5" /><text x="690" y="570" font-size="20" text-anchor="middle" font-family="mono" fill="#00ff00">value</text><circle r="4" cx="690" cy="540" fill="#00ff00" /><rect x="2051" y="550" width="39" height="30" fill="#000000" fill-opacity="0.5" /><text x="2070" y="570" font-size="20" text-anchor="middle" font-family="mono" fill="#00ff00">var</text><circle r="4" cx="2070" cy="540" fill="#00ff00" /><rect x="677" y="380" width="26" height="30" fill="#000000" fill-opacity="0.5" /><text x="690" y="400" font-size="20" text-anchor="middle" font-family="mono" fill="#00ff00">eL</text><circle r="4" cx="690" cy="420" fill="#00ff00" /><rect x="2038" y="380" width="65" height="30" fill="#000000" fill-opacity="0.5" /><text x="2070" y="400" font-size="20" text-anchor="middle" font-family="mono" fill="#00ff00">typeL</text><circle r="4" cx="2070" cy="420" fill="#00ff00" /><rect x="108" y="260" width="130" height="30" fill="#000000" fill-opacity="0.5" /><text x="173" y="280" font-size="20" text-anchor="middle" font-family="mono" fill="#00ff00">(e)(::)in0</text><circle r="4" cx="173" cy="300" fill="#00ff00" /><rect x="460" y="260" width="117" height="30" fill="#000000" fill-opacity="0.5" /><text x="518" y="280" font-size="20" text-anchor="middle" font-family="mono" fill="#00ff00">(e)(→)in0</text><circle r="4" cx="518" cy="300" fill="#00ff00" /><rect x="798" y="260" width="130" height="30" fill="#000000" fill-opacity="0.5" /><text x="863" y="280" font-size="20" text-anchor="middle" font-family="mono" fill="#00ff00">(e)(→*)in0</text><circle r="4" cx="863" cy="300" fill="#00ff00" /><rect x="1150" y="260" width="117" height="30" fill="#000000" fill-opacity="0.5" /><text x="1208" y="280" font-size="20" text-anchor="middle" font-family="mono" fill="#00ff00">(e)(⊢)in1</text><circle r="4" cx="1208" cy="300" fill="#00ff00" /><rect x="1495" y="260" width="117" height="30" fill="#000000" fill-opacity="0.5" /><text x="1553" y="280" font-size="20" text-anchor="middle" font-family="mono" fill="#00ff00">(e)(✓)in0</text><circle r="4" cx="1553" cy="300" fill="#00ff00" /><rect x="1814" y="260" width="169" height="30" fill="#000000" fill-opacity="0.5" /><text x="1898" y="280" font-size="20" text-anchor="middle" font-family="mono" fill="#00ff00">(type)(==)in0</text><circle r="4" cx="1898" cy="300" fill="#00ff00" /><rect x="2159" y="260" width="169" height="30" fill="#000000" fill-opacity="0.5" /><text x="2243" y="280" font-size="20" text-anchor="middle" font-family="mono" fill="#00ff00">(type)(==)in1</text><circle r="4" cx="2243" cy="300" fill="#00ff00" /><rect x="2426" y="260" width="325" height="30" fill="#000000" fill-opacity="0.5" /><text x="2588" y="280" font-size="20" text-anchor="middle" font-family="mono" fill="#00ff00">(typingEnvironment)(⊢)in0</text><circle r="4" cx="2588" cy="300" fill="#00ff00" /><rect x="339" y="140" width="13" height="30" fill="#000000" fill-opacity="0.5" /><text x="345" y="160" font-size="20" text-anchor="middle" font-family="mono" fill="#00ff00">e</text><circle r="4" cx="345" cy="180" fill="#00ff00" /><rect x="1009" y="140" width="52" height="30" fill="#000000" fill-opacity="0.5" /><text x="1035" y="160" font-size="20" text-anchor="middle" font-family="mono" fill="#00ff00">type</text><circle r="4" cx="1035" cy="180" fill="#00ff00" /><rect x="1686" y="140" width="78" height="30" fill="#000000" fill-opacity="0.5" /><text x="1725" y="160" font-size="20" text-anchor="middle" font-family="mono" fill="#00ff00">typing</text><circle r="4" cx="1725" cy="180" fill="#00ff00" /><rect x="2305" y="140" width="221" height="30" fill="#000000" fill-opacity="0.5" /><text x="2415" y="160" font-size="20" text-anchor="middle" font-family="mono" fill="#00ff00">typingEnvironment</text><circle r="4" cx="2415" cy="180" fill="#00ff00" /><rect x="1367" y="20" width="26" height="30" fill="#000000" fill-opacity="0.5" /><text x="1380" y="40" font-size="20" text-anchor="middle" font-family="mono" fill="#00ff00">.*</text><circle r="4" cx="1380" cy="60" fill="#00ff00" /></svg>