<?xml version="1.0" encoding="UTF-8"?>
<!DOCTYPE svg PUBLIC "-//W3C//DTD SVG 1.1//EN"
    "http://www.w3.org/Graphics/SVG/1.1/DTD/svg11.dtd">
<svg xmlns="http://www.w3.org/2000/svg" xmlns:xlink="http://www.w3.org/1999/xlink" version="1.1" width="700" height="228" viewBox="0 0 700 228"><rect width="700" height="228" fill="#000000" /><rect x="331" y="8" width="39" height="30" fill="#000000" fill-opacity="0.5" /><text x="350" y="28" font-size="20" text-anchor="middle" font-family="mono" fill="#00ff00">e.2</text><circle r="4" cx="350" cy="48" fill="#00ff00" /><rect x="144" y="68" width="52" height="30" fill="#000000" fill-opacity="0.5" /><text x="170" y="88" font-size="20" text-anchor="middle" font-family="mono" fill="#00ff00">eL.2</text><circle r="4" cx="170" cy="108" fill="#00ff00" /><rect x="4" y="138" width="13" height="30" fill="#000000" fill-opacity="0.5" /><text x="10" y="158" font-size="20" text-anchor="middle" font-family="mono" fill="#00ff00">(</text><circle r="4" cx="10" cy="128" fill="#00ff00" /><rect x="24" y="138" width="13" height="30" fill="#000000" fill-opacity="0.5" /><text x="30" y="158" font-size="20" text-anchor="middle" font-family="mono" fill="#00ff00">\</text><circle r="4" cx="30" cy="128" fill="#00ff00" /><rect x="51" y="138" width="39" height="30" fill="#000000" fill-opacity="0.5" /><text x="70" y="158" font-size="20" text-anchor="middle" font-family="mono" fill="#00ff00">&lt;f&gt;</text><circle r="4" cx="70" cy="128" fill="#00ff00" /><rect x="104" y="138" width="13" height="30" fill="#000000" fill-opacity="0.5" /><text x="110" y="158" font-size="20" text-anchor="middle" font-family="mono" fill="#00ff00">:</text><circle r="4" cx="110" cy="128" fill="#00ff00" /><rect x="131" y="138" width="39" height="30" fill="#000000" fill-opacity="0.5" /><text x="150" y="158" font-size="20" text-anchor="middle" font-family="mono" fill="#00ff00">Int</text><circle r="4" cx="150" cy="128" fill="#00ff00" /><rect x="184" y="138" width="13" height="30" fill="#000000" fill-opacity="0.5" /><text x="190" y="158" font-size="20" text-anchor="middle" font-family="mono" fill="#00ff00">.</text><circle r="4" cx="190" cy="128" fill="#00ff00" /><rect x="241" y="128" width="39" height="30" fill="#000000" fill-opacity="0.5" /><text x="260" y="148" font-size="20" text-anchor="middle" font-family="mono" fill="#00ff00">e.2</text><circle r="4" cx="260" cy="168" fill="#00ff00" /><rect x="211" y="198" width="39" height="30" fill="#000000" fill-opacity="0.5" /><text x="230" y="218" font-size="20" text-anchor="middle" font-family="mono" fill="#00ff00">&lt;f&gt;</text><circle r="4" cx="230" cy="188" fill="#00ff00" /><rect x="271" y="198" width="39" height="30" fill="#000000" fill-opacity="0.5" /><text x="290" y="218" font-size="20" text-anchor="middle" font-family="mono" fill="#00ff00">&lt;5&gt;</text><circle r="4" cx="290" cy="188" fill="#00ff00" /><rect x="324" y="138" width="13" height="30" fill="#000000" fill-opacity="0.5" /><text x="330" y="158" font-size="20" text-anchor="middle" font-family="mono" fill="#00ff00">)</text><circle r="4" cx="330" cy="128" fill="#00ff00" /><rect x="494" y="68" width="52" height="30" fill="#000000" fill-opacity="0.5" /><text x="520" y="88" font-size="20" text-anchor="middle" font-family="mono" fill="#00ff00">eL.2</text><circle r="4" cx="520" cy="108" fill="#00ff00" /><rect x="344" y="138" width="13" height="30" fill="#000000" fill-opacity="0.5" /><text x="350" y="158" font-size="20" text-anchor="middle" font-family="mono" fill="#00ff00">(</text><circle r="4" cx="350" cy="128" fill="#00ff00" /><rect x="364" y="138" width="13" height="30" fill="#000000" fill-opacity="0.5" /><text x="370" y="158" font-size="20" text-anchor="middle" font-family="mono" fill="#00ff00">\</text><circle r="4" cx="370" cy="128" fill="#00ff00" /><rect x="391" y="138" width="39" height="30" fill="#000000" fill-opacity="0.5" /><text x="410" y="158" font-size="20" text-anchor="middle" font-family="mono" fill="#00ff00">&lt;i&gt;</text><circle r="4" cx="410" cy="128" fill="#00ff00" /><rect x="444" y="138" width="13" height="30" fill="#000000" fill-opacity="0.5" /><text x="450" y="158" font-size="20" text-anchor="middle" font-family="mono" fill="#00ff00">:</text><circle r="4" cx="450" cy="128" fill="#00ff00" /><rect x="471" y="138" width="39" height="30" fill="#000000" fill-opacity="0.5" /><text x="490" y="158" font-size="20" text-anchor="middle" font-family="mono" fill="#00ff00">Int</text><circle r="4" cx="490" cy="128" fill="#00ff00" /><rect x="524" y="138" width="13" height="30" fill="#000000" fill-opacity="0.5" /><text x="530" y="158" font-size="20" text-anchor="middle" font-family="mono" fill="#00ff00">.</text><circle r="4" cx="530" cy="128" fill="#00ff00" /><rect x="591" y="128" width="39" height="30" fill="#000000" fill-opacity="0.5" /><text x="610" y="148" font-size="20" text-anchor="middle" font-family="mono" fill="#00ff00">e.0</text><circle r="4" cx="610" cy="168" fill="#00ff00" /><rect x="551" y="198" width="39" height="30" fill="#000000" fill-opacity="0.5" /><text x="570" y="218" font-size="20" text-anchor="middle" font-family="mono" fill="#00ff00">&lt;i&gt;</text><circle r="4" cx="570" cy="188" fill="#00ff00" /><rect x="604" y="198" width="13" height="30" fill="#000000" fill-opacity="0.5" /><text x="610" y="218" font-size="20" text-anchor="middle" font-family="mono" fill="#00ff00">+</text><circle r="4" cx="610" cy="188" fill="#00ff00" /><rect x="631" y="198" width="39" height="30" fill="#000000" fill-opacity="0.5" /><text x="650" y="218" font-size="20" text-anchor="middle" font-family="mono" fill="#00ff00">&lt;1&gt;</text><circle r="4" cx="650" cy="188" fill="#00ff00" /><rect x="684" y="138" width="13" height="30" fill="#000000" fill-opacity="0.5" /><text x="690" y="158" font-size="20" text-anchor="middle" font-family="mono" fill="#00ff00">)</text><circle r="4" cx="690" cy="128" fill="#00ff00" /><path d="M 350 48 , 170 108" stroke="#00ff00" stroke-width="1" stroke-linecap="round" /><path d="M 350 48 , 520 108" stroke="#00ff00" stroke-width="1" stroke-linecap="round" /><path d="M 520 108 , 350 128" stroke="#00ff00" stroke-width="1" stroke-linecap="round" /><path d="M 520 108 , 370 128" stroke="#00ff00" stroke-width="1" stroke-linecap="round" /><path d="M 520 108 , 410 128" stroke="#00ff00" stroke-width="1" stroke-linecap="round" /><path d="M 520 108 , 450 128" stroke="#00ff00" stroke-width="1" stroke-linecap="round" /><path d="M 520 108 , 490 128" stroke="#00ff00" stroke-width="1" stroke-linecap="round" /><path d="M 520 108 , 530 128" stroke="#00ff00" stroke-width="1" stroke-linecap="round" /><path d="M 520 108 , 610 168" stroke="#00ff00" stroke-width="1" stroke-linecap="round" /><path d="M 520 108 , 690 128" stroke="#00ff00" stroke-width="1" stroke-linecap="round" /><path d="M 610 168 , 570 188" stroke="#00ff00" stroke-width="1" stroke-linecap="round" /><path d="M 610 168 , 610 188" stroke="#00ff00" stroke-width="1" stroke-linecap="round" /><path d="M 610 168 , 650 188" stroke="#00ff00" stroke-width="1" stroke-linecap="round" /><path d="M 170 108 , 10 128" stroke="#00ff00" stroke-width="1" stroke-linecap="round" /><path d="M 170 108 , 30 128" stroke="#00ff00" stroke-width="1" stroke-linecap="round" /><path d="M 170 108 , 70 128" stroke="#00ff00" stroke-width="1" stroke-linecap="round" /><path d="M 170 108 , 110 128" stroke="#00ff00" stroke-width="1" stroke-linecap="round" /><path d="M 170 108 , 150 128" stroke="#00ff00" stroke-width="1" stroke-linecap="round" /><path d="M 170 108 , 190 128" stroke="#00ff00" stroke-width="1" stroke-linecap="round" /><path d="M 170 108 , 260 168" stroke="#00ff00" stroke-width="1" stroke-linecap="round" /><path d="M 170 108 , 330 128" stroke="#00ff00" stroke-width="1" stroke-linecap="round" /><path d="M 260 168 , 230 188" stroke="#00ff00" stroke-width="1" stroke-linecap="round" /><path d="M 260 168 , 290 188" stroke="#00ff00" stroke-width="1" stroke-linecap="round" /></svg>