<?xml version="1.0" encoding="UTF-8"?>
<!DOCTYPE svg PUBLIC "-//W3C//DTD SVG 1.1//EN"
    "http://www.w3.org/Graphics/SVG/1.1/DTD/svg11.dtd">
<svg xmlns="http://www.w3.org/2000/svg" xmlns:xlink="http://www.w3.org/1999/xlink" version="1.1" width="960" height="720" viewBox="0 0 960 720"><rect width="960" height="720" fill="#000000" /><path d="M 240 540 , 240 420" stroke="#00ff00" stroke-width="1" stroke-linecap="round" /><path d="M 240 300 , 120 180" stroke="#00ff00" stroke-width="1" stroke-linecap="round" /><path d="M 720 540 , 240 420" stroke="#00ff00" stroke-width="1" stroke-linecap="round" /><path d="M 720 300 , 360 180" stroke="#00ff00" stroke-width="1" stroke-linecap="round" /><path d="M 240 420 , 240 300" stroke="#00ff00" stroke-width="1" stroke-linecap="round" /><path d="M 720 420 , 240 300" stroke="#00ff00" stroke-width="1" stroke-linecap="round" /><path d="M 120 180 , 480 60" stroke="#00ff00" stroke-width="1" stroke-linecap="round" stroke-dasharray="5" /><path d="M 360 180 , 480 60" stroke="#00ff00" stroke-width="1" stroke-linecap="round" stroke-dasharray="5" /><path d="M 600 180 , 480 60" stroke="#00ff00" stroke-width="1" stroke-linecap="round" stroke-dasharray="5" /><path d="M 840 180 , 480 60" stroke="#00ff00" stroke-width="1" stroke-linecap="round" stroke-dasharray="5" /><path d="M 480 660 , 240 540" stroke="#00ff00" stroke-width="1" stroke-linecap="round" stroke-dasharray="5" /><path d="M 480 660 , 720 540" stroke="#00ff00" stroke-width="1" stroke-linecap="round" stroke-dasharray="5" /><path d="M 480 660 , 720 300" stroke="#00ff00" stroke-width="1" stroke-linecap="round" stroke-dasharray="5" /><path d="M 480 660 , 600 180" stroke="#00ff00" stroke-width="1" stroke-linecap="round" stroke-dasharray="5" /><path d="M 480 660 , 840 180" stroke="#00ff00" stroke-width="1" stroke-linecap="round" stroke-dasharray="5" /><path d="M 480 660 , 720 420" stroke="#00ff00" stroke-width="1" stroke-linecap="round" stroke-dasharray="5" /><rect x="474" y="670" width="13" height="30" fill="#000000" fill-opacity="0.5" /><text x="480" y="690" font-size="20" text-anchor="middle" font-family="mono" fill="#00ff00">ɛ</text><circle r="4" cx="480" cy="660" fill="#00ff00" /><rect x="214" y="550" width="52" height="30" fill="#000000" fill-opacity="0.5" /><text x="240" y="570" font-size="20" text-anchor="middle" font-family="mono" fill="#00ff00">bool</text><circle r="4" cx="240" cy="540" fill="#00ff00" /><rect x="681" y="550" width="78" height="30" fill="#000000" fill-opacity="0.5" /><text x="720" y="570" font-size="20" text-anchor="middle" font-family="mono" fill="#00ff00">number</text><circle r="4" cx="720" cy="540" fill="#00ff00" /><rect x="208" y="430" width="65" height="30" fill="#000000" fill-opacity="0.5" /><text x="240" y="450" font-size="20" text-anchor="middle" font-family="mono" fill="#00ff00">value</text><circle r="4" cx="240" cy="420" fill="#00ff00" /><rect x="701" y="430" width="39" height="30" fill="#000000" fill-opacity="0.5" /><text x="720" y="450" font-size="20" text-anchor="middle" font-family="mono" fill="#00ff00">var</text><circle r="4" cx="720" cy="420" fill="#00ff00" /><rect x="227" y="260" width="26" height="30" fill="#000000" fill-opacity="0.5" /><text x="240" y="280" font-size="20" text-anchor="middle" font-family="mono" fill="#00ff00">eL</text><circle r="4" cx="240" cy="300" fill="#00ff00" /><rect x="688" y="260" width="65" height="30" fill="#000000" fill-opacity="0.5" /><text x="720" y="280" font-size="20" text-anchor="middle" font-family="mono" fill="#00ff00">typeL</text><circle r="4" cx="720" cy="300" fill="#00ff00" /><rect x="114" y="140" width="13" height="30" fill="#000000" fill-opacity="0.5" /><text x="120" y="160" font-size="20" text-anchor="middle" font-family="mono" fill="#00ff00">e</text><circle r="4" cx="120" cy="180" fill="#00ff00" /><rect x="334" y="140" width="52" height="30" fill="#000000" fill-opacity="0.5" /><text x="360" y="160" font-size="20" text-anchor="middle" font-family="mono" fill="#00ff00">type</text><circle r="4" cx="360" cy="180" fill="#00ff00" /><rect x="561" y="140" width="78" height="30" fill="#000000" fill-opacity="0.5" /><text x="600" y="160" font-size="20" text-anchor="middle" font-family="mono" fill="#00ff00">typing</text><circle r="4" cx="600" cy="180" fill="#00ff00" /><rect x="730" y="140" width="221" height="30" fill="#000000" fill-opacity="0.5" /><text x="840" y="160" font-size="20" text-anchor="middle" font-family="mono" fill="#00ff00">typingEnvironment</text><circle r="4" cx="840" cy="180" fill="#00ff00" /><rect x="467" y="20" width="26" height="30" fill="#000000" fill-opacity="0.5" /><text x="480" y="40" font-size="20" text-anchor="middle" font-family="mono" fill="#00ff00">.*</text><circle r="4" cx="480" cy="60" fill="#00ff00" /></svg>