<?xml version="1.0" encoding="UTF-8"?>
<!DOCTYPE svg PUBLIC "-//W3C//DTD SVG 1.1//EN"
    "http://www.w3.org/Graphics/SVG/1.1/DTD/svg11.dtd">
<svg xmlns="http://www.w3.org/2000/svg" xmlns:xlink="http://www.w3.org/1999/xlink" version="1.1" width="1520" height="840" viewBox="0 0 1520 840"><rect width="1520" height="840" fill="#000000" /><path d="M 152 300 , 456 180" stroke="#00ff00" stroke-width="1" stroke-linecap="round" /><path d="M 760 300 , 456 180" stroke="#00ff00" stroke-width="1" stroke-linecap="round" /><path d="M 152 420 , 152 300" stroke="#00ff00" stroke-width="1" stroke-linecap="round" /><path d="M 152 420 , 456 300" stroke="#00ff00" stroke-width="1" stroke-linecap="round" /><path d="M 456 420 , 760 300" stroke="#00ff00" stroke-width="1" stroke-linecap="round" /><path d="M 456 420 , 456 300" stroke="#00ff00" stroke-width="1" stroke-linecap="round" /><path d="M 1064 420 , 1064 300" stroke="#00ff00" stroke-width="1" stroke-linecap="round" /><path d="M 1368 420 , 1064 300" stroke="#00ff00" stroke-width="1" stroke-linecap="round" /><path d="M 152 660 , 152 540" stroke="#00ff00" stroke-width="1" stroke-linecap="round" /><path d="M 456 300 , 456 180" stroke="#00ff00" stroke-width="1" stroke-linecap="round" /><path d="M 456 660 , 152 540" stroke="#00ff00" stroke-width="1" stroke-linecap="round" /><path d="M 1064 300 , 760 180" stroke="#00ff00" stroke-width="1" stroke-linecap="round" /><path d="M 152 540 , 456 420" stroke="#00ff00" stroke-width="1" stroke-linecap="round" /><path d="M 760 420 , 456 300" stroke="#00ff00" stroke-width="1" stroke-linecap="round" /><path d="M 456 180 , 760 60" stroke="#00ff00" stroke-width="1" stroke-linecap="round" stroke-dasharray="1 , 5" /><path d="M 760 180 , 760 60" stroke="#00ff00" stroke-width="1" stroke-linecap="round" stroke-dasharray="1 , 5" /><path d="M 1064 180 , 760 60" stroke="#00ff00" stroke-width="1" stroke-linecap="round" stroke-dasharray="1 , 5" /><path d="M 1368 180 , 760 60" stroke="#00ff00" stroke-width="1" stroke-linecap="round" stroke-dasharray="1 , 5" /><path d="M 760 780 , 152 420" stroke="#00ff00" stroke-width="1" stroke-linecap="round" stroke-dasharray="1 , 5" /><path d="M 760 780 , 1064 420" stroke="#00ff00" stroke-width="1" stroke-linecap="round" stroke-dasharray="1 , 5" /><path d="M 760 780 , 1368 420" stroke="#00ff00" stroke-width="1" stroke-linecap="round" stroke-dasharray="1 , 5" /><path d="M 760 780 , 152 660" stroke="#00ff00" stroke-width="1" stroke-linecap="round" stroke-dasharray="1 , 5" /><path d="M 760 780 , 456 660" stroke="#00ff00" stroke-width="1" stroke-linecap="round" stroke-dasharray="1 , 5" /><path d="M 760 780 , 1064 180" stroke="#00ff00" stroke-width="1" stroke-linecap="round" stroke-dasharray="1 , 5" /><path d="M 760 780 , 1368 180" stroke="#00ff00" stroke-width="1" stroke-linecap="round" stroke-dasharray="1 , 5" /><path d="M 760 780 , 760 420" stroke="#00ff00" stroke-width="1" stroke-linecap="round" stroke-dasharray="1 , 5" /><rect x="754" y="790" width="13" height="30" fill="#000000" fill-opacity="0.5" /><text x="760" y="810" font-size="20" text-anchor="middle" font-family="mono" fill="#00ff00">ɛ</text><circle r="4" cx="760" cy="780" fill="#00ff00" /><rect x="126" y="670" width="52" height="30" fill="#000000" fill-opacity="0.5" /><text x="152" y="690" font-size="20" text-anchor="middle" font-family="mono" fill="#00ff00">bool</text><circle r="4" cx="152" cy="660" fill="#00ff00" /><rect x="417" y="670" width="78" height="30" fill="#000000" fill-opacity="0.5" /><text x="456" y="690" font-size="20" text-anchor="middle" font-family="mono" fill="#00ff00">number</text><circle r="4" cx="456" cy="660" fill="#00ff00" /><rect x="120" y="550" width="65" height="30" fill="#000000" fill-opacity="0.5" /><text x="152" y="570" font-size="20" text-anchor="middle" font-family="mono" fill="#00ff00">value</text><circle r="4" cx="152" cy="540" fill="#00ff00" /><rect x="87" y="380" width="130" height="30" fill="#000000" fill-opacity="0.5" /><text x="152" y="400" font-size="20" text-anchor="middle" font-family="mono" fill="#00ff00">(eL)(→)in0</text><circle r="4" cx="152" cy="420" fill="#00ff00" /><rect x="391" y="380" width="130" height="30" fill="#000000" fill-opacity="0.5" /><text x="456" y="400" font-size="20" text-anchor="middle" font-family="mono" fill="#00ff00">(eL)(⊢)in1</text><circle r="4" cx="456" cy="420" fill="#00ff00" /><rect x="741" y="380" width="39" height="30" fill="#000000" fill-opacity="0.5" /><text x="760" y="400" font-size="20" text-anchor="middle" font-family="mono" fill="#00ff00">var</text><circle r="4" cx="760" cy="420" fill="#00ff00" /><rect x="973" y="380" width="182" height="30" fill="#000000" fill-opacity="0.5" /><text x="1064" y="400" font-size="20" text-anchor="middle" font-family="mono" fill="#00ff00">(typeL)(==)in0</text><circle r="4" cx="1064" cy="420" fill="#00ff00" /><rect x="1277" y="380" width="182" height="30" fill="#000000" fill-opacity="0.5" /><text x="1368" y="400" font-size="20" text-anchor="middle" font-family="mono" fill="#00ff00">(typeL)(==)in1</text><circle r="4" cx="1368" cy="420" fill="#00ff00" /><rect x="94" y="260" width="117" height="30" fill="#000000" fill-opacity="0.5" /><text x="152" y="280" font-size="20" text-anchor="middle" font-family="mono" fill="#00ff00">(e)(→)in0</text><circle r="4" cx="152" cy="300" fill="#00ff00" /><rect x="443" y="260" width="26" height="30" fill="#000000" fill-opacity="0.5" /><text x="456" y="280" font-size="20" text-anchor="middle" font-family="mono" fill="#00ff00">eL</text><circle r="4" cx="456" cy="300" fill="#00ff00" /><rect x="702" y="260" width="117" height="30" fill="#000000" fill-opacity="0.5" /><text x="760" y="280" font-size="20" text-anchor="middle" font-family="mono" fill="#00ff00">(e)(⊢)in1</text><circle r="4" cx="760" cy="300" fill="#00ff00" /><rect x="1032" y="260" width="65" height="30" fill="#000000" fill-opacity="0.5" /><text x="1064" y="280" font-size="20" text-anchor="middle" font-family="mono" fill="#00ff00">typeL</text><circle r="4" cx="1064" cy="300" fill="#00ff00" /><rect x="450" y="140" width="13" height="30" fill="#000000" fill-opacity="0.5" /><text x="456" y="160" font-size="20" text-anchor="middle" font-family="mono" fill="#00ff00">e</text><circle r="4" cx="456" cy="180" fill="#00ff00" /><rect x="734" y="140" width="52" height="30" fill="#000000" fill-opacity="0.5" /><text x="760" y="160" font-size="20" text-anchor="middle" font-family="mono" fill="#00ff00">type</text><circle r="4" cx="760" cy="180" fill="#00ff00" /><rect x="1025" y="140" width="78" height="30" fill="#000000" fill-opacity="0.5" /><text x="1064" y="160" font-size="20" text-anchor="middle" font-family="mono" fill="#00ff00">typing</text><circle r="4" cx="1064" cy="180" fill="#00ff00" /><rect x="1258" y="140" width="221" height="30" fill="#000000" fill-opacity="0.5" /><text x="1368" y="160" font-size="20" text-anchor="middle" font-family="mono" fill="#00ff00">typingEnvironment</text><circle r="4" cx="1368" cy="180" fill="#00ff00" /><rect x="747" y="20" width="26" height="30" fill="#000000" fill-opacity="0.5" /><text x="760" y="40" font-size="20" text-anchor="middle" font-family="mono" fill="#00ff00">.*</text><circle r="4" cx="760" cy="60" fill="#00ff00" /></svg>