<?xml version="1.0" encoding="UTF-8"?>
<!DOCTYPE svg PUBLIC "-//W3C//DTD SVG 1.1//EN"
    "http://www.w3.org/Graphics/SVG/1.1/DTD/svg11.dtd">
<svg xmlns="http://www.w3.org/2000/svg" xmlns:xlink="http://www.w3.org/1999/xlink" version="1.1" width="80" height="108" viewBox="0 0 80 108"><rect width="80" height="108" fill="#ffffff" /><path d="M 40 48 , 10 68" stroke="#000000" stroke-width="2" stroke-linecap="round" /><path d="M 40 48 , 30 68" stroke="#000000" stroke-width="2" stroke-linecap="round" /><path d="M 40 48 , 60 68" stroke="#000000" stroke-width="2" stroke-linecap="round" /><rect x="9" y="16" width="62" height="14" fill="#ffffff" fill-opacity="1.0" /><rect x="7" y="14" width="66" height="18" fill="#ffffff" fill-opacity="0.9" /><rect x="5" y="12" width="70" height="22" fill="#ffffff" fill-opacity="0.75" /><rect x="4" y="11" width="72" height="24" fill="#ffffff" fill-opacity="0.5" /><rect x="3" y="10" width="74" height="26" fill="#ffffff" fill-opacity="0.25" /><rect x="1" y="8" width="78" height="30" fill="#ffffff" fill-opacity="0.1" /><text x="40" y="28" font-size="20" text-anchor="middle" font-family="mono" fill="#000000">expr.0</text><circle r="4" cx="40" cy="48" fill="#000000" /><rect x="12" y="86" width="-3" height="14" fill="#ffffff" fill-opacity="1.0" /><rect x="10" y="84" width="1" height="18" fill="#ffffff" fill-opacity="0.9" /><rect x="8" y="82" width="5" height="22" fill="#ffffff" fill-opacity="0.75" /><rect x="7" y="81" width="7" height="24" fill="#ffffff" fill-opacity="0.5" /><rect x="6" y="80" width="9" height="26" fill="#ffffff" fill-opacity="0.25" /><rect x="4" y="78" width="13" height="30" fill="#ffffff" fill-opacity="0.1" /><text x="10" y="98" font-size="20" text-anchor="middle" font-family="mono" fill="#000000">1</text><circle r="4" cx="10" cy="68" fill="#000000" /><rect x="32" y="86" width="-3" height="14" fill="#ffffff" fill-opacity="1.0" /><rect x="30" y="84" width="1" height="18" fill="#ffffff" fill-opacity="0.9" /><rect x="28" y="82" width="5" height="22" fill="#ffffff" fill-opacity="0.75" /><rect x="27" y="81" width="7" height="24" fill="#ffffff" fill-opacity="0.5" /><rect x="26" y="80" width="9" height="26" fill="#ffffff" fill-opacity="0.25" /><rect x="24" y="78" width="13" height="30" fill="#ffffff" fill-opacity="0.1" /><text x="30" y="98" font-size="20" text-anchor="middle" font-family="mono" fill="#000000">+</text><circle r="4" cx="30" cy="68" fill="#000000" /><rect x="55" y="86" width="10" height="14" fill="#ffffff" fill-opacity="1.0" /><rect x="53" y="84" width="14" height="18" fill="#ffffff" fill-opacity="0.9" /><rect x="51" y="82" width="18" height="22" fill="#ffffff" fill-opacity="0.75" /><rect x="50" y="81" width="20" height="24" fill="#ffffff" fill-opacity="0.5" /><rect x="49" y="80" width="22" height="26" fill="#ffffff" fill-opacity="0.25" /><rect x="47" y="78" width="26" height="30" fill="#ffffff" fill-opacity="0.1" /><text x="60" y="98" font-size="20" text-anchor="middle" font-family="mono" fill="#000000">41</text><circle r="4" cx="60" cy="68" fill="#000000" /></svg>