<?xml version="1.0" encoding="UTF-8"?>
<!DOCTYPE svg PUBLIC "-//W3C//DTD SVG 1.1//EN"
    "http://www.w3.org/Graphics/SVG/1.1/DTD/svg11.dtd">
<svg xmlns="http://www.w3.org/2000/svg" xmlns:xlink="http://www.w3.org/1999/xlink" version="1.1" width="750" height="750" viewBox="0 0 480 480"><rect width="480" height="480" fill="#000000" /><path d="M
80
300
,
80
180
" stroke="#00ff00" stroke-width="2" stroke-linecap="round" /><path d="M
80
300
,
240
180
" stroke="#00ff00" stroke-width="2" stroke-linecap="round" /><path d="M
240
300
,
80
180
" stroke="#00ff00" stroke-width="2" stroke-linecap="round" /><path d="M
240
300
,
400
180
" stroke="#00ff00" stroke-width="2" stroke-linecap="round" /><path d="M
400
300
,
240
180
" stroke="#00ff00" stroke-width="2" stroke-linecap="round" /><path d="M
400
300
,
400
180
" stroke="#00ff00" stroke-width="2" stroke-linecap="round" /><path d="M
240
420
,
80
300
" stroke="#00ff00" stroke-width="2" stroke-linecap="round" stroke-dasharray="5,8" /><path d="M
240
420
,
240
300
" stroke="#00ff00" stroke-width="2" stroke-linecap="round" stroke-dasharray="5,8" /><path d="M
240
420
,
400
300
" stroke="#00ff00" stroke-width="2" stroke-linecap="round" stroke-dasharray="5,8" /><path d="M
240
60
,
80
180
" stroke="#00ff00" stroke-width="2" stroke-linecap="round" stroke-dasharray="5,8" /><path d="M
240
60
,
400
180
" stroke="#00ff00" stroke-width="2" stroke-linecap="round" stroke-dasharray="5,8" /><path d="M
240
60
,
240
180
" stroke="#00ff00" stroke-width="2" stroke-linecap="round" stroke-dasharray="5,8" /><rect x="227" y="430" width="26" height="30" fill="#000000" fill-opacity="0.5" /><text x="240" y="450" font-size="20" text-anchor="middle" font-family="mono" fill="#00ff00">{}</text><circle r="4" cx="240" cy="420" fill="#00ff00" /><rect x="61" y="310" width="39" height="30" fill="#000000" fill-opacity="0.5" /><text x="80" y="330" font-size="20" text-anchor="middle" font-family="mono" fill="#00ff00">{a}</text><circle r="4" cx="80" cy="300" fill="#00ff00" /><rect x="221" y="310" width="39" height="30" fill="#000000" fill-opacity="0.5" /><text x="240" y="330" font-size="20" text-anchor="middle" font-family="mono" fill="#00ff00">{b}</text><circle r="4" cx="240" cy="300" fill="#00ff00" /><rect x="381" y="310" width="39" height="30" fill="#000000" fill-opacity="0.5" /><text x="400" y="330" font-size="20" text-anchor="middle" font-family="mono" fill="#00ff00">{c}</text><circle r="4" cx="400" cy="300" fill="#00ff00" /><rect x="41" y="140" width="78" height="30" fill="#000000" fill-opacity="0.5" /><text x="80" y="160" font-size="20" text-anchor="middle" font-family="mono" fill="#00ff00">{a, b}</text><circle r="4" cx="80" cy="180" fill="#00ff00" /><rect x="201" y="140" width="78" height="30" fill="#000000" fill-opacity="0.5" /><text x="240" y="160" font-size="20" text-anchor="middle" font-family="mono" fill="#00ff00">{a, c}</text><circle r="4" cx="240" cy="180" fill="#00ff00" /><rect x="361" y="140" width="78" height="30" fill="#000000" fill-opacity="0.5" /><text x="400" y="160" font-size="20" text-anchor="middle" font-family="mono" fill="#00ff00">{b, c}</text><circle r="4" cx="400" cy="180" fill="#00ff00" /><rect x="182" y="20" width="117" height="30" fill="#000000" fill-opacity="0.5" /><text x="240" y="40" font-size="20" text-anchor="middle" font-family="mono" fill="#00ff00">{a, b, c}</text><circle r="4" cx="240" cy="60" fill="#00ff00" /></svg>