<?xml version="1.0" encoding="UTF-8"?>
<!DOCTYPE svg PUBLIC "-//W3C//DTD SVG 1.1//EN"
    "http://www.w3.org/Graphics/SVG/1.1/DTD/svg11.dtd">
<svg xmlns="http://www.w3.org/2000/svg" xmlns:xlink="http://www.w3.org/1999/xlink" version="1.1" width="100" height="108" viewBox="0 0 100 108"><rect width="100" height="108" fill="#ffffff" /><path d="M 50 48 , 20 68" stroke="#000000" stroke-width="2" stroke-linecap="round" /><path d="M 50 48 , 50 68" stroke="#000000" stroke-width="2" stroke-linecap="round" /><path d="M 50 48 , 80 68" stroke="#000000" stroke-width="2" stroke-linecap="round" /><rect x="39" y="16" width="23" height="14" fill="#ffffff" fill-opacity="1.0" /><rect x="37" y="14" width="27" height="18" fill="#ffffff" fill-opacity="0.9" /><rect x="35" y="12" width="31" height="22" fill="#ffffff" fill-opacity="0.75" /><rect x="34" y="11" width="33" height="24" fill="#ffffff" fill-opacity="0.5" /><rect x="33" y="10" width="35" height="26" fill="#ffffff" fill-opacity="0.25" /><rect x="31" y="8" width="39" height="30" fill="#ffffff" fill-opacity="0.1" /><text x="50" y="28" font-size="20" text-anchor="middle" font-family="mono" fill="#000000">e.0</text><circle r="4" cx="50" cy="48" fill="#000000" /><rect x="15" y="86" width="10" height="14" fill="#ffffff" fill-opacity="1.0" /><rect x="13" y="84" width="14" height="18" fill="#ffffff" fill-opacity="0.9" /><rect x="11" y="82" width="18" height="22" fill="#ffffff" fill-opacity="0.75" /><rect x="10" y="81" width="20" height="24" fill="#ffffff" fill-opacity="0.5" /><rect x="9" y="80" width="22" height="26" fill="#ffffff" fill-opacity="0.25" /><rect x="7" y="78" width="26" height="30" fill="#ffffff" fill-opacity="0.1" /><text x="20" y="98" font-size="20" text-anchor="middle" font-family="mono" fill="#000000">20</text><circle r="4" cx="20" cy="68" fill="#000000" /><rect x="52" y="86" width="-3" height="14" fill="#ffffff" fill-opacity="1.0" /><rect x="50" y="84" width="1" height="18" fill="#ffffff" fill-opacity="0.9" /><rect x="48" y="82" width="5" height="22" fill="#ffffff" fill-opacity="0.75" /><rect x="47" y="81" width="7" height="24" fill="#ffffff" fill-opacity="0.5" /><rect x="46" y="80" width="9" height="26" fill="#ffffff" fill-opacity="0.25" /><rect x="44" y="78" width="13" height="30" fill="#ffffff" fill-opacity="0.1" /><text x="50" y="98" font-size="20" text-anchor="middle" font-family="mono" fill="#000000">+</text><circle r="4" cx="50" cy="68" fill="#000000" /><rect x="75" y="86" width="10" height="14" fill="#ffffff" fill-opacity="1.0" /><rect x="73" y="84" width="14" height="18" fill="#ffffff" fill-opacity="0.9" /><rect x="71" y="82" width="18" height="22" fill="#ffffff" fill-opacity="0.75" /><rect x="70" y="81" width="20" height="24" fill="#ffffff" fill-opacity="0.5" /><rect x="69" y="80" width="22" height="26" fill="#ffffff" fill-opacity="0.25" /><rect x="67" y="78" width="26" height="30" fill="#ffffff" fill-opacity="0.1" /><text x="80" y="98" font-size="20" text-anchor="middle" font-family="mono" fill="#000000">22</text><circle r="4" cx="80" cy="68" fill="#000000" /></svg>