<?xml version="1.0" encoding="UTF-8" standalone="no"?>
<svg
   xmlns:dc="http://purl.org/dc/elements/1.1/"
   xmlns:cc="http://creativecommons.org/ns#"
   xmlns:rdf="http://www.w3.org/1999/02/22-rdf-syntax-ns#"
   xmlns:svg="http://www.w3.org/2000/svg"
   xmlns="http://www.w3.org/2000/svg"
   xmlns:xlink="http://www.w3.org/1999/xlink"
   xmlns:sodipodi="http://sodipodi.sourceforge.net/DTD/sodipodi-0.dtd"
   xmlns:inkscape="http://www.inkscape.org/namespaces/inkscape"
   version="1.1"
   width="875"
   height="500"
   viewBox="0 0 875 500"
   id="svg2"
   inkscape:version="0.91 r13725"
   sodipodi:docname="RulePredicate.svg">
  <metadata
     id="metadata80">
    <rdf:RDF>
      <cc:Work
         rdf:about="">
        <dc:format>image/svg+xml</dc:format>
        <dc:type
           rdf:resource="http://purl.org/dc/dcmitype/StillImage" />
        <dc:title />
      </cc:Work>
    </rdf:RDF>
  </metadata>
  <defs
     id="defs78">
    <marker
       inkscape:stockid="Arrow1Lend"
       orient="auto"
       refY="0.0"
       refX="0.0"
       id="marker6869"
       style="overflow:visible;"
       inkscape:isstock="true">
      <path
         id="path6871"
         d="M 0.0,0.0 L 5.0,-5.0 L -12.5,0.0 L 5.0,5.0 L 0.0,0.0 z "
         style="fill-rule:evenodd;stroke:#000000;stroke-width:1pt;stroke-opacity:1;fill:#000000;fill-opacity:1"
         transform="scale(0.8) rotate(180) translate(12.5,0)" />
    </marker>
    <marker
       inkscape:stockid="Arrow1Lend"
       orient="auto"
       refY="0.0"
       refX="0.0"
       id="marker6215"
       style="overflow:visible;"
       inkscape:isstock="true">
      <path
         id="path6217"
         d="M 0.0,0.0 L 5.0,-5.0 L -12.5,0.0 L 5.0,5.0 L 0.0,0.0 z "
         style="fill-rule:evenodd;stroke:#000000;stroke-width:1pt;stroke-opacity:1;fill:#000000;fill-opacity:1"
         transform="scale(0.8) rotate(180) translate(12.5,0)" />
    </marker>
    <marker
       inkscape:isstock="true"
       style="overflow:visible;"
       id="marker6005"
       refX="0.0"
       refY="0.0"
       orient="auto"
       inkscape:stockid="Arrow1Lend"
       inkscape:collect="always">
      <path
         transform="scale(0.8) rotate(180) translate(12.5,0)"
         style="fill-rule:evenodd;stroke:#000000;stroke-width:1pt;stroke-opacity:1;fill:#000000;fill-opacity:1"
         d="M 0.0,0.0 L 5.0,-5.0 L -12.5,0.0 L 5.0,5.0 L 0.0,0.0 z "
         id="path6007" />
    </marker>
    <marker
       inkscape:stockid="Arrow1Lend"
       orient="auto"
       refY="0.0"
       refX="0.0"
       id="marker5943"
       style="overflow:visible;"
       inkscape:isstock="true"
       inkscape:collect="always">
      <path
         id="path5945"
         d="M 0.0,0.0 L 5.0,-5.0 L -12.5,0.0 L 5.0,5.0 L 0.0,0.0 z "
         style="fill-rule:evenodd;stroke:#000000;stroke-width:1pt;stroke-opacity:1;fill:#000000;fill-opacity:1"
         transform="scale(0.8) rotate(180) translate(12.5,0)" />
    </marker>
    <marker
       inkscape:isstock="true"
       style="overflow:visible;"
       id="marker5725"
       refX="0.0"
       refY="0.0"
       orient="auto"
       inkscape:stockid="Arrow1Lend">
      <path
         transform="scale(0.8) rotate(180) translate(12.5,0)"
         style="fill-rule:evenodd;stroke:#000000;stroke-width:1pt;stroke-opacity:1;fill:#000000;fill-opacity:1"
         d="M 0.0,0.0 L 5.0,-5.0 L -12.5,0.0 L 5.0,5.0 L 0.0,0.0 z "
         id="path5727" />
    </marker>
    <marker
       inkscape:isstock="true"
       style="overflow:visible;"
       id="marker5971"
       refX="0.0"
       refY="0.0"
       orient="auto"
       inkscape:stockid="Arrow1Lend"
       inkscape:collect="always">
      <path
         transform="scale(0.8) rotate(180) translate(12.5,0)"
         style="fill-rule:evenodd;stroke:#000000;stroke-width:1pt;stroke-opacity:1;fill:#000000;fill-opacity:1"
         d="M 0.0,0.0 L 5.0,-5.0 L -12.5,0.0 L 5.0,5.0 L 0.0,0.0 z "
         id="path5973" />
    </marker>
    <marker
       inkscape:stockid="Arrow1Lend"
       orient="auto"
       refY="0.0"
       refX="0.0"
       id="Arrow1Lend"
       style="overflow:visible;"
       inkscape:isstock="true"
       inkscape:collect="always">
      <path
         id="path5650"
         d="M 0.0,0.0 L 5.0,-5.0 L -12.5,0.0 L 5.0,5.0 L 0.0,0.0 z "
         style="fill-rule:evenodd;stroke:#000000;stroke-width:1pt;stroke-opacity:1;fill:#000000;fill-opacity:1"
         transform="scale(0.8) rotate(180) translate(12.5,0)" />
    </marker>
    <marker
       inkscape:isstock="true"
       style="overflow:visible;"
       id="marker4316"
       refX="0.0"
       refY="0.0"
       orient="auto"
       inkscape:stockid="Arrow1Lend">
      <path
         transform="scale(0.8) rotate(180) translate(12.5,0)"
         style="fill-rule:evenodd;stroke:#000000;stroke-width:1pt;stroke-opacity:1;fill:#000000;fill-opacity:1"
         d="M 0.0,0.0 L 5.0,-5.0 L -12.5,0.0 L 5.0,5.0 L 0.0,0.0 z "
         id="path4318" />
    </marker>
    <marker
       inkscape:stockid="Arrow1Lstart"
       orient="auto"
       refY="0.0"
       refX="0.0"
       id="Arrow1Lstart"
       style="overflow:visible"
       inkscape:isstock="true">
      <path
         id="path4247"
         d="M 0.0,0.0 L 5.0,-5.0 L -12.5,0.0 L 5.0,5.0 L 0.0,0.0 z "
         style="fill-rule:evenodd;stroke:#000000;stroke-width:1pt;stroke-opacity:1;fill:#000000;fill-opacity:1"
         transform="scale(0.8) translate(12.5,0)" />
    </marker>
    <linearGradient
       inkscape:collect="always"
       id="linearGradient4250">
      <stop
         style="stop-color:#000000;stop-opacity:1;"
         offset="0"
         id="stop4252" />
      <stop
         style="stop-color:#000000;stop-opacity:0;"
         offset="1"
         id="stop4254" />
    </linearGradient>
    <linearGradient
       inkscape:collect="always"
       xlink:href="#linearGradient4250"
       id="linearGradient4256"
       x1="24.783699"
       y1="107.14982"
       x2="44.260262"
       y2="107.14982"
       gradientUnits="userSpaceOnUse" />
  </defs>
  <sodipodi:namedview
     pagecolor="#ffffff"
     bordercolor="#666666"
     borderopacity="1"
     objecttolerance="10"
     gridtolerance="10"
     guidetolerance="10"
     inkscape:pageopacity="0"
     inkscape:pageshadow="2"
     inkscape:window-width="1920"
     inkscape:window-height="1056"
     id="namedview76"
     showgrid="false"
     inkscape:zoom="1.4142136"
     inkscape:cx="179.81484"
     inkscape:cy="338.67952"
     inkscape:window-x="0"
     inkscape:window-y="24"
     inkscape:window-maximized="1"
     inkscape:current-layer="layer4"
     inkscape:snap-text-baseline="true" />
  <rect
     x="52"
     y="86"
     width="-3"
     height="14"
     fill="#ffffff"
     fill-opacity="1.0"
     id="rect44" />
  <text
     xml:space="preserve"
     style="font-style:normal;font-weight:normal;font-size:40px;line-height:125%;font-family:sans-serif;letter-spacing:0px;word-spacing:0px;fill:#ff0000;fill-opacity:1;stroke:#000000;stroke-width:1px;stroke-linecap:butt;stroke-linejoin:miter;stroke-opacity:0"
     x="78.254234"
     y="329.49152"
     id="text4228"
     sodipodi:linespacing="125%"><tspan
       sodipodi:role="line"
       id="tspan4230"
       x="78.254234"
       y="329.49152"
       style="fill:#ff0000;fill-opacity:1;stroke:#000000;stroke-opacity:0" /></text>
  <text
     xml:space="preserve"
     style="font-style:normal;font-weight:normal;font-size:40px;line-height:125%;font-family:sans-serif;letter-spacing:0px;word-spacing:0px;fill:#ff0000;fill-opacity:1;stroke:#000000;stroke-width:1px;stroke-linecap:butt;stroke-linejoin:miter;stroke-opacity:0"
     x="133.88481"
     y="330.79932"
     id="text4228-5"
     sodipodi:linespacing="125%"><tspan
       sodipodi:role="line"
       x="133.88481"
       y="330.79932"
       style="fill:#ff0000;fill-opacity:1;stroke:#000000;stroke-opacity:0"
       id="tspan4276" /></text>
  <g
     inkscape:groupmode="layer"
     id="layer1"
     inkscape:label="BG"
     style="display:inline" />
  <g
     inkscape:groupmode="layer"
     id="layer3"
     inkscape:label="Rule"
     style="display:inline"
     sodipodi:insensitive="true">
    <path
       d="m 564.43532,117.65255 -430.32827,0"
       id="path8-6"
       inkscape:connector-curvature="0"
       style="stroke:#000000;stroke-width:9.27715778;stroke-linecap:round;stroke-opacity:0.36305733" />
    <text
       xml:space="preserve"
       style="font-style:normal;font-weight:normal;font-size:40px;line-height:125%;font-family:sans-serif;letter-spacing:0px;word-spacing:0px;fill:#000000;fill-opacity:0.36862745;stroke:none;stroke-width:1px;stroke-linecap:butt;stroke-linejoin:miter;stroke-opacity:1"
       x="123.59322"
       y="148.54239"
       id="text4229"
       sodipodi:linespacing="125%"><tspan
         sodipodi:role="line"
         id="tspan4231"
         x="123.59322"
         y="148.54239"
         style="font-size:25px;fill:#000000;fill-opacity:0.36862745"> &quot;If&quot; b &quot;Then&quot; e0 &quot;Else&quot; e ~&gt; e1</tspan></text>
    <text
       x="725.46765"
       y="122.72095"
       font-size="20"
       id="text24-7"
       style="font-size:20px;font-family:mono;text-anchor:middle;fill:#000000;fill-opacity:0.36942677">[Example Predicate Rule]</text>
    <text
       xml:space="preserve"
       style="font-style:normal;font-weight:normal;font-size:40px;line-height:125%;font-family:sans-serif;letter-spacing:0px;word-spacing:0px;fill:#000000;fill-opacity:0.36862745;stroke:none;stroke-width:1px;stroke-linecap:butt;stroke-linejoin:miter;stroke-opacity:1"
       x="130.93478"
       y="96.57431"
       id="text4229-3"
       sodipodi:linespacing="125%"><tspan
         sodipodi:role="line"
         id="tspan4231-6"
         x="130.93478"
         y="96.57431"
         style="font-size:25px;fill:#000000;fill-opacity:0.36862745"> b:bool</tspan></text>
    <text
       sodipodi:linespacing="125%"
       id="text4238"
       y="96.57431"
       x="436.6297"
       style="font-style:normal;font-weight:normal;font-size:40px;line-height:125%;font-family:sans-serif;letter-spacing:0px;word-spacing:0px;fill:#000000;fill-opacity:0.36862745;stroke:none;stroke-width:1px;stroke-linecap:butt;stroke-linejoin:miter;stroke-opacity:1"
       xml:space="preserve"><tspan
         style="font-size:25px;fill:#000000;fill-opacity:0.36862745"
         y="96.57431"
         x="436.6297"
         id="tspan4240"
         sodipodi:role="line"> e0 ~&gt; e1</tspan></text>
    <text
       xml:space="preserve"
       style="font-style:normal;font-weight:normal;font-size:40px;line-height:125%;font-family:sans-serif;letter-spacing:0px;word-spacing:0px;fill:#000000;fill-opacity:0.36862745;stroke:none;stroke-width:1px;stroke-linecap:butt;stroke-linejoin:miter;stroke-opacity:1"
       x="261.81616"
       y="96.57431"
       id="text4242"
       sodipodi:linespacing="125%"><tspan
         sodipodi:role="line"
         id="tspan4244"
         x="261.81616"
         y="96.57431"
         style="font-size:25px;fill:#000000;fill-opacity:0.36862745"> b = &quot;True&quot;</tspan></text>
    <text
       xml:space="preserve"
       style="font-style:normal;font-weight:normal;font-size:40px;line-height:125%;font-family:sans-serif;letter-spacing:0px;word-spacing:0px;fill:#000000;fill-opacity:1;stroke:none;stroke-width:1px;stroke-linecap:butt;stroke-linejoin:miter;stroke-opacity:1"
       x="440.23727"
       y="58.57431"
       id="text4246"
       sodipodi:linespacing="125%"><tspan
         sodipodi:role="line"
         id="tspan4248"
         x="440.23727"
         y="58.57431" /></text>
    <path
       style="fill:none;fill-rule:evenodd;stroke:#000000;stroke-width:2;stroke-linecap:butt;stroke-linejoin:miter;stroke-miterlimit:4;stroke-dasharray:none;stroke-opacity:1;marker-end:url(#marker5943)"
       d="m 212.5,68 c 0,0 32,-40.000001 63.5,0"
       id="path5935"
       inkscape:connector-curvature="0" />
    <path
       inkscape:connector-curvature="0"
       id="path6003"
       d="m 386,68 c 0,0 32,-40.000001 63.5,0"
       style="fill:none;fill-rule:evenodd;stroke:#000000;stroke-width:2;stroke-linecap:butt;stroke-linejoin:miter;stroke-miterlimit:4;stroke-dasharray:none;stroke-opacity:1;marker-end:url(#marker6005)" />
  </g>
  <g
     inkscape:groupmode="layer"
     id="layer4"
     inkscape:label="Input"
     style="display:inline">
    <rect
       style="display:inline;fill:#ffffff;fill-opacity:1"
       x="499.85028"
       y="456.52988"
       width="0"
       height="14"
       id="rect120" />
    <rect
       style="display:inline;fill:#ffffff;fill-opacity:1"
       x="639.85028"
       y="396.52988"
       width="0"
       height="14"
       id="rect168" />
    <path
       inkscape:connector-curvature="0"
       style="display:inline;stroke:#000000;stroke-width:2;stroke-linecap:round"
       d="m 310.84455,285.61166 -180,20"
       id="path6-6" />
    <path
       inkscape:connector-curvature="0"
       style="display:inline;stroke:#000000;stroke-width:2;stroke-linecap:round"
       d="m 310.84455,285.61166 -120,20"
       id="path8-2" />
    <path
       inkscape:connector-curvature="0"
       style="display:inline;stroke:#000000;stroke-width:2;stroke-linecap:round"
       d="m 310.84455,285.61166 -40,20"
       id="path10-9" />
    <path
       inkscape:connector-curvature="0"
       style="display:inline;stroke:#000000;stroke-width:2;stroke-linecap:round"
       d="m 310.84455,285.61166 50,60"
       id="path12" />
    <path
       inkscape:connector-curvature="0"
       style="display:inline;stroke:#000000;stroke-width:2;stroke-linecap:round"
       d="m 310.84455,285.61166 140,20"
       id="path14" />
    <path
       inkscape:connector-curvature="0"
       style="display:inline;stroke:#000000;stroke-width:2;stroke-linecap:round"
       d="m 310.84455,285.61166 190,20"
       id="path16" />
    <path
       inkscape:connector-curvature="0"
       style="display:inline;stroke:#000000;stroke-width:2;stroke-linecap:round"
       d="m 360.84455,345.61166 -30,19.99999"
       id="path18" />
    <path
       inkscape:connector-curvature="0"
       style="display:inline;stroke:#000000;stroke-width:2;stroke-linecap:round"
       d="m 360.84455,345.61166 0,19.99999"
       id="path20" />
    <path
       inkscape:connector-curvature="0"
       style="display:inline;stroke:#000000;stroke-width:2;stroke-linecap:round"
       d="m 360.84455,345.61166 30,19.99999"
       id="path22" />
    <text
       style="font-size:20px;font-family:mono;text-anchor:middle;display:inline;fill:#000000"
       x="310.84454"
       y="265.61163"
       font-size="20"
       id="text36">eL.3</text>
    <circle
       style="display:inline;fill:#000000"
       r="4"
       cx="310.84454"
       cy="285.61163"
       id="circle38" />
    <text
       style="font-size:20px;font-family:mono;text-anchor:middle;display:inline;fill:#000000"
       x="130.84456"
       y="335.61166"
       font-size="20"
       id="text52">If</text>
    <circle
       style="display:inline;fill:#000000"
       r="4"
       cx="130.84456"
       cy="305.61166"
       id="circle54" />
    <text
       style="font-size:20px;font-family:mono;text-anchor:middle;display:inline;fill:#000000"
       x="190.84456"
       y="335.61166"
       font-size="20"
       id="text68">True</text>
    <circle
       style="display:inline;fill:#000000"
       r="4"
       cx="190.84456"
       cy="305.61166"
       id="circle70" />
    <text
       style="font-size:20px;font-family:mono;text-anchor:middle;display:inline;fill:#000000"
       x="270.84454"
       y="335.61166"
       font-size="20"
       id="text84">Then</text>
    <circle
       style="display:inline;fill:#000000"
       r="4"
       cx="270.84454"
       cy="305.61166"
       id="circle86" />
    <text
       style="font-size:20px;font-family:mono;text-anchor:middle;display:inline;fill:#000000"
       x="366.84457"
       y="323.61166"
       font-size="20"
       id="text100">e.0</text>
    <circle
       style="display:inline;fill:#000000"
       r="4"
       cx="360.84457"
       cy="345.61166"
       id="circle102" />
    <text
       style="font-size:20px;font-family:mono;text-anchor:middle;display:inline;fill:#000000"
       x="330.84454"
       y="395.61166"
       font-size="20"
       id="text116">20</text>
    <circle
       style="display:inline;fill:#000000"
       r="4"
       cx="330.84454"
       cy="365.61166"
       id="circle118" />
    <text
       style="font-size:20px;font-family:mono;text-anchor:middle;display:inline;fill:#000000"
       x="360.84457"
       y="395.61166"
       font-size="20"
       id="text132">+</text>
    <circle
       style="display:inline;fill:#000000"
       r="4"
       cx="360.84457"
       cy="365.61166"
       id="circle134" />
    <text
       style="font-size:20px;font-family:mono;text-anchor:middle;display:inline;fill:#000000"
       x="390.84457"
       y="395.61166"
       font-size="20"
       id="text148">22</text>
    <circle
       style="display:inline;fill:#000000"
       r="4"
       cx="390.84457"
       cy="365.61166"
       id="circle150" />
    <text
       style="font-size:20px;font-family:mono;text-anchor:middle;display:inline;fill:#000000"
       x="450.84457"
       y="335.61166"
       font-size="20"
       id="text164">Else</text>
    <circle
       style="display:inline;fill:#000000"
       r="4"
       cx="450.84457"
       cy="305.61166"
       id="circle166" />
    <text
       style="font-size:20px;font-family:mono;text-anchor:middle;display:inline;fill:#000000"
       x="500.84457"
       y="335.61166"
       font-size="20"
       id="text180">0</text>
    <circle
       style="display:inline;fill:#000000"
       r="4"
       cx="500.84457"
       cy="305.61166"
       id="circle182" />
  </g>
  <g
     inkscape:groupmode="layer"
     id="layer2"
     inkscape:label="Rest"
     style="display:inline">
    <ellipse
       style="fill:#000000;fill-opacity:0;stroke:#000000;stroke-width:2;stroke-miterlimit:4;stroke-dasharray:none;stroke-opacity:1"
       id="path4233"
       cx="304.85022"
       cy="331.49713"
       rx="241.59802"
       ry="105.54893" />
    <ellipse
       style="fill:#000000;fill-opacity:0;stroke:#000000;stroke-width:2;stroke-miterlimit:4;stroke-dasharray:none;stroke-opacity:1"
       id="path4792"
       cx="281.83051"
       cy="144.51697"
       rx="163.03935"
       ry="29.214857" />
    <ellipse
       style="fill:#00ff00;fill-opacity:0;stroke:#000000;stroke-width:2;stroke-miterlimit:4;stroke-dasharray:none;stroke-opacity:1"
       id="path4809"
       cx="505.39407"
       cy="-140.31183"
       rx="19.677965"
       ry="21.279661"
       transform="scale(1,-1)" />
    <text
       xml:space="preserve"
       style="font-style:normal;font-weight:normal;font-size:40px;line-height:125%;font-family:sans-serif;letter-spacing:0px;word-spacing:0px;fill:#000000;fill-opacity:1;stroke:none;stroke-width:1px;stroke-linecap:butt;stroke-linejoin:miter;stroke-opacity:1"
       x="226.88274"
       y="477.95813"
       id="text5211"
       sodipodi:linespacing="125%"><tspan
         sodipodi:role="line"
         id="tspan5213"
         x="226.88274"
         y="477.95813"
         style="font-size:20px;fill:#000000;fill-opacity:1">Input argument</tspan></text>
    <text
       xml:space="preserve"
       style="font-style:normal;font-weight:normal;font-size:40px;line-height:125%;font-family:sans-serif;letter-spacing:0px;word-spacing:0px;fill:#000000;fill-opacity:1;stroke:none;stroke-width:1px;stroke-linecap:butt;stroke-linejoin:miter;stroke-opacity:1"
       x="566.9715"
       y="194.95825"
       id="text5211-5-2"
       sodipodi:linespacing="125%"><tspan
         sodipodi:role="line"
         x="566.9715"
         y="194.95825"
         style="font-size:20px;fill:#000000;fill-opacity:1"
         id="tspan5341-9">Construction</tspan></text>
    <text
       x="637.55231"
       y="339.43509"
       font-size="20"
       id="text72-9"
       style="font-size:47.52610016px;font-family:mono;text-anchor:middle;fill:#000000"
       transform="scale(0.99172515,1.0083439)">42</text>
    <text
       xml:space="preserve"
       style="font-style:normal;font-weight:normal;font-size:40px;line-height:125%;font-family:sans-serif;letter-spacing:0px;word-spacing:0px;fill:#000000;fill-opacity:1;stroke:none;stroke-width:1px;stroke-linecap:butt;stroke-linejoin:miter;stroke-opacity:1"
       x="567.40295"
       y="481.3302"
       id="text5211-3"
       sodipodi:linespacing="125%"><tspan
         sodipodi:role="line"
         id="tspan5213-6"
         x="567.40295"
         y="481.3302"
         style="font-size:20px;fill:#000000;fill-opacity:1">Output argument</tspan></text>
    <ellipse
       ry="72.076271"
       rx="76.423729"
       cy="326.64325"
       cx="636.05432"
       id="ellipse4308"
       style="fill:#000000;fill-opacity:0;stroke:#000000;stroke-width:2;stroke-miterlimit:4;stroke-dasharray:none;stroke-opacity:1" />
    <path
       style="font-style:normal;font-weight:normal;font-size:40px;line-height:125%;font-family:sans-serif;text-align:end;letter-spacing:0px;word-spacing:0px;text-anchor:end;fill:#000000;fill-opacity:1;stroke:none;stroke-width:1px;stroke-linecap:butt;stroke-linejoin:miter;stroke-opacity:1"
       d="m 220.60742,179.12109 0,14.58008 1.97266,0 0,-5.85937 2.48047,0 c 1.63411,0 2.86784,-0.36784 3.70117,-1.10352 0.83984,-0.73568 1.25976,-1.82292 1.25976,-3.26172 0,-1.42578 -0.41992,-2.50652 -1.25976,-3.24218 -0.83333,-0.74219 -2.06706,-1.11329 -3.70117,-1.11329 l -4.45313,0 z m 23.33008,0.53711 0,3.10547 -1.31836,0 0,1.39649 1.31836,0 0,5.9375 c 0,1.36718 0.26367,2.31119 0.79102,2.83203 0.52734,0.51432 1.48437,0.77148 2.87109,0.77148 l 1.8457,0 0,-1.5039 -1.8457,0 c -0.7487,0 -1.24675,-0.12696 -1.49414,-0.38086 -0.24089,-0.25391 -0.36133,-0.82683 -0.36133,-1.71875 l 0,-5.9375 3.70117,0 0,-1.39649 -3.70117,0 0,-3.10547 -1.80664,0 z m 7.85156,0 0,3.10547 -1.31836,0 0,1.39649 1.31836,0 0,5.9375 c 0,1.36718 0.26367,2.31119 0.79102,2.83203 0.52734,0.51432 1.48437,0.77148 2.87109,0.77148 l 1.84571,0 0,-1.5039 -1.84571,0 c -0.7487,0 -1.24674,-0.12696 -1.49414,-0.38086 -0.24088,-0.25391 -0.36133,-0.82683 -0.36133,-1.71875 l 0,-5.9375 3.70118,0 0,-1.39649 -3.70118,0 0,-3.10547 -1.80664,0 z m -29.20898,1.08399 2.48047,0 c 0.91797,0 1.6276,0.23763 2.1289,0.71289 0.50131,0.47526 0.75196,1.14909 0.75196,2.02148 0,0.87891 -0.25065,1.55599 -0.75196,2.03125 -0.5013,0.47526 -1.21093,0.71289 -2.1289,0.71289 l -2.48047,0 0,-5.47851 z M 235.53906,182.5 c -0.58594,0 -1.18815,0.0651 -1.80664,0.19531 -0.61849,0.1237 -1.25651,0.3125 -1.91406,0.56641 l 0,1.66016 c 0.54687,-0.29948 1.11654,-0.52409 1.70898,-0.67383 0.59245,-0.14974 1.20118,-0.22461 1.82618,-0.22461 0.98307,0 1.74479,0.22786 2.28515,0.68359 0.54688,0.44922 0.82031,1.08724 0.82031,1.91406 l 0,0.17579 -2.51953,0 c -1.63411,0 -2.86458,0.3125 -3.6914,0.9375 -0.82032,0.625 -1.23047,1.55273 -1.23047,2.7832 0,1.05469 0.32877,1.89778 0.98633,2.5293 0.66406,0.625 1.55599,0.9375 2.67578,0.9375 0.88541,0 1.63411,-0.15626 2.24609,-0.46876 0.61198,-0.31901 1.12305,-0.81054 1.5332,-1.4746 l 0,1.66015 1.79688,0 0,-6.24023 c 0,-1.66667 -0.39063,-2.91016 -1.17188,-3.73047 -0.78125,-0.82031 -1.96289,-1.23047 -3.54492,-1.23047 z m 28.71094,0 c -1.64063,0 -2.94596,0.52734 -3.91602,1.58203 -0.96354,1.04818 -1.44531,2.46745 -1.44531,4.25781 0,1.73177 0.50781,3.10547 1.52344,4.1211 1.02213,1.01562 2.4056,1.52344 4.15039,1.52344 0.69661,0 1.38346,-0.0716 2.06055,-0.21485 0.67708,-0.14323 1.33789,-0.35156 1.98242,-0.625 l 0,-1.69922 c -0.63802,0.33854 -1.28255,0.59245 -1.93359,0.76172 -0.64454,0.16927 -1.31185,0.25391 -2.00196,0.25391 -1.1914,0 -2.12239,-0.32227 -2.79297,-0.9668 -0.66406,-0.65104 -1.03515,-1.59505 -1.11328,-2.83203 l 8.26172,0 0,-0.87891 c 0,-1.6276 -0.42969,-2.91341 -1.28906,-3.85742 C 266.88346,182.97526 265.72135,182.5 264.25,182.5 Z m 13.14453,0 c -0.86588,0 -1.60156,0.16276 -2.20703,0.48828 -0.60547,0.31901 -1.09701,0.81055 -1.47461,1.47461 l 0,-1.69922 -1.80664,0 0,10.9375 1.80664,0 0,-5.76172 c 0,-1.23698 0.27018,-2.18424 0.81055,-2.84179 0.54687,-0.66407 1.32812,-0.9961 2.34375,-0.9961 0.28646,0 0.54687,0.0293 0.78125,0.0879 0.24088,0.0521 0.46224,0.13672 0.66406,0.25391 l -0.01,-1.8457 c -0.18229,-0.0326 -0.3483,-0.0553 -0.49804,-0.0684 -0.14974,-0.0195 -0.28646,-0.0293 -0.41016,-0.0293 z m 7.74414,0 c -0.76172,0 -1.43555,0.16276 -2.02148,0.48828 -0.57943,0.32552 -1.08399,0.81706 -1.51367,1.47461 l 0,-1.69922 -1.80664,0 0,10.9375 1.80664,0 0,-6.18164 c 0,-1.06771 0.27994,-1.91081 0.83984,-2.5293 0.5599,-0.61849 1.32487,-0.92773 2.29492,-0.92773 0.80729,0 1.41276,0.25716 1.81641,0.77148 0.40364,0.51433 0.60547,1.28907 0.60547,2.32422 l 0,6.54297 1.79687,0 0,-6.60156 c 0,-1.51042 -0.32226,-2.653 -0.9668,-3.42773 C 287.3457,182.89062 286.39518,182.5 285.13867,182.5 Z m -20.86914,1.52344 c 0.88542,0 1.59505,0.29297 2.12891,0.8789 0.54036,0.58594 0.81705,1.37045 0.83008,2.35352 l -6.40625,0.01 c 0.0911,-1.02864 0.43619,-1.82617 1.03515,-2.39257 0.60547,-0.56641 1.40951,-0.84961 2.41211,-0.84961 z m -27.59765,4.17968 1.7871,0 0,0.4004 c 0,1.17187 -0.30273,2.11263 -0.9082,2.82226 -0.59896,0.70313 -1.39648,1.05469 -2.39258,1.05469 -0.72265,0 -1.29557,-0.18555 -1.71875,-0.55664 -0.41666,-0.37761 -0.625,-0.88542 -0.625,-1.52344 0,-0.80078 0.27995,-1.36719 0.83985,-1.69922 0.55989,-0.33203 1.56574,-0.49805 3.01758,-0.49805 z m 12.1875,15.30274 0,15.19531 1.80664,0 0,-6.18164 c 0,-1.06771 0.27994,-1.91081 0.83984,-2.5293 0.5599,-0.61849 1.32487,-0.92773 2.29492,-0.92773 0.80729,0 1.41276,0.25716 1.81641,0.77148 0.40364,0.51433 0.60547,1.28907 0.60547,2.32422 l 0,6.54297 1.79687,0 0,-6.60156 c 0,-1.51042 -0.32226,-2.653 -0.9668,-3.42773 -0.64453,-0.78126 -1.59505,-1.17188 -2.85156,-1.17188 -0.76172,0 -1.43555,0.16276 -2.02148,0.48828 -0.57943,0.32552 -1.08399,0.81706 -1.51367,1.47461 l 0,-5.95703 -1.80664,0 z m 12.76367,0 0,2.27539 1.79687,0 0,-2.27539 -1.79687,0 z m -31.5918,1.15234 0,3.10547 -1.31836,0 0,1.39649 1.31836,0 0,5.9375 c 0,1.36718 0.26367,2.31119 0.79102,2.83203 0.52734,0.51432 1.48437,0.77148 2.87109,0.77148 l 1.8457,0 0,-1.5039 -1.8457,0 c -0.7487,0 -1.24675,-0.12696 -1.49414,-0.38086 -0.24089,-0.25391 -0.36133,-0.82683 -0.36133,-1.71875 l 0,-5.9375 3.70117,0 0,-1.39649 -3.70117,0 0,-3.10547 -1.80664,0 z M 203.55664,207.5 c -0.78776,0 -1.4681,0.15951 -2.04102,0.47852 -0.57291,0.31901 -1.06445,0.8138 -1.4746,1.48437 l 0,-1.69922 -1.80664,0 0,10.9375 1.80664,0 0,-6.18164 c 0,-1.0612 0.27018,-1.90104 0.81054,-2.51953 0.54037,-0.625 1.26953,-0.9375 2.1875,-0.9375 0.77474,0 1.34766,0.25391 1.71875,0.76172 0.3711,0.5013 0.55664,1.2793 0.55664,2.33398 l 0,6.54297 1.80664,0 0,-6.18164 c 0,-1.06771 0.27019,-1.91081 0.81055,-2.5293 0.54037,-0.61849 1.27604,-0.92773 2.20703,-0.92773 0.76172,0 1.32813,0.25391 1.69922,0.76172 0.37109,0.50781 0.55664,1.28581 0.55664,2.33398 l 0,6.54297 1.80664,0 0,-6.60156 c 0,-1.47135 -0.30924,-2.60417 -0.92773,-3.39844 -0.61849,-0.80078 -1.4974,-1.20117 -2.63672,-1.20117 -0.84636,0 -1.58203,0.19206 -2.20703,0.57617 -0.625,0.38412 -1.16211,0.97982 -1.61133,1.78711 -0.26693,-0.76823 -0.68033,-1.35417 -1.24024,-1.75781 -0.55338,-0.40365 -1.22721,-0.60547 -2.02148,-0.60547 z m 18.07617,0 c -0.58594,0 -1.18815,0.0651 -1.80664,0.19531 -0.61849,0.1237 -1.25651,0.3125 -1.91406,0.56641 l 0,1.66016 c 0.54687,-0.29948 1.11654,-0.52409 1.70898,-0.67383 0.59245,-0.14974 1.20118,-0.22461 1.82618,-0.22461 0.98307,0 1.74479,0.22786 2.28515,0.68359 0.54688,0.44922 0.82031,1.08724 0.82031,1.91406 l 0,0.17579 -2.51953,0 c -1.63411,0 -2.86458,0.3125 -3.6914,0.9375 -0.82032,0.625 -1.23047,1.55273 -1.23047,2.7832 0,1.05469 0.32877,1.89778 0.98633,2.5293 0.66406,0.625 1.55599,0.9375 2.67578,0.9375 0.88541,0 1.63411,-0.15626 2.24609,-0.46876 0.61198,-0.31901 1.12305,-0.81054 1.5332,-1.4746 l 0,1.66015 1.79688,0 0,-6.24023 c 0,-1.66667 -0.39063,-2.91016 -1.17188,-3.73047 -0.78125,-0.82031 -1.96289,-1.23047 -3.54492,-1.23047 z m 20.9961,0 c -1.70573,0 -3.05013,0.51107 -4.03321,1.5332 -0.97656,1.02214 -1.46484,2.42513 -1.46484,4.20899 0,1.75781 0.48503,3.15429 1.45508,4.18945 0.97005,1.03516 2.27864,1.55273 3.92578,1.55274 0.60547,0 1.17513,-0.0586 1.70898,-0.17579 0.54037,-0.11718 1.0612,-0.29297 1.5625,-0.52734 l 0,-1.66016 c -0.50781,0.27995 -1.01888,0.49154 -1.5332,0.63477 -0.50781,0.13672 -1.02214,0.20508 -1.54297,0.20508 -1.16536,0 -2.07031,-0.36784 -2.71484,-1.10352 -0.64453,-0.74219 -0.9668,-1.7806 -0.9668,-3.11523 0,-1.33464 0.32227,-2.36979 0.9668,-3.10547 0.64453,-0.74219 1.54948,-1.11328 2.71484,-1.11328 0.52083,0 1.03516,0.0716 1.54297,0.21484 0.51432,0.13672 1.02539,0.34505 1.5332,0.625 l 0,-1.67969 c -0.49479,-0.22786 -1.00586,-0.39713 -1.5332,-0.50781 -0.52734,-0.11719 -1.06771,-0.17578 -1.62109,-0.17578 z m 29.81445,0 c -0.76172,0 -1.43555,0.16276 -2.02148,0.48828 -0.57943,0.32552 -1.08399,0.81706 -1.51368,1.47461 l 0,-1.69922 -1.80664,0 0,10.9375 1.80664,0 0,-6.18164 c 0,-1.06771 0.27995,-1.91081 0.83985,-2.5293 0.55989,-0.61849 1.32487,-0.92773 2.29492,-0.92773 0.80729,0 1.41276,0.25716 1.81641,0.77148 0.40364,0.51433 0.60546,1.28907 0.60546,2.32422 l 0,6.54297 1.79688,0 0,-6.60156 c 0,-1.51042 -0.32227,-2.653 -0.9668,-3.42773 -0.64453,-0.78126 -1.59505,-1.17188 -2.85156,-1.17188 z m 11.11328,0 c -1.34115,0 -2.42187,0.51107 -3.24219,1.5332 -0.82031,1.02214 -1.23047,2.37956 -1.23047,4.07227 0,1.6862 0.41016,3.04036 1.23047,4.0625 0.82032,1.02213 1.90104,1.5332 3.24219,1.5332 0.80729,0 1.50065,-0.1595 2.08008,-0.47851 0.57943,-0.31901 1.05469,-0.80078 1.42578,-1.44532 l 0,0.88868 c 0,1.24349 -0.29297,2.17122 -0.87891,2.7832 -0.58593,0.61849 -1.4681,0.92773 -2.64648,0.92773 -0.53385,0 -1.05794,-0.0684 -1.57227,-0.20507 -0.51432,-0.13672 -1.03515,-0.34831 -1.5625,-0.63477 l 0,1.74805 c 0.52735,0.19531 1.07097,0.33854 1.63086,0.42968 0.5599,0.0977 1.1556,0.14649 1.78711,0.14649 1.70573,0 2.97201,-0.45573 3.79883,-1.36719 0.82682,-0.90495 1.24024,-2.28841 1.24024,-4.15039 l 0,-9.58008 -1.79688,0 0,1.66016 c -0.37109,-0.64453 -0.84635,-1.1263 -1.42578,-1.44531 -0.57943,-0.31901 -1.27279,-0.47852 -2.08008,-0.47852 z m -21.93359,0.26367 0,10.9375 1.79687,0 0,-10.9375 -1.79687,0 z m 22.37304,1.24024 c 0.97006,0 1.72201,0.35807 2.25586,1.07421 0.54037,0.71615 0.81055,1.72527 0.81055,3.02735 0,1.29557 -0.27018,2.30143 -0.81055,3.01758 -0.53385,0.71614 -1.2858,1.07422 -2.25586,1.07422 -0.96354,0 -1.71549,-0.35808 -2.25586,-1.07422 -0.53385,-0.71615 -0.80078,-1.72201 -0.80078,-3.01758 0,-1.30208 0.26693,-2.31119 0.80078,-3.02735 0.54037,-0.71614 1.29232,-1.07421 2.25586,-1.07421 z m -61.23047,4.19921 1.78711,0 0,0.4004 c 0,1.17187 -0.30273,2.11263 -0.9082,2.82226 -0.59896,0.70313 -1.39648,1.05469 -2.39258,1.05469 -0.72265,0 -1.29557,-0.18555 -1.71875,-0.55664 -0.41666,-0.37761 -0.625,-0.88542 -0.625,-1.52344 0,-0.80078 0.27995,-1.36719 0.83985,-1.69922 0.55989,-0.33203 1.56575,-0.49805 3.01757,-0.49805 z"
       id="text5211-5"
       inkscape:connector-curvature="0" />
    <path
       style="fill:none;fill-rule:evenodd;stroke:#000000;stroke-width:2.13852167;stroke-linecap:butt;stroke-linejoin:miter;stroke-miterlimit:4;stroke-dasharray:none;stroke-opacity:1;marker-end:url(#Arrow1Lend)"
       d="m 513.13284,159.78061 84.52073,97.29328"
       id="path6545"
       inkscape:connector-curvature="0" />
    <path
       style="fill:none;fill-rule:evenodd;stroke:#000000;stroke-width:1.93534112;stroke-linecap:butt;stroke-linejoin:miter;stroke-miterlimit:4;stroke-dasharray:none;stroke-opacity:1;marker-end:url(#marker5725)"
       d="m 302.85715,223.79726 -1.74959,-44.90109"
       id="path5717"
       inkscape:connector-curvature="0" />
    <path
       style="fill:none;fill-rule:evenodd;stroke:#000000;stroke-width:2;stroke-linecap:butt;stroke-linejoin:miter;stroke-miterlimit:4;stroke-dasharray:none;stroke-opacity:1;marker-end:url(#marker5971)"
       d="m 118,145 c 0,0 -96.5,-21.5 -1.5,-56"
       id="path5899"
       inkscape:connector-curvature="0" />
    <ellipse
       style="fill:#ffffff;fill-opacity:0;stroke:#000000;stroke-width:2;stroke-miterlimit:4;stroke-dasharray:none;stroke-opacity:1"
       id="path5913"
       cx="176.5"
       cy="89"
       rx="54"
       ry="27" />
    <text
       xml:space="preserve"
       style="font-style:normal;font-weight:normal;font-size:48.69711304px;line-height:125%;font-family:sans-serif;text-align:start;letter-spacing:0px;word-spacing:0px;text-anchor:start;fill:#000000;fill-opacity:1;stroke:none;stroke-width:1px;stroke-linecap:butt;stroke-linejoin:miter;stroke-opacity:1"
       x="8.2570181"
       y="33.321968"
       id="text5927"
       sodipodi:linespacing="125%"
       transform="scale(0.934776,1.069775)"><tspan
         sodipodi:role="line"
         id="tspan5929"
         x="8.2570181"
         y="33.321968"
         style="font-size:18.26141739px;text-align:start;text-anchor:start">b := &quot;True&quot;</tspan><tspan
         sodipodi:role="line"
         x="8.2570181"
         y="56.148739"
         id="tspan5931"
         style="font-size:18.26141739px;text-align:start;text-anchor:start">e0 := &quot;20 + 22&quot;</tspan><tspan
         sodipodi:role="line"
         x="8.2570181"
         y="78.97551"
         id="tspan5933"
         style="font-size:18.26141739px;text-align:start;text-anchor:start">e := &quot;0&quot;</tspan></text>
    <ellipse
       ry="26.819048"
       rx="75.819046"
       cy="89"
       cx="331"
       id="ellipse5995"
       style="fill:#ffffff;fill-opacity:0;stroke:#000000;stroke-width:2.36190319;stroke-miterlimit:4;stroke-dasharray:none;stroke-opacity:1" />
    <ellipse
       style="fill:#ffffff;fill-opacity:0;stroke:#000000;stroke-width:2.36190319;stroke-miterlimit:4;stroke-dasharray:none;stroke-opacity:1"
       id="ellipse6205"
       cx="504.5"
       cy="89"
       rx="75.819046"
       ry="26.819048" />
    <path
       style="fill:none;fill-rule:evenodd;stroke:#000000;stroke-width:2;stroke-linecap:butt;stroke-linejoin:miter;stroke-miterlimit:4;stroke-dasharray:none;stroke-opacity:1;marker-end:url(#marker6869)"
       d="m 565.5,104.5 c 0,0 75.5,48 -40,31"
       id="path6861"
       inkscape:connector-curvature="0" />
    <text
       xml:space="preserve"
       style="font-style:normal;font-weight:normal;font-size:40px;line-height:125%;font-family:sans-serif;letter-spacing:0px;word-spacing:0px;fill:#000000;fill-opacity:1;stroke:none;stroke-width:1px;stroke-linecap:butt;stroke-linejoin:miter;stroke-opacity:1"
       x="216.37468"
       y="114.51559"
       id="text7107"
       sodipodi:linespacing="125%"><tspan
         sodipodi:role="line"
         id="tspan7109"
         x="216.37468"
         y="114.51559">✓</tspan></text>
    <text
       sodipodi:linespacing="125%"
       id="text7115"
       y="114.51559"
       x="393.15137"
       style="font-style:normal;font-weight:normal;font-size:40px;line-height:125%;font-family:sans-serif;letter-spacing:0px;word-spacing:0px;fill:#000000;fill-opacity:1;stroke:none;stroke-width:1px;stroke-linecap:butt;stroke-linejoin:miter;stroke-opacity:1"
       xml:space="preserve"><tspan
         y="114.51559"
         x="393.15137"
         id="tspan7117"
         sodipodi:role="line">✓</tspan></text>
    <text
       xml:space="preserve"
       style="font-style:normal;font-weight:normal;font-size:40px;line-height:125%;font-family:sans-serif;letter-spacing:0px;word-spacing:0px;fill:#000000;fill-opacity:1;stroke:none;stroke-width:1px;stroke-linecap:butt;stroke-linejoin:miter;stroke-opacity:1"
       x="568.51385"
       y="114.51559"
       id="text7119"
       sodipodi:linespacing="125%"><tspan
         sodipodi:role="line"
         id="tspan7121"
         x="568.51385"
         y="114.51559">✓</tspan></text>
    <text
       transform="scale(0.934776,1.069775)"
       sodipodi:linespacing="125%"
       id="text7123"
       y="27.373091"
       x="614.92603"
       style="font-style:normal;font-weight:normal;font-size:48.69711304px;line-height:125%;font-family:sans-serif;text-align:start;letter-spacing:0px;word-spacing:0px;text-anchor:start;fill:#000000;fill-opacity:1;stroke:none;stroke-width:1px;stroke-linecap:butt;stroke-linejoin:miter;stroke-opacity:1"
       xml:space="preserve"><tspan
         style="font-size:18.26141739px;text-align:start;text-anchor:start"
         id="tspan7129"
         y="27.373091"
         x="614.92603"
         sodipodi:role="line">Introduces</tspan><tspan
         style="font-size:18.26141739px;text-align:start;text-anchor:start"
         y="50.199863"
         x="614.92603"
         sodipodi:role="line"
         id="tspan7136">e1 := &quot;42&quot;</tspan><tspan
         style="font-size:18.26141739px;text-align:start;text-anchor:start"
         y="73.026634"
         x="614.92603"
         sodipodi:role="line"
         id="tspan7138">into the state</tspan></text>
  </g>
</svg>
