<?xml version="1.0" encoding="UTF-8"?>
<!DOCTYPE svg PUBLIC "-//W3C//DTD SVG 1.1//EN"
    "http://www.w3.org/Graphics/SVG/1.1/DTD/svg11.dtd">
<svg xmlns="http://www.w3.org/2000/svg" xmlns:xlink="http://www.w3.org/1999/xlink" version="1.1" width="560" height="228" viewBox="0 0 560 228"><rect width="560" height="228" fill="#000000" /><path d="M 280 48 , 160 108" stroke="#00ff00" stroke-width="2" stroke-linecap="round" /><path d="M 280 48 , 440 108" stroke="#00ff00" stroke-width="2" stroke-linecap="round" /><path d="M 440 108 , 330 128" stroke="#00ff00" stroke-width="2" stroke-linecap="round" /><path d="M 440 108 , 350 128" stroke="#00ff00" stroke-width="2" stroke-linecap="round" /><path d="M 440 108 , 370 128" stroke="#00ff00" stroke-width="2" stroke-linecap="round" /><path d="M 440 108 , 390 128" stroke="#00ff00" stroke-width="2" stroke-linecap="round" /><path d="M 440 108 , 430 128" stroke="#00ff00" stroke-width="2" stroke-linecap="round" /><path d="M 440 108 , 470 128" stroke="#00ff00" stroke-width="2" stroke-linecap="round" /><path d="M 440 108 , 510 168" stroke="#00ff00" stroke-width="2" stroke-linecap="round" /><path d="M 440 108 , 550 128" stroke="#00ff00" stroke-width="2" stroke-linecap="round" /><path d="M 510 168 , 490 188" stroke="#00ff00" stroke-width="2" stroke-linecap="round" /><path d="M 510 168 , 510 188" stroke="#00ff00" stroke-width="2" stroke-linecap="round" /><path d="M 510 168 , 530 188" stroke="#00ff00" stroke-width="2" stroke-linecap="round" /><path d="M 160 108 , 10 128" stroke="#00ff00" stroke-width="2" stroke-linecap="round" /><path d="M 160 108 , 30 128" stroke="#00ff00" stroke-width="2" stroke-linecap="round" /><path d="M 160 108 , 50 128" stroke="#00ff00" stroke-width="2" stroke-linecap="round" /><path d="M 160 108 , 70 128" stroke="#00ff00" stroke-width="2" stroke-linecap="round" /><path d="M 160 108 , 160 168" stroke="#00ff00" stroke-width="2" stroke-linecap="round" /><path d="M 160 108 , 250 128" stroke="#00ff00" stroke-width="2" stroke-linecap="round" /><path d="M 160 108 , 280 168" stroke="#00ff00" stroke-width="2" stroke-linecap="round" /><path d="M 160 108 , 310 128" stroke="#00ff00" stroke-width="2" stroke-linecap="round" /><path d="M 280 168 , 270 188" stroke="#00ff00" stroke-width="2" stroke-linecap="round" /><path d="M 280 168 , 290 188" stroke="#00ff00" stroke-width="2" stroke-linecap="round" /><path d="M 160 168 , 110 188" stroke="#00ff00" stroke-width="2" stroke-linecap="round" /><path d="M 160 168 , 160 188" stroke="#00ff00" stroke-width="2" stroke-linecap="round" /><path d="M 160 168 , 210 188" stroke="#00ff00" stroke-width="2" stroke-linecap="round" /><rect x="269" y="16" width="23" height="14" fill="#000000" fill-opacity="1.0" /><rect x="267" y="14" width="27" height="18" fill="#000000" fill-opacity="0.9" /><rect x="265" y="12" width="31" height="22" fill="#000000" fill-opacity="0.75" /><rect x="264" y="11" width="33" height="24" fill="#000000" fill-opacity="0.5" /><rect x="263" y="10" width="35" height="26" fill="#000000" fill-opacity="0.25" /><rect x="261" y="8" width="39" height="30" fill="#000000" fill-opacity="0.1" /><text x="280" y="28" font-size="20" text-anchor="middle" font-family="mono" fill="#00ff00">e.2</text><circle r="4" cx="280" cy="48" fill="#00ff00" /><rect x="142" y="76" width="36" height="14" fill="#000000" fill-opacity="1.0" /><rect x="140" y="74" width="40" height="18" fill="#000000" fill-opacity="0.9" /><rect x="138" y="72" width="44" height="22" fill="#000000" fill-opacity="0.75" /><rect x="137" y="71" width="46" height="24" fill="#000000" fill-opacity="0.5" /><rect x="136" y="70" width="48" height="26" fill="#000000" fill-opacity="0.25" /><rect x="134" y="68" width="52" height="30" fill="#000000" fill-opacity="0.1" /><text x="160" y="88" font-size="20" text-anchor="middle" font-family="mono" fill="#999999">eL.2</text><circle r="4" cx="160" cy="108" fill="#999999" /><rect x="12" y="146" width="-3" height="14" fill="#000000" fill-opacity="1.0" /><rect x="10" y="144" width="1" height="18" fill="#000000" fill-opacity="0.9" /><rect x="8" y="142" width="5" height="22" fill="#000000" fill-opacity="0.75" /><rect x="7" y="141" width="7" height="24" fill="#000000" fill-opacity="0.5" /><rect x="6" y="140" width="9" height="26" fill="#000000" fill-opacity="0.25" /><rect x="4" y="138" width="13" height="30" fill="#000000" fill-opacity="0.1" /><text x="10" y="158" font-size="20" text-anchor="middle" font-family="mono" fill="#999999">(</text><circle r="4" cx="10" cy="128" fill="#999999" /><rect x="32" y="146" width="-3" height="14" fill="#000000" fill-opacity="1.0" /><rect x="30" y="144" width="1" height="18" fill="#000000" fill-opacity="0.9" /><rect x="28" y="142" width="5" height="22" fill="#000000" fill-opacity="0.75" /><rect x="27" y="141" width="7" height="24" fill="#000000" fill-opacity="0.5" /><rect x="26" y="140" width="9" height="26" fill="#000000" fill-opacity="0.25" /><rect x="24" y="138" width="13" height="30" fill="#000000" fill-opacity="0.1" /><text x="30" y="158" font-size="20" text-anchor="middle" font-family="mono" fill="#999999">\</text><circle r="4" cx="30" cy="128" fill="#999999" /><rect x="52" y="146" width="-3" height="14" fill="#000000" fill-opacity="1.0" /><rect x="50" y="144" width="1" height="18" fill="#000000" fill-opacity="0.9" /><rect x="48" y="142" width="5" height="22" fill="#000000" fill-opacity="0.75" /><rect x="47" y="141" width="7" height="24" fill="#000000" fill-opacity="0.5" /><rect x="46" y="140" width="9" height="26" fill="#000000" fill-opacity="0.25" /><rect x="44" y="138" width="13" height="30" fill="#000000" fill-opacity="0.1" /><text x="50" y="158" font-size="20" text-anchor="middle" font-family="mono" fill="#00ff00">f</text><circle r="4" cx="50" cy="128" fill="#00ff00" /><rect x="72" y="146" width="-3" height="14" fill="#000000" fill-opacity="1.0" /><rect x="70" y="144" width="1" height="18" fill="#000000" fill-opacity="0.9" /><rect x="68" y="142" width="5" height="22" fill="#000000" fill-opacity="0.75" /><rect x="67" y="141" width="7" height="24" fill="#000000" fill-opacity="0.5" /><rect x="66" y="140" width="9" height="26" fill="#000000" fill-opacity="0.25" /><rect x="64" y="138" width="13" height="30" fill="#000000" fill-opacity="0.1" /><text x="70" y="158" font-size="20" text-anchor="middle" font-family="mono" fill="#999999">:</text><circle r="4" cx="70" cy="128" fill="#999999" /><rect x="129" y="136" width="62" height="14" fill="#000000" fill-opacity="1.0" /><rect x="127" y="134" width="66" height="18" fill="#000000" fill-opacity="0.9" /><rect x="125" y="132" width="70" height="22" fill="#000000" fill-opacity="0.75" /><rect x="124" y="131" width="72" height="24" fill="#000000" fill-opacity="0.5" /><rect x="123" y="130" width="74" height="26" fill="#000000" fill-opacity="0.25" /><rect x="121" y="128" width="78" height="30" fill="#000000" fill-opacity="0.1" /><text x="160" y="148" font-size="20" text-anchor="middle" font-family="mono" fill="#5555ff">type.0</text><circle r="4" cx="160" cy="168" fill="#5555ff" /><rect x="99" y="206" width="23" height="14" fill="#000000" fill-opacity="1.0" /><rect x="97" y="204" width="27" height="18" fill="#000000" fill-opacity="0.9" /><rect x="95" y="202" width="31" height="22" fill="#000000" fill-opacity="0.75" /><rect x="94" y="201" width="33" height="24" fill="#000000" fill-opacity="0.5" /><rect x="93" y="200" width="35" height="26" fill="#000000" fill-opacity="0.25" /><rect x="91" y="198" width="39" height="30" fill="#000000" fill-opacity="0.1" /><text x="110" y="218" font-size="20" text-anchor="middle" font-family="mono" fill="#5555ff">Int</text><circle r="4" cx="110" cy="188" fill="#5555ff" /><rect x="155" y="206" width="10" height="14" fill="#000000" fill-opacity="1.0" /><rect x="153" y="204" width="14" height="18" fill="#000000" fill-opacity="0.9" /><rect x="151" y="202" width="18" height="22" fill="#000000" fill-opacity="0.75" /><rect x="150" y="201" width="20" height="24" fill="#000000" fill-opacity="0.5" /><rect x="149" y="200" width="22" height="26" fill="#000000" fill-opacity="0.25" /><rect x="147" y="198" width="26" height="30" fill="#000000" fill-opacity="0.1" /><text x="160" y="218" font-size="20" text-anchor="middle" font-family="mono" fill="#5555ff">-&gt;</text><circle r="4" cx="160" cy="188" fill="#5555ff" /><rect x="199" y="206" width="23" height="14" fill="#000000" fill-opacity="1.0" /><rect x="197" y="204" width="27" height="18" fill="#000000" fill-opacity="0.9" /><rect x="195" y="202" width="31" height="22" fill="#000000" fill-opacity="0.75" /><rect x="194" y="201" width="33" height="24" fill="#000000" fill-opacity="0.5" /><rect x="193" y="200" width="35" height="26" fill="#000000" fill-opacity="0.25" /><rect x="191" y="198" width="39" height="30" fill="#000000" fill-opacity="0.1" /><text x="210" y="218" font-size="20" text-anchor="middle" font-family="mono" fill="#5555ff">Int</text><circle r="4" cx="210" cy="188" fill="#5555ff" /><rect x="252" y="146" width="-3" height="14" fill="#000000" fill-opacity="1.0" /><rect x="250" y="144" width="1" height="18" fill="#000000" fill-opacity="0.9" /><rect x="248" y="142" width="5" height="22" fill="#000000" fill-opacity="0.75" /><rect x="247" y="141" width="7" height="24" fill="#000000" fill-opacity="0.5" /><rect x="246" y="140" width="9" height="26" fill="#000000" fill-opacity="0.25" /><rect x="244" y="138" width="13" height="30" fill="#000000" fill-opacity="0.1" /><text x="250" y="158" font-size="20" text-anchor="middle" font-family="mono" fill="#999999">.</text><circle r="4" cx="250" cy="128" fill="#999999" /><rect x="269" y="136" width="23" height="14" fill="#000000" fill-opacity="1.0" /><rect x="267" y="134" width="27" height="18" fill="#000000" fill-opacity="0.9" /><rect x="265" y="132" width="31" height="22" fill="#000000" fill-opacity="0.75" /><rect x="264" y="131" width="33" height="24" fill="#000000" fill-opacity="0.5" /><rect x="263" y="130" width="35" height="26" fill="#000000" fill-opacity="0.25" /><rect x="261" y="128" width="39" height="30" fill="#000000" fill-opacity="0.1" /><text x="280" y="148" font-size="20" text-anchor="middle" font-family="mono" fill="#00ff00">e.2</text><circle r="4" cx="280" cy="168" fill="#00ff00" /><rect x="272" y="206" width="-3" height="14" fill="#000000" fill-opacity="1.0" /><rect x="270" y="204" width="1" height="18" fill="#000000" fill-opacity="0.9" /><rect x="268" y="202" width="5" height="22" fill="#000000" fill-opacity="0.75" /><rect x="267" y="201" width="7" height="24" fill="#000000" fill-opacity="0.5" /><rect x="266" y="200" width="9" height="26" fill="#000000" fill-opacity="0.25" /><rect x="264" y="198" width="13" height="30" fill="#000000" fill-opacity="0.1" /><text x="270" y="218" font-size="20" text-anchor="middle" font-family="mono" fill="#00ff00">f</text><circle r="4" cx="270" cy="188" fill="#00ff00" /><rect x="292" y="206" width="-3" height="14" fill="#000000" fill-opacity="1.0" /><rect x="290" y="204" width="1" height="18" fill="#000000" fill-opacity="0.9" /><rect x="288" y="202" width="5" height="22" fill="#000000" fill-opacity="0.75" /><rect x="287" y="201" width="7" height="24" fill="#000000" fill-opacity="0.5" /><rect x="286" y="200" width="9" height="26" fill="#000000" fill-opacity="0.25" /><rect x="284" y="198" width="13" height="30" fill="#000000" fill-opacity="0.1" /><text x="290" y="218" font-size="20" text-anchor="middle" font-family="mono" fill="#5555ff">5</text><circle r="4" cx="290" cy="188" fill="#5555ff" /><rect x="312" y="146" width="-3" height="14" fill="#000000" fill-opacity="1.0" /><rect x="310" y="144" width="1" height="18" fill="#000000" fill-opacity="0.9" /><rect x="308" y="142" width="5" height="22" fill="#000000" fill-opacity="0.75" /><rect x="307" y="141" width="7" height="24" fill="#000000" fill-opacity="0.5" /><rect x="306" y="140" width="9" height="26" fill="#000000" fill-opacity="0.25" /><rect x="304" y="138" width="13" height="30" fill="#000000" fill-opacity="0.1" /><text x="310" y="158" font-size="20" text-anchor="middle" font-family="mono" fill="#999999">)</text><circle r="4" cx="310" cy="128" fill="#999999" /><rect x="422" y="76" width="36" height="14" fill="#000000" fill-opacity="1.0" /><rect x="420" y="74" width="40" height="18" fill="#000000" fill-opacity="0.9" /><rect x="418" y="72" width="44" height="22" fill="#000000" fill-opacity="0.75" /><rect x="417" y="71" width="46" height="24" fill="#000000" fill-opacity="0.5" /><rect x="416" y="70" width="48" height="26" fill="#000000" fill-opacity="0.25" /><rect x="414" y="68" width="52" height="30" fill="#000000" fill-opacity="0.1" /><text x="440" y="88" font-size="20" text-anchor="middle" font-family="mono" fill="#999999">eL.2</text><circle r="4" cx="440" cy="108" fill="#999999" /><rect x="332" y="146" width="-3" height="14" fill="#000000" fill-opacity="1.0" /><rect x="330" y="144" width="1" height="18" fill="#000000" fill-opacity="0.9" /><rect x="328" y="142" width="5" height="22" fill="#000000" fill-opacity="0.75" /><rect x="327" y="141" width="7" height="24" fill="#000000" fill-opacity="0.5" /><rect x="326" y="140" width="9" height="26" fill="#000000" fill-opacity="0.25" /><rect x="324" y="138" width="13" height="30" fill="#000000" fill-opacity="0.1" /><text x="330" y="158" font-size="20" text-anchor="middle" font-family="mono" fill="#999999">(</text><circle r="4" cx="330" cy="128" fill="#999999" /><rect x="352" y="146" width="-3" height="14" fill="#000000" fill-opacity="1.0" /><rect x="350" y="144" width="1" height="18" fill="#000000" fill-opacity="0.9" /><rect x="348" y="142" width="5" height="22" fill="#000000" fill-opacity="0.75" /><rect x="347" y="141" width="7" height="24" fill="#000000" fill-opacity="0.5" /><rect x="346" y="140" width="9" height="26" fill="#000000" fill-opacity="0.25" /><rect x="344" y="138" width="13" height="30" fill="#000000" fill-opacity="0.1" /><text x="350" y="158" font-size="20" text-anchor="middle" font-family="mono" fill="#999999">\</text><circle r="4" cx="350" cy="128" fill="#999999" /><rect x="372" y="146" width="-3" height="14" fill="#000000" fill-opacity="1.0" /><rect x="370" y="144" width="1" height="18" fill="#000000" fill-opacity="0.9" /><rect x="368" y="142" width="5" height="22" fill="#000000" fill-opacity="0.75" /><rect x="367" y="141" width="7" height="24" fill="#000000" fill-opacity="0.5" /><rect x="366" y="140" width="9" height="26" fill="#000000" fill-opacity="0.25" /><rect x="364" y="138" width="13" height="30" fill="#000000" fill-opacity="0.1" /><text x="370" y="158" font-size="20" text-anchor="middle" font-family="mono" fill="#00ff00">i</text><circle r="4" cx="370" cy="128" fill="#00ff00" /><rect x="392" y="146" width="-3" height="14" fill="#000000" fill-opacity="1.0" /><rect x="390" y="144" width="1" height="18" fill="#000000" fill-opacity="0.9" /><rect x="388" y="142" width="5" height="22" fill="#000000" fill-opacity="0.75" /><rect x="387" y="141" width="7" height="24" fill="#000000" fill-opacity="0.5" /><rect x="386" y="140" width="9" height="26" fill="#000000" fill-opacity="0.25" /><rect x="384" y="138" width="13" height="30" fill="#000000" fill-opacity="0.1" /><text x="390" y="158" font-size="20" text-anchor="middle" font-family="mono" fill="#999999">:</text><circle r="4" cx="390" cy="128" fill="#999999" /><rect x="419" y="146" width="23" height="14" fill="#000000" fill-opacity="1.0" /><rect x="417" y="144" width="27" height="18" fill="#000000" fill-opacity="0.9" /><rect x="415" y="142" width="31" height="22" fill="#000000" fill-opacity="0.75" /><rect x="414" y="141" width="33" height="24" fill="#000000" fill-opacity="0.5" /><rect x="413" y="140" width="35" height="26" fill="#000000" fill-opacity="0.25" /><rect x="411" y="138" width="39" height="30" fill="#000000" fill-opacity="0.1" /><text x="430" y="158" font-size="20" text-anchor="middle" font-family="mono" fill="#5555ff">Int</text><circle r="4" cx="430" cy="128" fill="#5555ff" /><rect x="472" y="146" width="-3" height="14" fill="#000000" fill-opacity="1.0" /><rect x="470" y="144" width="1" height="18" fill="#000000" fill-opacity="0.9" /><rect x="468" y="142" width="5" height="22" fill="#000000" fill-opacity="0.75" /><rect x="467" y="141" width="7" height="24" fill="#000000" fill-opacity="0.5" /><rect x="466" y="140" width="9" height="26" fill="#000000" fill-opacity="0.25" /><rect x="464" y="138" width="13" height="30" fill="#000000" fill-opacity="0.1" /><text x="470" y="158" font-size="20" text-anchor="middle" font-family="mono" fill="#999999">.</text><circle r="4" cx="470" cy="128" fill="#999999" /><rect x="499" y="136" width="23" height="14" fill="#000000" fill-opacity="1.0" /><rect x="497" y="134" width="27" height="18" fill="#000000" fill-opacity="0.9" /><rect x="495" y="132" width="31" height="22" fill="#000000" fill-opacity="0.75" /><rect x="494" y="131" width="33" height="24" fill="#000000" fill-opacity="0.5" /><rect x="493" y="130" width="35" height="26" fill="#000000" fill-opacity="0.25" /><rect x="491" y="128" width="39" height="30" fill="#000000" fill-opacity="0.1" /><text x="510" y="148" font-size="20" text-anchor="middle" font-family="mono" fill="#00ff00">e.0</text><circle r="4" cx="510" cy="168" fill="#00ff00" /><rect x="492" y="206" width="-3" height="14" fill="#000000" fill-opacity="1.0" /><rect x="490" y="204" width="1" height="18" fill="#000000" fill-opacity="0.9" /><rect x="488" y="202" width="5" height="22" fill="#000000" fill-opacity="0.75" /><rect x="487" y="201" width="7" height="24" fill="#000000" fill-opacity="0.5" /><rect x="486" y="200" width="9" height="26" fill="#000000" fill-opacity="0.25" /><rect x="484" y="198" width="13" height="30" fill="#000000" fill-opacity="0.1" /><text x="490" y="218" font-size="20" text-anchor="middle" font-family="mono" fill="#00ff00">i</text><circle r="4" cx="490" cy="188" fill="#00ff00" /><rect x="512" y="206" width="-3" height="14" fill="#000000" fill-opacity="1.0" /><rect x="510" y="204" width="1" height="18" fill="#000000" fill-opacity="0.9" /><rect x="508" y="202" width="5" height="22" fill="#000000" fill-opacity="0.75" /><rect x="507" y="201" width="7" height="24" fill="#000000" fill-opacity="0.5" /><rect x="506" y="200" width="9" height="26" fill="#000000" fill-opacity="0.25" /><rect x="504" y="198" width="13" height="30" fill="#000000" fill-opacity="0.1" /><text x="510" y="218" font-size="20" text-anchor="middle" font-family="mono" fill="#00ff00">+</text><circle r="4" cx="510" cy="188" fill="#00ff00" /><rect x="532" y="206" width="-3" height="14" fill="#000000" fill-opacity="1.0" /><rect x="530" y="204" width="1" height="18" fill="#000000" fill-opacity="0.9" /><rect x="528" y="202" width="5" height="22" fill="#000000" fill-opacity="0.75" /><rect x="527" y="201" width="7" height="24" fill="#000000" fill-opacity="0.5" /><rect x="526" y="200" width="9" height="26" fill="#000000" fill-opacity="0.25" /><rect x="524" y="198" width="13" height="30" fill="#000000" fill-opacity="0.1" /><text x="530" y="218" font-size="20" text-anchor="middle" font-family="mono" fill="#5555ff">1</text><circle r="4" cx="530" cy="188" fill="#5555ff" /><rect x="552" y="146" width="-3" height="14" fill="#000000" fill-opacity="1.0" /><rect x="550" y="144" width="1" height="18" fill="#000000" fill-opacity="0.9" /><rect x="548" y="142" width="5" height="22" fill="#000000" fill-opacity="0.75" /><rect x="547" y="141" width="7" height="24" fill="#000000" fill-opacity="0.5" /><rect x="546" y="140" width="9" height="26" fill="#000000" fill-opacity="0.25" /><rect x="544" y="138" width="13" height="30" fill="#000000" fill-opacity="0.1" /><text x="550" y="158" font-size="20" text-anchor="middle" font-family="mono" fill="#999999">)</text><circle r="4" cx="550" cy="128" fill="#999999" /></svg>