<?xml version="1.0" encoding="UTF-8"?>
<!DOCTYPE svg PUBLIC "-//W3C//DTD SVG 1.1//EN"
    "http://www.w3.org/Graphics/SVG/1.1/DTD/svg11.dtd">
<svg xmlns="http://www.w3.org/2000/svg" xmlns:xlink="http://www.w3.org/1999/xlink" version="1.1" width="140" height="228" viewBox="0 0 140 228"><rect width="140" height="228" fill="#000000" /><path d="M 70 48 , 10 68" stroke="#00ff00" stroke-width="2" stroke-linecap="round" /><path d="M 70 48 , 30 68" stroke="#00ff00" stroke-width="2" stroke-linecap="round" /><path d="M 70 48 , 90 108" stroke="#00ff00" stroke-width="2" stroke-linecap="round" /><path d="M 90 108 , 50 128" stroke="#00ff00" stroke-width="2" stroke-linecap="round" /><path d="M 90 108 , 90 168" stroke="#00ff00" stroke-width="2" stroke-linecap="round" /><path d="M 90 108 , 130 128" stroke="#00ff00" stroke-width="2" stroke-linecap="round" /><path d="M 90 168 , 70 188" stroke="#00ff00" stroke-width="2" stroke-linecap="round" /><path d="M 90 168 , 90 188" stroke="#00ff00" stroke-width="2" stroke-linecap="round" /><path d="M 90 168 , 110 188" stroke="#00ff00" stroke-width="2" stroke-linecap="round" /><rect x="59" y="16" width="23" height="14" fill="#000000" fill-opacity="1.0" /><rect x="57" y="14" width="27" height="18" fill="#000000" fill-opacity="0.9" /><rect x="55" y="12" width="31" height="22" fill="#000000" fill-opacity="0.75" /><rect x="54" y="11" width="33" height="24" fill="#000000" fill-opacity="0.5" /><rect x="53" y="10" width="35" height="26" fill="#000000" fill-opacity="0.25" /><rect x="51" y="8" width="39" height="30" fill="#000000" fill-opacity="0.1" /><text x="70" y="28" font-size="20" text-anchor="middle" font-family="mono" fill="#00ff00">e.0</text><circle r="4" cx="70" cy="48" fill="#00ff00" /><rect x="12" y="86" width="-3" height="14" fill="#000000" fill-opacity="1.0" /><rect x="10" y="84" width="1" height="18" fill="#000000" fill-opacity="0.9" /><rect x="8" y="82" width="5" height="22" fill="#000000" fill-opacity="0.75" /><rect x="7" y="81" width="7" height="24" fill="#000000" fill-opacity="0.5" /><rect x="6" y="80" width="9" height="26" fill="#000000" fill-opacity="0.25" /><rect x="4" y="78" width="13" height="30" fill="#000000" fill-opacity="0.1" /><text x="10" y="98" font-size="20" text-anchor="middle" font-family="mono" fill="#00ff00">5</text><circle r="4" cx="10" cy="68" fill="#00ff00" /><rect x="32" y="86" width="-3" height="14" fill="#000000" fill-opacity="1.0" /><rect x="30" y="84" width="1" height="18" fill="#000000" fill-opacity="0.9" /><rect x="28" y="82" width="5" height="22" fill="#000000" fill-opacity="0.75" /><rect x="27" y="81" width="7" height="24" fill="#000000" fill-opacity="0.5" /><rect x="26" y="80" width="9" height="26" fill="#000000" fill-opacity="0.25" /><rect x="24" y="78" width="13" height="30" fill="#000000" fill-opacity="0.1" /><text x="30" y="98" font-size="20" text-anchor="middle" font-family="mono" fill="#00ff00">+</text><circle r="4" cx="30" cy="68" fill="#00ff00" /><rect x="72" y="76" width="36" height="14" fill="#000000" fill-opacity="1.0" /><rect x="70" y="74" width="40" height="18" fill="#000000" fill-opacity="0.9" /><rect x="68" y="72" width="44" height="22" fill="#000000" fill-opacity="0.75" /><rect x="67" y="71" width="46" height="24" fill="#000000" fill-opacity="0.5" /><rect x="66" y="70" width="48" height="26" fill="#000000" fill-opacity="0.25" /><rect x="64" y="68" width="52" height="30" fill="#000000" fill-opacity="0.1" /><text x="90" y="88" font-size="20" text-anchor="middle" font-family="mono" fill="#00ff00">eL.4</text><circle r="4" cx="90" cy="108" fill="#00ff00" /><rect x="52" y="146" width="-3" height="14" fill="#000000" fill-opacity="1.0" /><rect x="50" y="144" width="1" height="18" fill="#000000" fill-opacity="0.9" /><rect x="48" y="142" width="5" height="22" fill="#000000" fill-opacity="0.75" /><rect x="47" y="141" width="7" height="24" fill="#000000" fill-opacity="0.5" /><rect x="46" y="140" width="9" height="26" fill="#000000" fill-opacity="0.25" /><rect x="44" y="138" width="13" height="30" fill="#000000" fill-opacity="0.1" /><text x="50" y="158" font-size="20" text-anchor="middle" font-family="mono" fill="#00ff00">(</text><circle r="4" cx="50" cy="128" fill="#00ff00" /><rect x="79" y="136" width="23" height="14" fill="#000000" fill-opacity="1.0" /><rect x="77" y="134" width="27" height="18" fill="#000000" fill-opacity="0.9" /><rect x="75" y="132" width="31" height="22" fill="#000000" fill-opacity="0.75" /><rect x="74" y="131" width="33" height="24" fill="#000000" fill-opacity="0.5" /><rect x="73" y="130" width="35" height="26" fill="#000000" fill-opacity="0.25" /><rect x="71" y="128" width="39" height="30" fill="#000000" fill-opacity="0.1" /><text x="90" y="148" font-size="20" text-anchor="middle" font-family="mono" fill="#00ff00">e.0</text><circle r="4" cx="90" cy="168" fill="#00ff00" /><rect x="72" y="206" width="-3" height="14" fill="#000000" fill-opacity="1.0" /><rect x="70" y="204" width="1" height="18" fill="#000000" fill-opacity="0.9" /><rect x="68" y="202" width="5" height="22" fill="#000000" fill-opacity="0.75" /><rect x="67" y="201" width="7" height="24" fill="#000000" fill-opacity="0.5" /><rect x="66" y="200" width="9" height="26" fill="#000000" fill-opacity="0.25" /><rect x="64" y="198" width="13" height="30" fill="#000000" fill-opacity="0.1" /><text x="70" y="218" font-size="20" text-anchor="middle" font-family="mono" fill="#00ff00">6</text><circle r="4" cx="70" cy="188" fill="#00ff00" /><rect x="92" y="206" width="-3" height="14" fill="#000000" fill-opacity="1.0" /><rect x="90" y="204" width="1" height="18" fill="#000000" fill-opacity="0.9" /><rect x="88" y="202" width="5" height="22" fill="#000000" fill-opacity="0.75" /><rect x="87" y="201" width="7" height="24" fill="#000000" fill-opacity="0.5" /><rect x="86" y="200" width="9" height="26" fill="#000000" fill-opacity="0.25" /><rect x="84" y="198" width="13" height="30" fill="#000000" fill-opacity="0.1" /><text x="90" y="218" font-size="20" text-anchor="middle" font-family="mono" fill="#00ff00">+</text><circle r="4" cx="90" cy="188" fill="#00ff00" /><rect x="112" y="206" width="-3" height="14" fill="#000000" fill-opacity="1.0" /><rect x="110" y="204" width="1" height="18" fill="#000000" fill-opacity="0.9" /><rect x="108" y="202" width="5" height="22" fill="#000000" fill-opacity="0.75" /><rect x="107" y="201" width="7" height="24" fill="#000000" fill-opacity="0.5" /><rect x="106" y="200" width="9" height="26" fill="#000000" fill-opacity="0.25" /><rect x="104" y="198" width="13" height="30" fill="#000000" fill-opacity="0.1" /><text x="110" y="218" font-size="20" text-anchor="middle" font-family="mono" fill="#00ff00">7</text><circle r="4" cx="110" cy="188" fill="#00ff00" /><rect x="132" y="146" width="-3" height="14" fill="#000000" fill-opacity="1.0" /><rect x="130" y="144" width="1" height="18" fill="#000000" fill-opacity="0.9" /><rect x="128" y="142" width="5" height="22" fill="#000000" fill-opacity="0.75" /><rect x="127" y="141" width="7" height="24" fill="#000000" fill-opacity="0.5" /><rect x="126" y="140" width="9" height="26" fill="#000000" fill-opacity="0.25" /><rect x="124" y="138" width="13" height="30" fill="#000000" fill-opacity="0.1" /><text x="130" y="158" font-size="20" text-anchor="middle" font-family="mono" fill="#00ff00">)</text><circle r="4" cx="130" cy="128" fill="#00ff00" /></svg>