<?xml version="1.0" encoding="UTF-8"?>
<!DOCTYPE svg PUBLIC "-//W3C//DTD SVG 1.1//EN"
    "http://www.w3.org/Graphics/SVG/1.1/DTD/svg11.dtd">
<svg xmlns="http://www.w3.org/2000/svg" xmlns:xlink="http://www.w3.org/1999/xlink" version="1.1" width="380" height="348" viewBox="0 0 380 348"><rect width="380" height="348" fill="#ffffff" /><path d="M 190 48 , 30 68" stroke="#000000" stroke-width="1" stroke-linecap="round" /><path d="M 190 48 , 70 68" stroke="#000000" stroke-width="1" stroke-linecap="round" /><path d="M 190 48 , 230 108" stroke="#000000" stroke-width="1" stroke-linecap="round" /><path d="M 230 108 , 90 128" stroke="#000000" stroke-width="1" stroke-linecap="round" /><path d="M 230 108 , 230 168" stroke="#000000" stroke-width="1" stroke-linecap="round" /><path d="M 230 108 , 370 128" stroke="#000000" stroke-width="1" stroke-linecap="round" /><path d="M 230 168 , 130 188" stroke="#000000" stroke-width="1" stroke-linecap="round" /><path d="M 230 168 , 170 188" stroke="#000000" stroke-width="1" stroke-linecap="round" /><path d="M 230 168 , 270 228" stroke="#000000" stroke-width="1" stroke-linecap="round" /><path d="M 270 228 , 190 248" stroke="#000000" stroke-width="1" stroke-linecap="round" /><path d="M 270 228 , 270 288" stroke="#000000" stroke-width="1" stroke-linecap="round" /><path d="M 270 228 , 350 248" stroke="#000000" stroke-width="1" stroke-linecap="round" /><path d="M 270 288 , 230 308" stroke="#000000" stroke-width="1" stroke-linecap="round" /><path d="M 270 288 , 270 308" stroke="#000000" stroke-width="1" stroke-linecap="round" /><path d="M 270 288 , 310 308" stroke="#000000" stroke-width="1" stroke-linecap="round" /><rect x="179" y="16" width="23" height="14" fill="#ffffff" fill-opacity="1.0" /><rect x="177" y="14" width="27" height="18" fill="#ffffff" fill-opacity="0.9" /><rect x="175" y="12" width="31" height="22" fill="#ffffff" fill-opacity="0.75" /><rect x="174" y="11" width="33" height="24" fill="#ffffff" fill-opacity="0.5" /><rect x="173" y="10" width="35" height="26" fill="#ffffff" fill-opacity="0.25" /><rect x="171" y="8" width="39" height="30" fill="#ffffff" fill-opacity="0.1" /><text x="190" y="28" font-size="20" text-anchor="middle" font-family="mono" fill="#000000">e.0</text><circle r="4" cx="190" cy="48" fill="#000000" /><rect x="19" y="86" width="23" height="14" fill="#ffffff" fill-opacity="1.0" /><rect x="17" y="84" width="27" height="18" fill="#ffffff" fill-opacity="0.9" /><rect x="15" y="82" width="31" height="22" fill="#ffffff" fill-opacity="0.75" /><rect x="14" y="81" width="33" height="24" fill="#ffffff" fill-opacity="0.5" /><rect x="13" y="80" width="35" height="26" fill="#ffffff" fill-opacity="0.25" /><rect x="11" y="78" width="39" height="30" fill="#ffffff" fill-opacity="0.1" /><text x="30" y="98" font-size="20" text-anchor="middle" font-family="mono" fill="#000000">&lt;5&gt;</text><circle r="4" cx="30" cy="68" fill="#000000" /><rect x="72" y="86" width="-3" height="14" fill="#ffffff" fill-opacity="1.0" /><rect x="70" y="84" width="1" height="18" fill="#ffffff" fill-opacity="0.9" /><rect x="68" y="82" width="5" height="22" fill="#ffffff" fill-opacity="0.75" /><rect x="67" y="81" width="7" height="24" fill="#ffffff" fill-opacity="0.5" /><rect x="66" y="80" width="9" height="26" fill="#ffffff" fill-opacity="0.25" /><rect x="64" y="78" width="13" height="30" fill="#ffffff" fill-opacity="0.1" /><text x="70" y="98" font-size="20" text-anchor="middle" font-family="mono" fill="#000000">+</text><circle r="4" cx="70" cy="68" fill="#000000" /><rect x="212" y="76" width="36" height="14" fill="#ffffff" fill-opacity="1.0" /><rect x="210" y="74" width="40" height="18" fill="#ffffff" fill-opacity="0.9" /><rect x="208" y="72" width="44" height="22" fill="#ffffff" fill-opacity="0.75" /><rect x="207" y="71" width="46" height="24" fill="#ffffff" fill-opacity="0.5" /><rect x="206" y="70" width="48" height="26" fill="#ffffff" fill-opacity="0.25" /><rect x="204" y="68" width="52" height="30" fill="#ffffff" fill-opacity="0.1" /><text x="230" y="88" font-size="20" text-anchor="middle" font-family="mono" fill="#000000">eL.4</text><circle r="4" cx="230" cy="108" fill="#000000" /><rect x="92" y="146" width="-3" height="14" fill="#ffffff" fill-opacity="1.0" /><rect x="90" y="144" width="1" height="18" fill="#ffffff" fill-opacity="0.9" /><rect x="88" y="142" width="5" height="22" fill="#ffffff" fill-opacity="0.75" /><rect x="87" y="141" width="7" height="24" fill="#ffffff" fill-opacity="0.5" /><rect x="86" y="140" width="9" height="26" fill="#ffffff" fill-opacity="0.25" /><rect x="84" y="138" width="13" height="30" fill="#ffffff" fill-opacity="0.1" /><text x="90" y="158" font-size="20" text-anchor="middle" font-family="mono" fill="#000000">(</text><circle r="4" cx="90" cy="128" fill="#000000" /><rect x="219" y="136" width="23" height="14" fill="#ffffff" fill-opacity="1.0" /><rect x="217" y="134" width="27" height="18" fill="#ffffff" fill-opacity="0.9" /><rect x="215" y="132" width="31" height="22" fill="#ffffff" fill-opacity="0.75" /><rect x="214" y="131" width="33" height="24" fill="#ffffff" fill-opacity="0.5" /><rect x="213" y="130" width="35" height="26" fill="#ffffff" fill-opacity="0.25" /><rect x="211" y="128" width="39" height="30" fill="#ffffff" fill-opacity="0.1" /><text x="230" y="148" font-size="20" text-anchor="middle" font-family="mono" fill="#000000">e.0</text><circle r="4" cx="230" cy="168" fill="#000000" /><rect x="119" y="206" width="23" height="14" fill="#ffffff" fill-opacity="1.0" /><rect x="117" y="204" width="27" height="18" fill="#ffffff" fill-opacity="0.9" /><rect x="115" y="202" width="31" height="22" fill="#ffffff" fill-opacity="0.75" /><rect x="114" y="201" width="33" height="24" fill="#ffffff" fill-opacity="0.5" /><rect x="113" y="200" width="35" height="26" fill="#ffffff" fill-opacity="0.25" /><rect x="111" y="198" width="39" height="30" fill="#ffffff" fill-opacity="0.1" /><text x="130" y="218" font-size="20" text-anchor="middle" font-family="mono" fill="#000000">&lt;6&gt;</text><circle r="4" cx="130" cy="188" fill="#000000" /><rect x="172" y="206" width="-3" height="14" fill="#ffffff" fill-opacity="1.0" /><rect x="170" y="204" width="1" height="18" fill="#ffffff" fill-opacity="0.9" /><rect x="168" y="202" width="5" height="22" fill="#ffffff" fill-opacity="0.75" /><rect x="167" y="201" width="7" height="24" fill="#ffffff" fill-opacity="0.5" /><rect x="166" y="200" width="9" height="26" fill="#ffffff" fill-opacity="0.25" /><rect x="164" y="198" width="13" height="30" fill="#ffffff" fill-opacity="0.1" /><text x="170" y="218" font-size="20" text-anchor="middle" font-family="mono" fill="#000000">+</text><circle r="4" cx="170" cy="188" fill="#000000" /><rect x="252" y="196" width="36" height="14" fill="#ffffff" fill-opacity="1.0" /><rect x="250" y="194" width="40" height="18" fill="#ffffff" fill-opacity="0.9" /><rect x="248" y="192" width="44" height="22" fill="#ffffff" fill-opacity="0.75" /><rect x="247" y="191" width="46" height="24" fill="#ffffff" fill-opacity="0.5" /><rect x="246" y="190" width="48" height="26" fill="#ffffff" fill-opacity="0.25" /><rect x="244" y="188" width="52" height="30" fill="#ffffff" fill-opacity="0.1" /><text x="270" y="208" font-size="20" text-anchor="middle" font-family="mono" fill="#000000">eL.4</text><circle r="4" cx="270" cy="228" fill="#000000" /><rect x="192" y="266" width="-3" height="14" fill="#ffffff" fill-opacity="1.0" /><rect x="190" y="264" width="1" height="18" fill="#ffffff" fill-opacity="0.9" /><rect x="188" y="262" width="5" height="22" fill="#ffffff" fill-opacity="0.75" /><rect x="187" y="261" width="7" height="24" fill="#ffffff" fill-opacity="0.5" /><rect x="186" y="260" width="9" height="26" fill="#ffffff" fill-opacity="0.25" /><rect x="184" y="258" width="13" height="30" fill="#ffffff" fill-opacity="0.1" /><text x="190" y="278" font-size="20" text-anchor="middle" font-family="mono" fill="#000000">(</text><circle r="4" cx="190" cy="248" fill="#000000" /><rect x="259" y="256" width="23" height="14" fill="#ffffff" fill-opacity="1.0" /><rect x="257" y="254" width="27" height="18" fill="#ffffff" fill-opacity="0.9" /><rect x="255" y="252" width="31" height="22" fill="#ffffff" fill-opacity="0.75" /><rect x="254" y="251" width="33" height="24" fill="#ffffff" fill-opacity="0.5" /><rect x="253" y="250" width="35" height="26" fill="#ffffff" fill-opacity="0.25" /><rect x="251" y="248" width="39" height="30" fill="#ffffff" fill-opacity="0.1" /><text x="270" y="268" font-size="20" text-anchor="middle" font-family="mono" fill="#000000">e.0</text><circle r="4" cx="270" cy="288" fill="#000000" /><rect x="219" y="326" width="23" height="14" fill="#ffffff" fill-opacity="1.0" /><rect x="217" y="324" width="27" height="18" fill="#ffffff" fill-opacity="0.9" /><rect x="215" y="322" width="31" height="22" fill="#ffffff" fill-opacity="0.75" /><rect x="214" y="321" width="33" height="24" fill="#ffffff" fill-opacity="0.5" /><rect x="213" y="320" width="35" height="26" fill="#ffffff" fill-opacity="0.25" /><rect x="211" y="318" width="39" height="30" fill="#ffffff" fill-opacity="0.1" /><text x="230" y="338" font-size="20" text-anchor="middle" font-family="mono" fill="#000000">&lt;7&gt;</text><circle r="4" cx="230" cy="308" fill="#000000" /><rect x="272" y="326" width="-3" height="14" fill="#ffffff" fill-opacity="1.0" /><rect x="270" y="324" width="1" height="18" fill="#ffffff" fill-opacity="0.9" /><rect x="268" y="322" width="5" height="22" fill="#ffffff" fill-opacity="0.75" /><rect x="267" y="321" width="7" height="24" fill="#ffffff" fill-opacity="0.5" /><rect x="266" y="320" width="9" height="26" fill="#ffffff" fill-opacity="0.25" /><rect x="264" y="318" width="13" height="30" fill="#ffffff" fill-opacity="0.1" /><text x="270" y="338" font-size="20" text-anchor="middle" font-family="mono" fill="#000000">+</text><circle r="4" cx="270" cy="308" fill="#000000" /><rect x="299" y="326" width="23" height="14" fill="#ffffff" fill-opacity="1.0" /><rect x="297" y="324" width="27" height="18" fill="#ffffff" fill-opacity="0.9" /><rect x="295" y="322" width="31" height="22" fill="#ffffff" fill-opacity="0.75" /><rect x="294" y="321" width="33" height="24" fill="#ffffff" fill-opacity="0.5" /><rect x="293" y="320" width="35" height="26" fill="#ffffff" fill-opacity="0.25" /><rect x="291" y="318" width="39" height="30" fill="#ffffff" fill-opacity="0.1" /><text x="310" y="338" font-size="20" text-anchor="middle" font-family="mono" fill="#000000">&lt;8&gt;</text><circle r="4" cx="310" cy="308" fill="#000000" /><rect x="352" y="266" width="-3" height="14" fill="#ffffff" fill-opacity="1.0" /><rect x="350" y="264" width="1" height="18" fill="#ffffff" fill-opacity="0.9" /><rect x="348" y="262" width="5" height="22" fill="#ffffff" fill-opacity="0.75" /><rect x="347" y="261" width="7" height="24" fill="#ffffff" fill-opacity="0.5" /><rect x="346" y="260" width="9" height="26" fill="#ffffff" fill-opacity="0.25" /><rect x="344" y="258" width="13" height="30" fill="#ffffff" fill-opacity="0.1" /><text x="350" y="278" font-size="20" text-anchor="middle" font-family="mono" fill="#000000">)</text><circle r="4" cx="350" cy="248" fill="#000000" /><rect x="372" y="146" width="-3" height="14" fill="#ffffff" fill-opacity="1.0" /><rect x="370" y="144" width="1" height="18" fill="#ffffff" fill-opacity="0.9" /><rect x="368" y="142" width="5" height="22" fill="#ffffff" fill-opacity="0.75" /><rect x="367" y="141" width="7" height="24" fill="#ffffff" fill-opacity="0.5" /><rect x="366" y="140" width="9" height="26" fill="#ffffff" fill-opacity="0.25" /><rect x="364" y="138" width="13" height="30" fill="#ffffff" fill-opacity="0.1" /><text x="370" y="158" font-size="20" text-anchor="middle" font-family="mono" fill="#000000">)</text><circle r="4" cx="370" cy="128" fill="#000000" /></svg>