<?xml version="1.0" encoding="UTF-8"?>
<!DOCTYPE svg PUBLIC "-//W3C//DTD SVG 1.1//EN"
    "http://www.w3.org/Graphics/SVG/1.1/DTD/svg11.dtd">
<svg xmlns="http://www.w3.org/2000/svg" xmlns:xlink="http://www.w3.org/1999/xlink" version="1.1" width="380" height="108" viewBox="0 0 380 108"><rect width="380" height="108" fill="#000000" /><path d="M 190 48 , 20 68" stroke="#00ff00" stroke-width="2" stroke-linecap="round" /><path d="M 190 48 , 90 68" stroke="#00ff00" stroke-width="2" stroke-linecap="round" /><path d="M 190 48 , 180 68" stroke="#00ff00" stroke-width="2" stroke-linecap="round" /><path d="M 190 48 , 240 68" stroke="#00ff00" stroke-width="2" stroke-linecap="round" /><path d="M 190 48 , 300 68" stroke="#00ff00" stroke-width="2" stroke-linecap="round" /><path d="M 190 48 , 360 68" stroke="#00ff00" stroke-width="2" stroke-linecap="round" /><rect x="172" y="16" width="36" height="14" fill="#000000" fill-opacity="1.0" /><rect x="170" y="14" width="40" height="18" fill="#000000" fill-opacity="0.9" /><rect x="168" y="12" width="44" height="22" fill="#000000" fill-opacity="0.75" /><rect x="167" y="11" width="46" height="24" fill="#000000" fill-opacity="0.5" /><rect x="166" y="10" width="48" height="26" fill="#000000" fill-opacity="0.25" /><rect x="164" y="8" width="52" height="30" fill="#000000" fill-opacity="0.1" /><text x="190" y="28" font-size="20" text-anchor="middle" font-family="mono" fill="#00ff00">eL.3</text><circle r="4" cx="190" cy="48" fill="#00ff00" /><rect x="15" y="86" width="10" height="14" fill="#000000" fill-opacity="1.0" /><rect x="13" y="84" width="14" height="18" fill="#000000" fill-opacity="0.9" /><rect x="11" y="82" width="18" height="22" fill="#000000" fill-opacity="0.75" /><rect x="10" y="81" width="20" height="24" fill="#000000" fill-opacity="0.5" /><rect x="9" y="80" width="22" height="26" fill="#000000" fill-opacity="0.25" /><rect x="7" y="78" width="26" height="30" fill="#000000" fill-opacity="0.1" /><text x="20" y="98" font-size="20" text-anchor="middle" font-family="mono" fill="#00ff00">If</text><circle r="4" cx="20" cy="68" fill="#00ff00" /><rect x="66" y="86" width="49" height="14" fill="#000000" fill-opacity="1.0" /><rect x="64" y="84" width="53" height="18" fill="#000000" fill-opacity="0.9" /><rect x="62" y="82" width="57" height="22" fill="#000000" fill-opacity="0.75" /><rect x="61" y="81" width="59" height="24" fill="#000000" fill-opacity="0.5" /><rect x="60" y="80" width="61" height="26" fill="#000000" fill-opacity="0.25" /><rect x="58" y="78" width="65" height="30" fill="#000000" fill-opacity="0.1" /><text x="90" y="98" font-size="20" text-anchor="middle" font-family="mono" fill="#5555ff">False</text><circle r="4" cx="90" cy="68" fill="#5555ff" /><rect x="162" y="86" width="36" height="14" fill="#000000" fill-opacity="1.0" /><rect x="160" y="84" width="40" height="18" fill="#000000" fill-opacity="0.9" /><rect x="158" y="82" width="44" height="22" fill="#000000" fill-opacity="0.75" /><rect x="157" y="81" width="46" height="24" fill="#000000" fill-opacity="0.5" /><rect x="156" y="80" width="48" height="26" fill="#000000" fill-opacity="0.25" /><rect x="154" y="78" width="52" height="30" fill="#000000" fill-opacity="0.1" /><text x="180" y="98" font-size="20" text-anchor="middle" font-family="mono" fill="#00ff00">Then</text><circle r="4" cx="180" cy="68" fill="#00ff00" /><rect x="235" y="86" width="10" height="14" fill="#000000" fill-opacity="1.0" /><rect x="233" y="84" width="14" height="18" fill="#000000" fill-opacity="0.9" /><rect x="231" y="82" width="18" height="22" fill="#000000" fill-opacity="0.75" /><rect x="230" y="81" width="20" height="24" fill="#000000" fill-opacity="0.5" /><rect x="229" y="80" width="22" height="26" fill="#000000" fill-opacity="0.25" /><rect x="227" y="78" width="26" height="30" fill="#000000" fill-opacity="0.1" /><text x="240" y="98" font-size="20" text-anchor="middle" font-family="mono" fill="#00ff00">23</text><circle r="4" cx="240" cy="68" fill="#00ff00" /><rect x="282" y="86" width="36" height="14" fill="#000000" fill-opacity="1.0" /><rect x="280" y="84" width="40" height="18" fill="#000000" fill-opacity="0.9" /><rect x="278" y="82" width="44" height="22" fill="#000000" fill-opacity="0.75" /><rect x="277" y="81" width="46" height="24" fill="#000000" fill-opacity="0.5" /><rect x="276" y="80" width="48" height="26" fill="#000000" fill-opacity="0.25" /><rect x="274" y="78" width="52" height="30" fill="#000000" fill-opacity="0.1" /><text x="300" y="98" font-size="20" text-anchor="middle" font-family="mono" fill="#00ff00">Else</text><circle r="4" cx="300" cy="68" fill="#00ff00" /><rect x="355" y="86" width="10" height="14" fill="#000000" fill-opacity="1.0" /><rect x="353" y="84" width="14" height="18" fill="#000000" fill-opacity="0.9" /><rect x="351" y="82" width="18" height="22" fill="#000000" fill-opacity="0.75" /><rect x="350" y="81" width="20" height="24" fill="#000000" fill-opacity="0.5" /><rect x="349" y="80" width="22" height="26" fill="#000000" fill-opacity="0.25" /><rect x="347" y="78" width="26" height="30" fill="#000000" fill-opacity="0.1" /><text x="360" y="98" font-size="20" text-anchor="middle" font-family="mono" fill="#00ff00">44</text><circle r="4" cx="360" cy="68" fill="#00ff00" /></svg>