<?xml version="1.0" encoding="UTF-8"?>
<!DOCTYPE svg PUBLIC "-//W3C//DTD SVG 1.1//EN"
    "http://www.w3.org/Graphics/SVG/1.1/DTD/svg11.dtd">
<svg xmlns="http://www.w3.org/2000/svg" xmlns:xlink="http://www.w3.org/1999/xlink" version="1.1" width="860" height="228" viewBox="0 0 860 228"><rect width="860" height="228" fill="#000000" /><path d="M 430 48 , 20 68" stroke="#00ff00" stroke-width="2" stroke-linecap="round" /><path d="M 430 48 , 290 108" stroke="#00ff00" stroke-width="2" stroke-linecap="round" /><path d="M 430 48 , 580 68" stroke="#00ff00" stroke-width="2" stroke-linecap="round" /><path d="M 430 48 , 680 68" stroke="#00ff00" stroke-width="2" stroke-linecap="round" /><path d="M 430 48 , 780 68" stroke="#00ff00" stroke-width="2" stroke-linecap="round" /><path d="M 430 48 , 840 68" stroke="#00ff00" stroke-width="2" stroke-linecap="round" /><path d="M 290 108 , 50 128" stroke="#00ff00" stroke-width="2" stroke-linecap="round" /><path d="M 290 108 , 290 168" stroke="#00ff00" stroke-width="2" stroke-linecap="round" /><path d="M 290 108 , 530 128" stroke="#00ff00" stroke-width="2" stroke-linecap="round" /><path d="M 290 168 , 80 188" stroke="#00ff00" stroke-width="2" stroke-linecap="round" /><path d="M 290 168 , 140 188" stroke="#00ff00" stroke-width="2" stroke-linecap="round" /><path d="M 290 168 , 220 188" stroke="#00ff00" stroke-width="2" stroke-linecap="round" /><path d="M 290 168 , 310 188" stroke="#00ff00" stroke-width="2" stroke-linecap="round" /><path d="M 290 168 , 400 188" stroke="#00ff00" stroke-width="2" stroke-linecap="round" /><path d="M 290 168 , 480 188" stroke="#00ff00" stroke-width="2" stroke-linecap="round" /><rect x="412" y="16" width="36" height="14" fill="#000000" fill-opacity="1.0" /><rect x="410" y="14" width="40" height="18" fill="#000000" fill-opacity="0.9" /><rect x="408" y="12" width="44" height="22" fill="#000000" fill-opacity="0.75" /><rect x="407" y="11" width="46" height="24" fill="#000000" fill-opacity="0.5" /><rect x="406" y="10" width="48" height="26" fill="#000000" fill-opacity="0.25" /><rect x="404" y="8" width="52" height="30" fill="#000000" fill-opacity="0.1" /><text x="430" y="28" font-size="20" text-anchor="middle" font-family="mono" fill="#00ff00">eL.3</text><circle r="4" cx="430" cy="48" fill="#00ff00" /><rect x="15" y="86" width="10" height="14" fill="#000000" fill-opacity="1.0" /><rect x="13" y="84" width="14" height="18" fill="#000000" fill-opacity="0.9" /><rect x="11" y="82" width="18" height="22" fill="#000000" fill-opacity="0.75" /><rect x="10" y="81" width="20" height="24" fill="#000000" fill-opacity="0.5" /><rect x="9" y="80" width="22" height="26" fill="#000000" fill-opacity="0.25" /><rect x="7" y="78" width="26" height="30" fill="#000000" fill-opacity="0.1" /><text x="20" y="98" font-size="20" text-anchor="middle" font-family="mono" fill="#00ff00">If</text><circle r="4" cx="20" cy="68" fill="#00ff00" /><rect x="272" y="76" width="36" height="14" fill="#000000" fill-opacity="1.0" /><rect x="270" y="74" width="40" height="18" fill="#000000" fill-opacity="0.9" /><rect x="268" y="72" width="44" height="22" fill="#000000" fill-opacity="0.75" /><rect x="267" y="71" width="46" height="24" fill="#000000" fill-opacity="0.5" /><rect x="266" y="70" width="48" height="26" fill="#000000" fill-opacity="0.25" /><rect x="264" y="68" width="52" height="30" fill="#000000" fill-opacity="0.1" /><text x="290" y="88" font-size="20" text-anchor="middle" font-family="mono" fill="#999999">eL.4</text><circle r="4" cx="290" cy="108" fill="#999999" /><rect x="52" y="146" width="-3" height="14" fill="#000000" fill-opacity="1.0" /><rect x="50" y="144" width="1" height="18" fill="#000000" fill-opacity="0.9" /><rect x="48" y="142" width="5" height="22" fill="#000000" fill-opacity="0.75" /><rect x="47" y="141" width="7" height="24" fill="#000000" fill-opacity="0.5" /><rect x="46" y="140" width="9" height="26" fill="#000000" fill-opacity="0.25" /><rect x="44" y="138" width="13" height="30" fill="#000000" fill-opacity="0.1" /><text x="50" y="158" font-size="20" text-anchor="middle" font-family="mono" fill="#999999">(</text><circle r="4" cx="50" cy="128" fill="#999999" /><rect x="272" y="136" width="36" height="14" fill="#000000" fill-opacity="1.0" /><rect x="270" y="134" width="40" height="18" fill="#000000" fill-opacity="0.9" /><rect x="268" y="132" width="44" height="22" fill="#000000" fill-opacity="0.75" /><rect x="267" y="131" width="46" height="24" fill="#000000" fill-opacity="0.5" /><rect x="266" y="130" width="48" height="26" fill="#000000" fill-opacity="0.25" /><rect x="264" y="128" width="52" height="30" fill="#000000" fill-opacity="0.1" /><text x="290" y="148" font-size="20" text-anchor="middle" font-family="mono" fill="#00ff00">eL.3</text><circle r="4" cx="290" cy="168" fill="#00ff00" /><rect x="75" y="206" width="10" height="14" fill="#000000" fill-opacity="1.0" /><rect x="73" y="204" width="14" height="18" fill="#000000" fill-opacity="0.9" /><rect x="71" y="202" width="18" height="22" fill="#000000" fill-opacity="0.75" /><rect x="70" y="201" width="20" height="24" fill="#000000" fill-opacity="0.5" /><rect x="69" y="200" width="22" height="26" fill="#000000" fill-opacity="0.25" /><rect x="67" y="198" width="26" height="30" fill="#000000" fill-opacity="0.1" /><text x="80" y="218" font-size="20" text-anchor="middle" font-family="mono" fill="#00ff00">If</text><circle r="4" cx="80" cy="188" fill="#00ff00" /><rect x="122" y="206" width="36" height="14" fill="#000000" fill-opacity="1.0" /><rect x="120" y="204" width="40" height="18" fill="#000000" fill-opacity="0.9" /><rect x="118" y="202" width="44" height="22" fill="#000000" fill-opacity="0.75" /><rect x="117" y="201" width="46" height="24" fill="#000000" fill-opacity="0.5" /><rect x="116" y="200" width="48" height="26" fill="#000000" fill-opacity="0.25" /><rect x="114" y="198" width="52" height="30" fill="#000000" fill-opacity="0.1" /><text x="140" y="218" font-size="20" text-anchor="middle" font-family="mono" fill="#5555ff">True</text><circle r="4" cx="140" cy="188" fill="#5555ff" /><rect x="202" y="206" width="36" height="14" fill="#000000" fill-opacity="1.0" /><rect x="200" y="204" width="40" height="18" fill="#000000" fill-opacity="0.9" /><rect x="198" y="202" width="44" height="22" fill="#000000" fill-opacity="0.75" /><rect x="197" y="201" width="46" height="24" fill="#000000" fill-opacity="0.5" /><rect x="196" y="200" width="48" height="26" fill="#000000" fill-opacity="0.25" /><rect x="194" y="198" width="52" height="30" fill="#000000" fill-opacity="0.1" /><text x="220" y="218" font-size="20" text-anchor="middle" font-family="mono" fill="#00ff00">Then</text><circle r="4" cx="220" cy="188" fill="#00ff00" /><rect x="286" y="206" width="49" height="14" fill="#000000" fill-opacity="1.0" /><rect x="284" y="204" width="53" height="18" fill="#000000" fill-opacity="0.9" /><rect x="282" y="202" width="57" height="22" fill="#000000" fill-opacity="0.75" /><rect x="281" y="201" width="59" height="24" fill="#000000" fill-opacity="0.5" /><rect x="280" y="200" width="61" height="26" fill="#000000" fill-opacity="0.25" /><rect x="278" y="198" width="65" height="30" fill="#000000" fill-opacity="0.1" /><text x="310" y="218" font-size="20" text-anchor="middle" font-family="mono" fill="#5555ff">False</text><circle r="4" cx="310" cy="188" fill="#5555ff" /><rect x="382" y="206" width="36" height="14" fill="#000000" fill-opacity="1.0" /><rect x="380" y="204" width="40" height="18" fill="#000000" fill-opacity="0.9" /><rect x="378" y="202" width="44" height="22" fill="#000000" fill-opacity="0.75" /><rect x="377" y="201" width="46" height="24" fill="#000000" fill-opacity="0.5" /><rect x="376" y="200" width="48" height="26" fill="#000000" fill-opacity="0.25" /><rect x="374" y="198" width="52" height="30" fill="#000000" fill-opacity="0.1" /><text x="400" y="218" font-size="20" text-anchor="middle" font-family="mono" fill="#00ff00">Else</text><circle r="4" cx="400" cy="188" fill="#00ff00" /><rect x="462" y="206" width="36" height="14" fill="#000000" fill-opacity="1.0" /><rect x="460" y="204" width="40" height="18" fill="#000000" fill-opacity="0.9" /><rect x="458" y="202" width="44" height="22" fill="#000000" fill-opacity="0.75" /><rect x="457" y="201" width="46" height="24" fill="#000000" fill-opacity="0.5" /><rect x="456" y="200" width="48" height="26" fill="#000000" fill-opacity="0.25" /><rect x="454" y="198" width="52" height="30" fill="#000000" fill-opacity="0.1" /><text x="480" y="218" font-size="20" text-anchor="middle" font-family="mono" fill="#5555ff">True</text><circle r="4" cx="480" cy="188" fill="#5555ff" /><rect x="532" y="146" width="-3" height="14" fill="#000000" fill-opacity="1.0" /><rect x="530" y="144" width="1" height="18" fill="#000000" fill-opacity="0.9" /><rect x="528" y="142" width="5" height="22" fill="#000000" fill-opacity="0.75" /><rect x="527" y="141" width="7" height="24" fill="#000000" fill-opacity="0.5" /><rect x="526" y="140" width="9" height="26" fill="#000000" fill-opacity="0.25" /><rect x="524" y="138" width="13" height="30" fill="#000000" fill-opacity="0.1" /><text x="530" y="158" font-size="20" text-anchor="middle" font-family="mono" fill="#999999">)</text><circle r="4" cx="530" cy="128" fill="#999999" /><rect x="562" y="86" width="36" height="14" fill="#000000" fill-opacity="1.0" /><rect x="560" y="84" width="40" height="18" fill="#000000" fill-opacity="0.9" /><rect x="558" y="82" width="44" height="22" fill="#000000" fill-opacity="0.75" /><rect x="557" y="81" width="46" height="24" fill="#000000" fill-opacity="0.5" /><rect x="556" y="80" width="48" height="26" fill="#000000" fill-opacity="0.25" /><rect x="554" y="78" width="52" height="30" fill="#000000" fill-opacity="0.1" /><text x="580" y="98" font-size="20" text-anchor="middle" font-family="mono" fill="#00ff00">Then</text><circle r="4" cx="580" cy="68" fill="#00ff00" /><rect x="649" y="86" width="62" height="14" fill="#000000" fill-opacity="1.0" /><rect x="647" y="84" width="66" height="18" fill="#000000" fill-opacity="0.9" /><rect x="645" y="82" width="70" height="22" fill="#000000" fill-opacity="0.75" /><rect x="644" y="81" width="72" height="24" fill="#000000" fill-opacity="0.5" /><rect x="643" y="80" width="74" height="26" fill="#000000" fill-opacity="0.25" /><rect x="641" y="78" width="78" height="30" fill="#000000" fill-opacity="0.1" /><text x="680" y="98" font-size="20" text-anchor="middle" font-family="mono" fill="#00ff00">123456</text><circle r="4" cx="680" cy="68" fill="#00ff00" /><rect x="762" y="86" width="36" height="14" fill="#000000" fill-opacity="1.0" /><rect x="760" y="84" width="40" height="18" fill="#000000" fill-opacity="0.9" /><rect x="758" y="82" width="44" height="22" fill="#000000" fill-opacity="0.75" /><rect x="757" y="81" width="46" height="24" fill="#000000" fill-opacity="0.5" /><rect x="756" y="80" width="48" height="26" fill="#000000" fill-opacity="0.25" /><rect x="754" y="78" width="52" height="30" fill="#000000" fill-opacity="0.1" /><text x="780" y="98" font-size="20" text-anchor="middle" font-family="mono" fill="#00ff00">Else</text><circle r="4" cx="780" cy="68" fill="#00ff00" /><rect x="835" y="86" width="10" height="14" fill="#000000" fill-opacity="1.0" /><rect x="833" y="84" width="14" height="18" fill="#000000" fill-opacity="0.9" /><rect x="831" y="82" width="18" height="22" fill="#000000" fill-opacity="0.75" /><rect x="830" y="81" width="20" height="24" fill="#000000" fill-opacity="0.5" /><rect x="829" y="80" width="22" height="26" fill="#000000" fill-opacity="0.25" /><rect x="827" y="78" width="26" height="30" fill="#000000" fill-opacity="0.1" /><text x="840" y="98" font-size="20" text-anchor="middle" font-family="mono" fill="#00ff00">42</text><circle r="4" cx="840" cy="68" fill="#00ff00" /></svg>