<?xml version="1.0" encoding="UTF-8"?>
<!DOCTYPE svg PUBLIC "-//W3C//DTD SVG 1.1//EN"
    "http://www.w3.org/Graphics/SVG/1.1/DTD/svg11.dtd">
<svg xmlns="http://www.w3.org/2000/svg" xmlns:xlink="http://www.w3.org/1999/xlink" version="1.1" width="520" height="408" viewBox="0 0 520 408"><rect width="520" height="408" fill="#000000" /><path d="M 260 48 , 250 108" stroke="#00ff00" stroke-width="2" stroke-linecap="round" /><path d="M 260 48 , 510 68" stroke="#00ff00" stroke-width="2" stroke-linecap="round" /><path d="M 250 108 , 10 128" stroke="#00ff00" stroke-width="2" stroke-linecap="round" /><path d="M 250 108 , 250 168" stroke="#00ff00" stroke-width="2" stroke-linecap="round" /><path d="M 250 108 , 490 128" stroke="#00ff00" stroke-width="2" stroke-linecap="round" /><path d="M 250 168 , 230 228" stroke="#00ff00" stroke-width="2" stroke-linecap="round" /><path d="M 250 168 , 460 188" stroke="#00ff00" stroke-width="2" stroke-linecap="round" /><path d="M 230 228 , 30 248" stroke="#00ff00" stroke-width="2" stroke-linecap="round" /><path d="M 230 228 , 50 248" stroke="#00ff00" stroke-width="2" stroke-linecap="round" /><path d="M 230 228 , 70 248" stroke="#00ff00" stroke-width="2" stroke-linecap="round" /><path d="M 230 228 , 90 248" stroke="#00ff00" stroke-width="2" stroke-linecap="round" /><path d="M 230 228 , 130 248" stroke="#00ff00" stroke-width="2" stroke-linecap="round" /><path d="M 230 228 , 170 248" stroke="#00ff00" stroke-width="2" stroke-linecap="round" /><path d="M 230 228 , 300 288" stroke="#00ff00" stroke-width="2" stroke-linecap="round" /><path d="M 230 228 , 430 248" stroke="#00ff00" stroke-width="2" stroke-linecap="round" /><path d="M 300 288 , 190 308" stroke="#00ff00" stroke-width="2" stroke-linecap="round" /><path d="M 300 288 , 210 308" stroke="#00ff00" stroke-width="2" stroke-linecap="round" /><path d="M 300 288 , 230 308" stroke="#00ff00" stroke-width="2" stroke-linecap="round" /><path d="M 300 288 , 250 308" stroke="#00ff00" stroke-width="2" stroke-linecap="round" /><path d="M 300 288 , 290 308" stroke="#00ff00" stroke-width="2" stroke-linecap="round" /><path d="M 300 288 , 330 308" stroke="#00ff00" stroke-width="2" stroke-linecap="round" /><path d="M 300 288 , 370 348" stroke="#00ff00" stroke-width="2" stroke-linecap="round" /><path d="M 300 288 , 410 308" stroke="#00ff00" stroke-width="2" stroke-linecap="round" /><path d="M 370 348 , 350 368" stroke="#00ff00" stroke-width="2" stroke-linecap="round" /><path d="M 370 348 , 370 368" stroke="#00ff00" stroke-width="2" stroke-linecap="round" /><path d="M 370 348 , 390 368" stroke="#00ff00" stroke-width="2" stroke-linecap="round" /><rect x="249" y="16" width="23" height="14" fill="#000000" fill-opacity="1.0" /><rect x="247" y="14" width="27" height="18" fill="#000000" fill-opacity="0.9" /><rect x="245" y="12" width="31" height="22" fill="#000000" fill-opacity="0.75" /><rect x="244" y="11" width="33" height="24" fill="#000000" fill-opacity="0.5" /><rect x="243" y="10" width="35" height="26" fill="#000000" fill-opacity="0.25" /><rect x="241" y="8" width="39" height="30" fill="#000000" fill-opacity="0.1" /><text x="260" y="28" font-size="20" text-anchor="middle" font-family="mono" fill="#00ff00">e.2</text><circle r="4" cx="260" cy="48" fill="#00ff00" /><rect x="232" y="76" width="36" height="14" fill="#000000" fill-opacity="1.0" /><rect x="230" y="74" width="40" height="18" fill="#000000" fill-opacity="0.9" /><rect x="228" y="72" width="44" height="22" fill="#000000" fill-opacity="0.75" /><rect x="227" y="71" width="46" height="24" fill="#000000" fill-opacity="0.5" /><rect x="226" y="70" width="48" height="26" fill="#000000" fill-opacity="0.25" /><rect x="224" y="68" width="52" height="30" fill="#000000" fill-opacity="0.1" /><text x="250" y="88" font-size="20" text-anchor="middle" font-family="mono" fill="#00ff00">eL.4</text><circle r="4" cx="250" cy="108" fill="#00ff00" /><rect x="12" y="146" width="-3" height="14" fill="#000000" fill-opacity="1.0" /><rect x="10" y="144" width="1" height="18" fill="#000000" fill-opacity="0.9" /><rect x="8" y="142" width="5" height="22" fill="#000000" fill-opacity="0.75" /><rect x="7" y="141" width="7" height="24" fill="#000000" fill-opacity="0.5" /><rect x="6" y="140" width="9" height="26" fill="#000000" fill-opacity="0.25" /><rect x="4" y="138" width="13" height="30" fill="#000000" fill-opacity="0.1" /><text x="10" y="158" font-size="20" text-anchor="middle" font-family="mono" fill="#00ff00">(</text><circle r="4" cx="10" cy="128" fill="#00ff00" /><rect x="239" y="136" width="23" height="14" fill="#000000" fill-opacity="1.0" /><rect x="237" y="134" width="27" height="18" fill="#000000" fill-opacity="0.9" /><rect x="235" y="132" width="31" height="22" fill="#000000" fill-opacity="0.75" /><rect x="234" y="131" width="33" height="24" fill="#000000" fill-opacity="0.5" /><rect x="233" y="130" width="35" height="26" fill="#000000" fill-opacity="0.25" /><rect x="231" y="128" width="39" height="30" fill="#000000" fill-opacity="0.1" /><text x="250" y="148" font-size="20" text-anchor="middle" font-family="mono" fill="#00ff00">e.2</text><circle r="4" cx="250" cy="168" fill="#00ff00" /><rect x="212" y="196" width="36" height="14" fill="#000000" fill-opacity="1.0" /><rect x="210" y="194" width="40" height="18" fill="#000000" fill-opacity="0.9" /><rect x="208" y="192" width="44" height="22" fill="#000000" fill-opacity="0.75" /><rect x="207" y="191" width="46" height="24" fill="#000000" fill-opacity="0.5" /><rect x="206" y="190" width="48" height="26" fill="#000000" fill-opacity="0.25" /><rect x="204" y="188" width="52" height="30" fill="#000000" fill-opacity="0.1" /><text x="230" y="208" font-size="20" text-anchor="middle" font-family="mono" fill="#00ff00">eL.2</text><circle r="4" cx="230" cy="228" fill="#00ff00" /><rect x="32" y="266" width="-3" height="14" fill="#000000" fill-opacity="1.0" /><rect x="30" y="264" width="1" height="18" fill="#000000" fill-opacity="0.9" /><rect x="28" y="262" width="5" height="22" fill="#000000" fill-opacity="0.75" /><rect x="27" y="261" width="7" height="24" fill="#000000" fill-opacity="0.5" /><rect x="26" y="260" width="9" height="26" fill="#000000" fill-opacity="0.25" /><rect x="24" y="258" width="13" height="30" fill="#000000" fill-opacity="0.1" /><text x="30" y="278" font-size="20" text-anchor="middle" font-family="mono" fill="#00ff00">(</text><circle r="4" cx="30" cy="248" fill="#00ff00" /><rect x="52" y="266" width="-3" height="14" fill="#000000" fill-opacity="1.0" /><rect x="50" y="264" width="1" height="18" fill="#000000" fill-opacity="0.9" /><rect x="48" y="262" width="5" height="22" fill="#000000" fill-opacity="0.75" /><rect x="47" y="261" width="7" height="24" fill="#000000" fill-opacity="0.5" /><rect x="46" y="260" width="9" height="26" fill="#000000" fill-opacity="0.25" /><rect x="44" y="258" width="13" height="30" fill="#000000" fill-opacity="0.1" /><text x="50" y="278" font-size="20" text-anchor="middle" font-family="mono" fill="#00ff00">\</text><circle r="4" cx="50" cy="248" fill="#00ff00" /><rect x="72" y="266" width="-3" height="14" fill="#000000" fill-opacity="1.0" /><rect x="70" y="264" width="1" height="18" fill="#000000" fill-opacity="0.9" /><rect x="68" y="262" width="5" height="22" fill="#000000" fill-opacity="0.75" /><rect x="67" y="261" width="7" height="24" fill="#000000" fill-opacity="0.5" /><rect x="66" y="260" width="9" height="26" fill="#000000" fill-opacity="0.25" /><rect x="64" y="258" width="13" height="30" fill="#000000" fill-opacity="0.1" /><text x="70" y="278" font-size="20" text-anchor="middle" font-family="mono" fill="#00ff00">a</text><circle r="4" cx="70" cy="248" fill="#00ff00" /><rect x="92" y="266" width="-3" height="14" fill="#000000" fill-opacity="1.0" /><rect x="90" y="264" width="1" height="18" fill="#000000" fill-opacity="0.9" /><rect x="88" y="262" width="5" height="22" fill="#000000" fill-opacity="0.75" /><rect x="87" y="261" width="7" height="24" fill="#000000" fill-opacity="0.5" /><rect x="86" y="260" width="9" height="26" fill="#000000" fill-opacity="0.25" /><rect x="84" y="258" width="13" height="30" fill="#000000" fill-opacity="0.1" /><text x="90" y="278" font-size="20" text-anchor="middle" font-family="mono" fill="#00ff00">:</text><circle r="4" cx="90" cy="248" fill="#00ff00" /><rect x="119" y="266" width="23" height="14" fill="#000000" fill-opacity="1.0" /><rect x="117" y="264" width="27" height="18" fill="#000000" fill-opacity="0.9" /><rect x="115" y="262" width="31" height="22" fill="#000000" fill-opacity="0.75" /><rect x="114" y="261" width="33" height="24" fill="#000000" fill-opacity="0.5" /><rect x="113" y="260" width="35" height="26" fill="#000000" fill-opacity="0.25" /><rect x="111" y="258" width="39" height="30" fill="#000000" fill-opacity="0.1" /><text x="130" y="278" font-size="20" text-anchor="middle" font-family="mono" fill="#5555ff">Int</text><circle r="4" cx="130" cy="248" fill="#5555ff" /><rect x="172" y="266" width="-3" height="14" fill="#000000" fill-opacity="1.0" /><rect x="170" y="264" width="1" height="18" fill="#000000" fill-opacity="0.9" /><rect x="168" y="262" width="5" height="22" fill="#000000" fill-opacity="0.75" /><rect x="167" y="261" width="7" height="24" fill="#000000" fill-opacity="0.5" /><rect x="166" y="260" width="9" height="26" fill="#000000" fill-opacity="0.25" /><rect x="164" y="258" width="13" height="30" fill="#000000" fill-opacity="0.1" /><text x="170" y="278" font-size="20" text-anchor="middle" font-family="mono" fill="#00ff00">.</text><circle r="4" cx="170" cy="248" fill="#00ff00" /><rect x="282" y="256" width="36" height="14" fill="#000000" fill-opacity="1.0" /><rect x="280" y="254" width="40" height="18" fill="#000000" fill-opacity="0.9" /><rect x="278" y="252" width="44" height="22" fill="#000000" fill-opacity="0.75" /><rect x="277" y="251" width="46" height="24" fill="#000000" fill-opacity="0.5" /><rect x="276" y="250" width="48" height="26" fill="#000000" fill-opacity="0.25" /><rect x="274" y="248" width="52" height="30" fill="#000000" fill-opacity="0.1" /><text x="300" y="268" font-size="20" text-anchor="middle" font-family="mono" fill="#00ff00">eL.2</text><circle r="4" cx="300" cy="288" fill="#00ff00" /><rect x="192" y="326" width="-3" height="14" fill="#000000" fill-opacity="1.0" /><rect x="190" y="324" width="1" height="18" fill="#000000" fill-opacity="0.9" /><rect x="188" y="322" width="5" height="22" fill="#000000" fill-opacity="0.75" /><rect x="187" y="321" width="7" height="24" fill="#000000" fill-opacity="0.5" /><rect x="186" y="320" width="9" height="26" fill="#000000" fill-opacity="0.25" /><rect x="184" y="318" width="13" height="30" fill="#000000" fill-opacity="0.1" /><text x="190" y="338" font-size="20" text-anchor="middle" font-family="mono" fill="#00ff00">(</text><circle r="4" cx="190" cy="308" fill="#00ff00" /><rect x="212" y="326" width="-3" height="14" fill="#000000" fill-opacity="1.0" /><rect x="210" y="324" width="1" height="18" fill="#000000" fill-opacity="0.9" /><rect x="208" y="322" width="5" height="22" fill="#000000" fill-opacity="0.75" /><rect x="207" y="321" width="7" height="24" fill="#000000" fill-opacity="0.5" /><rect x="206" y="320" width="9" height="26" fill="#000000" fill-opacity="0.25" /><rect x="204" y="318" width="13" height="30" fill="#000000" fill-opacity="0.1" /><text x="210" y="338" font-size="20" text-anchor="middle" font-family="mono" fill="#00ff00">\</text><circle r="4" cx="210" cy="308" fill="#00ff00" /><rect x="232" y="326" width="-3" height="14" fill="#000000" fill-opacity="1.0" /><rect x="230" y="324" width="1" height="18" fill="#000000" fill-opacity="0.9" /><rect x="228" y="322" width="5" height="22" fill="#000000" fill-opacity="0.75" /><rect x="227" y="321" width="7" height="24" fill="#000000" fill-opacity="0.5" /><rect x="226" y="320" width="9" height="26" fill="#000000" fill-opacity="0.25" /><rect x="224" y="318" width="13" height="30" fill="#000000" fill-opacity="0.1" /><text x="230" y="338" font-size="20" text-anchor="middle" font-family="mono" fill="#00ff00">b</text><circle r="4" cx="230" cy="308" fill="#00ff00" /><rect x="252" y="326" width="-3" height="14" fill="#000000" fill-opacity="1.0" /><rect x="250" y="324" width="1" height="18" fill="#000000" fill-opacity="0.9" /><rect x="248" y="322" width="5" height="22" fill="#000000" fill-opacity="0.75" /><rect x="247" y="321" width="7" height="24" fill="#000000" fill-opacity="0.5" /><rect x="246" y="320" width="9" height="26" fill="#000000" fill-opacity="0.25" /><rect x="244" y="318" width="13" height="30" fill="#000000" fill-opacity="0.1" /><text x="250" y="338" font-size="20" text-anchor="middle" font-family="mono" fill="#00ff00">:</text><circle r="4" cx="250" cy="308" fill="#00ff00" /><rect x="279" y="326" width="23" height="14" fill="#000000" fill-opacity="1.0" /><rect x="277" y="324" width="27" height="18" fill="#000000" fill-opacity="0.9" /><rect x="275" y="322" width="31" height="22" fill="#000000" fill-opacity="0.75" /><rect x="274" y="321" width="33" height="24" fill="#000000" fill-opacity="0.5" /><rect x="273" y="320" width="35" height="26" fill="#000000" fill-opacity="0.25" /><rect x="271" y="318" width="39" height="30" fill="#000000" fill-opacity="0.1" /><text x="290" y="338" font-size="20" text-anchor="middle" font-family="mono" fill="#5555ff">Int</text><circle r="4" cx="290" cy="308" fill="#5555ff" /><rect x="332" y="326" width="-3" height="14" fill="#000000" fill-opacity="1.0" /><rect x="330" y="324" width="1" height="18" fill="#000000" fill-opacity="0.9" /><rect x="328" y="322" width="5" height="22" fill="#000000" fill-opacity="0.75" /><rect x="327" y="321" width="7" height="24" fill="#000000" fill-opacity="0.5" /><rect x="326" y="320" width="9" height="26" fill="#000000" fill-opacity="0.25" /><rect x="324" y="318" width="13" height="30" fill="#000000" fill-opacity="0.1" /><text x="330" y="338" font-size="20" text-anchor="middle" font-family="mono" fill="#00ff00">.</text><circle r="4" cx="330" cy="308" fill="#00ff00" /><rect x="359" y="316" width="23" height="14" fill="#000000" fill-opacity="1.0" /><rect x="357" y="314" width="27" height="18" fill="#000000" fill-opacity="0.9" /><rect x="355" y="312" width="31" height="22" fill="#000000" fill-opacity="0.75" /><rect x="354" y="311" width="33" height="24" fill="#000000" fill-opacity="0.5" /><rect x="353" y="310" width="35" height="26" fill="#000000" fill-opacity="0.25" /><rect x="351" y="308" width="39" height="30" fill="#000000" fill-opacity="0.1" /><text x="370" y="328" font-size="20" text-anchor="middle" font-family="mono" fill="#00ff00">e.0</text><circle r="4" cx="370" cy="348" fill="#00ff00" /><rect x="352" y="386" width="-3" height="14" fill="#000000" fill-opacity="1.0" /><rect x="350" y="384" width="1" height="18" fill="#000000" fill-opacity="0.9" /><rect x="348" y="382" width="5" height="22" fill="#000000" fill-opacity="0.75" /><rect x="347" y="381" width="7" height="24" fill="#000000" fill-opacity="0.5" /><rect x="346" y="380" width="9" height="26" fill="#000000" fill-opacity="0.25" /><rect x="344" y="378" width="13" height="30" fill="#000000" fill-opacity="0.1" /><text x="350" y="398" font-size="20" text-anchor="middle" font-family="mono" fill="#00ff00">a</text><circle r="4" cx="350" cy="368" fill="#00ff00" /><rect x="372" y="386" width="-3" height="14" fill="#000000" fill-opacity="1.0" /><rect x="370" y="384" width="1" height="18" fill="#000000" fill-opacity="0.9" /><rect x="368" y="382" width="5" height="22" fill="#000000" fill-opacity="0.75" /><rect x="367" y="381" width="7" height="24" fill="#000000" fill-opacity="0.5" /><rect x="366" y="380" width="9" height="26" fill="#000000" fill-opacity="0.25" /><rect x="364" y="378" width="13" height="30" fill="#000000" fill-opacity="0.1" /><text x="370" y="398" font-size="20" text-anchor="middle" font-family="mono" fill="#00ff00">+</text><circle r="4" cx="370" cy="368" fill="#00ff00" /><rect x="392" y="386" width="-3" height="14" fill="#000000" fill-opacity="1.0" /><rect x="390" y="384" width="1" height="18" fill="#000000" fill-opacity="0.9" /><rect x="388" y="382" width="5" height="22" fill="#000000" fill-opacity="0.75" /><rect x="387" y="381" width="7" height="24" fill="#000000" fill-opacity="0.5" /><rect x="386" y="380" width="9" height="26" fill="#000000" fill-opacity="0.25" /><rect x="384" y="378" width="13" height="30" fill="#000000" fill-opacity="0.1" /><text x="390" y="398" font-size="20" text-anchor="middle" font-family="mono" fill="#00ff00">b</text><circle r="4" cx="390" cy="368" fill="#00ff00" /><rect x="412" y="326" width="-3" height="14" fill="#000000" fill-opacity="1.0" /><rect x="410" y="324" width="1" height="18" fill="#000000" fill-opacity="0.9" /><rect x="408" y="322" width="5" height="22" fill="#000000" fill-opacity="0.75" /><rect x="407" y="321" width="7" height="24" fill="#000000" fill-opacity="0.5" /><rect x="406" y="320" width="9" height="26" fill="#000000" fill-opacity="0.25" /><rect x="404" y="318" width="13" height="30" fill="#000000" fill-opacity="0.1" /><text x="410" y="338" font-size="20" text-anchor="middle" font-family="mono" fill="#00ff00">)</text><circle r="4" cx="410" cy="308" fill="#00ff00" /><rect x="432" y="266" width="-3" height="14" fill="#000000" fill-opacity="1.0" /><rect x="430" y="264" width="1" height="18" fill="#000000" fill-opacity="0.9" /><rect x="428" y="262" width="5" height="22" fill="#000000" fill-opacity="0.75" /><rect x="427" y="261" width="7" height="24" fill="#000000" fill-opacity="0.5" /><rect x="426" y="260" width="9" height="26" fill="#000000" fill-opacity="0.25" /><rect x="424" y="258" width="13" height="30" fill="#000000" fill-opacity="0.1" /><text x="430" y="278" font-size="20" text-anchor="middle" font-family="mono" fill="#00ff00">)</text><circle r="4" cx="430" cy="248" fill="#00ff00" /><rect x="455" y="206" width="10" height="14" fill="#000000" fill-opacity="1.0" /><rect x="453" y="204" width="14" height="18" fill="#000000" fill-opacity="0.9" /><rect x="451" y="202" width="18" height="22" fill="#000000" fill-opacity="0.75" /><rect x="450" y="201" width="20" height="24" fill="#000000" fill-opacity="0.5" /><rect x="449" y="200" width="22" height="26" fill="#000000" fill-opacity="0.25" /><rect x="447" y="198" width="26" height="30" fill="#000000" fill-opacity="0.1" /><text x="460" y="218" font-size="20" text-anchor="middle" font-family="mono" fill="#00ff00">41</text><circle r="4" cx="460" cy="188" fill="#00ff00" /><rect x="492" y="146" width="-3" height="14" fill="#000000" fill-opacity="1.0" /><rect x="490" y="144" width="1" height="18" fill="#000000" fill-opacity="0.9" /><rect x="488" y="142" width="5" height="22" fill="#000000" fill-opacity="0.75" /><rect x="487" y="141" width="7" height="24" fill="#000000" fill-opacity="0.5" /><rect x="486" y="140" width="9" height="26" fill="#000000" fill-opacity="0.25" /><rect x="484" y="138" width="13" height="30" fill="#000000" fill-opacity="0.1" /><text x="490" y="158" font-size="20" text-anchor="middle" font-family="mono" fill="#00ff00">)</text><circle r="4" cx="490" cy="128" fill="#00ff00" /><rect x="512" y="86" width="-3" height="14" fill="#000000" fill-opacity="1.0" /><rect x="510" y="84" width="1" height="18" fill="#000000" fill-opacity="0.9" /><rect x="508" y="82" width="5" height="22" fill="#000000" fill-opacity="0.75" /><rect x="507" y="81" width="7" height="24" fill="#000000" fill-opacity="0.5" /><rect x="506" y="80" width="9" height="26" fill="#000000" fill-opacity="0.25" /><rect x="504" y="78" width="13" height="30" fill="#000000" fill-opacity="0.1" /><text x="510" y="98" font-size="20" text-anchor="middle" font-family="mono" fill="#00ff00">1</text><circle r="4" cx="510" cy="68" fill="#00ff00" /></svg>