<?xml version="1.0" encoding="UTF-8"?>
<!DOCTYPE svg PUBLIC "-//W3C//DTD SVG 1.1//EN"
    "http://www.w3.org/Graphics/SVG/1.1/DTD/svg11.dtd">
<svg xmlns="http://www.w3.org/2000/svg" xmlns:xlink="http://www.w3.org/1999/xlink" version="1.1" width="880" height="228" viewBox="0 0 880 228"><rect width="880" height="228" fill="#ffffff" /><rect x="414" y="8" width="52" height="30" fill="#ffffff" fill-opacity="0.5" /><text x="440" y="28" font-size="20" text-anchor="middle" font-family="mono" fill="#000000">eL.3</text><circle r="4" cx="440" cy="48" fill="#000000" /><rect x="7" y="78" width="26" height="30" fill="#ffffff" fill-opacity="0.5" /><text x="20" y="98" font-size="20" text-anchor="middle" font-family="mono" fill="#000000">If</text><circle r="4" cx="20" cy="68" fill="#000000" /><rect x="264" y="68" width="52" height="30" fill="#ffffff" fill-opacity="0.5" /><text x="290" y="88" font-size="20" text-anchor="middle" font-family="mono" fill="#000000">eL.4</text><circle r="4" cx="290" cy="108" fill="#000000" /><rect x="44" y="138" width="13" height="30" fill="#ffffff" fill-opacity="0.5" /><text x="50" y="158" font-size="20" text-anchor="middle" font-family="mono" fill="#000000">(</text><circle r="4" cx="50" cy="128" fill="#000000" /><rect x="264" y="128" width="52" height="30" fill="#ffffff" fill-opacity="0.5" /><text x="290" y="148" font-size="20" text-anchor="middle" font-family="mono" fill="#000000">eL.3</text><circle r="4" cx="290" cy="168" fill="#000000" /><rect x="67" y="198" width="26" height="30" fill="#ffffff" fill-opacity="0.5" /><text x="80" y="218" font-size="20" text-anchor="middle" font-family="mono" fill="#000000">If</text><circle r="4" cx="80" cy="188" fill="#000000" /><rect x="114" y="198" width="52" height="30" fill="#ffffff" fill-opacity="0.5" /><text x="140" y="218" font-size="20" text-anchor="middle" font-family="mono" fill="#000000">True</text><circle r="4" cx="140" cy="188" fill="#000000" /><rect x="194" y="198" width="52" height="30" fill="#ffffff" fill-opacity="0.5" /><text x="220" y="218" font-size="20" text-anchor="middle" font-family="mono" fill="#000000">Then</text><circle r="4" cx="220" cy="188" fill="#000000" /><rect x="278" y="198" width="65" height="30" fill="#ffffff" fill-opacity="0.5" /><text x="310" y="218" font-size="20" text-anchor="middle" font-family="mono" fill="#000000">False</text><circle r="4" cx="310" cy="188" fill="#000000" /><rect x="374" y="198" width="52" height="30" fill="#ffffff" fill-opacity="0.5" /><text x="400" y="218" font-size="20" text-anchor="middle" font-family="mono" fill="#000000">Else</text><circle r="4" cx="400" cy="188" fill="#000000" /><rect x="454" y="198" width="52" height="30" fill="#ffffff" fill-opacity="0.5" /><text x="480" y="218" font-size="20" text-anchor="middle" font-family="mono" fill="#000000">True</text><circle r="4" cx="480" cy="188" fill="#000000" /><rect x="524" y="138" width="13" height="30" fill="#ffffff" fill-opacity="0.5" /><text x="530" y="158" font-size="20" text-anchor="middle" font-family="mono" fill="#000000">)</text><circle r="4" cx="530" cy="128" fill="#000000" /><rect x="554" y="78" width="52" height="30" fill="#ffffff" fill-opacity="0.5" /><text x="580" y="98" font-size="20" text-anchor="middle" font-family="mono" fill="#000000">Then</text><circle r="4" cx="580" cy="68" fill="#000000" /><rect x="638" y="78" width="65" height="30" fill="#ffffff" fill-opacity="0.5" /><text x="670" y="98" font-size="20" text-anchor="middle" font-family="mono" fill="#000000">False</text><circle r="4" cx="670" cy="68" fill="#000000" /><rect x="734" y="78" width="52" height="30" fill="#ffffff" fill-opacity="0.5" /><text x="760" y="98" font-size="20" text-anchor="middle" font-family="mono" fill="#000000">Else</text><circle r="4" cx="760" cy="68" fill="#000000" /><rect x="814" y="78" width="52" height="30" fill="#ffffff" fill-opacity="0.5" /><text x="840" y="98" font-size="20" text-anchor="middle" font-family="mono" fill="#000000">True</text><circle r="4" cx="840" cy="68" fill="#000000" /><path d="M 440 48 , 20 68" stroke="#000000" stroke-width="1" stroke-linecap="round" /><path d="M 440 48 , 290 108" stroke="#000000" stroke-width="1" stroke-linecap="round" /><path d="M 440 48 , 580 68" stroke="#000000" stroke-width="1" stroke-linecap="round" /><path d="M 440 48 , 670 68" stroke="#000000" stroke-width="1" stroke-linecap="round" /><path d="M 440 48 , 760 68" stroke="#000000" stroke-width="1" stroke-linecap="round" /><path d="M 440 48 , 840 68" stroke="#000000" stroke-width="1" stroke-linecap="round" /><path d="M 290 108 , 50 128" stroke="#000000" stroke-width="1" stroke-linecap="round" /><path d="M 290 108 , 290 168" stroke="#000000" stroke-width="1" stroke-linecap="round" /><path d="M 290 108 , 530 128" stroke="#000000" stroke-width="1" stroke-linecap="round" /><path d="M 290 168 , 80 188" stroke="#000000" stroke-width="1" stroke-linecap="round" /><path d="M 290 168 , 140 188" stroke="#000000" stroke-width="1" stroke-linecap="round" /><path d="M 290 168 , 220 188" stroke="#000000" stroke-width="1" stroke-linecap="round" /><path d="M 290 168 , 310 188" stroke="#000000" stroke-width="1" stroke-linecap="round" /><path d="M 290 168 , 400 188" stroke="#000000" stroke-width="1" stroke-linecap="round" /><path d="M 290 168 , 480 188" stroke="#000000" stroke-width="1" stroke-linecap="round" /></svg>