<?xml version="1.0" encoding="UTF-8"?>
<!DOCTYPE svg PUBLIC "-//W3C//DTD SVG 1.1//EN"
    "http://www.w3.org/Graphics/SVG/1.1/DTD/svg11.dtd">
<svg xmlns="http://www.w3.org/2000/svg" xmlns:xlink="http://www.w3.org/1999/xlink" version="1.1" width="800" height="228" viewBox="0 0 800 228"><rect width="800" height="228" fill="#000000" /><rect x="381" y="8" width="39" height="30" fill="#000000" fill-opacity="0.5" /><text x="400" y="28" font-size="20" text-anchor="middle" font-family="mono" fill="#00ff00">e.2</text><circle r="4" cx="400" cy="48" fill="#00ff00" /><rect x="194" y="68" width="52" height="30" fill="#000000" fill-opacity="0.5" /><text x="220" y="88" font-size="20" text-anchor="middle" font-family="mono" fill="#00ff00">eL.2</text><circle r="4" cx="220" cy="108" fill="#00ff00" /><rect x="4" y="138" width="13" height="30" fill="#000000" fill-opacity="0.5" /><text x="10" y="158" font-size="20" text-anchor="middle" font-family="mono" fill="#00ff00">(</text><circle r="4" cx="10" cy="128" fill="#00ff00" /><rect x="24" y="138" width="13" height="30" fill="#000000" fill-opacity="0.5" /><text x="30" y="158" font-size="20" text-anchor="middle" font-family="mono" fill="#00ff00">\</text><circle r="4" cx="30" cy="128" fill="#00ff00" /><rect x="51" y="138" width="39" height="30" fill="#000000" fill-opacity="0.5" /><text x="70" y="158" font-size="20" text-anchor="middle" font-family="mono" fill="#00ff00">&lt;f&gt;</text><circle r="4" cx="70" cy="128" fill="#00ff00" /><rect x="104" y="138" width="13" height="30" fill="#000000" fill-opacity="0.5" /><text x="110" y="158" font-size="20" text-anchor="middle" font-family="mono" fill="#00ff00">:</text><circle r="4" cx="110" cy="128" fill="#00ff00" /><rect x="161" y="128" width="78" height="30" fill="#000000" fill-opacity="0.5" /><text x="200" y="148" font-size="20" text-anchor="middle" font-family="mono" fill="#00ff00">type.0</text><circle r="4" cx="200" cy="168" fill="#00ff00" /><rect x="131" y="198" width="39" height="30" fill="#000000" fill-opacity="0.5" /><text x="150" y="218" font-size="20" text-anchor="middle" font-family="mono" fill="#00ff00">Int</text><circle r="4" cx="150" cy="188" fill="#00ff00" /><rect x="187" y="198" width="26" height="30" fill="#000000" fill-opacity="0.5" /><text x="200" y="218" font-size="20" text-anchor="middle" font-family="mono" fill="#00ff00">-&gt;</text><circle r="4" cx="200" cy="188" fill="#00ff00" /><rect x="231" y="198" width="39" height="30" fill="#000000" fill-opacity="0.5" /><text x="250" y="218" font-size="20" text-anchor="middle" font-family="mono" fill="#00ff00">Int</text><circle r="4" cx="250" cy="188" fill="#00ff00" /><rect x="284" y="138" width="13" height="30" fill="#000000" fill-opacity="0.5" /><text x="290" y="158" font-size="20" text-anchor="middle" font-family="mono" fill="#00ff00">.</text><circle r="4" cx="290" cy="128" fill="#00ff00" /><rect x="341" y="128" width="39" height="30" fill="#000000" fill-opacity="0.5" /><text x="360" y="148" font-size="20" text-anchor="middle" font-family="mono" fill="#00ff00">e.2</text><circle r="4" cx="360" cy="168" fill="#00ff00" /><rect x="311" y="198" width="39" height="30" fill="#000000" fill-opacity="0.5" /><text x="330" y="218" font-size="20" text-anchor="middle" font-family="mono" fill="#00ff00">&lt;f&gt;</text><circle r="4" cx="330" cy="188" fill="#00ff00" /><rect x="371" y="198" width="39" height="30" fill="#000000" fill-opacity="0.5" /><text x="390" y="218" font-size="20" text-anchor="middle" font-family="mono" fill="#00ff00">&lt;5&gt;</text><circle r="4" cx="390" cy="188" fill="#00ff00" /><rect x="424" y="138" width="13" height="30" fill="#000000" fill-opacity="0.5" /><text x="430" y="158" font-size="20" text-anchor="middle" font-family="mono" fill="#00ff00">)</text><circle r="4" cx="430" cy="128" fill="#00ff00" /><rect x="594" y="68" width="52" height="30" fill="#000000" fill-opacity="0.5" /><text x="620" y="88" font-size="20" text-anchor="middle" font-family="mono" fill="#00ff00">eL.2</text><circle r="4" cx="620" cy="108" fill="#00ff00" /><rect x="444" y="138" width="13" height="30" fill="#000000" fill-opacity="0.5" /><text x="450" y="158" font-size="20" text-anchor="middle" font-family="mono" fill="#00ff00">(</text><circle r="4" cx="450" cy="128" fill="#00ff00" /><rect x="464" y="138" width="13" height="30" fill="#000000" fill-opacity="0.5" /><text x="470" y="158" font-size="20" text-anchor="middle" font-family="mono" fill="#00ff00">\</text><circle r="4" cx="470" cy="128" fill="#00ff00" /><rect x="491" y="138" width="39" height="30" fill="#000000" fill-opacity="0.5" /><text x="510" y="158" font-size="20" text-anchor="middle" font-family="mono" fill="#00ff00">&lt;i&gt;</text><circle r="4" cx="510" cy="128" fill="#00ff00" /><rect x="544" y="138" width="13" height="30" fill="#000000" fill-opacity="0.5" /><text x="550" y="158" font-size="20" text-anchor="middle" font-family="mono" fill="#00ff00">:</text><circle r="4" cx="550" cy="128" fill="#00ff00" /><rect x="571" y="138" width="39" height="30" fill="#000000" fill-opacity="0.5" /><text x="590" y="158" font-size="20" text-anchor="middle" font-family="mono" fill="#00ff00">Int</text><circle r="4" cx="590" cy="128" fill="#00ff00" /><rect x="624" y="138" width="13" height="30" fill="#000000" fill-opacity="0.5" /><text x="630" y="158" font-size="20" text-anchor="middle" font-family="mono" fill="#00ff00">.</text><circle r="4" cx="630" cy="128" fill="#00ff00" /><rect x="691" y="128" width="39" height="30" fill="#000000" fill-opacity="0.5" /><text x="710" y="148" font-size="20" text-anchor="middle" font-family="mono" fill="#00ff00">e.0</text><circle r="4" cx="710" cy="168" fill="#00ff00" /><rect x="651" y="198" width="39" height="30" fill="#000000" fill-opacity="0.5" /><text x="670" y="218" font-size="20" text-anchor="middle" font-family="mono" fill="#00ff00">&lt;i&gt;</text><circle r="4" cx="670" cy="188" fill="#00ff00" /><rect x="704" y="198" width="13" height="30" fill="#000000" fill-opacity="0.5" /><text x="710" y="218" font-size="20" text-anchor="middle" font-family="mono" fill="#00ff00">+</text><circle r="4" cx="710" cy="188" fill="#00ff00" /><rect x="731" y="198" width="39" height="30" fill="#000000" fill-opacity="0.5" /><text x="750" y="218" font-size="20" text-anchor="middle" font-family="mono" fill="#00ff00">&lt;1&gt;</text><circle r="4" cx="750" cy="188" fill="#00ff00" /><rect x="784" y="138" width="13" height="30" fill="#000000" fill-opacity="0.5" /><text x="790" y="158" font-size="20" text-anchor="middle" font-family="mono" fill="#00ff00">)</text><circle r="4" cx="790" cy="128" fill="#00ff00" /><path d="M 400 48 , 220 108" stroke="#00ff00" stroke-width="1" stroke-linecap="round" /><path d="M 400 48 , 620 108" stroke="#00ff00" stroke-width="1" stroke-linecap="round" /><path d="M 620 108 , 450 128" stroke="#00ff00" stroke-width="1" stroke-linecap="round" /><path d="M 620 108 , 470 128" stroke="#00ff00" stroke-width="1" stroke-linecap="round" /><path d="M 620 108 , 510 128" stroke="#00ff00" stroke-width="1" stroke-linecap="round" /><path d="M 620 108 , 550 128" stroke="#00ff00" stroke-width="1" stroke-linecap="round" /><path d="M 620 108 , 590 128" stroke="#00ff00" stroke-width="1" stroke-linecap="round" /><path d="M 620 108 , 630 128" stroke="#00ff00" stroke-width="1" stroke-linecap="round" /><path d="M 620 108 , 710 168" stroke="#00ff00" stroke-width="1" stroke-linecap="round" /><path d="M 620 108 , 790 128" stroke="#00ff00" stroke-width="1" stroke-linecap="round" /><path d="M 710 168 , 670 188" stroke="#00ff00" stroke-width="1" stroke-linecap="round" /><path d="M 710 168 , 710 188" stroke="#00ff00" stroke-width="1" stroke-linecap="round" /><path d="M 710 168 , 750 188" stroke="#00ff00" stroke-width="1" stroke-linecap="round" /><path d="M 220 108 , 10 128" stroke="#00ff00" stroke-width="1" stroke-linecap="round" /><path d="M 220 108 , 30 128" stroke="#00ff00" stroke-width="1" stroke-linecap="round" /><path d="M 220 108 , 70 128" stroke="#00ff00" stroke-width="1" stroke-linecap="round" /><path d="M 220 108 , 110 128" stroke="#00ff00" stroke-width="1" stroke-linecap="round" /><path d="M 220 108 , 200 168" stroke="#00ff00" stroke-width="1" stroke-linecap="round" /><path d="M 220 108 , 290 128" stroke="#00ff00" stroke-width="1" stroke-linecap="round" /><path d="M 220 108 , 360 168" stroke="#00ff00" stroke-width="1" stroke-linecap="round" /><path d="M 220 108 , 430 128" stroke="#00ff00" stroke-width="1" stroke-linecap="round" /><path d="M 360 168 , 330 188" stroke="#00ff00" stroke-width="1" stroke-linecap="round" /><path d="M 360 168 , 390 188" stroke="#00ff00" stroke-width="1" stroke-linecap="round" /><path d="M 200 168 , 150 188" stroke="#00ff00" stroke-width="1" stroke-linecap="round" /><path d="M 200 168 , 200 188" stroke="#00ff00" stroke-width="1" stroke-linecap="round" /><path d="M 200 168 , 250 188" stroke="#00ff00" stroke-width="1" stroke-linecap="round" /></svg>