<?xml version="1.0" encoding="UTF-8"?>
<!DOCTYPE svg PUBLIC "-//W3C//DTD SVG 1.1//EN"
    "http://www.w3.org/Graphics/SVG/1.1/DTD/svg11.dtd">
<svg xmlns="http://www.w3.org/2000/svg" xmlns:xlink="http://www.w3.org/1999/xlink" version="1.1" width="220" height="168" viewBox="0 0 220 168"><rect width="220" height="168" fill="#ffffff" /><path d="M 110 48 , 30 68" stroke="#000000" stroke-width="1" stroke-linecap="round" /><path d="M 110 48 , 70 68" stroke="#000000" stroke-width="1" stroke-linecap="round" /><path d="M 110 48 , 150 108" stroke="#000000" stroke-width="1" stroke-linecap="round" /><path d="M 150 108 , 110 128" stroke="#000000" stroke-width="1" stroke-linecap="round" /><path d="M 150 108 , 150 128" stroke="#000000" stroke-width="1" stroke-linecap="round" /><path d="M 150 108 , 190 128" stroke="#000000" stroke-width="1" stroke-linecap="round" /><rect x="99" y="16" width="23" height="14" fill="#ffffff" fill-opacity="1.0" /><rect x="97" y="14" width="27" height="18" fill="#ffffff" fill-opacity="0.9" /><rect x="95" y="12" width="31" height="22" fill="#ffffff" fill-opacity="0.75" /><rect x="94" y="11" width="33" height="24" fill="#ffffff" fill-opacity="0.5" /><rect x="93" y="10" width="35" height="26" fill="#ffffff" fill-opacity="0.25" /><rect x="91" y="8" width="39" height="30" fill="#ffffff" fill-opacity="0.1" /><text x="110" y="28" font-size="20" text-anchor="middle" font-family="mono" fill="#000000">e.0</text><circle r="4" cx="110" cy="48" fill="#000000" /><rect x="19" y="86" width="23" height="14" fill="#ffffff" fill-opacity="1.0" /><rect x="17" y="84" width="27" height="18" fill="#ffffff" fill-opacity="0.9" /><rect x="15" y="82" width="31" height="22" fill="#ffffff" fill-opacity="0.75" /><rect x="14" y="81" width="33" height="24" fill="#ffffff" fill-opacity="0.5" /><rect x="13" y="80" width="35" height="26" fill="#ffffff" fill-opacity="0.25" /><rect x="11" y="78" width="39" height="30" fill="#ffffff" fill-opacity="0.1" /><text x="30" y="98" font-size="20" text-anchor="middle" font-family="mono" fill="#000000">&lt;5&gt;</text><circle r="4" cx="30" cy="68" fill="#000000" /><rect x="72" y="86" width="-3" height="14" fill="#ffffff" fill-opacity="1.0" /><rect x="70" y="84" width="1" height="18" fill="#ffffff" fill-opacity="0.9" /><rect x="68" y="82" width="5" height="22" fill="#ffffff" fill-opacity="0.75" /><rect x="67" y="81" width="7" height="24" fill="#ffffff" fill-opacity="0.5" /><rect x="66" y="80" width="9" height="26" fill="#ffffff" fill-opacity="0.25" /><rect x="64" y="78" width="13" height="30" fill="#ffffff" fill-opacity="0.1" /><text x="70" y="98" font-size="20" text-anchor="middle" font-family="mono" fill="#000000">+</text><circle r="4" cx="70" cy="68" fill="#000000" /><rect x="139" y="76" width="23" height="14" fill="#ffffff" fill-opacity="1.0" /><rect x="137" y="74" width="27" height="18" fill="#ffffff" fill-opacity="0.9" /><rect x="135" y="72" width="31" height="22" fill="#ffffff" fill-opacity="0.75" /><rect x="134" y="71" width="33" height="24" fill="#ffffff" fill-opacity="0.5" /><rect x="133" y="70" width="35" height="26" fill="#ffffff" fill-opacity="0.25" /><rect x="131" y="68" width="39" height="30" fill="#ffffff" fill-opacity="0.1" /><text x="150" y="88" font-size="20" text-anchor="middle" font-family="mono" fill="#000000">e.0</text><circle r="4" cx="150" cy="108" fill="#000000" /><rect x="99" y="146" width="23" height="14" fill="#ffffff" fill-opacity="1.0" /><rect x="97" y="144" width="27" height="18" fill="#ffffff" fill-opacity="0.9" /><rect x="95" y="142" width="31" height="22" fill="#ffffff" fill-opacity="0.75" /><rect x="94" y="141" width="33" height="24" fill="#ffffff" fill-opacity="0.5" /><rect x="93" y="140" width="35" height="26" fill="#ffffff" fill-opacity="0.25" /><rect x="91" y="138" width="39" height="30" fill="#ffffff" fill-opacity="0.1" /><text x="110" y="158" font-size="20" text-anchor="middle" font-family="mono" fill="#000000">&lt;6&gt;</text><circle r="4" cx="110" cy="128" fill="#000000" /><rect x="152" y="146" width="-3" height="14" fill="#ffffff" fill-opacity="1.0" /><rect x="150" y="144" width="1" height="18" fill="#ffffff" fill-opacity="0.9" /><rect x="148" y="142" width="5" height="22" fill="#ffffff" fill-opacity="0.75" /><rect x="147" y="141" width="7" height="24" fill="#ffffff" fill-opacity="0.5" /><rect x="146" y="140" width="9" height="26" fill="#ffffff" fill-opacity="0.25" /><rect x="144" y="138" width="13" height="30" fill="#ffffff" fill-opacity="0.1" /><text x="150" y="158" font-size="20" text-anchor="middle" font-family="mono" fill="#000000">+</text><circle r="4" cx="150" cy="128" fill="#000000" /><rect x="179" y="146" width="23" height="14" fill="#ffffff" fill-opacity="1.0" /><rect x="177" y="144" width="27" height="18" fill="#ffffff" fill-opacity="0.9" /><rect x="175" y="142" width="31" height="22" fill="#ffffff" fill-opacity="0.75" /><rect x="174" y="141" width="33" height="24" fill="#ffffff" fill-opacity="0.5" /><rect x="173" y="140" width="35" height="26" fill="#ffffff" fill-opacity="0.25" /><rect x="171" y="138" width="39" height="30" fill="#ffffff" fill-opacity="0.1" /><text x="190" y="158" font-size="20" text-anchor="middle" font-family="mono" fill="#000000">&lt;7&gt;</text><circle r="4" cx="190" cy="128" fill="#000000" /></svg>