<?xml version="1.0" encoding="UTF-8"?>
<!DOCTYPE svg PUBLIC "-//W3C//DTD SVG 1.1//EN"
    "http://www.w3.org/Graphics/SVG/1.1/DTD/svg11.dtd">
<svg xmlns="http://www.w3.org/2000/svg" xmlns:xlink="http://www.w3.org/1999/xlink" version="1.1" width="460" height="108" viewBox="0 0 460 108"><rect width="460" height="108" fill="#ffffff" /><path d="M 230 48 , 20 68" stroke="#000000" stroke-width="1" stroke-linecap="round" /><path d="M 230 48 , 80 68" stroke="#000000" stroke-width="1" stroke-linecap="round" /><path d="M 230 48 , 160 68" stroke="#000000" stroke-width="1" stroke-linecap="round" /><path d="M 230 48 , 250 68" stroke="#000000" stroke-width="1" stroke-linecap="round" /><path d="M 230 48 , 340 68" stroke="#000000" stroke-width="1" stroke-linecap="round" /><path d="M 230 48 , 420 68" stroke="#000000" stroke-width="1" stroke-linecap="round" /><rect x="212" y="16" width="36" height="14" fill="#ffffff" fill-opacity="1.0" /><rect x="210" y="14" width="40" height="18" fill="#ffffff" fill-opacity="0.9" /><rect x="208" y="12" width="44" height="22" fill="#ffffff" fill-opacity="0.75" /><rect x="207" y="11" width="46" height="24" fill="#ffffff" fill-opacity="0.5" /><rect x="206" y="10" width="48" height="26" fill="#ffffff" fill-opacity="0.25" /><rect x="204" y="8" width="52" height="30" fill="#ffffff" fill-opacity="0.1" /><text x="230" y="28" font-size="20" text-anchor="middle" font-family="mono" fill="#000000">eL.3</text><circle r="4" cx="230" cy="48" fill="#000000" /><rect x="15" y="86" width="10" height="14" fill="#ffffff" fill-opacity="1.0" /><rect x="13" y="84" width="14" height="18" fill="#ffffff" fill-opacity="0.9" /><rect x="11" y="82" width="18" height="22" fill="#ffffff" fill-opacity="0.75" /><rect x="10" y="81" width="20" height="24" fill="#ffffff" fill-opacity="0.5" /><rect x="9" y="80" width="22" height="26" fill="#ffffff" fill-opacity="0.25" /><rect x="7" y="78" width="26" height="30" fill="#ffffff" fill-opacity="0.1" /><text x="20" y="98" font-size="20" text-anchor="middle" font-family="mono" fill="#000000">If</text><circle r="4" cx="20" cy="68" fill="#000000" /><rect x="62" y="86" width="36" height="14" fill="#ffffff" fill-opacity="1.0" /><rect x="60" y="84" width="40" height="18" fill="#ffffff" fill-opacity="0.9" /><rect x="58" y="82" width="44" height="22" fill="#ffffff" fill-opacity="0.75" /><rect x="57" y="81" width="46" height="24" fill="#ffffff" fill-opacity="0.5" /><rect x="56" y="80" width="48" height="26" fill="#ffffff" fill-opacity="0.25" /><rect x="54" y="78" width="52" height="30" fill="#ffffff" fill-opacity="0.1" /><text x="80" y="98" font-size="20" text-anchor="middle" font-family="mono" fill="#000000">True</text><circle r="4" cx="80" cy="68" fill="#000000" /><rect x="142" y="86" width="36" height="14" fill="#ffffff" fill-opacity="1.0" /><rect x="140" y="84" width="40" height="18" fill="#ffffff" fill-opacity="0.9" /><rect x="138" y="82" width="44" height="22" fill="#ffffff" fill-opacity="0.75" /><rect x="137" y="81" width="46" height="24" fill="#ffffff" fill-opacity="0.5" /><rect x="136" y="80" width="48" height="26" fill="#ffffff" fill-opacity="0.25" /><rect x="134" y="78" width="52" height="30" fill="#ffffff" fill-opacity="0.1" /><text x="160" y="98" font-size="20" text-anchor="middle" font-family="mono" fill="#000000">Then</text><circle r="4" cx="160" cy="68" fill="#000000" /><rect x="226" y="86" width="49" height="14" fill="#ffffff" fill-opacity="1.0" /><rect x="224" y="84" width="53" height="18" fill="#ffffff" fill-opacity="0.9" /><rect x="222" y="82" width="57" height="22" fill="#ffffff" fill-opacity="0.75" /><rect x="221" y="81" width="59" height="24" fill="#ffffff" fill-opacity="0.5" /><rect x="220" y="80" width="61" height="26" fill="#ffffff" fill-opacity="0.25" /><rect x="218" y="78" width="65" height="30" fill="#ffffff" fill-opacity="0.1" /><text x="250" y="98" font-size="20" text-anchor="middle" font-family="mono" fill="#000000">False</text><circle r="4" cx="250" cy="68" fill="#000000" /><rect x="322" y="86" width="36" height="14" fill="#ffffff" fill-opacity="1.0" /><rect x="320" y="84" width="40" height="18" fill="#ffffff" fill-opacity="0.9" /><rect x="318" y="82" width="44" height="22" fill="#ffffff" fill-opacity="0.75" /><rect x="317" y="81" width="46" height="24" fill="#ffffff" fill-opacity="0.5" /><rect x="316" y="80" width="48" height="26" fill="#ffffff" fill-opacity="0.25" /><rect x="314" y="78" width="52" height="30" fill="#ffffff" fill-opacity="0.1" /><text x="340" y="98" font-size="20" text-anchor="middle" font-family="mono" fill="#000000">Else</text><circle r="4" cx="340" cy="68" fill="#000000" /><rect x="402" y="86" width="36" height="14" fill="#ffffff" fill-opacity="1.0" /><rect x="400" y="84" width="40" height="18" fill="#ffffff" fill-opacity="0.9" /><rect x="398" y="82" width="44" height="22" fill="#ffffff" fill-opacity="0.75" /><rect x="397" y="81" width="46" height="24" fill="#ffffff" fill-opacity="0.5" /><rect x="396" y="80" width="48" height="26" fill="#ffffff" fill-opacity="0.25" /><rect x="394" y="78" width="52" height="30" fill="#ffffff" fill-opacity="0.1" /><text x="420" y="98" font-size="20" text-anchor="middle" font-family="mono" fill="#000000">True</text><circle r="4" cx="420" cy="68" fill="#000000" /></svg>