<?xml version="1.0" encoding="UTF-8"?>
<!DOCTYPE svg PUBLIC "-//W3C//DTD SVG 1.1//EN"
    "http://www.w3.org/Graphics/SVG/1.1/DTD/svg11.dtd">
<svg xmlns="http://www.w3.org/2000/svg" xmlns:xlink="http://www.w3.org/1999/xlink" version="1.1" width="220" height="348" viewBox="0 0 220 348"><rect width="220" height="348" fill="#000000" /><path d="M 110 48 , 10 68" stroke="#00ff00" stroke-width="2" stroke-linecap="round" /><path d="M 110 48 , 30 68" stroke="#00ff00" stroke-width="2" stroke-linecap="round" /><path d="M 110 48 , 130 108" stroke="#00ff00" stroke-width="2" stroke-linecap="round" /><path d="M 130 108 , 50 128" stroke="#00ff00" stroke-width="2" stroke-linecap="round" /><path d="M 130 108 , 130 168" stroke="#00ff00" stroke-width="2" stroke-linecap="round" /><path d="M 130 108 , 210 128" stroke="#00ff00" stroke-width="2" stroke-linecap="round" /><path d="M 130 168 , 70 188" stroke="#00ff00" stroke-width="2" stroke-linecap="round" /><path d="M 130 168 , 90 188" stroke="#00ff00" stroke-width="2" stroke-linecap="round" /><path d="M 130 168 , 150 228" stroke="#00ff00" stroke-width="2" stroke-linecap="round" /><path d="M 150 228 , 110 248" stroke="#00ff00" stroke-width="2" stroke-linecap="round" /><path d="M 150 228 , 150 288" stroke="#00ff00" stroke-width="2" stroke-linecap="round" /><path d="M 150 228 , 190 248" stroke="#00ff00" stroke-width="2" stroke-linecap="round" /><path d="M 150 288 , 130 308" stroke="#00ff00" stroke-width="2" stroke-linecap="round" /><path d="M 150 288 , 150 308" stroke="#00ff00" stroke-width="2" stroke-linecap="round" /><path d="M 150 288 , 170 308" stroke="#00ff00" stroke-width="2" stroke-linecap="round" /><rect x="99" y="16" width="23" height="14" fill="#000000" fill-opacity="1.0" /><rect x="97" y="14" width="27" height="18" fill="#000000" fill-opacity="0.9" /><rect x="95" y="12" width="31" height="22" fill="#000000" fill-opacity="0.75" /><rect x="94" y="11" width="33" height="24" fill="#000000" fill-opacity="0.5" /><rect x="93" y="10" width="35" height="26" fill="#000000" fill-opacity="0.25" /><rect x="91" y="8" width="39" height="30" fill="#000000" fill-opacity="0.1" /><text x="110" y="28" font-size="20" text-anchor="middle" font-family="mono" fill="#00ff00">e.0</text><circle r="4" cx="110" cy="48" fill="#00ff00" /><rect x="12" y="86" width="-3" height="14" fill="#000000" fill-opacity="1.0" /><rect x="10" y="84" width="1" height="18" fill="#000000" fill-opacity="0.9" /><rect x="8" y="82" width="5" height="22" fill="#000000" fill-opacity="0.75" /><rect x="7" y="81" width="7" height="24" fill="#000000" fill-opacity="0.5" /><rect x="6" y="80" width="9" height="26" fill="#000000" fill-opacity="0.25" /><rect x="4" y="78" width="13" height="30" fill="#000000" fill-opacity="0.1" /><text x="10" y="98" font-size="20" text-anchor="middle" font-family="mono" fill="#5555ff">5</text><circle r="4" cx="10" cy="68" fill="#5555ff" /><rect x="32" y="86" width="-3" height="14" fill="#000000" fill-opacity="1.0" /><rect x="30" y="84" width="1" height="18" fill="#000000" fill-opacity="0.9" /><rect x="28" y="82" width="5" height="22" fill="#000000" fill-opacity="0.75" /><rect x="27" y="81" width="7" height="24" fill="#000000" fill-opacity="0.5" /><rect x="26" y="80" width="9" height="26" fill="#000000" fill-opacity="0.25" /><rect x="24" y="78" width="13" height="30" fill="#000000" fill-opacity="0.1" /><text x="30" y="98" font-size="20" text-anchor="middle" font-family="mono" fill="#00ff00">+</text><circle r="4" cx="30" cy="68" fill="#00ff00" /><rect x="112" y="76" width="36" height="14" fill="#000000" fill-opacity="1.0" /><rect x="110" y="74" width="40" height="18" fill="#000000" fill-opacity="0.9" /><rect x="108" y="72" width="44" height="22" fill="#000000" fill-opacity="0.75" /><rect x="107" y="71" width="46" height="24" fill="#000000" fill-opacity="0.5" /><rect x="106" y="70" width="48" height="26" fill="#000000" fill-opacity="0.25" /><rect x="104" y="68" width="52" height="30" fill="#000000" fill-opacity="0.1" /><text x="130" y="88" font-size="20" text-anchor="middle" font-family="mono" fill="#999999">eL.4</text><circle r="4" cx="130" cy="108" fill="#999999" /><rect x="52" y="146" width="-3" height="14" fill="#000000" fill-opacity="1.0" /><rect x="50" y="144" width="1" height="18" fill="#000000" fill-opacity="0.9" /><rect x="48" y="142" width="5" height="22" fill="#000000" fill-opacity="0.75" /><rect x="47" y="141" width="7" height="24" fill="#000000" fill-opacity="0.5" /><rect x="46" y="140" width="9" height="26" fill="#000000" fill-opacity="0.25" /><rect x="44" y="138" width="13" height="30" fill="#000000" fill-opacity="0.1" /><text x="50" y="158" font-size="20" text-anchor="middle" font-family="mono" fill="#999999">(</text><circle r="4" cx="50" cy="128" fill="#999999" /><rect x="119" y="136" width="23" height="14" fill="#000000" fill-opacity="1.0" /><rect x="117" y="134" width="27" height="18" fill="#000000" fill-opacity="0.9" /><rect x="115" y="132" width="31" height="22" fill="#000000" fill-opacity="0.75" /><rect x="114" y="131" width="33" height="24" fill="#000000" fill-opacity="0.5" /><rect x="113" y="130" width="35" height="26" fill="#000000" fill-opacity="0.25" /><rect x="111" y="128" width="39" height="30" fill="#000000" fill-opacity="0.1" /><text x="130" y="148" font-size="20" text-anchor="middle" font-family="mono" fill="#00ff00">e.0</text><circle r="4" cx="130" cy="168" fill="#00ff00" /><rect x="72" y="206" width="-3" height="14" fill="#000000" fill-opacity="1.0" /><rect x="70" y="204" width="1" height="18" fill="#000000" fill-opacity="0.9" /><rect x="68" y="202" width="5" height="22" fill="#000000" fill-opacity="0.75" /><rect x="67" y="201" width="7" height="24" fill="#000000" fill-opacity="0.5" /><rect x="66" y="200" width="9" height="26" fill="#000000" fill-opacity="0.25" /><rect x="64" y="198" width="13" height="30" fill="#000000" fill-opacity="0.1" /><text x="70" y="218" font-size="20" text-anchor="middle" font-family="mono" fill="#5555ff">6</text><circle r="4" cx="70" cy="188" fill="#5555ff" /><rect x="92" y="206" width="-3" height="14" fill="#000000" fill-opacity="1.0" /><rect x="90" y="204" width="1" height="18" fill="#000000" fill-opacity="0.9" /><rect x="88" y="202" width="5" height="22" fill="#000000" fill-opacity="0.75" /><rect x="87" y="201" width="7" height="24" fill="#000000" fill-opacity="0.5" /><rect x="86" y="200" width="9" height="26" fill="#000000" fill-opacity="0.25" /><rect x="84" y="198" width="13" height="30" fill="#000000" fill-opacity="0.1" /><text x="90" y="218" font-size="20" text-anchor="middle" font-family="mono" fill="#00ff00">+</text><circle r="4" cx="90" cy="188" fill="#00ff00" /><rect x="132" y="196" width="36" height="14" fill="#000000" fill-opacity="1.0" /><rect x="130" y="194" width="40" height="18" fill="#000000" fill-opacity="0.9" /><rect x="128" y="192" width="44" height="22" fill="#000000" fill-opacity="0.75" /><rect x="127" y="191" width="46" height="24" fill="#000000" fill-opacity="0.5" /><rect x="126" y="190" width="48" height="26" fill="#000000" fill-opacity="0.25" /><rect x="124" y="188" width="52" height="30" fill="#000000" fill-opacity="0.1" /><text x="150" y="208" font-size="20" text-anchor="middle" font-family="mono" fill="#999999">eL.4</text><circle r="4" cx="150" cy="228" fill="#999999" /><rect x="112" y="266" width="-3" height="14" fill="#000000" fill-opacity="1.0" /><rect x="110" y="264" width="1" height="18" fill="#000000" fill-opacity="0.9" /><rect x="108" y="262" width="5" height="22" fill="#000000" fill-opacity="0.75" /><rect x="107" y="261" width="7" height="24" fill="#000000" fill-opacity="0.5" /><rect x="106" y="260" width="9" height="26" fill="#000000" fill-opacity="0.25" /><rect x="104" y="258" width="13" height="30" fill="#000000" fill-opacity="0.1" /><text x="110" y="278" font-size="20" text-anchor="middle" font-family="mono" fill="#999999">(</text><circle r="4" cx="110" cy="248" fill="#999999" /><rect x="139" y="256" width="23" height="14" fill="#000000" fill-opacity="1.0" /><rect x="137" y="254" width="27" height="18" fill="#000000" fill-opacity="0.9" /><rect x="135" y="252" width="31" height="22" fill="#000000" fill-opacity="0.75" /><rect x="134" y="251" width="33" height="24" fill="#000000" fill-opacity="0.5" /><rect x="133" y="250" width="35" height="26" fill="#000000" fill-opacity="0.25" /><rect x="131" y="248" width="39" height="30" fill="#000000" fill-opacity="0.1" /><text x="150" y="268" font-size="20" text-anchor="middle" font-family="mono" fill="#00ff00">e.0</text><circle r="4" cx="150" cy="288" fill="#00ff00" /><rect x="132" y="326" width="-3" height="14" fill="#000000" fill-opacity="1.0" /><rect x="130" y="324" width="1" height="18" fill="#000000" fill-opacity="0.9" /><rect x="128" y="322" width="5" height="22" fill="#000000" fill-opacity="0.75" /><rect x="127" y="321" width="7" height="24" fill="#000000" fill-opacity="0.5" /><rect x="126" y="320" width="9" height="26" fill="#000000" fill-opacity="0.25" /><rect x="124" y="318" width="13" height="30" fill="#000000" fill-opacity="0.1" /><text x="130" y="338" font-size="20" text-anchor="middle" font-family="mono" fill="#5555ff">7</text><circle r="4" cx="130" cy="308" fill="#5555ff" /><rect x="152" y="326" width="-3" height="14" fill="#000000" fill-opacity="1.0" /><rect x="150" y="324" width="1" height="18" fill="#000000" fill-opacity="0.9" /><rect x="148" y="322" width="5" height="22" fill="#000000" fill-opacity="0.75" /><rect x="147" y="321" width="7" height="24" fill="#000000" fill-opacity="0.5" /><rect x="146" y="320" width="9" height="26" fill="#000000" fill-opacity="0.25" /><rect x="144" y="318" width="13" height="30" fill="#000000" fill-opacity="0.1" /><text x="150" y="338" font-size="20" text-anchor="middle" font-family="mono" fill="#00ff00">+</text><circle r="4" cx="150" cy="308" fill="#00ff00" /><rect x="172" y="326" width="-3" height="14" fill="#000000" fill-opacity="1.0" /><rect x="170" y="324" width="1" height="18" fill="#000000" fill-opacity="0.9" /><rect x="168" y="322" width="5" height="22" fill="#000000" fill-opacity="0.75" /><rect x="167" y="321" width="7" height="24" fill="#000000" fill-opacity="0.5" /><rect x="166" y="320" width="9" height="26" fill="#000000" fill-opacity="0.25" /><rect x="164" y="318" width="13" height="30" fill="#000000" fill-opacity="0.1" /><text x="170" y="338" font-size="20" text-anchor="middle" font-family="mono" fill="#5555ff">8</text><circle r="4" cx="170" cy="308" fill="#5555ff" /><rect x="192" y="266" width="-3" height="14" fill="#000000" fill-opacity="1.0" /><rect x="190" y="264" width="1" height="18" fill="#000000" fill-opacity="0.9" /><rect x="188" y="262" width="5" height="22" fill="#000000" fill-opacity="0.75" /><rect x="187" y="261" width="7" height="24" fill="#000000" fill-opacity="0.5" /><rect x="186" y="260" width="9" height="26" fill="#000000" fill-opacity="0.25" /><rect x="184" y="258" width="13" height="30" fill="#000000" fill-opacity="0.1" /><text x="190" y="278" font-size="20" text-anchor="middle" font-family="mono" fill="#999999">)</text><circle r="4" cx="190" cy="248" fill="#999999" /><rect x="212" y="146" width="-3" height="14" fill="#000000" fill-opacity="1.0" /><rect x="210" y="144" width="1" height="18" fill="#000000" fill-opacity="0.9" /><rect x="208" y="142" width="5" height="22" fill="#000000" fill-opacity="0.75" /><rect x="207" y="141" width="7" height="24" fill="#000000" fill-opacity="0.5" /><rect x="206" y="140" width="9" height="26" fill="#000000" fill-opacity="0.25" /><rect x="204" y="138" width="13" height="30" fill="#000000" fill-opacity="0.1" /><text x="210" y="158" font-size="20" text-anchor="middle" font-family="mono" fill="#999999">)</text><circle r="4" cx="210" cy="128" fill="#999999" /></svg>