<?xml version="1.0" encoding="UTF-8"?>
<!DOCTYPE svg PUBLIC "-//W3C//DTD SVG 1.1//EN"
    "http://www.w3.org/Graphics/SVG/1.1/DTD/svg11.dtd">
<svg xmlns="http://www.w3.org/2000/svg" xmlns:xlink="http://www.w3.org/1999/xlink" version="1.1" width="200" height="108" viewBox="0 0 200 108"><rect width="200" height="108" fill="#000000" /><path d="M 100 48 , 40 68" stroke="#00ff00" stroke-width="2" stroke-linecap="round" /><path d="M 100 48 , 100 68" stroke="#00ff00" stroke-width="2" stroke-linecap="round" /><path d="M 100 48 , 160 68" stroke="#00ff00" stroke-width="2" stroke-linecap="round" /><rect x="89" y="16" width="23" height="14" fill="#000000" fill-opacity="1.0" /><rect x="87" y="14" width="27" height="18" fill="#000000" fill-opacity="0.9" /><rect x="85" y="12" width="31" height="22" fill="#000000" fill-opacity="0.75" /><rect x="84" y="11" width="33" height="24" fill="#000000" fill-opacity="0.5" /><rect x="83" y="10" width="35" height="26" fill="#000000" fill-opacity="0.25" /><rect x="81" y="8" width="39" height="30" fill="#000000" fill-opacity="0.1" /><text x="100" y="28" font-size="20" text-anchor="middle" font-family="mono" fill="#00ff00">e.1</text><circle r="4" cx="100" cy="48" fill="#00ff00" /><rect x="22" y="86" width="36" height="14" fill="#000000" fill-opacity="1.0" /><rect x="20" y="84" width="40" height="18" fill="#000000" fill-opacity="0.9" /><rect x="18" y="82" width="44" height="22" fill="#000000" fill-opacity="0.75" /><rect x="17" y="81" width="46" height="24" fill="#000000" fill-opacity="0.5" /><rect x="16" y="80" width="48" height="26" fill="#000000" fill-opacity="0.25" /><rect x="14" y="78" width="52" height="30" fill="#000000" fill-opacity="0.1" /><text x="40" y="98" font-size="20" text-anchor="middle" font-family="mono" fill="#ffff00">True</text><circle r="4" cx="40" cy="68" fill="#ffff00" /><rect x="95" y="86" width="10" height="14" fill="#000000" fill-opacity="1.0" /><rect x="93" y="84" width="14" height="18" fill="#000000" fill-opacity="0.9" /><rect x="91" y="82" width="18" height="22" fill="#000000" fill-opacity="0.75" /><rect x="90" y="81" width="20" height="24" fill="#000000" fill-opacity="0.5" /><rect x="89" y="80" width="22" height="26" fill="#000000" fill-opacity="0.25" /><rect x="87" y="78" width="26" height="30" fill="#000000" fill-opacity="0.1" /><text x="100" y="98" font-size="20" text-anchor="middle" font-family="mono" fill="#00ff00">::</text><circle r="4" cx="100" cy="68" fill="#00ff00" /><rect x="142" y="86" width="36" height="14" fill="#000000" fill-opacity="1.0" /><rect x="140" y="84" width="40" height="18" fill="#000000" fill-opacity="0.9" /><rect x="138" y="82" width="44" height="22" fill="#000000" fill-opacity="0.75" /><rect x="137" y="81" width="46" height="24" fill="#000000" fill-opacity="0.5" /><rect x="136" y="80" width="48" height="26" fill="#000000" fill-opacity="0.25" /><rect x="134" y="78" width="52" height="30" fill="#000000" fill-opacity="0.1" /><text x="160" y="98" font-size="20" text-anchor="middle" font-family="mono" fill="#5555ff">Bool</text><circle r="4" cx="160" cy="68" fill="#5555ff" /></svg>