<?xml version="1.0" encoding="UTF-8"?>
<!DOCTYPE svg PUBLIC "-//W3C//DTD SVG 1.1//EN"
    "http://www.w3.org/Graphics/SVG/1.1/DTD/svg11.dtd">
<svg xmlns="http://www.w3.org/2000/svg" xmlns:xlink="http://www.w3.org/1999/xlink" version="1.1" width="940" height="228" viewBox="0 0 940 228"><rect width="940" height="228" fill="#ffffff" /><path d="M 470 48 , 20 68" stroke="#000000" stroke-width="1" stroke-linecap="round" /><path d="M 470 48 , 290 108" stroke="#000000" stroke-width="1" stroke-linecap="round" /><path d="M 470 48 , 580 68" stroke="#000000" stroke-width="1" stroke-linecap="round" /><path d="M 470 48 , 700 68" stroke="#000000" stroke-width="1" stroke-linecap="round" /><path d="M 470 48 , 820 68" stroke="#000000" stroke-width="1" stroke-linecap="round" /><path d="M 470 48 , 900 68" stroke="#000000" stroke-width="1" stroke-linecap="round" /><path d="M 290 108 , 50 128" stroke="#000000" stroke-width="1" stroke-linecap="round" /><path d="M 290 108 , 290 168" stroke="#000000" stroke-width="1" stroke-linecap="round" /><path d="M 290 108 , 530 128" stroke="#000000" stroke-width="1" stroke-linecap="round" /><path d="M 290 168 , 80 188" stroke="#000000" stroke-width="1" stroke-linecap="round" /><path d="M 290 168 , 140 188" stroke="#000000" stroke-width="1" stroke-linecap="round" /><path d="M 290 168 , 220 188" stroke="#000000" stroke-width="1" stroke-linecap="round" /><path d="M 290 168 , 310 188" stroke="#000000" stroke-width="1" stroke-linecap="round" /><path d="M 290 168 , 400 188" stroke="#000000" stroke-width="1" stroke-linecap="round" /><path d="M 290 168 , 480 188" stroke="#000000" stroke-width="1" stroke-linecap="round" /><rect x="452" y="16" width="36" height="14" fill="#ffffff" fill-opacity="1.0" /><rect x="450" y="14" width="40" height="18" fill="#ffffff" fill-opacity="0.9" /><rect x="448" y="12" width="44" height="22" fill="#ffffff" fill-opacity="0.75" /><rect x="447" y="11" width="46" height="24" fill="#ffffff" fill-opacity="0.5" /><rect x="446" y="10" width="48" height="26" fill="#ffffff" fill-opacity="0.25" /><rect x="444" y="8" width="52" height="30" fill="#ffffff" fill-opacity="0.1" /><text x="470" y="28" font-size="20" text-anchor="middle" font-family="mono" fill="#000000">eL.3</text><circle r="4" cx="470" cy="48" fill="#000000" /><rect x="15" y="86" width="10" height="14" fill="#ffffff" fill-opacity="1.0" /><rect x="13" y="84" width="14" height="18" fill="#ffffff" fill-opacity="0.9" /><rect x="11" y="82" width="18" height="22" fill="#ffffff" fill-opacity="0.75" /><rect x="10" y="81" width="20" height="24" fill="#ffffff" fill-opacity="0.5" /><rect x="9" y="80" width="22" height="26" fill="#ffffff" fill-opacity="0.25" /><rect x="7" y="78" width="26" height="30" fill="#ffffff" fill-opacity="0.1" /><text x="20" y="98" font-size="20" text-anchor="middle" font-family="mono" fill="#000000">If</text><circle r="4" cx="20" cy="68" fill="#000000" /><rect x="272" y="76" width="36" height="14" fill="#ffffff" fill-opacity="1.0" /><rect x="270" y="74" width="40" height="18" fill="#ffffff" fill-opacity="0.9" /><rect x="268" y="72" width="44" height="22" fill="#ffffff" fill-opacity="0.75" /><rect x="267" y="71" width="46" height="24" fill="#ffffff" fill-opacity="0.5" /><rect x="266" y="70" width="48" height="26" fill="#ffffff" fill-opacity="0.25" /><rect x="264" y="68" width="52" height="30" fill="#ffffff" fill-opacity="0.1" /><text x="290" y="88" font-size="20" text-anchor="middle" font-family="mono" fill="#000000">eL.4</text><circle r="4" cx="290" cy="108" fill="#000000" /><rect x="52" y="146" width="-3" height="14" fill="#ffffff" fill-opacity="1.0" /><rect x="50" y="144" width="1" height="18" fill="#ffffff" fill-opacity="0.9" /><rect x="48" y="142" width="5" height="22" fill="#ffffff" fill-opacity="0.75" /><rect x="47" y="141" width="7" height="24" fill="#ffffff" fill-opacity="0.5" /><rect x="46" y="140" width="9" height="26" fill="#ffffff" fill-opacity="0.25" /><rect x="44" y="138" width="13" height="30" fill="#ffffff" fill-opacity="0.1" /><text x="50" y="158" font-size="20" text-anchor="middle" font-family="mono" fill="#000000">(</text><circle r="4" cx="50" cy="128" fill="#000000" /><rect x="272" y="136" width="36" height="14" fill="#ffffff" fill-opacity="1.0" /><rect x="270" y="134" width="40" height="18" fill="#ffffff" fill-opacity="0.9" /><rect x="268" y="132" width="44" height="22" fill="#ffffff" fill-opacity="0.75" /><rect x="267" y="131" width="46" height="24" fill="#ffffff" fill-opacity="0.5" /><rect x="266" y="130" width="48" height="26" fill="#ffffff" fill-opacity="0.25" /><rect x="264" y="128" width="52" height="30" fill="#ffffff" fill-opacity="0.1" /><text x="290" y="148" font-size="20" text-anchor="middle" font-family="mono" fill="#000000">eL.3</text><circle r="4" cx="290" cy="168" fill="#000000" /><rect x="75" y="206" width="10" height="14" fill="#ffffff" fill-opacity="1.0" /><rect x="73" y="204" width="14" height="18" fill="#ffffff" fill-opacity="0.9" /><rect x="71" y="202" width="18" height="22" fill="#ffffff" fill-opacity="0.75" /><rect x="70" y="201" width="20" height="24" fill="#ffffff" fill-opacity="0.5" /><rect x="69" y="200" width="22" height="26" fill="#ffffff" fill-opacity="0.25" /><rect x="67" y="198" width="26" height="30" fill="#ffffff" fill-opacity="0.1" /><text x="80" y="218" font-size="20" text-anchor="middle" font-family="mono" fill="#000000">If</text><circle r="4" cx="80" cy="188" fill="#000000" /><rect x="122" y="206" width="36" height="14" fill="#ffffff" fill-opacity="1.0" /><rect x="120" y="204" width="40" height="18" fill="#ffffff" fill-opacity="0.9" /><rect x="118" y="202" width="44" height="22" fill="#ffffff" fill-opacity="0.75" /><rect x="117" y="201" width="46" height="24" fill="#ffffff" fill-opacity="0.5" /><rect x="116" y="200" width="48" height="26" fill="#ffffff" fill-opacity="0.25" /><rect x="114" y="198" width="52" height="30" fill="#ffffff" fill-opacity="0.1" /><text x="140" y="218" font-size="20" text-anchor="middle" font-family="mono" fill="#000000">True</text><circle r="4" cx="140" cy="188" fill="#000000" /><rect x="202" y="206" width="36" height="14" fill="#ffffff" fill-opacity="1.0" /><rect x="200" y="204" width="40" height="18" fill="#ffffff" fill-opacity="0.9" /><rect x="198" y="202" width="44" height="22" fill="#ffffff" fill-opacity="0.75" /><rect x="197" y="201" width="46" height="24" fill="#ffffff" fill-opacity="0.5" /><rect x="196" y="200" width="48" height="26" fill="#ffffff" fill-opacity="0.25" /><rect x="194" y="198" width="52" height="30" fill="#ffffff" fill-opacity="0.1" /><text x="220" y="218" font-size="20" text-anchor="middle" font-family="mono" fill="#000000">Then</text><circle r="4" cx="220" cy="188" fill="#000000" /><rect x="286" y="206" width="49" height="14" fill="#ffffff" fill-opacity="1.0" /><rect x="284" y="204" width="53" height="18" fill="#ffffff" fill-opacity="0.9" /><rect x="282" y="202" width="57" height="22" fill="#ffffff" fill-opacity="0.75" /><rect x="281" y="201" width="59" height="24" fill="#ffffff" fill-opacity="0.5" /><rect x="280" y="200" width="61" height="26" fill="#ffffff" fill-opacity="0.25" /><rect x="278" y="198" width="65" height="30" fill="#ffffff" fill-opacity="0.1" /><text x="310" y="218" font-size="20" text-anchor="middle" font-family="mono" fill="#000000">False</text><circle r="4" cx="310" cy="188" fill="#000000" /><rect x="382" y="206" width="36" height="14" fill="#ffffff" fill-opacity="1.0" /><rect x="380" y="204" width="40" height="18" fill="#ffffff" fill-opacity="0.9" /><rect x="378" y="202" width="44" height="22" fill="#ffffff" fill-opacity="0.75" /><rect x="377" y="201" width="46" height="24" fill="#ffffff" fill-opacity="0.5" /><rect x="376" y="200" width="48" height="26" fill="#ffffff" fill-opacity="0.25" /><rect x="374" y="198" width="52" height="30" fill="#ffffff" fill-opacity="0.1" /><text x="400" y="218" font-size="20" text-anchor="middle" font-family="mono" fill="#000000">Else</text><circle r="4" cx="400" cy="188" fill="#000000" /><rect x="462" y="206" width="36" height="14" fill="#ffffff" fill-opacity="1.0" /><rect x="460" y="204" width="40" height="18" fill="#ffffff" fill-opacity="0.9" /><rect x="458" y="202" width="44" height="22" fill="#ffffff" fill-opacity="0.75" /><rect x="457" y="201" width="46" height="24" fill="#ffffff" fill-opacity="0.5" /><rect x="456" y="200" width="48" height="26" fill="#ffffff" fill-opacity="0.25" /><rect x="454" y="198" width="52" height="30" fill="#ffffff" fill-opacity="0.1" /><text x="480" y="218" font-size="20" text-anchor="middle" font-family="mono" fill="#000000">True</text><circle r="4" cx="480" cy="188" fill="#000000" /><rect x="532" y="146" width="-3" height="14" fill="#ffffff" fill-opacity="1.0" /><rect x="530" y="144" width="1" height="18" fill="#ffffff" fill-opacity="0.9" /><rect x="528" y="142" width="5" height="22" fill="#ffffff" fill-opacity="0.75" /><rect x="527" y="141" width="7" height="24" fill="#ffffff" fill-opacity="0.5" /><rect x="526" y="140" width="9" height="26" fill="#ffffff" fill-opacity="0.25" /><rect x="524" y="138" width="13" height="30" fill="#ffffff" fill-opacity="0.1" /><text x="530" y="158" font-size="20" text-anchor="middle" font-family="mono" fill="#000000">)</text><circle r="4" cx="530" cy="128" fill="#000000" /><rect x="562" y="86" width="36" height="14" fill="#ffffff" fill-opacity="1.0" /><rect x="560" y="84" width="40" height="18" fill="#ffffff" fill-opacity="0.9" /><rect x="558" y="82" width="44" height="22" fill="#ffffff" fill-opacity="0.75" /><rect x="557" y="81" width="46" height="24" fill="#ffffff" fill-opacity="0.5" /><rect x="556" y="80" width="48" height="26" fill="#ffffff" fill-opacity="0.25" /><rect x="554" y="78" width="52" height="30" fill="#ffffff" fill-opacity="0.1" /><text x="580" y="98" font-size="20" text-anchor="middle" font-family="mono" fill="#000000">Then</text><circle r="4" cx="580" cy="68" fill="#000000" /><rect x="656" y="86" width="88" height="14" fill="#ffffff" fill-opacity="1.0" /><rect x="654" y="84" width="92" height="18" fill="#ffffff" fill-opacity="0.9" /><rect x="652" y="82" width="96" height="22" fill="#ffffff" fill-opacity="0.75" /><rect x="651" y="81" width="98" height="24" fill="#ffffff" fill-opacity="0.5" /><rect x="650" y="80" width="100" height="26" fill="#ffffff" fill-opacity="0.25" /><rect x="648" y="78" width="104" height="30" fill="#ffffff" fill-opacity="0.1" /><text x="700" y="98" font-size="20" text-anchor="middle" font-family="mono" fill="#000000">&lt;123456&gt;</text><circle r="4" cx="700" cy="68" fill="#000000" /><rect x="802" y="86" width="36" height="14" fill="#ffffff" fill-opacity="1.0" /><rect x="800" y="84" width="40" height="18" fill="#ffffff" fill-opacity="0.9" /><rect x="798" y="82" width="44" height="22" fill="#ffffff" fill-opacity="0.75" /><rect x="797" y="81" width="46" height="24" fill="#ffffff" fill-opacity="0.5" /><rect x="796" y="80" width="48" height="26" fill="#ffffff" fill-opacity="0.25" /><rect x="794" y="78" width="52" height="30" fill="#ffffff" fill-opacity="0.1" /><text x="820" y="98" font-size="20" text-anchor="middle" font-family="mono" fill="#000000">Else</text><circle r="4" cx="820" cy="68" fill="#000000" /><rect x="882" y="86" width="36" height="14" fill="#ffffff" fill-opacity="1.0" /><rect x="880" y="84" width="40" height="18" fill="#ffffff" fill-opacity="0.9" /><rect x="878" y="82" width="44" height="22" fill="#ffffff" fill-opacity="0.75" /><rect x="877" y="81" width="46" height="24" fill="#ffffff" fill-opacity="0.5" /><rect x="876" y="80" width="48" height="26" fill="#ffffff" fill-opacity="0.25" /><rect x="874" y="78" width="52" height="30" fill="#ffffff" fill-opacity="0.1" /><text x="900" y="98" font-size="20" text-anchor="middle" font-family="mono" fill="#000000">&lt;42&gt;</text><circle r="4" cx="900" cy="68" fill="#000000" /></svg>