<?xml version="1.0" encoding="UTF-8"?>
<!DOCTYPE svg PUBLIC "-//W3C//DTD SVG 1.1//EN"
    "http://www.w3.org/Graphics/SVG/1.1/DTD/svg11.dtd">
<svg xmlns="http://www.w3.org/2000/svg" xmlns:xlink="http://www.w3.org/1999/xlink" version="1.1" width="260" height="228" viewBox="0 0 260 228"><rect width="260" height="228" fill="#ffffff" /><rect x="111" y="8" width="39" height="30" fill="#ffffff" fill-opacity="0.5" /><text x="130" y="28" font-size="20" text-anchor="middle" font-family="mono" fill="#000000">e.0</text><circle r="4" cx="130" cy="48" fill="#000000" /><rect x="11" y="78" width="39" height="30" fill="#ffffff" fill-opacity="0.5" /><text x="30" y="98" font-size="20" text-anchor="middle" font-family="mono" fill="#000000">&lt;5&gt;</text><circle r="4" cx="30" cy="68" fill="#000000" /><rect x="64" y="78" width="13" height="30" fill="#ffffff" fill-opacity="0.5" /><text x="70" y="98" font-size="20" text-anchor="middle" font-family="mono" fill="#000000">+</text><circle r="4" cx="70" cy="68" fill="#000000" /><rect x="144" y="68" width="52" height="30" fill="#ffffff" fill-opacity="0.5" /><text x="170" y="88" font-size="20" text-anchor="middle" font-family="mono" fill="#000000">eL.4</text><circle r="4" cx="170" cy="108" fill="#000000" /><rect x="84" y="138" width="13" height="30" fill="#ffffff" fill-opacity="0.5" /><text x="90" y="158" font-size="20" text-anchor="middle" font-family="mono" fill="#000000">(</text><circle r="4" cx="90" cy="128" fill="#000000" /><rect x="151" y="128" width="39" height="30" fill="#ffffff" fill-opacity="0.5" /><text x="170" y="148" font-size="20" text-anchor="middle" font-family="mono" fill="#000000">e.0</text><circle r="4" cx="170" cy="168" fill="#000000" /><rect x="111" y="198" width="39" height="30" fill="#ffffff" fill-opacity="0.5" /><text x="130" y="218" font-size="20" text-anchor="middle" font-family="mono" fill="#000000">&lt;6&gt;</text><circle r="4" cx="130" cy="188" fill="#000000" /><rect x="164" y="198" width="13" height="30" fill="#ffffff" fill-opacity="0.5" /><text x="170" y="218" font-size="20" text-anchor="middle" font-family="mono" fill="#000000">+</text><circle r="4" cx="170" cy="188" fill="#000000" /><rect x="191" y="198" width="39" height="30" fill="#ffffff" fill-opacity="0.5" /><text x="210" y="218" font-size="20" text-anchor="middle" font-family="mono" fill="#000000">&lt;7&gt;</text><circle r="4" cx="210" cy="188" fill="#000000" /><rect x="244" y="138" width="13" height="30" fill="#ffffff" fill-opacity="0.5" /><text x="250" y="158" font-size="20" text-anchor="middle" font-family="mono" fill="#000000">)</text><circle r="4" cx="250" cy="128" fill="#000000" /><path d="M 130 48 , 30 68" stroke="#000000" stroke-width="1" stroke-linecap="round" /><path d="M 130 48 , 70 68" stroke="#000000" stroke-width="1" stroke-linecap="round" /><path d="M 130 48 , 170 108" stroke="#000000" stroke-width="1" stroke-linecap="round" /><path d="M 170 108 , 90 128" stroke="#000000" stroke-width="1" stroke-linecap="round" /><path d="M 170 108 , 170 168" stroke="#000000" stroke-width="1" stroke-linecap="round" /><path d="M 170 108 , 250 128" stroke="#000000" stroke-width="1" stroke-linecap="round" /><path d="M 170 168 , 130 188" stroke="#000000" stroke-width="1" stroke-linecap="round" /><path d="M 170 168 , 170 188" stroke="#000000" stroke-width="1" stroke-linecap="round" /><path d="M 170 168 , 210 188" stroke="#000000" stroke-width="1" stroke-linecap="round" /></svg>