<?xml version="1.0" encoding="UTF-8"?>
<!DOCTYPE svg PUBLIC "-//W3C//DTD SVG 1.1//EN"
    "http://www.w3.org/Graphics/SVG/1.1/DTD/svg11.dtd">
<svg xmlns="http://www.w3.org/2000/svg" xmlns:xlink="http://www.w3.org/1999/xlink" version="1.1" width="440" height="108" viewBox="0 0 440 108"><rect width="440" height="108" fill="#ffffff" /><rect x="194" y="8" width="52" height="30" fill="#ffffff" fill-opacity="0.5" /><text x="220" y="28" font-size="20" text-anchor="middle" font-family="mono" fill="#000000">eL.3</text><circle r="4" cx="220" cy="48" fill="#000000" /><rect x="7" y="78" width="26" height="30" fill="#ffffff" fill-opacity="0.5" /><text x="20" y="98" font-size="20" text-anchor="middle" font-family="mono" fill="#000000">If</text><circle r="4" cx="20" cy="68" fill="#000000" /><rect x="54" y="78" width="52" height="30" fill="#ffffff" fill-opacity="0.5" /><text x="80" y="98" font-size="20" text-anchor="middle" font-family="mono" fill="#000000">True</text><circle r="4" cx="80" cy="68" fill="#000000" /><rect x="134" y="78" width="52" height="30" fill="#ffffff" fill-opacity="0.5" /><text x="160" y="98" font-size="20" text-anchor="middle" font-family="mono" fill="#000000">Then</text><circle r="4" cx="160" cy="68" fill="#000000" /><rect x="214" y="78" width="52" height="30" fill="#ffffff" fill-opacity="0.5" /><text x="240" y="98" font-size="20" text-anchor="middle" font-family="mono" fill="#000000">&lt;42&gt;</text><circle r="4" cx="240" cy="68" fill="#000000" /><rect x="294" y="78" width="52" height="30" fill="#ffffff" fill-opacity="0.5" /><text x="320" y="98" font-size="20" text-anchor="middle" font-family="mono" fill="#000000">Else</text><circle r="4" cx="320" cy="68" fill="#000000" /><rect x="374" y="78" width="52" height="30" fill="#ffffff" fill-opacity="0.5" /><text x="400" y="98" font-size="20" text-anchor="middle" font-family="mono" fill="#000000">&lt;43&gt;</text><circle r="4" cx="400" cy="68" fill="#000000" /><path d="M 220 48 , 20 68" stroke="#000000" stroke-width="1" stroke-linecap="round" /><path d="M 220 48 , 80 68" stroke="#000000" stroke-width="1" stroke-linecap="round" /><path d="M 220 48 , 160 68" stroke="#000000" stroke-width="1" stroke-linecap="round" /><path d="M 220 48 , 240 68" stroke="#000000" stroke-width="1" stroke-linecap="round" /><path d="M 220 48 , 320 68" stroke="#000000" stroke-width="1" stroke-linecap="round" /><path d="M 220 48 , 400 68" stroke="#000000" stroke-width="1" stroke-linecap="round" /></svg>