<?xml version="1.0" encoding="UTF-8"?>
<!DOCTYPE svg PUBLIC "-//W3C//DTD SVG 1.1//EN"
    "http://www.w3.org/Graphics/SVG/1.1/DTD/svg11.dtd">
<svg xmlns="http://www.w3.org/2000/svg" xmlns:xlink="http://www.w3.org/1999/xlink" version="1.1" width="220" height="108" viewBox="0 0 220 108"><rect width="220" height="108" fill="#ffffff" /><path d="M 110 48 , 50 68" stroke="#000000" stroke-width="1" stroke-linecap="round" /><path d="M 110 48 , 120 68" stroke="#000000" stroke-width="1" stroke-linecap="round" /><path d="M 110 48 , 180 68" stroke="#000000" stroke-width="1" stroke-linecap="round" /><rect x="99" y="16" width="23" height="14" fill="#ffffff" fill-opacity="1.0" /><rect x="97" y="14" width="27" height="18" fill="#ffffff" fill-opacity="0.9" /><rect x="95" y="12" width="31" height="22" fill="#ffffff" fill-opacity="0.75" /><rect x="94" y="11" width="33" height="24" fill="#ffffff" fill-opacity="0.5" /><rect x="93" y="10" width="35" height="26" fill="#ffffff" fill-opacity="0.25" /><rect x="91" y="8" width="39" height="30" fill="#ffffff" fill-opacity="0.1" /><text x="110" y="28" font-size="20" text-anchor="middle" font-family="mono" fill="#000000">e.1</text><circle r="4" cx="110" cy="48" fill="#000000" /><rect x="26" y="86" width="49" height="14" fill="#ffffff" fill-opacity="1.0" /><rect x="24" y="84" width="53" height="18" fill="#ffffff" fill-opacity="0.9" /><rect x="22" y="82" width="57" height="22" fill="#ffffff" fill-opacity="0.75" /><rect x="21" y="81" width="59" height="24" fill="#ffffff" fill-opacity="0.5" /><rect x="20" y="80" width="61" height="26" fill="#ffffff" fill-opacity="0.25" /><rect x="18" y="78" width="65" height="30" fill="#ffffff" fill-opacity="0.1" /><text x="50" y="98" font-size="20" text-anchor="middle" font-family="mono" fill="#000000">False</text><circle r="4" cx="50" cy="68" fill="#000000" /><rect x="115" y="86" width="10" height="14" fill="#ffffff" fill-opacity="1.0" /><rect x="113" y="84" width="14" height="18" fill="#ffffff" fill-opacity="0.9" /><rect x="111" y="82" width="18" height="22" fill="#ffffff" fill-opacity="0.75" /><rect x="110" y="81" width="20" height="24" fill="#ffffff" fill-opacity="0.5" /><rect x="109" y="80" width="22" height="26" fill="#ffffff" fill-opacity="0.25" /><rect x="107" y="78" width="26" height="30" fill="#ffffff" fill-opacity="0.1" /><text x="120" y="98" font-size="20" text-anchor="middle" font-family="mono" fill="#000000">::</text><circle r="4" cx="120" cy="68" fill="#000000" /><rect x="162" y="86" width="36" height="14" fill="#ffffff" fill-opacity="1.0" /><rect x="160" y="84" width="40" height="18" fill="#ffffff" fill-opacity="0.9" /><rect x="158" y="82" width="44" height="22" fill="#ffffff" fill-opacity="0.75" /><rect x="157" y="81" width="46" height="24" fill="#ffffff" fill-opacity="0.5" /><rect x="156" y="80" width="48" height="26" fill="#ffffff" fill-opacity="0.25" /><rect x="154" y="78" width="52" height="30" fill="#ffffff" fill-opacity="0.1" /><text x="180" y="98" font-size="20" text-anchor="middle" font-family="mono" fill="#000000">Bool</text><circle r="4" cx="180" cy="68" fill="#000000" /></svg>