<?xml version="1.0" encoding="UTF-8"?>
<!DOCTYPE svg PUBLIC "-//W3C//DTD SVG 1.1//EN"
    "http://www.w3.org/Graphics/SVG/1.1/DTD/svg11.dtd">
<svg xmlns="http://www.w3.org/2000/svg" xmlns:xlink="http://www.w3.org/1999/xlink" version="1.1" width="460" height="108" viewBox="0 0 460 108"><rect width="460" height="108" fill="#ffffff" /><rect x="204" y="8" width="52" height="30" fill="#ffffff" fill-opacity="0.5" /><text x="230" y="28" font-size="20" text-anchor="middle" font-family="mono" fill="#000000">eL.3</text><circle r="4" cx="230" cy="48" fill="#000000" /><rect x="7" y="78" width="26" height="30" fill="#ffffff" fill-opacity="0.5" /><text x="20" y="98" font-size="20" text-anchor="middle" font-family="mono" fill="#000000">If</text><circle r="4" cx="20" cy="68" fill="#000000" /><rect x="54" y="78" width="52" height="30" fill="#ffffff" fill-opacity="0.5" /><text x="80" y="98" font-size="20" text-anchor="middle" font-family="mono" fill="#000000">True</text><circle r="4" cx="80" cy="68" fill="#000000" /><rect x="134" y="78" width="52" height="30" fill="#ffffff" fill-opacity="0.5" /><text x="160" y="98" font-size="20" text-anchor="middle" font-family="mono" fill="#000000">Then</text><circle r="4" cx="160" cy="68" fill="#000000" /><rect x="218" y="78" width="65" height="30" fill="#ffffff" fill-opacity="0.5" /><text x="250" y="98" font-size="20" text-anchor="middle" font-family="mono" fill="#000000">False</text><circle r="4" cx="250" cy="68" fill="#000000" /><rect x="314" y="78" width="52" height="30" fill="#ffffff" fill-opacity="0.5" /><text x="340" y="98" font-size="20" text-anchor="middle" font-family="mono" fill="#000000">Else</text><circle r="4" cx="340" cy="68" fill="#000000" /><rect x="394" y="78" width="52" height="30" fill="#ffffff" fill-opacity="0.5" /><text x="420" y="98" font-size="20" text-anchor="middle" font-family="mono" fill="#000000">True</text><circle r="4" cx="420" cy="68" fill="#000000" /><path d="M 230 48 , 20 68" stroke="#000000" stroke-width="1" stroke-linecap="round" /><path d="M 230 48 , 80 68" stroke="#000000" stroke-width="1" stroke-linecap="round" /><path d="M 230 48 , 160 68" stroke="#000000" stroke-width="1" stroke-linecap="round" /><path d="M 230 48 , 250 68" stroke="#000000" stroke-width="1" stroke-linecap="round" /><path d="M 230 48 , 340 68" stroke="#000000" stroke-width="1" stroke-linecap="round" /><path d="M 230 48 , 420 68" stroke="#000000" stroke-width="1" stroke-linecap="round" /></svg>