<?xml version="1.0" encoding="UTF-8"?>
<!DOCTYPE svg PUBLIC "-//W3C//DTD SVG 1.1//EN"
    "http://www.w3.org/Graphics/SVG/1.1/DTD/svg11.dtd">
<svg xmlns="http://www.w3.org/2000/svg" xmlns:xlink="http://www.w3.org/1999/xlink" version="1.1" width="220" height="168" viewBox="0 0 220 168"><rect width="220" height="168" fill="#ffffff" /><rect x="91" y="8" width="39" height="30" fill="#ffffff" fill-opacity="0.5" /><text x="110" y="28" font-size="20" text-anchor="middle" font-family="mono" fill="#000000">e.0</text><circle r="4" cx="110" cy="48" fill="#000000" /><rect x="11" y="78" width="39" height="30" fill="#ffffff" fill-opacity="0.5" /><text x="30" y="98" font-size="20" text-anchor="middle" font-family="mono" fill="#000000">&lt;5&gt;</text><circle r="4" cx="30" cy="68" fill="#000000" /><rect x="64" y="78" width="13" height="30" fill="#ffffff" fill-opacity="0.5" /><text x="70" y="98" font-size="20" text-anchor="middle" font-family="mono" fill="#000000">+</text><circle r="4" cx="70" cy="68" fill="#000000" /><rect x="131" y="68" width="39" height="30" fill="#ffffff" fill-opacity="0.5" /><text x="150" y="88" font-size="20" text-anchor="middle" font-family="mono" fill="#000000">e.0</text><circle r="4" cx="150" cy="108" fill="#000000" /><rect x="91" y="138" width="39" height="30" fill="#ffffff" fill-opacity="0.5" /><text x="110" y="158" font-size="20" text-anchor="middle" font-family="mono" fill="#000000">&lt;6&gt;</text><circle r="4" cx="110" cy="128" fill="#000000" /><rect x="144" y="138" width="13" height="30" fill="#ffffff" fill-opacity="0.5" /><text x="150" y="158" font-size="20" text-anchor="middle" font-family="mono" fill="#000000">+</text><circle r="4" cx="150" cy="128" fill="#000000" /><rect x="171" y="138" width="39" height="30" fill="#ffffff" fill-opacity="0.5" /><text x="190" y="158" font-size="20" text-anchor="middle" font-family="mono" fill="#000000">&lt;7&gt;</text><circle r="4" cx="190" cy="128" fill="#000000" /><path d="M 110 48 , 30 68" stroke="#000000" stroke-width="1" stroke-linecap="round" /><path d="M 110 48 , 70 68" stroke="#000000" stroke-width="1" stroke-linecap="round" /><path d="M 110 48 , 150 108" stroke="#000000" stroke-width="1" stroke-linecap="round" /><path d="M 150 108 , 110 128" stroke="#000000" stroke-width="1" stroke-linecap="round" /><path d="M 150 108 , 150 128" stroke="#000000" stroke-width="1" stroke-linecap="round" /><path d="M 150 108 , 190 128" stroke="#000000" stroke-width="1" stroke-linecap="round" /></svg>