<?xml version="1.0" encoding="UTF-8"?>
<!DOCTYPE svg PUBLIC "-//W3C//DTD SVG 1.1//EN"
    "http://www.w3.org/Graphics/SVG/1.1/DTD/svg11.dtd">
<svg xmlns="http://www.w3.org/2000/svg" xmlns:xlink="http://www.w3.org/1999/xlink" version="1.1" width="140" height="108" viewBox="0 0 140 108"><rect width="140" height="108" fill="#ffffff" /><path d="M 70 48 , 30 68" stroke="#000000" stroke-width="1" stroke-linecap="round" /><path d="M 70 48 , 70 68" stroke="#000000" stroke-width="1" stroke-linecap="round" /><path d="M 70 48 , 110 68" stroke="#000000" stroke-width="1" stroke-linecap="round" /><rect x="59" y="16" width="23" height="14" fill="#ffffff" fill-opacity="1.0" /><rect x="57" y="14" width="27" height="18" fill="#ffffff" fill-opacity="0.9" /><rect x="55" y="12" width="31" height="22" fill="#ffffff" fill-opacity="0.75" /><rect x="54" y="11" width="33" height="24" fill="#ffffff" fill-opacity="0.5" /><rect x="53" y="10" width="35" height="26" fill="#ffffff" fill-opacity="0.25" /><rect x="51" y="8" width="39" height="30" fill="#ffffff" fill-opacity="0.1" /><text x="70" y="28" font-size="20" text-anchor="middle" font-family="mono" fill="#000000">e.0</text><circle r="4" cx="70" cy="48" fill="#000000" /><rect x="19" y="86" width="23" height="14" fill="#ffffff" fill-opacity="1.0" /><rect x="17" y="84" width="27" height="18" fill="#ffffff" fill-opacity="0.9" /><rect x="15" y="82" width="31" height="22" fill="#ffffff" fill-opacity="0.75" /><rect x="14" y="81" width="33" height="24" fill="#ffffff" fill-opacity="0.5" /><rect x="13" y="80" width="35" height="26" fill="#ffffff" fill-opacity="0.25" /><rect x="11" y="78" width="39" height="30" fill="#ffffff" fill-opacity="0.1" /><text x="30" y="98" font-size="20" text-anchor="middle" font-family="mono" fill="#000000">&lt;5&gt;</text><circle r="4" cx="30" cy="68" fill="#000000" /><rect x="72" y="86" width="-3" height="14" fill="#ffffff" fill-opacity="1.0" /><rect x="70" y="84" width="1" height="18" fill="#ffffff" fill-opacity="0.9" /><rect x="68" y="82" width="5" height="22" fill="#ffffff" fill-opacity="0.75" /><rect x="67" y="81" width="7" height="24" fill="#ffffff" fill-opacity="0.5" /><rect x="66" y="80" width="9" height="26" fill="#ffffff" fill-opacity="0.25" /><rect x="64" y="78" width="13" height="30" fill="#ffffff" fill-opacity="0.1" /><text x="70" y="98" font-size="20" text-anchor="middle" font-family="mono" fill="#000000">+</text><circle r="4" cx="70" cy="68" fill="#000000" /><rect x="99" y="86" width="23" height="14" fill="#ffffff" fill-opacity="1.0" /><rect x="97" y="84" width="27" height="18" fill="#ffffff" fill-opacity="0.9" /><rect x="95" y="82" width="31" height="22" fill="#ffffff" fill-opacity="0.75" /><rect x="94" y="81" width="33" height="24" fill="#ffffff" fill-opacity="0.5" /><rect x="93" y="80" width="35" height="26" fill="#ffffff" fill-opacity="0.25" /><rect x="91" y="78" width="39" height="30" fill="#ffffff" fill-opacity="0.1" /><text x="110" y="98" font-size="20" text-anchor="middle" font-family="mono" fill="#000000">&lt;6&gt;</text><circle r="4" cx="110" cy="68" fill="#000000" /></svg>