<?xml version="1.0" encoding="UTF-8"?>
<!DOCTYPE svg PUBLIC "-//W3C//DTD SVG 1.1//EN"
    "http://www.w3.org/Graphics/SVG/1.1/DTD/svg11.dtd">
<svg xmlns="http://www.w3.org/2000/svg" xmlns:xlink="http://www.w3.org/1999/xlink" version="1.1" width="440" height="108" viewBox="0 0 440 108"><rect width="440" height="108" fill="#ffffff" /><path d="M 220 48 , 20 68" stroke="#000000" stroke-width="1" stroke-linecap="round" /><path d="M 220 48 , 80 68" stroke="#000000" stroke-width="1" stroke-linecap="round" /><path d="M 220 48 , 160 68" stroke="#000000" stroke-width="1" stroke-linecap="round" /><path d="M 220 48 , 240 68" stroke="#000000" stroke-width="1" stroke-linecap="round" /><path d="M 220 48 , 320 68" stroke="#000000" stroke-width="1" stroke-linecap="round" /><path d="M 220 48 , 400 68" stroke="#000000" stroke-width="1" stroke-linecap="round" /><rect x="202" y="16" width="36" height="14" fill="#ffffff" fill-opacity="1.0" /><rect x="200" y="14" width="40" height="18" fill="#ffffff" fill-opacity="0.9" /><rect x="198" y="12" width="44" height="22" fill="#ffffff" fill-opacity="0.75" /><rect x="197" y="11" width="46" height="24" fill="#ffffff" fill-opacity="0.5" /><rect x="196" y="10" width="48" height="26" fill="#ffffff" fill-opacity="0.25" /><rect x="194" y="8" width="52" height="30" fill="#ffffff" fill-opacity="0.1" /><text x="220" y="28" font-size="20" text-anchor="middle" font-family="mono" fill="#000000">eL.3</text><circle r="4" cx="220" cy="48" fill="#000000" /><rect x="15" y="86" width="10" height="14" fill="#ffffff" fill-opacity="1.0" /><rect x="13" y="84" width="14" height="18" fill="#ffffff" fill-opacity="0.9" /><rect x="11" y="82" width="18" height="22" fill="#ffffff" fill-opacity="0.75" /><rect x="10" y="81" width="20" height="24" fill="#ffffff" fill-opacity="0.5" /><rect x="9" y="80" width="22" height="26" fill="#ffffff" fill-opacity="0.25" /><rect x="7" y="78" width="26" height="30" fill="#ffffff" fill-opacity="0.1" /><text x="20" y="98" font-size="20" text-anchor="middle" font-family="mono" fill="#000000">If</text><circle r="4" cx="20" cy="68" fill="#000000" /><rect x="62" y="86" width="36" height="14" fill="#ffffff" fill-opacity="1.0" /><rect x="60" y="84" width="40" height="18" fill="#ffffff" fill-opacity="0.9" /><rect x="58" y="82" width="44" height="22" fill="#ffffff" fill-opacity="0.75" /><rect x="57" y="81" width="46" height="24" fill="#ffffff" fill-opacity="0.5" /><rect x="56" y="80" width="48" height="26" fill="#ffffff" fill-opacity="0.25" /><rect x="54" y="78" width="52" height="30" fill="#ffffff" fill-opacity="0.1" /><text x="80" y="98" font-size="20" text-anchor="middle" font-family="mono" fill="#000000">True</text><circle r="4" cx="80" cy="68" fill="#000000" /><rect x="142" y="86" width="36" height="14" fill="#ffffff" fill-opacity="1.0" /><rect x="140" y="84" width="40" height="18" fill="#ffffff" fill-opacity="0.9" /><rect x="138" y="82" width="44" height="22" fill="#ffffff" fill-opacity="0.75" /><rect x="137" y="81" width="46" height="24" fill="#ffffff" fill-opacity="0.5" /><rect x="136" y="80" width="48" height="26" fill="#ffffff" fill-opacity="0.25" /><rect x="134" y="78" width="52" height="30" fill="#ffffff" fill-opacity="0.1" /><text x="160" y="98" font-size="20" text-anchor="middle" font-family="mono" fill="#000000">Then</text><circle r="4" cx="160" cy="68" fill="#000000" /><rect x="222" y="86" width="36" height="14" fill="#ffffff" fill-opacity="1.0" /><rect x="220" y="84" width="40" height="18" fill="#ffffff" fill-opacity="0.9" /><rect x="218" y="82" width="44" height="22" fill="#ffffff" fill-opacity="0.75" /><rect x="217" y="81" width="46" height="24" fill="#ffffff" fill-opacity="0.5" /><rect x="216" y="80" width="48" height="26" fill="#ffffff" fill-opacity="0.25" /><rect x="214" y="78" width="52" height="30" fill="#ffffff" fill-opacity="0.1" /><text x="240" y="98" font-size="20" text-anchor="middle" font-family="mono" fill="#000000">&lt;42&gt;</text><circle r="4" cx="240" cy="68" fill="#000000" /><rect x="302" y="86" width="36" height="14" fill="#ffffff" fill-opacity="1.0" /><rect x="300" y="84" width="40" height="18" fill="#ffffff" fill-opacity="0.9" /><rect x="298" y="82" width="44" height="22" fill="#ffffff" fill-opacity="0.75" /><rect x="297" y="81" width="46" height="24" fill="#ffffff" fill-opacity="0.5" /><rect x="296" y="80" width="48" height="26" fill="#ffffff" fill-opacity="0.25" /><rect x="294" y="78" width="52" height="30" fill="#ffffff" fill-opacity="0.1" /><text x="320" y="98" font-size="20" text-anchor="middle" font-family="mono" fill="#000000">Else</text><circle r="4" cx="320" cy="68" fill="#000000" /><rect x="382" y="86" width="36" height="14" fill="#ffffff" fill-opacity="1.0" /><rect x="380" y="84" width="40" height="18" fill="#ffffff" fill-opacity="0.9" /><rect x="378" y="82" width="44" height="22" fill="#ffffff" fill-opacity="0.75" /><rect x="377" y="81" width="46" height="24" fill="#ffffff" fill-opacity="0.5" /><rect x="376" y="80" width="48" height="26" fill="#ffffff" fill-opacity="0.25" /><rect x="374" y="78" width="52" height="30" fill="#ffffff" fill-opacity="0.1" /><text x="400" y="98" font-size="20" text-anchor="middle" font-family="mono" fill="#000000">&lt;43&gt;</text><circle r="4" cx="400" cy="68" fill="#000000" /></svg>