<?xml version="1.0" encoding="UTF-8"?>
<!DOCTYPE svg PUBLIC "-//W3C//DTD SVG 1.1//EN"
    "http://www.w3.org/Graphics/SVG/1.1/DTD/svg11.dtd">
<svg xmlns="http://www.w3.org/2000/svg" xmlns:xlink="http://www.w3.org/1999/xlink" version="1.1" width="260" height="228" viewBox="0 0 260 228"><rect width="260" height="228" fill="#ffffff" /><path d="M 130 48 , 30 68" stroke="#000000" stroke-width="1" stroke-linecap="round" /><path d="M 130 48 , 70 68" stroke="#000000" stroke-width="1" stroke-linecap="round" /><path d="M 130 48 , 170 108" stroke="#000000" stroke-width="1" stroke-linecap="round" /><path d="M 170 108 , 90 128" stroke="#000000" stroke-width="1" stroke-linecap="round" /><path d="M 170 108 , 170 168" stroke="#000000" stroke-width="1" stroke-linecap="round" /><path d="M 170 108 , 250 128" stroke="#000000" stroke-width="1" stroke-linecap="round" /><path d="M 170 168 , 130 188" stroke="#000000" stroke-width="1" stroke-linecap="round" /><path d="M 170 168 , 170 188" stroke="#000000" stroke-width="1" stroke-linecap="round" /><path d="M 170 168 , 210 188" stroke="#000000" stroke-width="1" stroke-linecap="round" /><rect x="119" y="16" width="23" height="14" fill="#ffffff" fill-opacity="1.0" /><rect x="117" y="14" width="27" height="18" fill="#ffffff" fill-opacity="0.9" /><rect x="115" y="12" width="31" height="22" fill="#ffffff" fill-opacity="0.75" /><rect x="114" y="11" width="33" height="24" fill="#ffffff" fill-opacity="0.5" /><rect x="113" y="10" width="35" height="26" fill="#ffffff" fill-opacity="0.25" /><rect x="111" y="8" width="39" height="30" fill="#ffffff" fill-opacity="0.1" /><text x="130" y="28" font-size="20" text-anchor="middle" font-family="mono" fill="#000000">e.0</text><circle r="4" cx="130" cy="48" fill="#000000" /><rect x="19" y="86" width="23" height="14" fill="#ffffff" fill-opacity="1.0" /><rect x="17" y="84" width="27" height="18" fill="#ffffff" fill-opacity="0.9" /><rect x="15" y="82" width="31" height="22" fill="#ffffff" fill-opacity="0.75" /><rect x="14" y="81" width="33" height="24" fill="#ffffff" fill-opacity="0.5" /><rect x="13" y="80" width="35" height="26" fill="#ffffff" fill-opacity="0.25" /><rect x="11" y="78" width="39" height="30" fill="#ffffff" fill-opacity="0.1" /><text x="30" y="98" font-size="20" text-anchor="middle" font-family="mono" fill="#000000">&lt;5&gt;</text><circle r="4" cx="30" cy="68" fill="#000000" /><rect x="72" y="86" width="-3" height="14" fill="#ffffff" fill-opacity="1.0" /><rect x="70" y="84" width="1" height="18" fill="#ffffff" fill-opacity="0.9" /><rect x="68" y="82" width="5" height="22" fill="#ffffff" fill-opacity="0.75" /><rect x="67" y="81" width="7" height="24" fill="#ffffff" fill-opacity="0.5" /><rect x="66" y="80" width="9" height="26" fill="#ffffff" fill-opacity="0.25" /><rect x="64" y="78" width="13" height="30" fill="#ffffff" fill-opacity="0.1" /><text x="70" y="98" font-size="20" text-anchor="middle" font-family="mono" fill="#000000">+</text><circle r="4" cx="70" cy="68" fill="#000000" /><rect x="152" y="76" width="36" height="14" fill="#ffffff" fill-opacity="1.0" /><rect x="150" y="74" width="40" height="18" fill="#ffffff" fill-opacity="0.9" /><rect x="148" y="72" width="44" height="22" fill="#ffffff" fill-opacity="0.75" /><rect x="147" y="71" width="46" height="24" fill="#ffffff" fill-opacity="0.5" /><rect x="146" y="70" width="48" height="26" fill="#ffffff" fill-opacity="0.25" /><rect x="144" y="68" width="52" height="30" fill="#ffffff" fill-opacity="0.1" /><text x="170" y="88" font-size="20" text-anchor="middle" font-family="mono" fill="#000000">eL.4</text><circle r="4" cx="170" cy="108" fill="#000000" /><rect x="92" y="146" width="-3" height="14" fill="#ffffff" fill-opacity="1.0" /><rect x="90" y="144" width="1" height="18" fill="#ffffff" fill-opacity="0.9" /><rect x="88" y="142" width="5" height="22" fill="#ffffff" fill-opacity="0.75" /><rect x="87" y="141" width="7" height="24" fill="#ffffff" fill-opacity="0.5" /><rect x="86" y="140" width="9" height="26" fill="#ffffff" fill-opacity="0.25" /><rect x="84" y="138" width="13" height="30" fill="#ffffff" fill-opacity="0.1" /><text x="90" y="158" font-size="20" text-anchor="middle" font-family="mono" fill="#000000">(</text><circle r="4" cx="90" cy="128" fill="#000000" /><rect x="159" y="136" width="23" height="14" fill="#ffffff" fill-opacity="1.0" /><rect x="157" y="134" width="27" height="18" fill="#ffffff" fill-opacity="0.9" /><rect x="155" y="132" width="31" height="22" fill="#ffffff" fill-opacity="0.75" /><rect x="154" y="131" width="33" height="24" fill="#ffffff" fill-opacity="0.5" /><rect x="153" y="130" width="35" height="26" fill="#ffffff" fill-opacity="0.25" /><rect x="151" y="128" width="39" height="30" fill="#ffffff" fill-opacity="0.1" /><text x="170" y="148" font-size="20" text-anchor="middle" font-family="mono" fill="#000000">e.0</text><circle r="4" cx="170" cy="168" fill="#000000" /><rect x="119" y="206" width="23" height="14" fill="#ffffff" fill-opacity="1.0" /><rect x="117" y="204" width="27" height="18" fill="#ffffff" fill-opacity="0.9" /><rect x="115" y="202" width="31" height="22" fill="#ffffff" fill-opacity="0.75" /><rect x="114" y="201" width="33" height="24" fill="#ffffff" fill-opacity="0.5" /><rect x="113" y="200" width="35" height="26" fill="#ffffff" fill-opacity="0.25" /><rect x="111" y="198" width="39" height="30" fill="#ffffff" fill-opacity="0.1" /><text x="130" y="218" font-size="20" text-anchor="middle" font-family="mono" fill="#000000">&lt;6&gt;</text><circle r="4" cx="130" cy="188" fill="#000000" /><rect x="172" y="206" width="-3" height="14" fill="#ffffff" fill-opacity="1.0" /><rect x="170" y="204" width="1" height="18" fill="#ffffff" fill-opacity="0.9" /><rect x="168" y="202" width="5" height="22" fill="#ffffff" fill-opacity="0.75" /><rect x="167" y="201" width="7" height="24" fill="#ffffff" fill-opacity="0.5" /><rect x="166" y="200" width="9" height="26" fill="#ffffff" fill-opacity="0.25" /><rect x="164" y="198" width="13" height="30" fill="#ffffff" fill-opacity="0.1" /><text x="170" y="218" font-size="20" text-anchor="middle" font-family="mono" fill="#000000">+</text><circle r="4" cx="170" cy="188" fill="#000000" /><rect x="199" y="206" width="23" height="14" fill="#ffffff" fill-opacity="1.0" /><rect x="197" y="204" width="27" height="18" fill="#ffffff" fill-opacity="0.9" /><rect x="195" y="202" width="31" height="22" fill="#ffffff" fill-opacity="0.75" /><rect x="194" y="201" width="33" height="24" fill="#ffffff" fill-opacity="0.5" /><rect x="193" y="200" width="35" height="26" fill="#ffffff" fill-opacity="0.25" /><rect x="191" y="198" width="39" height="30" fill="#ffffff" fill-opacity="0.1" /><text x="210" y="218" font-size="20" text-anchor="middle" font-family="mono" fill="#000000">&lt;7&gt;</text><circle r="4" cx="210" cy="188" fill="#000000" /><rect x="252" y="146" width="-3" height="14" fill="#ffffff" fill-opacity="1.0" /><rect x="250" y="144" width="1" height="18" fill="#ffffff" fill-opacity="0.9" /><rect x="248" y="142" width="5" height="22" fill="#ffffff" fill-opacity="0.75" /><rect x="247" y="141" width="7" height="24" fill="#ffffff" fill-opacity="0.5" /><rect x="246" y="140" width="9" height="26" fill="#ffffff" fill-opacity="0.25" /><rect x="244" y="138" width="13" height="30" fill="#ffffff" fill-opacity="0.1" /><text x="250" y="158" font-size="20" text-anchor="middle" font-family="mono" fill="#000000">)</text><circle r="4" cx="250" cy="128" fill="#000000" /></svg>