<?xml version="1.0" encoding="UTF-8"?>
<!DOCTYPE svg PUBLIC "-//W3C//DTD SVG 1.1//EN"
    "http://www.w3.org/Graphics/SVG/1.1/DTD/svg11.dtd">
<svg xmlns="http://www.w3.org/2000/svg" xmlns:xlink="http://www.w3.org/1999/xlink" version="1.1" width="360" height="108" viewBox="0 0 360 108"><rect width="360" height="108" fill="#000000" /><path d="M 180 48 , 20 68" stroke="#00ff00" stroke-width="2" stroke-linecap="round" /><path d="M 180 48 , 80 68" stroke="#00ff00" stroke-width="2" stroke-linecap="round" /><path d="M 180 48 , 160 68" stroke="#00ff00" stroke-width="2" stroke-linecap="round" /><path d="M 180 48 , 220 68" stroke="#00ff00" stroke-width="2" stroke-linecap="round" /><path d="M 180 48 , 280 68" stroke="#00ff00" stroke-width="2" stroke-linecap="round" /><path d="M 180 48 , 340 68" stroke="#00ff00" stroke-width="2" stroke-linecap="round" /><rect x="162" y="16" width="36" height="14" fill="#000000" fill-opacity="1.0" /><rect x="160" y="14" width="40" height="18" fill="#000000" fill-opacity="0.9" /><rect x="158" y="12" width="44" height="22" fill="#000000" fill-opacity="0.75" /><rect x="157" y="11" width="46" height="24" fill="#000000" fill-opacity="0.5" /><rect x="156" y="10" width="48" height="26" fill="#000000" fill-opacity="0.25" /><rect x="154" y="8" width="52" height="30" fill="#000000" fill-opacity="0.1" /><text x="180" y="28" font-size="20" text-anchor="middle" font-family="mono" fill="#00ff00">eL.3</text><circle r="4" cx="180" cy="48" fill="#00ff00" /><rect x="15" y="86" width="10" height="14" fill="#000000" fill-opacity="1.0" /><rect x="13" y="84" width="14" height="18" fill="#000000" fill-opacity="0.9" /><rect x="11" y="82" width="18" height="22" fill="#000000" fill-opacity="0.75" /><rect x="10" y="81" width="20" height="24" fill="#000000" fill-opacity="0.5" /><rect x="9" y="80" width="22" height="26" fill="#000000" fill-opacity="0.25" /><rect x="7" y="78" width="26" height="30" fill="#000000" fill-opacity="0.1" /><text x="20" y="98" font-size="20" text-anchor="middle" font-family="mono" fill="#00ff00">If</text><circle r="4" cx="20" cy="68" fill="#00ff00" /><rect x="62" y="86" width="36" height="14" fill="#000000" fill-opacity="1.0" /><rect x="60" y="84" width="40" height="18" fill="#000000" fill-opacity="0.9" /><rect x="58" y="82" width="44" height="22" fill="#000000" fill-opacity="0.75" /><rect x="57" y="81" width="46" height="24" fill="#000000" fill-opacity="0.5" /><rect x="56" y="80" width="48" height="26" fill="#000000" fill-opacity="0.25" /><rect x="54" y="78" width="52" height="30" fill="#000000" fill-opacity="0.1" /><text x="80" y="98" font-size="20" text-anchor="middle" font-family="mono" fill="#5555ff">True</text><circle r="4" cx="80" cy="68" fill="#5555ff" /><rect x="142" y="86" width="36" height="14" fill="#000000" fill-opacity="1.0" /><rect x="140" y="84" width="40" height="18" fill="#000000" fill-opacity="0.9" /><rect x="138" y="82" width="44" height="22" fill="#000000" fill-opacity="0.75" /><rect x="137" y="81" width="46" height="24" fill="#000000" fill-opacity="0.5" /><rect x="136" y="80" width="48" height="26" fill="#000000" fill-opacity="0.25" /><rect x="134" y="78" width="52" height="30" fill="#000000" fill-opacity="0.1" /><text x="160" y="98" font-size="20" text-anchor="middle" font-family="mono" fill="#00ff00">Then</text><circle r="4" cx="160" cy="68" fill="#00ff00" /><rect x="215" y="86" width="10" height="14" fill="#000000" fill-opacity="1.0" /><rect x="213" y="84" width="14" height="18" fill="#000000" fill-opacity="0.9" /><rect x="211" y="82" width="18" height="22" fill="#000000" fill-opacity="0.75" /><rect x="210" y="81" width="20" height="24" fill="#000000" fill-opacity="0.5" /><rect x="209" y="80" width="22" height="26" fill="#000000" fill-opacity="0.25" /><rect x="207" y="78" width="26" height="30" fill="#000000" fill-opacity="0.1" /><text x="220" y="98" font-size="20" text-anchor="middle" font-family="mono" fill="#5555ff">42</text><circle r="4" cx="220" cy="68" fill="#5555ff" /><rect x="262" y="86" width="36" height="14" fill="#000000" fill-opacity="1.0" /><rect x="260" y="84" width="40" height="18" fill="#000000" fill-opacity="0.9" /><rect x="258" y="82" width="44" height="22" fill="#000000" fill-opacity="0.75" /><rect x="257" y="81" width="46" height="24" fill="#000000" fill-opacity="0.5" /><rect x="256" y="80" width="48" height="26" fill="#000000" fill-opacity="0.25" /><rect x="254" y="78" width="52" height="30" fill="#000000" fill-opacity="0.1" /><text x="280" y="98" font-size="20" text-anchor="middle" font-family="mono" fill="#00ff00">Else</text><circle r="4" cx="280" cy="68" fill="#00ff00" /><rect x="335" y="86" width="10" height="14" fill="#000000" fill-opacity="1.0" /><rect x="333" y="84" width="14" height="18" fill="#000000" fill-opacity="0.9" /><rect x="331" y="82" width="18" height="22" fill="#000000" fill-opacity="0.75" /><rect x="330" y="81" width="20" height="24" fill="#000000" fill-opacity="0.5" /><rect x="329" y="80" width="22" height="26" fill="#000000" fill-opacity="0.25" /><rect x="327" y="78" width="26" height="30" fill="#000000" fill-opacity="0.1" /><text x="340" y="98" font-size="20" text-anchor="middle" font-family="mono" fill="#5555ff">43</text><circle r="4" cx="340" cy="68" fill="#5555ff" /></svg>