<?xml version="1.0" encoding="UTF-8"?>
<!DOCTYPE svg PUBLIC "-//W3C//DTD SVG 1.1//EN"
    "http://www.w3.org/Graphics/SVG/1.1/DTD/svg11.dtd">
<svg xmlns="http://www.w3.org/2000/svg" xmlns:xlink="http://www.w3.org/1999/xlink" version="1.1" width="420" height="228" viewBox="0 0 420 228"><rect width="420" height="228" fill="#ffffff" /><rect x="191" y="8" width="39" height="30" fill="#ffffff" fill-opacity="0.5" /><text x="210" y="28" font-size="20" text-anchor="middle" font-family="mono" fill="#000000">e.2</text><circle r="4" cx="210" cy="48" fill="#000000" /><rect x="154" y="68" width="52" height="30" fill="#ffffff" fill-opacity="0.5" /><text x="180" y="88" font-size="20" text-anchor="middle" font-family="mono" fill="#000000">eL.2</text><circle r="4" cx="180" cy="108" fill="#000000" /><rect x="4" y="138" width="13" height="30" fill="#ffffff" fill-opacity="0.5" /><text x="10" y="158" font-size="20" text-anchor="middle" font-family="mono" fill="#000000">(</text><circle r="4" cx="10" cy="128" fill="#000000" /><rect x="24" y="138" width="13" height="30" fill="#ffffff" fill-opacity="0.5" /><text x="30" y="158" font-size="20" text-anchor="middle" font-family="mono" fill="#000000">\</text><circle r="4" cx="30" cy="128" fill="#000000" /><rect x="51" y="138" width="39" height="30" fill="#ffffff" fill-opacity="0.5" /><text x="70" y="158" font-size="20" text-anchor="middle" font-family="mono" fill="#000000">&lt;x&gt;</text><circle r="4" cx="70" cy="128" fill="#000000" /><rect x="104" y="138" width="13" height="30" fill="#ffffff" fill-opacity="0.5" /><text x="110" y="158" font-size="20" text-anchor="middle" font-family="mono" fill="#000000">:</text><circle r="4" cx="110" cy="128" fill="#000000" /><rect x="131" y="138" width="39" height="30" fill="#ffffff" fill-opacity="0.5" /><text x="150" y="158" font-size="20" text-anchor="middle" font-family="mono" fill="#000000">Int</text><circle r="4" cx="150" cy="128" fill="#000000" /><rect x="184" y="138" width="13" height="30" fill="#ffffff" fill-opacity="0.5" /><text x="190" y="158" font-size="20" text-anchor="middle" font-family="mono" fill="#000000">.</text><circle r="4" cx="190" cy="128" fill="#000000" /><rect x="251" y="128" width="39" height="30" fill="#ffffff" fill-opacity="0.5" /><text x="270" y="148" font-size="20" text-anchor="middle" font-family="mono" fill="#000000">e.0</text><circle r="4" cx="270" cy="168" fill="#000000" /><rect x="211" y="198" width="39" height="30" fill="#ffffff" fill-opacity="0.5" /><text x="230" y="218" font-size="20" text-anchor="middle" font-family="mono" fill="#000000">&lt;x&gt;</text><circle r="4" cx="230" cy="188" fill="#000000" /><rect x="264" y="198" width="13" height="30" fill="#ffffff" fill-opacity="0.5" /><text x="270" y="218" font-size="20" text-anchor="middle" font-family="mono" fill="#000000">+</text><circle r="4" cx="270" cy="188" fill="#000000" /><rect x="291" y="198" width="39" height="30" fill="#ffffff" fill-opacity="0.5" /><text x="310" y="218" font-size="20" text-anchor="middle" font-family="mono" fill="#000000">&lt;1&gt;</text><circle r="4" cx="310" cy="188" fill="#000000" /><rect x="344" y="138" width="13" height="30" fill="#ffffff" fill-opacity="0.5" /><text x="350" y="158" font-size="20" text-anchor="middle" font-family="mono" fill="#000000">)</text><circle r="4" cx="350" cy="128" fill="#000000" /><rect x="371" y="78" width="39" height="30" fill="#ffffff" fill-opacity="0.5" /><text x="390" y="98" font-size="20" text-anchor="middle" font-family="mono" fill="#000000">&lt;5&gt;</text><circle r="4" cx="390" cy="68" fill="#000000" /><path d="M 210 48 , 180 108" stroke="#000000" stroke-width="1" stroke-linecap="round" /><path d="M 210 48 , 390 68" stroke="#000000" stroke-width="1" stroke-linecap="round" /><path d="M 180 108 , 10 128" stroke="#000000" stroke-width="1" stroke-linecap="round" /><path d="M 180 108 , 30 128" stroke="#000000" stroke-width="1" stroke-linecap="round" /><path d="M 180 108 , 70 128" stroke="#000000" stroke-width="1" stroke-linecap="round" /><path d="M 180 108 , 110 128" stroke="#000000" stroke-width="1" stroke-linecap="round" /><path d="M 180 108 , 150 128" stroke="#000000" stroke-width="1" stroke-linecap="round" /><path d="M 180 108 , 190 128" stroke="#000000" stroke-width="1" stroke-linecap="round" /><path d="M 180 108 , 270 168" stroke="#000000" stroke-width="1" stroke-linecap="round" /><path d="M 180 108 , 350 128" stroke="#000000" stroke-width="1" stroke-linecap="round" /><path d="M 270 168 , 230 188" stroke="#000000" stroke-width="1" stroke-linecap="round" /><path d="M 270 168 , 270 188" stroke="#000000" stroke-width="1" stroke-linecap="round" /><path d="M 270 168 , 310 188" stroke="#000000" stroke-width="1" stroke-linecap="round" /></svg>