<?xml version="1.0" encoding="UTF-8"?>
<!DOCTYPE svg PUBLIC "-//W3C//DTD SVG 1.1//EN"
    "http://www.w3.org/Graphics/SVG/1.1/DTD/svg11.dtd">
<svg xmlns="http://www.w3.org/2000/svg" xmlns:xlink="http://www.w3.org/1999/xlink" version="1.1" width="380" height="228" viewBox="0 0 380 228"><rect width="380" height="228" fill="#ffffff" /><path d="M 190 48 , 90 108" stroke="#000000" stroke-width="1" stroke-linecap="round" /><path d="M 190 48 , 190 68" stroke="#000000" stroke-width="1" stroke-linecap="round" /><path d="M 190 48 , 290 108" stroke="#000000" stroke-width="1" stroke-linecap="round" /><path d="M 290 108 , 210 128" stroke="#000000" stroke-width="1" stroke-linecap="round" /><path d="M 290 108 , 290 168" stroke="#000000" stroke-width="1" stroke-linecap="round" /><path d="M 290 108 , 370 128" stroke="#000000" stroke-width="1" stroke-linecap="round" /><path d="M 290 168 , 250 188" stroke="#000000" stroke-width="1" stroke-linecap="round" /><path d="M 290 168 , 290 188" stroke="#000000" stroke-width="1" stroke-linecap="round" /><path d="M 290 168 , 330 188" stroke="#000000" stroke-width="1" stroke-linecap="round" /><path d="M 90 108 , 10 128" stroke="#000000" stroke-width="1" stroke-linecap="round" /><path d="M 90 108 , 90 168" stroke="#000000" stroke-width="1" stroke-linecap="round" /><path d="M 90 108 , 170 128" stroke="#000000" stroke-width="1" stroke-linecap="round" /><path d="M 90 168 , 50 188" stroke="#000000" stroke-width="1" stroke-linecap="round" /><path d="M 90 168 , 90 188" stroke="#000000" stroke-width="1" stroke-linecap="round" /><path d="M 90 168 , 130 188" stroke="#000000" stroke-width="1" stroke-linecap="round" /><rect x="179" y="16" width="23" height="14" fill="#ffffff" fill-opacity="1.0" /><rect x="177" y="14" width="27" height="18" fill="#ffffff" fill-opacity="0.9" /><rect x="175" y="12" width="31" height="22" fill="#ffffff" fill-opacity="0.75" /><rect x="174" y="11" width="33" height="24" fill="#ffffff" fill-opacity="0.5" /><rect x="173" y="10" width="35" height="26" fill="#ffffff" fill-opacity="0.25" /><rect x="171" y="8" width="39" height="30" fill="#ffffff" fill-opacity="0.1" /><text x="190" y="28" font-size="20" text-anchor="middle" font-family="mono" fill="#000000">e.0</text><circle r="4" cx="190" cy="48" fill="#000000" /><rect x="72" y="76" width="36" height="14" fill="#ffffff" fill-opacity="1.0" /><rect x="70" y="74" width="40" height="18" fill="#ffffff" fill-opacity="0.9" /><rect x="68" y="72" width="44" height="22" fill="#ffffff" fill-opacity="0.75" /><rect x="67" y="71" width="46" height="24" fill="#ffffff" fill-opacity="0.5" /><rect x="66" y="70" width="48" height="26" fill="#ffffff" fill-opacity="0.25" /><rect x="64" y="68" width="52" height="30" fill="#ffffff" fill-opacity="0.1" /><text x="90" y="88" font-size="20" text-anchor="middle" font-family="mono" fill="#000000">eL.4</text><circle r="4" cx="90" cy="108" fill="#000000" /><rect x="12" y="146" width="-3" height="14" fill="#ffffff" fill-opacity="1.0" /><rect x="10" y="144" width="1" height="18" fill="#ffffff" fill-opacity="0.9" /><rect x="8" y="142" width="5" height="22" fill="#ffffff" fill-opacity="0.75" /><rect x="7" y="141" width="7" height="24" fill="#ffffff" fill-opacity="0.5" /><rect x="6" y="140" width="9" height="26" fill="#ffffff" fill-opacity="0.25" /><rect x="4" y="138" width="13" height="30" fill="#ffffff" fill-opacity="0.1" /><text x="10" y="158" font-size="20" text-anchor="middle" font-family="mono" fill="#000000">(</text><circle r="4" cx="10" cy="128" fill="#000000" /><rect x="79" y="136" width="23" height="14" fill="#ffffff" fill-opacity="1.0" /><rect x="77" y="134" width="27" height="18" fill="#ffffff" fill-opacity="0.9" /><rect x="75" y="132" width="31" height="22" fill="#ffffff" fill-opacity="0.75" /><rect x="74" y="131" width="33" height="24" fill="#ffffff" fill-opacity="0.5" /><rect x="73" y="130" width="35" height="26" fill="#ffffff" fill-opacity="0.25" /><rect x="71" y="128" width="39" height="30" fill="#ffffff" fill-opacity="0.1" /><text x="90" y="148" font-size="20" text-anchor="middle" font-family="mono" fill="#000000">e.0</text><circle r="4" cx="90" cy="168" fill="#000000" /><rect x="39" y="206" width="23" height="14" fill="#ffffff" fill-opacity="1.0" /><rect x="37" y="204" width="27" height="18" fill="#ffffff" fill-opacity="0.9" /><rect x="35" y="202" width="31" height="22" fill="#ffffff" fill-opacity="0.75" /><rect x="34" y="201" width="33" height="24" fill="#ffffff" fill-opacity="0.5" /><rect x="33" y="200" width="35" height="26" fill="#ffffff" fill-opacity="0.25" /><rect x="31" y="198" width="39" height="30" fill="#ffffff" fill-opacity="0.1" /><text x="50" y="218" font-size="20" text-anchor="middle" font-family="mono" fill="#000000">&lt;5&gt;</text><circle r="4" cx="50" cy="188" fill="#000000" /><rect x="92" y="206" width="-3" height="14" fill="#ffffff" fill-opacity="1.0" /><rect x="90" y="204" width="1" height="18" fill="#ffffff" fill-opacity="0.9" /><rect x="88" y="202" width="5" height="22" fill="#ffffff" fill-opacity="0.75" /><rect x="87" y="201" width="7" height="24" fill="#ffffff" fill-opacity="0.5" /><rect x="86" y="200" width="9" height="26" fill="#ffffff" fill-opacity="0.25" /><rect x="84" y="198" width="13" height="30" fill="#ffffff" fill-opacity="0.1" /><text x="90" y="218" font-size="20" text-anchor="middle" font-family="mono" fill="#000000">+</text><circle r="4" cx="90" cy="188" fill="#000000" /><rect x="119" y="206" width="23" height="14" fill="#ffffff" fill-opacity="1.0" /><rect x="117" y="204" width="27" height="18" fill="#ffffff" fill-opacity="0.9" /><rect x="115" y="202" width="31" height="22" fill="#ffffff" fill-opacity="0.75" /><rect x="114" y="201" width="33" height="24" fill="#ffffff" fill-opacity="0.5" /><rect x="113" y="200" width="35" height="26" fill="#ffffff" fill-opacity="0.25" /><rect x="111" y="198" width="39" height="30" fill="#ffffff" fill-opacity="0.1" /><text x="130" y="218" font-size="20" text-anchor="middle" font-family="mono" fill="#000000">&lt;6&gt;</text><circle r="4" cx="130" cy="188" fill="#000000" /><rect x="172" y="146" width="-3" height="14" fill="#ffffff" fill-opacity="1.0" /><rect x="170" y="144" width="1" height="18" fill="#ffffff" fill-opacity="0.9" /><rect x="168" y="142" width="5" height="22" fill="#ffffff" fill-opacity="0.75" /><rect x="167" y="141" width="7" height="24" fill="#ffffff" fill-opacity="0.5" /><rect x="166" y="140" width="9" height="26" fill="#ffffff" fill-opacity="0.25" /><rect x="164" y="138" width="13" height="30" fill="#ffffff" fill-opacity="0.1" /><text x="170" y="158" font-size="20" text-anchor="middle" font-family="mono" fill="#000000">)</text><circle r="4" cx="170" cy="128" fill="#000000" /><rect x="192" y="86" width="-3" height="14" fill="#ffffff" fill-opacity="1.0" /><rect x="190" y="84" width="1" height="18" fill="#ffffff" fill-opacity="0.9" /><rect x="188" y="82" width="5" height="22" fill="#ffffff" fill-opacity="0.75" /><rect x="187" y="81" width="7" height="24" fill="#ffffff" fill-opacity="0.5" /><rect x="186" y="80" width="9" height="26" fill="#ffffff" fill-opacity="0.25" /><rect x="184" y="78" width="13" height="30" fill="#ffffff" fill-opacity="0.1" /><text x="190" y="98" font-size="20" text-anchor="middle" font-family="mono" fill="#000000">+</text><circle r="4" cx="190" cy="68" fill="#000000" /><rect x="272" y="76" width="36" height="14" fill="#ffffff" fill-opacity="1.0" /><rect x="270" y="74" width="40" height="18" fill="#ffffff" fill-opacity="0.9" /><rect x="268" y="72" width="44" height="22" fill="#ffffff" fill-opacity="0.75" /><rect x="267" y="71" width="46" height="24" fill="#ffffff" fill-opacity="0.5" /><rect x="266" y="70" width="48" height="26" fill="#ffffff" fill-opacity="0.25" /><rect x="264" y="68" width="52" height="30" fill="#ffffff" fill-opacity="0.1" /><text x="290" y="88" font-size="20" text-anchor="middle" font-family="mono" fill="#000000">eL.4</text><circle r="4" cx="290" cy="108" fill="#000000" /><rect x="212" y="146" width="-3" height="14" fill="#ffffff" fill-opacity="1.0" /><rect x="210" y="144" width="1" height="18" fill="#ffffff" fill-opacity="0.9" /><rect x="208" y="142" width="5" height="22" fill="#ffffff" fill-opacity="0.75" /><rect x="207" y="141" width="7" height="24" fill="#ffffff" fill-opacity="0.5" /><rect x="206" y="140" width="9" height="26" fill="#ffffff" fill-opacity="0.25" /><rect x="204" y="138" width="13" height="30" fill="#ffffff" fill-opacity="0.1" /><text x="210" y="158" font-size="20" text-anchor="middle" font-family="mono" fill="#000000">(</text><circle r="4" cx="210" cy="128" fill="#000000" /><rect x="279" y="136" width="23" height="14" fill="#ffffff" fill-opacity="1.0" /><rect x="277" y="134" width="27" height="18" fill="#ffffff" fill-opacity="0.9" /><rect x="275" y="132" width="31" height="22" fill="#ffffff" fill-opacity="0.75" /><rect x="274" y="131" width="33" height="24" fill="#ffffff" fill-opacity="0.5" /><rect x="273" y="130" width="35" height="26" fill="#ffffff" fill-opacity="0.25" /><rect x="271" y="128" width="39" height="30" fill="#ffffff" fill-opacity="0.1" /><text x="290" y="148" font-size="20" text-anchor="middle" font-family="mono" fill="#000000">e.0</text><circle r="4" cx="290" cy="168" fill="#000000" /><rect x="239" y="206" width="23" height="14" fill="#ffffff" fill-opacity="1.0" /><rect x="237" y="204" width="27" height="18" fill="#ffffff" fill-opacity="0.9" /><rect x="235" y="202" width="31" height="22" fill="#ffffff" fill-opacity="0.75" /><rect x="234" y="201" width="33" height="24" fill="#ffffff" fill-opacity="0.5" /><rect x="233" y="200" width="35" height="26" fill="#ffffff" fill-opacity="0.25" /><rect x="231" y="198" width="39" height="30" fill="#ffffff" fill-opacity="0.1" /><text x="250" y="218" font-size="20" text-anchor="middle" font-family="mono" fill="#000000">&lt;7&gt;</text><circle r="4" cx="250" cy="188" fill="#000000" /><rect x="292" y="206" width="-3" height="14" fill="#ffffff" fill-opacity="1.0" /><rect x="290" y="204" width="1" height="18" fill="#ffffff" fill-opacity="0.9" /><rect x="288" y="202" width="5" height="22" fill="#ffffff" fill-opacity="0.75" /><rect x="287" y="201" width="7" height="24" fill="#ffffff" fill-opacity="0.5" /><rect x="286" y="200" width="9" height="26" fill="#ffffff" fill-opacity="0.25" /><rect x="284" y="198" width="13" height="30" fill="#ffffff" fill-opacity="0.1" /><text x="290" y="218" font-size="20" text-anchor="middle" font-family="mono" fill="#000000">+</text><circle r="4" cx="290" cy="188" fill="#000000" /><rect x="319" y="206" width="23" height="14" fill="#ffffff" fill-opacity="1.0" /><rect x="317" y="204" width="27" height="18" fill="#ffffff" fill-opacity="0.9" /><rect x="315" y="202" width="31" height="22" fill="#ffffff" fill-opacity="0.75" /><rect x="314" y="201" width="33" height="24" fill="#ffffff" fill-opacity="0.5" /><rect x="313" y="200" width="35" height="26" fill="#ffffff" fill-opacity="0.25" /><rect x="311" y="198" width="39" height="30" fill="#ffffff" fill-opacity="0.1" /><text x="330" y="218" font-size="20" text-anchor="middle" font-family="mono" fill="#000000">&lt;8&gt;</text><circle r="4" cx="330" cy="188" fill="#000000" /><rect x="372" y="146" width="-3" height="14" fill="#ffffff" fill-opacity="1.0" /><rect x="370" y="144" width="1" height="18" fill="#ffffff" fill-opacity="0.9" /><rect x="368" y="142" width="5" height="22" fill="#ffffff" fill-opacity="0.75" /><rect x="367" y="141" width="7" height="24" fill="#ffffff" fill-opacity="0.5" /><rect x="366" y="140" width="9" height="26" fill="#ffffff" fill-opacity="0.25" /><rect x="364" y="138" width="13" height="30" fill="#ffffff" fill-opacity="0.1" /><text x="370" y="158" font-size="20" text-anchor="middle" font-family="mono" fill="#000000">)</text><circle r="4" cx="370" cy="128" fill="#000000" /></svg>