<?xml version="1.0" encoding="UTF-8"?>
<!DOCTYPE svg PUBLIC "-//W3C//DTD SVG 1.1//EN"
    "http://www.w3.org/Graphics/SVG/1.1/DTD/svg11.dtd">
<svg xmlns="http://www.w3.org/2000/svg" xmlns:xlink="http://www.w3.org/1999/xlink" version="1.1" width="120" height="108" viewBox="0 0 120 108"><rect width="120" height="108" fill="#ffffff" /><path d="M 60 48 , 10 68" stroke="#000000" stroke-width="1" stroke-linecap="round" /><path d="M 60 48 , 60 68" stroke="#000000" stroke-width="1" stroke-linecap="round" /><path d="M 60 48 , 110 68" stroke="#000000" stroke-width="1" stroke-linecap="round" /><rect x="42" y="16" width="36" height="14" fill="#ffffff" fill-opacity="1.0" /><rect x="40" y="14" width="40" height="18" fill="#ffffff" fill-opacity="0.9" /><rect x="38" y="12" width="44" height="22" fill="#ffffff" fill-opacity="0.75" /><rect x="37" y="11" width="46" height="24" fill="#ffffff" fill-opacity="0.5" /><rect x="36" y="10" width="48" height="26" fill="#ffffff" fill-opacity="0.25" /><rect x="34" y="8" width="52" height="30" fill="#ffffff" fill-opacity="0.1" /><text x="60" y="28" font-size="20" text-anchor="middle" font-family="mono" fill="#000000">eL.4</text><circle r="4" cx="60" cy="48" fill="#000000" /><rect x="12" y="86" width="-3" height="14" fill="#ffffff" fill-opacity="1.0" /><rect x="10" y="84" width="1" height="18" fill="#ffffff" fill-opacity="0.9" /><rect x="8" y="82" width="5" height="22" fill="#ffffff" fill-opacity="0.75" /><rect x="7" y="81" width="7" height="24" fill="#ffffff" fill-opacity="0.5" /><rect x="6" y="80" width="9" height="26" fill="#ffffff" fill-opacity="0.25" /><rect x="4" y="78" width="13" height="30" fill="#ffffff" fill-opacity="0.1" /><text x="10" y="98" font-size="20" text-anchor="middle" font-family="mono" fill="#000000">(</text><circle r="4" cx="10" cy="68" fill="#000000" /><rect x="42" y="86" width="36" height="14" fill="#ffffff" fill-opacity="1.0" /><rect x="40" y="84" width="40" height="18" fill="#ffffff" fill-opacity="0.9" /><rect x="38" y="82" width="44" height="22" fill="#ffffff" fill-opacity="0.75" /><rect x="37" y="81" width="46" height="24" fill="#ffffff" fill-opacity="0.5" /><rect x="36" y="80" width="48" height="26" fill="#ffffff" fill-opacity="0.25" /><rect x="34" y="78" width="52" height="30" fill="#ffffff" fill-opacity="0.1" /><text x="60" y="98" font-size="20" text-anchor="middle" font-family="mono" fill="#000000">True</text><circle r="4" cx="60" cy="68" fill="#000000" /><rect x="112" y="86" width="-3" height="14" fill="#ffffff" fill-opacity="1.0" /><rect x="110" y="84" width="1" height="18" fill="#ffffff" fill-opacity="0.9" /><rect x="108" y="82" width="5" height="22" fill="#ffffff" fill-opacity="0.75" /><rect x="107" y="81" width="7" height="24" fill="#ffffff" fill-opacity="0.5" /><rect x="106" y="80" width="9" height="26" fill="#ffffff" fill-opacity="0.25" /><rect x="104" y="78" width="13" height="30" fill="#ffffff" fill-opacity="0.1" /><text x="110" y="98" font-size="20" text-anchor="middle" font-family="mono" fill="#000000">)</text><circle r="4" cx="110" cy="68" fill="#000000" /></svg>