<?xml version="1.0" encoding="UTF-8"?>
<!DOCTYPE svg PUBLIC "-//W3C//DTD SVG 1.1//EN"
    "http://www.w3.org/Graphics/SVG/1.1/DTD/svg11.dtd">
<svg xmlns="http://www.w3.org/2000/svg" xmlns:xlink="http://www.w3.org/1999/xlink" version="1.1" width="140" height="108" viewBox="0 0 140 108"><rect width="140" height="108" fill="#000000" /><path d="M 70 48 , 10 68" stroke="#00ff00" stroke-width="2" stroke-linecap="round" /><path d="M 70 48 , 70 68" stroke="#00ff00" stroke-width="2" stroke-linecap="round" /><path d="M 70 48 , 130 68" stroke="#00ff00" stroke-width="2" stroke-linecap="round" /><rect x="52" y="16" width="36" height="14" fill="#000000" fill-opacity="1.0" /><rect x="50" y="14" width="40" height="18" fill="#000000" fill-opacity="0.9" /><rect x="48" y="12" width="44" height="22" fill="#000000" fill-opacity="0.75" /><rect x="47" y="11" width="46" height="24" fill="#000000" fill-opacity="0.5" /><rect x="46" y="10" width="48" height="26" fill="#000000" fill-opacity="0.25" /><rect x="44" y="8" width="52" height="30" fill="#000000" fill-opacity="0.1" /><text x="70" y="28" font-size="20" text-anchor="middle" font-family="mono" fill="#999999">eL.4</text><circle r="4" cx="70" cy="48" fill="#999999" /><rect x="12" y="86" width="-3" height="14" fill="#000000" fill-opacity="1.0" /><rect x="10" y="84" width="1" height="18" fill="#000000" fill-opacity="0.9" /><rect x="8" y="82" width="5" height="22" fill="#000000" fill-opacity="0.75" /><rect x="7" y="81" width="7" height="24" fill="#000000" fill-opacity="0.5" /><rect x="6" y="80" width="9" height="26" fill="#000000" fill-opacity="0.25" /><rect x="4" y="78" width="13" height="30" fill="#000000" fill-opacity="0.1" /><text x="10" y="98" font-size="20" text-anchor="middle" font-family="mono" fill="#999999">(</text><circle r="4" cx="10" cy="68" fill="#999999" /><rect x="46" y="86" width="49" height="14" fill="#000000" fill-opacity="1.0" /><rect x="44" y="84" width="53" height="18" fill="#000000" fill-opacity="0.9" /><rect x="42" y="82" width="57" height="22" fill="#000000" fill-opacity="0.75" /><rect x="41" y="81" width="59" height="24" fill="#000000" fill-opacity="0.5" /><rect x="40" y="80" width="61" height="26" fill="#000000" fill-opacity="0.25" /><rect x="38" y="78" width="65" height="30" fill="#000000" fill-opacity="0.1" /><text x="70" y="98" font-size="20" text-anchor="middle" font-family="mono" fill="#5555ff">False</text><circle r="4" cx="70" cy="68" fill="#5555ff" /><rect x="132" y="86" width="-3" height="14" fill="#000000" fill-opacity="1.0" /><rect x="130" y="84" width="1" height="18" fill="#000000" fill-opacity="0.9" /><rect x="128" y="82" width="5" height="22" fill="#000000" fill-opacity="0.75" /><rect x="127" y="81" width="7" height="24" fill="#000000" fill-opacity="0.5" /><rect x="126" y="80" width="9" height="26" fill="#000000" fill-opacity="0.25" /><rect x="124" y="78" width="13" height="30" fill="#000000" fill-opacity="0.1" /><text x="130" y="98" font-size="20" text-anchor="middle" font-family="mono" fill="#999999">)</text><circle r="4" cx="130" cy="68" fill="#999999" /></svg>