<?xml version="1.0" encoding="UTF-8"?>
<!DOCTYPE svg PUBLIC "-//W3C//DTD SVG 1.1//EN"
    "http://www.w3.org/Graphics/SVG/1.1/DTD/svg11.dtd">
<svg xmlns="http://www.w3.org/2000/svg" xmlns:xlink="http://www.w3.org/1999/xlink" version="1.1" width="220" height="228" viewBox="0 0 220 228"><rect width="220" height="228" fill="#000000" /><path d="M 110 48 , 50 108" stroke="#00ff00" stroke-width="1" stroke-linecap="round" /><path d="M 110 48 , 110 68" stroke="#00ff00" stroke-width="1" stroke-linecap="round" /><path d="M 110 48 , 170 108" stroke="#00ff00" stroke-width="1" stroke-linecap="round" /><path d="M 170 108 , 130 128" stroke="#00ff00" stroke-width="1" stroke-linecap="round" /><path d="M 170 108 , 170 168" stroke="#00ff00" stroke-width="1" stroke-linecap="round" /><path d="M 170 108 , 210 128" stroke="#00ff00" stroke-width="1" stroke-linecap="round" /><path d="M 170 168 , 150 188" stroke="#00ff00" stroke-width="1" stroke-linecap="round" /><path d="M 170 168 , 170 188" stroke="#00ff00" stroke-width="1" stroke-linecap="round" /><path d="M 170 168 , 190 188" stroke="#00ff00" stroke-width="1" stroke-linecap="round" /><path d="M 50 108 , 10 128" stroke="#00ff00" stroke-width="1" stroke-linecap="round" /><path d="M 50 108 , 50 168" stroke="#00ff00" stroke-width="1" stroke-linecap="round" /><path d="M 50 108 , 90 128" stroke="#00ff00" stroke-width="1" stroke-linecap="round" /><path d="M 50 168 , 30 188" stroke="#00ff00" stroke-width="1" stroke-linecap="round" /><path d="M 50 168 , 50 188" stroke="#00ff00" stroke-width="1" stroke-linecap="round" /><path d="M 50 168 , 70 188" stroke="#00ff00" stroke-width="1" stroke-linecap="round" /><rect x="99" y="16" width="23" height="14" fill="#000000" fill-opacity="1.0" /><rect x="97" y="14" width="27" height="18" fill="#000000" fill-opacity="0.9" /><rect x="95" y="12" width="31" height="22" fill="#000000" fill-opacity="0.75" /><rect x="94" y="11" width="33" height="24" fill="#000000" fill-opacity="0.5" /><rect x="93" y="10" width="35" height="26" fill="#000000" fill-opacity="0.25" /><rect x="91" y="8" width="39" height="30" fill="#000000" fill-opacity="0.1" /><text x="110" y="28" font-size="20" text-anchor="middle" font-family="mono" fill="#00ff00">e.0</text><circle r="4" cx="110" cy="48" fill="#00ff00" /><rect x="32" y="76" width="36" height="14" fill="#000000" fill-opacity="1.0" /><rect x="30" y="74" width="40" height="18" fill="#000000" fill-opacity="0.9" /><rect x="28" y="72" width="44" height="22" fill="#000000" fill-opacity="0.75" /><rect x="27" y="71" width="46" height="24" fill="#000000" fill-opacity="0.5" /><rect x="26" y="70" width="48" height="26" fill="#000000" fill-opacity="0.25" /><rect x="24" y="68" width="52" height="30" fill="#000000" fill-opacity="0.1" /><text x="50" y="88" font-size="20" text-anchor="middle" font-family="mono" fill="#999999">eL.4</text><circle r="4" cx="50" cy="108" fill="#999999" /><rect x="12" y="146" width="-3" height="14" fill="#000000" fill-opacity="1.0" /><rect x="10" y="144" width="1" height="18" fill="#000000" fill-opacity="0.9" /><rect x="8" y="142" width="5" height="22" fill="#000000" fill-opacity="0.75" /><rect x="7" y="141" width="7" height="24" fill="#000000" fill-opacity="0.5" /><rect x="6" y="140" width="9" height="26" fill="#000000" fill-opacity="0.25" /><rect x="4" y="138" width="13" height="30" fill="#000000" fill-opacity="0.1" /><text x="10" y="158" font-size="20" text-anchor="middle" font-family="mono" fill="#999999">(</text><circle r="4" cx="10" cy="128" fill="#999999" /><rect x="39" y="136" width="23" height="14" fill="#000000" fill-opacity="1.0" /><rect x="37" y="134" width="27" height="18" fill="#000000" fill-opacity="0.9" /><rect x="35" y="132" width="31" height="22" fill="#000000" fill-opacity="0.75" /><rect x="34" y="131" width="33" height="24" fill="#000000" fill-opacity="0.5" /><rect x="33" y="130" width="35" height="26" fill="#000000" fill-opacity="0.25" /><rect x="31" y="128" width="39" height="30" fill="#000000" fill-opacity="0.1" /><text x="50" y="148" font-size="20" text-anchor="middle" font-family="mono" fill="#00ff00">e.0</text><circle r="4" cx="50" cy="168" fill="#00ff00" /><rect x="32" y="206" width="-3" height="14" fill="#000000" fill-opacity="1.0" /><rect x="30" y="204" width="1" height="18" fill="#000000" fill-opacity="0.9" /><rect x="28" y="202" width="5" height="22" fill="#000000" fill-opacity="0.75" /><rect x="27" y="201" width="7" height="24" fill="#000000" fill-opacity="0.5" /><rect x="26" y="200" width="9" height="26" fill="#000000" fill-opacity="0.25" /><rect x="24" y="198" width="13" height="30" fill="#000000" fill-opacity="0.1" /><text x="30" y="218" font-size="20" text-anchor="middle" font-family="mono" fill="#0000ff">5</text><circle r="4" cx="30" cy="188" fill="#0000ff" /><rect x="52" y="206" width="-3" height="14" fill="#000000" fill-opacity="1.0" /><rect x="50" y="204" width="1" height="18" fill="#000000" fill-opacity="0.9" /><rect x="48" y="202" width="5" height="22" fill="#000000" fill-opacity="0.75" /><rect x="47" y="201" width="7" height="24" fill="#000000" fill-opacity="0.5" /><rect x="46" y="200" width="9" height="26" fill="#000000" fill-opacity="0.25" /><rect x="44" y="198" width="13" height="30" fill="#000000" fill-opacity="0.1" /><text x="50" y="218" font-size="20" text-anchor="middle" font-family="mono" fill="#00ff00">+</text><circle r="4" cx="50" cy="188" fill="#00ff00" /><rect x="72" y="206" width="-3" height="14" fill="#000000" fill-opacity="1.0" /><rect x="70" y="204" width="1" height="18" fill="#000000" fill-opacity="0.9" /><rect x="68" y="202" width="5" height="22" fill="#000000" fill-opacity="0.75" /><rect x="67" y="201" width="7" height="24" fill="#000000" fill-opacity="0.5" /><rect x="66" y="200" width="9" height="26" fill="#000000" fill-opacity="0.25" /><rect x="64" y="198" width="13" height="30" fill="#000000" fill-opacity="0.1" /><text x="70" y="218" font-size="20" text-anchor="middle" font-family="mono" fill="#0000ff">6</text><circle r="4" cx="70" cy="188" fill="#0000ff" /><rect x="92" y="146" width="-3" height="14" fill="#000000" fill-opacity="1.0" /><rect x="90" y="144" width="1" height="18" fill="#000000" fill-opacity="0.9" /><rect x="88" y="142" width="5" height="22" fill="#000000" fill-opacity="0.75" /><rect x="87" y="141" width="7" height="24" fill="#000000" fill-opacity="0.5" /><rect x="86" y="140" width="9" height="26" fill="#000000" fill-opacity="0.25" /><rect x="84" y="138" width="13" height="30" fill="#000000" fill-opacity="0.1" /><text x="90" y="158" font-size="20" text-anchor="middle" font-family="mono" fill="#999999">)</text><circle r="4" cx="90" cy="128" fill="#999999" /><rect x="112" y="86" width="-3" height="14" fill="#000000" fill-opacity="1.0" /><rect x="110" y="84" width="1" height="18" fill="#000000" fill-opacity="0.9" /><rect x="108" y="82" width="5" height="22" fill="#000000" fill-opacity="0.75" /><rect x="107" y="81" width="7" height="24" fill="#000000" fill-opacity="0.5" /><rect x="106" y="80" width="9" height="26" fill="#000000" fill-opacity="0.25" /><rect x="104" y="78" width="13" height="30" fill="#000000" fill-opacity="0.1" /><text x="110" y="98" font-size="20" text-anchor="middle" font-family="mono" fill="#00ff00">+</text><circle r="4" cx="110" cy="68" fill="#00ff00" /><rect x="152" y="76" width="36" height="14" fill="#000000" fill-opacity="1.0" /><rect x="150" y="74" width="40" height="18" fill="#000000" fill-opacity="0.9" /><rect x="148" y="72" width="44" height="22" fill="#000000" fill-opacity="0.75" /><rect x="147" y="71" width="46" height="24" fill="#000000" fill-opacity="0.5" /><rect x="146" y="70" width="48" height="26" fill="#000000" fill-opacity="0.25" /><rect x="144" y="68" width="52" height="30" fill="#000000" fill-opacity="0.1" /><text x="170" y="88" font-size="20" text-anchor="middle" font-family="mono" fill="#999999">eL.4</text><circle r="4" cx="170" cy="108" fill="#999999" /><rect x="132" y="146" width="-3" height="14" fill="#000000" fill-opacity="1.0" /><rect x="130" y="144" width="1" height="18" fill="#000000" fill-opacity="0.9" /><rect x="128" y="142" width="5" height="22" fill="#000000" fill-opacity="0.75" /><rect x="127" y="141" width="7" height="24" fill="#000000" fill-opacity="0.5" /><rect x="126" y="140" width="9" height="26" fill="#000000" fill-opacity="0.25" /><rect x="124" y="138" width="13" height="30" fill="#000000" fill-opacity="0.1" /><text x="130" y="158" font-size="20" text-anchor="middle" font-family="mono" fill="#999999">(</text><circle r="4" cx="130" cy="128" fill="#999999" /><rect x="159" y="136" width="23" height="14" fill="#000000" fill-opacity="1.0" /><rect x="157" y="134" width="27" height="18" fill="#000000" fill-opacity="0.9" /><rect x="155" y="132" width="31" height="22" fill="#000000" fill-opacity="0.75" /><rect x="154" y="131" width="33" height="24" fill="#000000" fill-opacity="0.5" /><rect x="153" y="130" width="35" height="26" fill="#000000" fill-opacity="0.25" /><rect x="151" y="128" width="39" height="30" fill="#000000" fill-opacity="0.1" /><text x="170" y="148" font-size="20" text-anchor="middle" font-family="mono" fill="#00ff00">e.0</text><circle r="4" cx="170" cy="168" fill="#00ff00" /><rect x="152" y="206" width="-3" height="14" fill="#000000" fill-opacity="1.0" /><rect x="150" y="204" width="1" height="18" fill="#000000" fill-opacity="0.9" /><rect x="148" y="202" width="5" height="22" fill="#000000" fill-opacity="0.75" /><rect x="147" y="201" width="7" height="24" fill="#000000" fill-opacity="0.5" /><rect x="146" y="200" width="9" height="26" fill="#000000" fill-opacity="0.25" /><rect x="144" y="198" width="13" height="30" fill="#000000" fill-opacity="0.1" /><text x="150" y="218" font-size="20" text-anchor="middle" font-family="mono" fill="#0000ff">7</text><circle r="4" cx="150" cy="188" fill="#0000ff" /><rect x="172" y="206" width="-3" height="14" fill="#000000" fill-opacity="1.0" /><rect x="170" y="204" width="1" height="18" fill="#000000" fill-opacity="0.9" /><rect x="168" y="202" width="5" height="22" fill="#000000" fill-opacity="0.75" /><rect x="167" y="201" width="7" height="24" fill="#000000" fill-opacity="0.5" /><rect x="166" y="200" width="9" height="26" fill="#000000" fill-opacity="0.25" /><rect x="164" y="198" width="13" height="30" fill="#000000" fill-opacity="0.1" /><text x="170" y="218" font-size="20" text-anchor="middle" font-family="mono" fill="#00ff00">+</text><circle r="4" cx="170" cy="188" fill="#00ff00" /><rect x="192" y="206" width="-3" height="14" fill="#000000" fill-opacity="1.0" /><rect x="190" y="204" width="1" height="18" fill="#000000" fill-opacity="0.9" /><rect x="188" y="202" width="5" height="22" fill="#000000" fill-opacity="0.75" /><rect x="187" y="201" width="7" height="24" fill="#000000" fill-opacity="0.5" /><rect x="186" y="200" width="9" height="26" fill="#000000" fill-opacity="0.25" /><rect x="184" y="198" width="13" height="30" fill="#000000" fill-opacity="0.1" /><text x="190" y="218" font-size="20" text-anchor="middle" font-family="mono" fill="#0000ff">8</text><circle r="4" cx="190" cy="188" fill="#0000ff" /><rect x="212" y="146" width="-3" height="14" fill="#000000" fill-opacity="1.0" /><rect x="210" y="144" width="1" height="18" fill="#000000" fill-opacity="0.9" /><rect x="208" y="142" width="5" height="22" fill="#000000" fill-opacity="0.75" /><rect x="207" y="141" width="7" height="24" fill="#000000" fill-opacity="0.5" /><rect x="206" y="140" width="9" height="26" fill="#000000" fill-opacity="0.25" /><rect x="204" y="138" width="13" height="30" fill="#000000" fill-opacity="0.1" /><text x="210" y="158" font-size="20" text-anchor="middle" font-family="mono" fill="#999999">)</text><circle r="4" cx="210" cy="128" fill="#999999" /></svg>