<?xml version="1.0" encoding="UTF-8"?>
<!DOCTYPE svg PUBLIC "-//W3C//DTD SVG 1.1//EN"
    "http://www.w3.org/Graphics/SVG/1.1/DTD/svg11.dtd">
<svg xmlns="http://www.w3.org/2000/svg" xmlns:xlink="http://www.w3.org/1999/xlink" version="1.1" width="380" height="348" viewBox="0 0 380 348"><rect width="380" height="348" fill="#ffffff" /><rect x="171" y="8" width="39" height="30" fill="#ffffff" fill-opacity="0.5" /><text x="190" y="28" font-size="20" text-anchor="middle" font-family="mono" fill="#000000">e.0</text><circle r="4" cx="190" cy="48" fill="#000000" /><rect x="11" y="78" width="39" height="30" fill="#ffffff" fill-opacity="0.5" /><text x="30" y="98" font-size="20" text-anchor="middle" font-family="mono" fill="#000000">&lt;5&gt;</text><circle r="4" cx="30" cy="68" fill="#000000" /><rect x="64" y="78" width="13" height="30" fill="#ffffff" fill-opacity="0.5" /><text x="70" y="98" font-size="20" text-anchor="middle" font-family="mono" fill="#000000">+</text><circle r="4" cx="70" cy="68" fill="#000000" /><rect x="204" y="68" width="52" height="30" fill="#ffffff" fill-opacity="0.5" /><text x="230" y="88" font-size="20" text-anchor="middle" font-family="mono" fill="#000000">eL.4</text><circle r="4" cx="230" cy="108" fill="#000000" /><rect x="84" y="138" width="13" height="30" fill="#ffffff" fill-opacity="0.5" /><text x="90" y="158" font-size="20" text-anchor="middle" font-family="mono" fill="#000000">(</text><circle r="4" cx="90" cy="128" fill="#000000" /><rect x="211" y="128" width="39" height="30" fill="#ffffff" fill-opacity="0.5" /><text x="230" y="148" font-size="20" text-anchor="middle" font-family="mono" fill="#000000">e.0</text><circle r="4" cx="230" cy="168" fill="#000000" /><rect x="111" y="198" width="39" height="30" fill="#ffffff" fill-opacity="0.5" /><text x="130" y="218" font-size="20" text-anchor="middle" font-family="mono" fill="#000000">&lt;6&gt;</text><circle r="4" cx="130" cy="188" fill="#000000" /><rect x="164" y="198" width="13" height="30" fill="#ffffff" fill-opacity="0.5" /><text x="170" y="218" font-size="20" text-anchor="middle" font-family="mono" fill="#000000">+</text><circle r="4" cx="170" cy="188" fill="#000000" /><rect x="244" y="188" width="52" height="30" fill="#ffffff" fill-opacity="0.5" /><text x="270" y="208" font-size="20" text-anchor="middle" font-family="mono" fill="#000000">eL.4</text><circle r="4" cx="270" cy="228" fill="#000000" /><rect x="184" y="258" width="13" height="30" fill="#ffffff" fill-opacity="0.5" /><text x="190" y="278" font-size="20" text-anchor="middle" font-family="mono" fill="#000000">(</text><circle r="4" cx="190" cy="248" fill="#000000" /><rect x="251" y="248" width="39" height="30" fill="#ffffff" fill-opacity="0.5" /><text x="270" y="268" font-size="20" text-anchor="middle" font-family="mono" fill="#000000">e.0</text><circle r="4" cx="270" cy="288" fill="#000000" /><rect x="211" y="318" width="39" height="30" fill="#ffffff" fill-opacity="0.5" /><text x="230" y="338" font-size="20" text-anchor="middle" font-family="mono" fill="#000000">&lt;7&gt;</text><circle r="4" cx="230" cy="308" fill="#000000" /><rect x="264" y="318" width="13" height="30" fill="#ffffff" fill-opacity="0.5" /><text x="270" y="338" font-size="20" text-anchor="middle" font-family="mono" fill="#000000">+</text><circle r="4" cx="270" cy="308" fill="#000000" /><rect x="291" y="318" width="39" height="30" fill="#ffffff" fill-opacity="0.5" /><text x="310" y="338" font-size="20" text-anchor="middle" font-family="mono" fill="#000000">&lt;8&gt;</text><circle r="4" cx="310" cy="308" fill="#000000" /><rect x="344" y="258" width="13" height="30" fill="#ffffff" fill-opacity="0.5" /><text x="350" y="278" font-size="20" text-anchor="middle" font-family="mono" fill="#000000">)</text><circle r="4" cx="350" cy="248" fill="#000000" /><rect x="364" y="138" width="13" height="30" fill="#ffffff" fill-opacity="0.5" /><text x="370" y="158" font-size="20" text-anchor="middle" font-family="mono" fill="#000000">)</text><circle r="4" cx="370" cy="128" fill="#000000" /><path d="M 190 48 , 30 68" stroke="#000000" stroke-width="1" stroke-linecap="round" /><path d="M 190 48 , 70 68" stroke="#000000" stroke-width="1" stroke-linecap="round" /><path d="M 190 48 , 230 108" stroke="#000000" stroke-width="1" stroke-linecap="round" /><path d="M 230 108 , 90 128" stroke="#000000" stroke-width="1" stroke-linecap="round" /><path d="M 230 108 , 230 168" stroke="#000000" stroke-width="1" stroke-linecap="round" /><path d="M 230 108 , 370 128" stroke="#000000" stroke-width="1" stroke-linecap="round" /><path d="M 230 168 , 130 188" stroke="#000000" stroke-width="1" stroke-linecap="round" /><path d="M 230 168 , 170 188" stroke="#000000" stroke-width="1" stroke-linecap="round" /><path d="M 230 168 , 270 228" stroke="#000000" stroke-width="1" stroke-linecap="round" /><path d="M 270 228 , 190 248" stroke="#000000" stroke-width="1" stroke-linecap="round" /><path d="M 270 228 , 270 288" stroke="#000000" stroke-width="1" stroke-linecap="round" /><path d="M 270 228 , 350 248" stroke="#000000" stroke-width="1" stroke-linecap="round" /><path d="M 270 288 , 230 308" stroke="#000000" stroke-width="1" stroke-linecap="round" /><path d="M 270 288 , 270 308" stroke="#000000" stroke-width="1" stroke-linecap="round" /><path d="M 270 288 , 310 308" stroke="#000000" stroke-width="1" stroke-linecap="round" /></svg>