<?xml version="1.0" encoding="UTF-8"?>
<!DOCTYPE svg PUBLIC "-//W3C//DTD SVG 1.1//EN"
    "http://www.w3.org/Graphics/SVG/1.1/DTD/svg11.dtd">
<svg xmlns="http://www.w3.org/2000/svg" xmlns:xlink="http://www.w3.org/1999/xlink" version="1.1" width="60" height="108" viewBox="0 0 60 108"><rect width="60" height="108" fill="#000000" /><path d="M 30 48 , 10 68" stroke="#00ff00" stroke-width="2" stroke-linecap="round" /><path d="M 30 48 , 30 68" stroke="#00ff00" stroke-width="2" stroke-linecap="round" /><path d="M 30 48 , 50 68" stroke="#00ff00" stroke-width="2" stroke-linecap="round" /><rect x="19" y="16" width="23" height="14" fill="#000000" fill-opacity="1.0" /><rect x="17" y="14" width="27" height="18" fill="#000000" fill-opacity="0.9" /><rect x="15" y="12" width="31" height="22" fill="#000000" fill-opacity="0.75" /><rect x="14" y="11" width="33" height="24" fill="#000000" fill-opacity="0.5" /><rect x="13" y="10" width="35" height="26" fill="#000000" fill-opacity="0.25" /><rect x="11" y="8" width="39" height="30" fill="#000000" fill-opacity="0.1" /><text x="30" y="28" font-size="20" text-anchor="middle" font-family="mono" fill="#00ff00">e.0</text><circle r="4" cx="30" cy="48" fill="#00ff00" /><rect x="12" y="86" width="-3" height="14" fill="#000000" fill-opacity="1.0" /><rect x="10" y="84" width="1" height="18" fill="#000000" fill-opacity="0.9" /><rect x="8" y="82" width="5" height="22" fill="#000000" fill-opacity="0.75" /><rect x="7" y="81" width="7" height="24" fill="#000000" fill-opacity="0.5" /><rect x="6" y="80" width="9" height="26" fill="#000000" fill-opacity="0.25" /><rect x="4" y="78" width="13" height="30" fill="#000000" fill-opacity="0.1" /><text x="10" y="98" font-size="20" text-anchor="middle" font-family="mono" fill="#5555ff">5</text><circle r="4" cx="10" cy="68" fill="#5555ff" /><rect x="32" y="86" width="-3" height="14" fill="#000000" fill-opacity="1.0" /><rect x="30" y="84" width="1" height="18" fill="#000000" fill-opacity="0.9" /><rect x="28" y="82" width="5" height="22" fill="#000000" fill-opacity="0.75" /><rect x="27" y="81" width="7" height="24" fill="#000000" fill-opacity="0.5" /><rect x="26" y="80" width="9" height="26" fill="#000000" fill-opacity="0.25" /><rect x="24" y="78" width="13" height="30" fill="#000000" fill-opacity="0.1" /><text x="30" y="98" font-size="20" text-anchor="middle" font-family="mono" fill="#00ff00">+</text><circle r="4" cx="30" cy="68" fill="#00ff00" /><rect x="52" y="86" width="-3" height="14" fill="#000000" fill-opacity="1.0" /><rect x="50" y="84" width="1" height="18" fill="#000000" fill-opacity="0.9" /><rect x="48" y="82" width="5" height="22" fill="#000000" fill-opacity="0.75" /><rect x="47" y="81" width="7" height="24" fill="#000000" fill-opacity="0.5" /><rect x="46" y="80" width="9" height="26" fill="#000000" fill-opacity="0.25" /><rect x="44" y="78" width="13" height="30" fill="#000000" fill-opacity="0.1" /><text x="50" y="98" font-size="20" text-anchor="middle" font-family="mono" fill="#5555ff">6</text><circle r="4" cx="50" cy="68" fill="#5555ff" /></svg>