<?xml version="1.0" encoding="UTF-8"?>
<!DOCTYPE svg PUBLIC "-//W3C//DTD SVG 1.1//EN"
    "http://www.w3.org/Graphics/SVG/1.1/DTD/svg11.dtd">
<svg xmlns="http://www.w3.org/2000/svg" xmlns:xlink="http://www.w3.org/1999/xlink" version="1.1" width="440" height="228" viewBox="0 0 440 228"><rect width="440" height="228" fill="#ffffff" /><path d="M 220 48 , 180 108" stroke="#000000" stroke-width="1" stroke-linecap="round" /><path d="M 220 48 , 400 68" stroke="#000000" stroke-width="1" stroke-linecap="round" /><path d="M 180 108 , 10 128" stroke="#000000" stroke-width="1" stroke-linecap="round" /><path d="M 180 108 , 30 128" stroke="#000000" stroke-width="1" stroke-linecap="round" /><path d="M 180 108 , 70 128" stroke="#000000" stroke-width="1" stroke-linecap="round" /><path d="M 180 108 , 110 128" stroke="#000000" stroke-width="1" stroke-linecap="round" /><path d="M 180 108 , 150 128" stroke="#000000" stroke-width="1" stroke-linecap="round" /><path d="M 180 108 , 190 128" stroke="#000000" stroke-width="1" stroke-linecap="round" /><path d="M 180 108 , 270 168" stroke="#000000" stroke-width="1" stroke-linecap="round" /><path d="M 180 108 , 350 128" stroke="#000000" stroke-width="1" stroke-linecap="round" /><path d="M 270 168 , 230 188" stroke="#000000" stroke-width="1" stroke-linecap="round" /><path d="M 270 168 , 270 188" stroke="#000000" stroke-width="1" stroke-linecap="round" /><path d="M 270 168 , 310 188" stroke="#000000" stroke-width="1" stroke-linecap="round" /><rect x="209" y="16" width="23" height="14" fill="#ffffff" fill-opacity="1.0" /><rect x="207" y="14" width="27" height="18" fill="#ffffff" fill-opacity="0.9" /><rect x="205" y="12" width="31" height="22" fill="#ffffff" fill-opacity="0.75" /><rect x="204" y="11" width="33" height="24" fill="#ffffff" fill-opacity="0.5" /><rect x="203" y="10" width="35" height="26" fill="#ffffff" fill-opacity="0.25" /><rect x="201" y="8" width="39" height="30" fill="#ffffff" fill-opacity="0.1" /><text x="220" y="28" font-size="20" text-anchor="middle" font-family="mono" fill="#000000">e.2</text><circle r="4" cx="220" cy="48" fill="#000000" /><rect x="162" y="76" width="36" height="14" fill="#ffffff" fill-opacity="1.0" /><rect x="160" y="74" width="40" height="18" fill="#ffffff" fill-opacity="0.9" /><rect x="158" y="72" width="44" height="22" fill="#ffffff" fill-opacity="0.75" /><rect x="157" y="71" width="46" height="24" fill="#ffffff" fill-opacity="0.5" /><rect x="156" y="70" width="48" height="26" fill="#ffffff" fill-opacity="0.25" /><rect x="154" y="68" width="52" height="30" fill="#ffffff" fill-opacity="0.1" /><text x="180" y="88" font-size="20" text-anchor="middle" font-family="mono" fill="#000000">eL.2</text><circle r="4" cx="180" cy="108" fill="#000000" /><rect x="12" y="146" width="-3" height="14" fill="#ffffff" fill-opacity="1.0" /><rect x="10" y="144" width="1" height="18" fill="#ffffff" fill-opacity="0.9" /><rect x="8" y="142" width="5" height="22" fill="#ffffff" fill-opacity="0.75" /><rect x="7" y="141" width="7" height="24" fill="#ffffff" fill-opacity="0.5" /><rect x="6" y="140" width="9" height="26" fill="#ffffff" fill-opacity="0.25" /><rect x="4" y="138" width="13" height="30" fill="#ffffff" fill-opacity="0.1" /><text x="10" y="158" font-size="20" text-anchor="middle" font-family="mono" fill="#000000">(</text><circle r="4" cx="10" cy="128" fill="#000000" /><rect x="32" y="146" width="-3" height="14" fill="#ffffff" fill-opacity="1.0" /><rect x="30" y="144" width="1" height="18" fill="#ffffff" fill-opacity="0.9" /><rect x="28" y="142" width="5" height="22" fill="#ffffff" fill-opacity="0.75" /><rect x="27" y="141" width="7" height="24" fill="#ffffff" fill-opacity="0.5" /><rect x="26" y="140" width="9" height="26" fill="#ffffff" fill-opacity="0.25" /><rect x="24" y="138" width="13" height="30" fill="#ffffff" fill-opacity="0.1" /><text x="30" y="158" font-size="20" text-anchor="middle" font-family="mono" fill="#000000">\</text><circle r="4" cx="30" cy="128" fill="#000000" /><rect x="59" y="146" width="23" height="14" fill="#ffffff" fill-opacity="1.0" /><rect x="57" y="144" width="27" height="18" fill="#ffffff" fill-opacity="0.9" /><rect x="55" y="142" width="31" height="22" fill="#ffffff" fill-opacity="0.75" /><rect x="54" y="141" width="33" height="24" fill="#ffffff" fill-opacity="0.5" /><rect x="53" y="140" width="35" height="26" fill="#ffffff" fill-opacity="0.25" /><rect x="51" y="138" width="39" height="30" fill="#ffffff" fill-opacity="0.1" /><text x="70" y="158" font-size="20" text-anchor="middle" font-family="mono" fill="#000000">&lt;x&gt;</text><circle r="4" cx="70" cy="128" fill="#000000" /><rect x="112" y="146" width="-3" height="14" fill="#ffffff" fill-opacity="1.0" /><rect x="110" y="144" width="1" height="18" fill="#ffffff" fill-opacity="0.9" /><rect x="108" y="142" width="5" height="22" fill="#ffffff" fill-opacity="0.75" /><rect x="107" y="141" width="7" height="24" fill="#ffffff" fill-opacity="0.5" /><rect x="106" y="140" width="9" height="26" fill="#ffffff" fill-opacity="0.25" /><rect x="104" y="138" width="13" height="30" fill="#ffffff" fill-opacity="0.1" /><text x="110" y="158" font-size="20" text-anchor="middle" font-family="mono" fill="#000000">:</text><circle r="4" cx="110" cy="128" fill="#000000" /><rect x="139" y="146" width="23" height="14" fill="#ffffff" fill-opacity="1.0" /><rect x="137" y="144" width="27" height="18" fill="#ffffff" fill-opacity="0.9" /><rect x="135" y="142" width="31" height="22" fill="#ffffff" fill-opacity="0.75" /><rect x="134" y="141" width="33" height="24" fill="#ffffff" fill-opacity="0.5" /><rect x="133" y="140" width="35" height="26" fill="#ffffff" fill-opacity="0.25" /><rect x="131" y="138" width="39" height="30" fill="#ffffff" fill-opacity="0.1" /><text x="150" y="158" font-size="20" text-anchor="middle" font-family="mono" fill="#000000">Int</text><circle r="4" cx="150" cy="128" fill="#000000" /><rect x="192" y="146" width="-3" height="14" fill="#ffffff" fill-opacity="1.0" /><rect x="190" y="144" width="1" height="18" fill="#ffffff" fill-opacity="0.9" /><rect x="188" y="142" width="5" height="22" fill="#ffffff" fill-opacity="0.75" /><rect x="187" y="141" width="7" height="24" fill="#ffffff" fill-opacity="0.5" /><rect x="186" y="140" width="9" height="26" fill="#ffffff" fill-opacity="0.25" /><rect x="184" y="138" width="13" height="30" fill="#ffffff" fill-opacity="0.1" /><text x="190" y="158" font-size="20" text-anchor="middle" font-family="mono" fill="#000000">.</text><circle r="4" cx="190" cy="128" fill="#000000" /><rect x="259" y="136" width="23" height="14" fill="#ffffff" fill-opacity="1.0" /><rect x="257" y="134" width="27" height="18" fill="#ffffff" fill-opacity="0.9" /><rect x="255" y="132" width="31" height="22" fill="#ffffff" fill-opacity="0.75" /><rect x="254" y="131" width="33" height="24" fill="#ffffff" fill-opacity="0.5" /><rect x="253" y="130" width="35" height="26" fill="#ffffff" fill-opacity="0.25" /><rect x="251" y="128" width="39" height="30" fill="#ffffff" fill-opacity="0.1" /><text x="270" y="148" font-size="20" text-anchor="middle" font-family="mono" fill="#000000">e.0</text><circle r="4" cx="270" cy="168" fill="#000000" /><rect x="219" y="206" width="23" height="14" fill="#ffffff" fill-opacity="1.0" /><rect x="217" y="204" width="27" height="18" fill="#ffffff" fill-opacity="0.9" /><rect x="215" y="202" width="31" height="22" fill="#ffffff" fill-opacity="0.75" /><rect x="214" y="201" width="33" height="24" fill="#ffffff" fill-opacity="0.5" /><rect x="213" y="200" width="35" height="26" fill="#ffffff" fill-opacity="0.25" /><rect x="211" y="198" width="39" height="30" fill="#ffffff" fill-opacity="0.1" /><text x="230" y="218" font-size="20" text-anchor="middle" font-family="mono" fill="#000000">&lt;x&gt;</text><circle r="4" cx="230" cy="188" fill="#000000" /><rect x="272" y="206" width="-3" height="14" fill="#ffffff" fill-opacity="1.0" /><rect x="270" y="204" width="1" height="18" fill="#ffffff" fill-opacity="0.9" /><rect x="268" y="202" width="5" height="22" fill="#ffffff" fill-opacity="0.75" /><rect x="267" y="201" width="7" height="24" fill="#ffffff" fill-opacity="0.5" /><rect x="266" y="200" width="9" height="26" fill="#ffffff" fill-opacity="0.25" /><rect x="264" y="198" width="13" height="30" fill="#ffffff" fill-opacity="0.1" /><text x="270" y="218" font-size="20" text-anchor="middle" font-family="mono" fill="#000000">+</text><circle r="4" cx="270" cy="188" fill="#000000" /><rect x="299" y="206" width="23" height="14" fill="#ffffff" fill-opacity="1.0" /><rect x="297" y="204" width="27" height="18" fill="#ffffff" fill-opacity="0.9" /><rect x="295" y="202" width="31" height="22" fill="#ffffff" fill-opacity="0.75" /><rect x="294" y="201" width="33" height="24" fill="#ffffff" fill-opacity="0.5" /><rect x="293" y="200" width="35" height="26" fill="#ffffff" fill-opacity="0.25" /><rect x="291" y="198" width="39" height="30" fill="#ffffff" fill-opacity="0.1" /><text x="310" y="218" font-size="20" text-anchor="middle" font-family="mono" fill="#000000">&lt;1&gt;</text><circle r="4" cx="310" cy="188" fill="#000000" /><rect x="352" y="146" width="-3" height="14" fill="#ffffff" fill-opacity="1.0" /><rect x="350" y="144" width="1" height="18" fill="#ffffff" fill-opacity="0.9" /><rect x="348" y="142" width="5" height="22" fill="#ffffff" fill-opacity="0.75" /><rect x="347" y="141" width="7" height="24" fill="#ffffff" fill-opacity="0.5" /><rect x="346" y="140" width="9" height="26" fill="#ffffff" fill-opacity="0.25" /><rect x="344" y="138" width="13" height="30" fill="#ffffff" fill-opacity="0.1" /><text x="350" y="158" font-size="20" text-anchor="middle" font-family="mono" fill="#000000">)</text><circle r="4" cx="350" cy="128" fill="#000000" /><rect x="382" y="86" width="36" height="14" fill="#ffffff" fill-opacity="1.0" /><rect x="380" y="84" width="40" height="18" fill="#ffffff" fill-opacity="0.9" /><rect x="378" y="82" width="44" height="22" fill="#ffffff" fill-opacity="0.75" /><rect x="377" y="81" width="46" height="24" fill="#ffffff" fill-opacity="0.5" /><rect x="376" y="80" width="48" height="26" fill="#ffffff" fill-opacity="0.25" /><rect x="374" y="78" width="52" height="30" fill="#ffffff" fill-opacity="0.1" /><text x="400" y="98" font-size="20" text-anchor="middle" font-family="mono" fill="#000000">True</text><circle r="4" cx="400" cy="68" fill="#000000" /></svg>