<?xml version="1.0" encoding="UTF-8"?>
<!DOCTYPE svg PUBLIC "-//W3C//DTD SVG 1.1//EN"
    "http://www.w3.org/Graphics/SVG/1.1/DTD/svg11.dtd">
<svg xmlns="http://www.w3.org/2000/svg" xmlns:xlink="http://www.w3.org/1999/xlink" version="1.1" width="800" height="228" viewBox="0 0 800 228"><rect width="800" height="228" fill="#ffffff" /><path d="M 400 48 , 220 108" stroke="#000000" stroke-width="1" stroke-linecap="round" /><path d="M 400 48 , 620 108" stroke="#000000" stroke-width="1" stroke-linecap="round" /><path d="M 620 108 , 450 128" stroke="#000000" stroke-width="1" stroke-linecap="round" /><path d="M 620 108 , 470 128" stroke="#000000" stroke-width="1" stroke-linecap="round" /><path d="M 620 108 , 510 128" stroke="#000000" stroke-width="1" stroke-linecap="round" /><path d="M 620 108 , 550 128" stroke="#000000" stroke-width="1" stroke-linecap="round" /><path d="M 620 108 , 590 128" stroke="#000000" stroke-width="1" stroke-linecap="round" /><path d="M 620 108 , 630 128" stroke="#000000" stroke-width="1" stroke-linecap="round" /><path d="M 620 108 , 710 168" stroke="#000000" stroke-width="1" stroke-linecap="round" /><path d="M 620 108 , 790 128" stroke="#000000" stroke-width="1" stroke-linecap="round" /><path d="M 710 168 , 670 188" stroke="#000000" stroke-width="1" stroke-linecap="round" /><path d="M 710 168 , 710 188" stroke="#000000" stroke-width="1" stroke-linecap="round" /><path d="M 710 168 , 750 188" stroke="#000000" stroke-width="1" stroke-linecap="round" /><path d="M 220 108 , 10 128" stroke="#000000" stroke-width="1" stroke-linecap="round" /><path d="M 220 108 , 30 128" stroke="#000000" stroke-width="1" stroke-linecap="round" /><path d="M 220 108 , 70 128" stroke="#000000" stroke-width="1" stroke-linecap="round" /><path d="M 220 108 , 110 128" stroke="#000000" stroke-width="1" stroke-linecap="round" /><path d="M 220 108 , 200 168" stroke="#000000" stroke-width="1" stroke-linecap="round" /><path d="M 220 108 , 290 128" stroke="#000000" stroke-width="1" stroke-linecap="round" /><path d="M 220 108 , 360 168" stroke="#000000" stroke-width="1" stroke-linecap="round" /><path d="M 220 108 , 430 128" stroke="#000000" stroke-width="1" stroke-linecap="round" /><path d="M 360 168 , 330 188" stroke="#000000" stroke-width="1" stroke-linecap="round" /><path d="M 360 168 , 390 188" stroke="#000000" stroke-width="1" stroke-linecap="round" /><path d="M 200 168 , 150 188" stroke="#000000" stroke-width="1" stroke-linecap="round" /><path d="M 200 168 , 200 188" stroke="#000000" stroke-width="1" stroke-linecap="round" /><path d="M 200 168 , 250 188" stroke="#000000" stroke-width="1" stroke-linecap="round" /><rect x="389" y="16" width="23" height="14" fill="#ffffff" fill-opacity="1.0" /><rect x="387" y="14" width="27" height="18" fill="#ffffff" fill-opacity="0.9" /><rect x="385" y="12" width="31" height="22" fill="#ffffff" fill-opacity="0.75" /><rect x="384" y="11" width="33" height="24" fill="#ffffff" fill-opacity="0.5" /><rect x="383" y="10" width="35" height="26" fill="#ffffff" fill-opacity="0.25" /><rect x="381" y="8" width="39" height="30" fill="#ffffff" fill-opacity="0.1" /><text x="400" y="28" font-size="20" text-anchor="middle" font-family="mono" fill="#000000">e.2</text><circle r="4" cx="400" cy="48" fill="#000000" /><rect x="202" y="76" width="36" height="14" fill="#ffffff" fill-opacity="1.0" /><rect x="200" y="74" width="40" height="18" fill="#ffffff" fill-opacity="0.9" /><rect x="198" y="72" width="44" height="22" fill="#ffffff" fill-opacity="0.75" /><rect x="197" y="71" width="46" height="24" fill="#ffffff" fill-opacity="0.5" /><rect x="196" y="70" width="48" height="26" fill="#ffffff" fill-opacity="0.25" /><rect x="194" y="68" width="52" height="30" fill="#ffffff" fill-opacity="0.1" /><text x="220" y="88" font-size="20" text-anchor="middle" font-family="mono" fill="#000000">eL.2</text><circle r="4" cx="220" cy="108" fill="#000000" /><rect x="12" y="146" width="-3" height="14" fill="#ffffff" fill-opacity="1.0" /><rect x="10" y="144" width="1" height="18" fill="#ffffff" fill-opacity="0.9" /><rect x="8" y="142" width="5" height="22" fill="#ffffff" fill-opacity="0.75" /><rect x="7" y="141" width="7" height="24" fill="#ffffff" fill-opacity="0.5" /><rect x="6" y="140" width="9" height="26" fill="#ffffff" fill-opacity="0.25" /><rect x="4" y="138" width="13" height="30" fill="#ffffff" fill-opacity="0.1" /><text x="10" y="158" font-size="20" text-anchor="middle" font-family="mono" fill="#000000">(</text><circle r="4" cx="10" cy="128" fill="#000000" /><rect x="32" y="146" width="-3" height="14" fill="#ffffff" fill-opacity="1.0" /><rect x="30" y="144" width="1" height="18" fill="#ffffff" fill-opacity="0.9" /><rect x="28" y="142" width="5" height="22" fill="#ffffff" fill-opacity="0.75" /><rect x="27" y="141" width="7" height="24" fill="#ffffff" fill-opacity="0.5" /><rect x="26" y="140" width="9" height="26" fill="#ffffff" fill-opacity="0.25" /><rect x="24" y="138" width="13" height="30" fill="#ffffff" fill-opacity="0.1" /><text x="30" y="158" font-size="20" text-anchor="middle" font-family="mono" fill="#000000">\</text><circle r="4" cx="30" cy="128" fill="#000000" /><rect x="59" y="146" width="23" height="14" fill="#ffffff" fill-opacity="1.0" /><rect x="57" y="144" width="27" height="18" fill="#ffffff" fill-opacity="0.9" /><rect x="55" y="142" width="31" height="22" fill="#ffffff" fill-opacity="0.75" /><rect x="54" y="141" width="33" height="24" fill="#ffffff" fill-opacity="0.5" /><rect x="53" y="140" width="35" height="26" fill="#ffffff" fill-opacity="0.25" /><rect x="51" y="138" width="39" height="30" fill="#ffffff" fill-opacity="0.1" /><text x="70" y="158" font-size="20" text-anchor="middle" font-family="mono" fill="#000000">&lt;f&gt;</text><circle r="4" cx="70" cy="128" fill="#000000" /><rect x="112" y="146" width="-3" height="14" fill="#ffffff" fill-opacity="1.0" /><rect x="110" y="144" width="1" height="18" fill="#ffffff" fill-opacity="0.9" /><rect x="108" y="142" width="5" height="22" fill="#ffffff" fill-opacity="0.75" /><rect x="107" y="141" width="7" height="24" fill="#ffffff" fill-opacity="0.5" /><rect x="106" y="140" width="9" height="26" fill="#ffffff" fill-opacity="0.25" /><rect x="104" y="138" width="13" height="30" fill="#ffffff" fill-opacity="0.1" /><text x="110" y="158" font-size="20" text-anchor="middle" font-family="mono" fill="#000000">:</text><circle r="4" cx="110" cy="128" fill="#000000" /><rect x="169" y="136" width="62" height="14" fill="#ffffff" fill-opacity="1.0" /><rect x="167" y="134" width="66" height="18" fill="#ffffff" fill-opacity="0.9" /><rect x="165" y="132" width="70" height="22" fill="#ffffff" fill-opacity="0.75" /><rect x="164" y="131" width="72" height="24" fill="#ffffff" fill-opacity="0.5" /><rect x="163" y="130" width="74" height="26" fill="#ffffff" fill-opacity="0.25" /><rect x="161" y="128" width="78" height="30" fill="#ffffff" fill-opacity="0.1" /><text x="200" y="148" font-size="20" text-anchor="middle" font-family="mono" fill="#000000">type.0</text><circle r="4" cx="200" cy="168" fill="#000000" /><rect x="139" y="206" width="23" height="14" fill="#ffffff" fill-opacity="1.0" /><rect x="137" y="204" width="27" height="18" fill="#ffffff" fill-opacity="0.9" /><rect x="135" y="202" width="31" height="22" fill="#ffffff" fill-opacity="0.75" /><rect x="134" y="201" width="33" height="24" fill="#ffffff" fill-opacity="0.5" /><rect x="133" y="200" width="35" height="26" fill="#ffffff" fill-opacity="0.25" /><rect x="131" y="198" width="39" height="30" fill="#ffffff" fill-opacity="0.1" /><text x="150" y="218" font-size="20" text-anchor="middle" font-family="mono" fill="#000000">Int</text><circle r="4" cx="150" cy="188" fill="#000000" /><rect x="195" y="206" width="10" height="14" fill="#ffffff" fill-opacity="1.0" /><rect x="193" y="204" width="14" height="18" fill="#ffffff" fill-opacity="0.9" /><rect x="191" y="202" width="18" height="22" fill="#ffffff" fill-opacity="0.75" /><rect x="190" y="201" width="20" height="24" fill="#ffffff" fill-opacity="0.5" /><rect x="189" y="200" width="22" height="26" fill="#ffffff" fill-opacity="0.25" /><rect x="187" y="198" width="26" height="30" fill="#ffffff" fill-opacity="0.1" /><text x="200" y="218" font-size="20" text-anchor="middle" font-family="mono" fill="#000000">-&gt;</text><circle r="4" cx="200" cy="188" fill="#000000" /><rect x="239" y="206" width="23" height="14" fill="#ffffff" fill-opacity="1.0" /><rect x="237" y="204" width="27" height="18" fill="#ffffff" fill-opacity="0.9" /><rect x="235" y="202" width="31" height="22" fill="#ffffff" fill-opacity="0.75" /><rect x="234" y="201" width="33" height="24" fill="#ffffff" fill-opacity="0.5" /><rect x="233" y="200" width="35" height="26" fill="#ffffff" fill-opacity="0.25" /><rect x="231" y="198" width="39" height="30" fill="#ffffff" fill-opacity="0.1" /><text x="250" y="218" font-size="20" text-anchor="middle" font-family="mono" fill="#000000">Int</text><circle r="4" cx="250" cy="188" fill="#000000" /><rect x="292" y="146" width="-3" height="14" fill="#ffffff" fill-opacity="1.0" /><rect x="290" y="144" width="1" height="18" fill="#ffffff" fill-opacity="0.9" /><rect x="288" y="142" width="5" height="22" fill="#ffffff" fill-opacity="0.75" /><rect x="287" y="141" width="7" height="24" fill="#ffffff" fill-opacity="0.5" /><rect x="286" y="140" width="9" height="26" fill="#ffffff" fill-opacity="0.25" /><rect x="284" y="138" width="13" height="30" fill="#ffffff" fill-opacity="0.1" /><text x="290" y="158" font-size="20" text-anchor="middle" font-family="mono" fill="#000000">.</text><circle r="4" cx="290" cy="128" fill="#000000" /><rect x="349" y="136" width="23" height="14" fill="#ffffff" fill-opacity="1.0" /><rect x="347" y="134" width="27" height="18" fill="#ffffff" fill-opacity="0.9" /><rect x="345" y="132" width="31" height="22" fill="#ffffff" fill-opacity="0.75" /><rect x="344" y="131" width="33" height="24" fill="#ffffff" fill-opacity="0.5" /><rect x="343" y="130" width="35" height="26" fill="#ffffff" fill-opacity="0.25" /><rect x="341" y="128" width="39" height="30" fill="#ffffff" fill-opacity="0.1" /><text x="360" y="148" font-size="20" text-anchor="middle" font-family="mono" fill="#000000">e.2</text><circle r="4" cx="360" cy="168" fill="#000000" /><rect x="319" y="206" width="23" height="14" fill="#ffffff" fill-opacity="1.0" /><rect x="317" y="204" width="27" height="18" fill="#ffffff" fill-opacity="0.9" /><rect x="315" y="202" width="31" height="22" fill="#ffffff" fill-opacity="0.75" /><rect x="314" y="201" width="33" height="24" fill="#ffffff" fill-opacity="0.5" /><rect x="313" y="200" width="35" height="26" fill="#ffffff" fill-opacity="0.25" /><rect x="311" y="198" width="39" height="30" fill="#ffffff" fill-opacity="0.1" /><text x="330" y="218" font-size="20" text-anchor="middle" font-family="mono" fill="#000000">&lt;f&gt;</text><circle r="4" cx="330" cy="188" fill="#000000" /><rect x="379" y="206" width="23" height="14" fill="#ffffff" fill-opacity="1.0" /><rect x="377" y="204" width="27" height="18" fill="#ffffff" fill-opacity="0.9" /><rect x="375" y="202" width="31" height="22" fill="#ffffff" fill-opacity="0.75" /><rect x="374" y="201" width="33" height="24" fill="#ffffff" fill-opacity="0.5" /><rect x="373" y="200" width="35" height="26" fill="#ffffff" fill-opacity="0.25" /><rect x="371" y="198" width="39" height="30" fill="#ffffff" fill-opacity="0.1" /><text x="390" y="218" font-size="20" text-anchor="middle" font-family="mono" fill="#000000">&lt;5&gt;</text><circle r="4" cx="390" cy="188" fill="#000000" /><rect x="432" y="146" width="-3" height="14" fill="#ffffff" fill-opacity="1.0" /><rect x="430" y="144" width="1" height="18" fill="#ffffff" fill-opacity="0.9" /><rect x="428" y="142" width="5" height="22" fill="#ffffff" fill-opacity="0.75" /><rect x="427" y="141" width="7" height="24" fill="#ffffff" fill-opacity="0.5" /><rect x="426" y="140" width="9" height="26" fill="#ffffff" fill-opacity="0.25" /><rect x="424" y="138" width="13" height="30" fill="#ffffff" fill-opacity="0.1" /><text x="430" y="158" font-size="20" text-anchor="middle" font-family="mono" fill="#000000">)</text><circle r="4" cx="430" cy="128" fill="#000000" /><rect x="602" y="76" width="36" height="14" fill="#ffffff" fill-opacity="1.0" /><rect x="600" y="74" width="40" height="18" fill="#ffffff" fill-opacity="0.9" /><rect x="598" y="72" width="44" height="22" fill="#ffffff" fill-opacity="0.75" /><rect x="597" y="71" width="46" height="24" fill="#ffffff" fill-opacity="0.5" /><rect x="596" y="70" width="48" height="26" fill="#ffffff" fill-opacity="0.25" /><rect x="594" y="68" width="52" height="30" fill="#ffffff" fill-opacity="0.1" /><text x="620" y="88" font-size="20" text-anchor="middle" font-family="mono" fill="#000000">eL.2</text><circle r="4" cx="620" cy="108" fill="#000000" /><rect x="452" y="146" width="-3" height="14" fill="#ffffff" fill-opacity="1.0" /><rect x="450" y="144" width="1" height="18" fill="#ffffff" fill-opacity="0.9" /><rect x="448" y="142" width="5" height="22" fill="#ffffff" fill-opacity="0.75" /><rect x="447" y="141" width="7" height="24" fill="#ffffff" fill-opacity="0.5" /><rect x="446" y="140" width="9" height="26" fill="#ffffff" fill-opacity="0.25" /><rect x="444" y="138" width="13" height="30" fill="#ffffff" fill-opacity="0.1" /><text x="450" y="158" font-size="20" text-anchor="middle" font-family="mono" fill="#000000">(</text><circle r="4" cx="450" cy="128" fill="#000000" /><rect x="472" y="146" width="-3" height="14" fill="#ffffff" fill-opacity="1.0" /><rect x="470" y="144" width="1" height="18" fill="#ffffff" fill-opacity="0.9" /><rect x="468" y="142" width="5" height="22" fill="#ffffff" fill-opacity="0.75" /><rect x="467" y="141" width="7" height="24" fill="#ffffff" fill-opacity="0.5" /><rect x="466" y="140" width="9" height="26" fill="#ffffff" fill-opacity="0.25" /><rect x="464" y="138" width="13" height="30" fill="#ffffff" fill-opacity="0.1" /><text x="470" y="158" font-size="20" text-anchor="middle" font-family="mono" fill="#000000">\</text><circle r="4" cx="470" cy="128" fill="#000000" /><rect x="499" y="146" width="23" height="14" fill="#ffffff" fill-opacity="1.0" /><rect x="497" y="144" width="27" height="18" fill="#ffffff" fill-opacity="0.9" /><rect x="495" y="142" width="31" height="22" fill="#ffffff" fill-opacity="0.75" /><rect x="494" y="141" width="33" height="24" fill="#ffffff" fill-opacity="0.5" /><rect x="493" y="140" width="35" height="26" fill="#ffffff" fill-opacity="0.25" /><rect x="491" y="138" width="39" height="30" fill="#ffffff" fill-opacity="0.1" /><text x="510" y="158" font-size="20" text-anchor="middle" font-family="mono" fill="#000000">&lt;i&gt;</text><circle r="4" cx="510" cy="128" fill="#000000" /><rect x="552" y="146" width="-3" height="14" fill="#ffffff" fill-opacity="1.0" /><rect x="550" y="144" width="1" height="18" fill="#ffffff" fill-opacity="0.9" /><rect x="548" y="142" width="5" height="22" fill="#ffffff" fill-opacity="0.75" /><rect x="547" y="141" width="7" height="24" fill="#ffffff" fill-opacity="0.5" /><rect x="546" y="140" width="9" height="26" fill="#ffffff" fill-opacity="0.25" /><rect x="544" y="138" width="13" height="30" fill="#ffffff" fill-opacity="0.1" /><text x="550" y="158" font-size="20" text-anchor="middle" font-family="mono" fill="#000000">:</text><circle r="4" cx="550" cy="128" fill="#000000" /><rect x="579" y="146" width="23" height="14" fill="#ffffff" fill-opacity="1.0" /><rect x="577" y="144" width="27" height="18" fill="#ffffff" fill-opacity="0.9" /><rect x="575" y="142" width="31" height="22" fill="#ffffff" fill-opacity="0.75" /><rect x="574" y="141" width="33" height="24" fill="#ffffff" fill-opacity="0.5" /><rect x="573" y="140" width="35" height="26" fill="#ffffff" fill-opacity="0.25" /><rect x="571" y="138" width="39" height="30" fill="#ffffff" fill-opacity="0.1" /><text x="590" y="158" font-size="20" text-anchor="middle" font-family="mono" fill="#000000">Int</text><circle r="4" cx="590" cy="128" fill="#000000" /><rect x="632" y="146" width="-3" height="14" fill="#ffffff" fill-opacity="1.0" /><rect x="630" y="144" width="1" height="18" fill="#ffffff" fill-opacity="0.9" /><rect x="628" y="142" width="5" height="22" fill="#ffffff" fill-opacity="0.75" /><rect x="627" y="141" width="7" height="24" fill="#ffffff" fill-opacity="0.5" /><rect x="626" y="140" width="9" height="26" fill="#ffffff" fill-opacity="0.25" /><rect x="624" y="138" width="13" height="30" fill="#ffffff" fill-opacity="0.1" /><text x="630" y="158" font-size="20" text-anchor="middle" font-family="mono" fill="#000000">.</text><circle r="4" cx="630" cy="128" fill="#000000" /><rect x="699" y="136" width="23" height="14" fill="#ffffff" fill-opacity="1.0" /><rect x="697" y="134" width="27" height="18" fill="#ffffff" fill-opacity="0.9" /><rect x="695" y="132" width="31" height="22" fill="#ffffff" fill-opacity="0.75" /><rect x="694" y="131" width="33" height="24" fill="#ffffff" fill-opacity="0.5" /><rect x="693" y="130" width="35" height="26" fill="#ffffff" fill-opacity="0.25" /><rect x="691" y="128" width="39" height="30" fill="#ffffff" fill-opacity="0.1" /><text x="710" y="148" font-size="20" text-anchor="middle" font-family="mono" fill="#000000">e.0</text><circle r="4" cx="710" cy="168" fill="#000000" /><rect x="659" y="206" width="23" height="14" fill="#ffffff" fill-opacity="1.0" /><rect x="657" y="204" width="27" height="18" fill="#ffffff" fill-opacity="0.9" /><rect x="655" y="202" width="31" height="22" fill="#ffffff" fill-opacity="0.75" /><rect x="654" y="201" width="33" height="24" fill="#ffffff" fill-opacity="0.5" /><rect x="653" y="200" width="35" height="26" fill="#ffffff" fill-opacity="0.25" /><rect x="651" y="198" width="39" height="30" fill="#ffffff" fill-opacity="0.1" /><text x="670" y="218" font-size="20" text-anchor="middle" font-family="mono" fill="#000000">&lt;i&gt;</text><circle r="4" cx="670" cy="188" fill="#000000" /><rect x="712" y="206" width="-3" height="14" fill="#ffffff" fill-opacity="1.0" /><rect x="710" y="204" width="1" height="18" fill="#ffffff" fill-opacity="0.9" /><rect x="708" y="202" width="5" height="22" fill="#ffffff" fill-opacity="0.75" /><rect x="707" y="201" width="7" height="24" fill="#ffffff" fill-opacity="0.5" /><rect x="706" y="200" width="9" height="26" fill="#ffffff" fill-opacity="0.25" /><rect x="704" y="198" width="13" height="30" fill="#ffffff" fill-opacity="0.1" /><text x="710" y="218" font-size="20" text-anchor="middle" font-family="mono" fill="#000000">+</text><circle r="4" cx="710" cy="188" fill="#000000" /><rect x="739" y="206" width="23" height="14" fill="#ffffff" fill-opacity="1.0" /><rect x="737" y="204" width="27" height="18" fill="#ffffff" fill-opacity="0.9" /><rect x="735" y="202" width="31" height="22" fill="#ffffff" fill-opacity="0.75" /><rect x="734" y="201" width="33" height="24" fill="#ffffff" fill-opacity="0.5" /><rect x="733" y="200" width="35" height="26" fill="#ffffff" fill-opacity="0.25" /><rect x="731" y="198" width="39" height="30" fill="#ffffff" fill-opacity="0.1" /><text x="750" y="218" font-size="20" text-anchor="middle" font-family="mono" fill="#000000">&lt;1&gt;</text><circle r="4" cx="750" cy="188" fill="#000000" /><rect x="792" y="146" width="-3" height="14" fill="#ffffff" fill-opacity="1.0" /><rect x="790" y="144" width="1" height="18" fill="#ffffff" fill-opacity="0.9" /><rect x="788" y="142" width="5" height="22" fill="#ffffff" fill-opacity="0.75" /><rect x="787" y="141" width="7" height="24" fill="#ffffff" fill-opacity="0.5" /><rect x="786" y="140" width="9" height="26" fill="#ffffff" fill-opacity="0.25" /><rect x="784" y="138" width="13" height="30" fill="#ffffff" fill-opacity="0.1" /><text x="790" y="158" font-size="20" text-anchor="middle" font-family="mono" fill="#000000">)</text><circle r="4" cx="790" cy="128" fill="#000000" /></svg>