<?xml version="1.0" encoding="UTF-8"?>
<!DOCTYPE svg PUBLIC "-//W3C//DTD SVG 1.1//EN"
    "http://www.w3.org/Graphics/SVG/1.1/DTD/svg11.dtd">
<svg xmlns="http://www.w3.org/2000/svg" xmlns:xlink="http://www.w3.org/1999/xlink" version="1.1" width="600" height="228" viewBox="0 0 600 228"><rect width="600" height="228" fill="#ffffff" /><path d="M 300 48 , 240 108" stroke="#000000" stroke-width="1" stroke-linecap="round" /><path d="M 300 48 , 500 68" stroke="#000000" stroke-width="1" stroke-linecap="round" /><path d="M 300 48 , 560 68" stroke="#000000" stroke-width="1" stroke-linecap="round" /><path d="M 240 108 , 10 128" stroke="#000000" stroke-width="1" stroke-linecap="round" /><path d="M 240 108 , 240 168" stroke="#000000" stroke-width="1" stroke-linecap="round" /><path d="M 240 108 , 470 128" stroke="#000000" stroke-width="1" stroke-linecap="round" /><path d="M 240 168 , 40 188" stroke="#000000" stroke-width="1" stroke-linecap="round" /><path d="M 240 168 , 100 188" stroke="#000000" stroke-width="1" stroke-linecap="round" /><path d="M 240 168 , 180 188" stroke="#000000" stroke-width="1" stroke-linecap="round" /><path d="M 240 168 , 260 188" stroke="#000000" stroke-width="1" stroke-linecap="round" /><path d="M 240 168 , 340 188" stroke="#000000" stroke-width="1" stroke-linecap="round" /><path d="M 240 168 , 420 188" stroke="#000000" stroke-width="1" stroke-linecap="round" /><rect x="289" y="16" width="23" height="14" fill="#ffffff" fill-opacity="1.0" /><rect x="287" y="14" width="27" height="18" fill="#ffffff" fill-opacity="0.9" /><rect x="285" y="12" width="31" height="22" fill="#ffffff" fill-opacity="0.75" /><rect x="284" y="11" width="33" height="24" fill="#ffffff" fill-opacity="0.5" /><rect x="283" y="10" width="35" height="26" fill="#ffffff" fill-opacity="0.25" /><rect x="281" y="8" width="39" height="30" fill="#ffffff" fill-opacity="0.1" /><text x="300" y="28" font-size="20" text-anchor="middle" font-family="mono" fill="#000000">e.1</text><circle r="4" cx="300" cy="48" fill="#000000" /><rect x="222" y="76" width="36" height="14" fill="#ffffff" fill-opacity="1.0" /><rect x="220" y="74" width="40" height="18" fill="#ffffff" fill-opacity="0.9" /><rect x="218" y="72" width="44" height="22" fill="#ffffff" fill-opacity="0.75" /><rect x="217" y="71" width="46" height="24" fill="#ffffff" fill-opacity="0.5" /><rect x="216" y="70" width="48" height="26" fill="#ffffff" fill-opacity="0.25" /><rect x="214" y="68" width="52" height="30" fill="#ffffff" fill-opacity="0.1" /><text x="240" y="88" font-size="20" text-anchor="middle" font-family="mono" fill="#000000">eL.4</text><circle r="4" cx="240" cy="108" fill="#000000" /><rect x="12" y="146" width="-3" height="14" fill="#ffffff" fill-opacity="1.0" /><rect x="10" y="144" width="1" height="18" fill="#ffffff" fill-opacity="0.9" /><rect x="8" y="142" width="5" height="22" fill="#ffffff" fill-opacity="0.75" /><rect x="7" y="141" width="7" height="24" fill="#ffffff" fill-opacity="0.5" /><rect x="6" y="140" width="9" height="26" fill="#ffffff" fill-opacity="0.25" /><rect x="4" y="138" width="13" height="30" fill="#ffffff" fill-opacity="0.1" /><text x="10" y="158" font-size="20" text-anchor="middle" font-family="mono" fill="#000000">(</text><circle r="4" cx="10" cy="128" fill="#000000" /><rect x="222" y="136" width="36" height="14" fill="#ffffff" fill-opacity="1.0" /><rect x="220" y="134" width="40" height="18" fill="#ffffff" fill-opacity="0.9" /><rect x="218" y="132" width="44" height="22" fill="#ffffff" fill-opacity="0.75" /><rect x="217" y="131" width="46" height="24" fill="#ffffff" fill-opacity="0.5" /><rect x="216" y="130" width="48" height="26" fill="#ffffff" fill-opacity="0.25" /><rect x="214" y="128" width="52" height="30" fill="#ffffff" fill-opacity="0.1" /><text x="240" y="148" font-size="20" text-anchor="middle" font-family="mono" fill="#000000">eL.3</text><circle r="4" cx="240" cy="168" fill="#000000" /><rect x="35" y="206" width="10" height="14" fill="#ffffff" fill-opacity="1.0" /><rect x="33" y="204" width="14" height="18" fill="#ffffff" fill-opacity="0.9" /><rect x="31" y="202" width="18" height="22" fill="#ffffff" fill-opacity="0.75" /><rect x="30" y="201" width="20" height="24" fill="#ffffff" fill-opacity="0.5" /><rect x="29" y="200" width="22" height="26" fill="#ffffff" fill-opacity="0.25" /><rect x="27" y="198" width="26" height="30" fill="#ffffff" fill-opacity="0.1" /><text x="40" y="218" font-size="20" text-anchor="middle" font-family="mono" fill="#000000">If</text><circle r="4" cx="40" cy="188" fill="#000000" /><rect x="82" y="206" width="36" height="14" fill="#ffffff" fill-opacity="1.0" /><rect x="80" y="204" width="40" height="18" fill="#ffffff" fill-opacity="0.9" /><rect x="78" y="202" width="44" height="22" fill="#ffffff" fill-opacity="0.75" /><rect x="77" y="201" width="46" height="24" fill="#ffffff" fill-opacity="0.5" /><rect x="76" y="200" width="48" height="26" fill="#ffffff" fill-opacity="0.25" /><rect x="74" y="198" width="52" height="30" fill="#ffffff" fill-opacity="0.1" /><text x="100" y="218" font-size="20" text-anchor="middle" font-family="mono" fill="#000000">True</text><circle r="4" cx="100" cy="188" fill="#000000" /><rect x="162" y="206" width="36" height="14" fill="#ffffff" fill-opacity="1.0" /><rect x="160" y="204" width="40" height="18" fill="#ffffff" fill-opacity="0.9" /><rect x="158" y="202" width="44" height="22" fill="#ffffff" fill-opacity="0.75" /><rect x="157" y="201" width="46" height="24" fill="#ffffff" fill-opacity="0.5" /><rect x="156" y="200" width="48" height="26" fill="#ffffff" fill-opacity="0.25" /><rect x="154" y="198" width="52" height="30" fill="#ffffff" fill-opacity="0.1" /><text x="180" y="218" font-size="20" text-anchor="middle" font-family="mono" fill="#000000">Then</text><circle r="4" cx="180" cy="188" fill="#000000" /><rect x="242" y="206" width="36" height="14" fill="#ffffff" fill-opacity="1.0" /><rect x="240" y="204" width="40" height="18" fill="#ffffff" fill-opacity="0.9" /><rect x="238" y="202" width="44" height="22" fill="#ffffff" fill-opacity="0.75" /><rect x="237" y="201" width="46" height="24" fill="#ffffff" fill-opacity="0.5" /><rect x="236" y="200" width="48" height="26" fill="#ffffff" fill-opacity="0.25" /><rect x="234" y="198" width="52" height="30" fill="#ffffff" fill-opacity="0.1" /><text x="260" y="218" font-size="20" text-anchor="middle" font-family="mono" fill="#000000">True</text><circle r="4" cx="260" cy="188" fill="#000000" /><rect x="322" y="206" width="36" height="14" fill="#ffffff" fill-opacity="1.0" /><rect x="320" y="204" width="40" height="18" fill="#ffffff" fill-opacity="0.9" /><rect x="318" y="202" width="44" height="22" fill="#ffffff" fill-opacity="0.75" /><rect x="317" y="201" width="46" height="24" fill="#ffffff" fill-opacity="0.5" /><rect x="316" y="200" width="48" height="26" fill="#ffffff" fill-opacity="0.25" /><rect x="314" y="198" width="52" height="30" fill="#ffffff" fill-opacity="0.1" /><text x="340" y="218" font-size="20" text-anchor="middle" font-family="mono" fill="#000000">Else</text><circle r="4" cx="340" cy="188" fill="#000000" /><rect x="402" y="206" width="36" height="14" fill="#ffffff" fill-opacity="1.0" /><rect x="400" y="204" width="40" height="18" fill="#ffffff" fill-opacity="0.9" /><rect x="398" y="202" width="44" height="22" fill="#ffffff" fill-opacity="0.75" /><rect x="397" y="201" width="46" height="24" fill="#ffffff" fill-opacity="0.5" /><rect x="396" y="200" width="48" height="26" fill="#ffffff" fill-opacity="0.25" /><rect x="394" y="198" width="52" height="30" fill="#ffffff" fill-opacity="0.1" /><text x="420" y="218" font-size="20" text-anchor="middle" font-family="mono" fill="#000000">True</text><circle r="4" cx="420" cy="188" fill="#000000" /><rect x="472" y="146" width="-3" height="14" fill="#ffffff" fill-opacity="1.0" /><rect x="470" y="144" width="1" height="18" fill="#ffffff" fill-opacity="0.9" /><rect x="468" y="142" width="5" height="22" fill="#ffffff" fill-opacity="0.75" /><rect x="467" y="141" width="7" height="24" fill="#ffffff" fill-opacity="0.5" /><rect x="466" y="140" width="9" height="26" fill="#ffffff" fill-opacity="0.25" /><rect x="464" y="138" width="13" height="30" fill="#ffffff" fill-opacity="0.1" /><text x="470" y="158" font-size="20" text-anchor="middle" font-family="mono" fill="#000000">)</text><circle r="4" cx="470" cy="128" fill="#000000" /><rect x="495" y="86" width="10" height="14" fill="#ffffff" fill-opacity="1.0" /><rect x="493" y="84" width="14" height="18" fill="#ffffff" fill-opacity="0.9" /><rect x="491" y="82" width="18" height="22" fill="#ffffff" fill-opacity="0.75" /><rect x="490" y="81" width="20" height="24" fill="#ffffff" fill-opacity="0.5" /><rect x="489" y="80" width="22" height="26" fill="#ffffff" fill-opacity="0.25" /><rect x="487" y="78" width="26" height="30" fill="#ffffff" fill-opacity="0.1" /><text x="500" y="98" font-size="20" text-anchor="middle" font-family="mono" fill="#000000">::</text><circle r="4" cx="500" cy="68" fill="#000000" /><rect x="542" y="86" width="36" height="14" fill="#ffffff" fill-opacity="1.0" /><rect x="540" y="84" width="40" height="18" fill="#ffffff" fill-opacity="0.9" /><rect x="538" y="82" width="44" height="22" fill="#ffffff" fill-opacity="0.75" /><rect x="537" y="81" width="46" height="24" fill="#ffffff" fill-opacity="0.5" /><rect x="536" y="80" width="48" height="26" fill="#ffffff" fill-opacity="0.25" /><rect x="534" y="78" width="52" height="30" fill="#ffffff" fill-opacity="0.1" /><text x="560" y="98" font-size="20" text-anchor="middle" font-family="mono" fill="#000000">Bool</text><circle r="4" cx="560" cy="68" fill="#000000" /></svg>