<?xml version="1.0" encoding="UTF-8"?>
<!DOCTYPE svg PUBLIC "-//W3C//DTD SVG 1.1//EN"
    "http://www.w3.org/Graphics/SVG/1.1/DTD/svg11.dtd">
<svg xmlns="http://www.w3.org/2000/svg" xmlns:xlink="http://www.w3.org/1999/xlink" version="1.1" width="2800" height="960" viewBox="0 0 2800 960"><rect width="2800" height="960" fill="#ffffff" /><path d="M 175 300 , 875 180" stroke="#000000" stroke-width="1" stroke-linecap="round" /><path d="M 525 300 , 875 180" stroke="#000000" stroke-width="1" stroke-linecap="round" /><path d="M 175 420 , 175 300" stroke="#000000" stroke-width="1" stroke-linecap="round" /><path d="M 175 420 , 875 300" stroke="#000000" stroke-width="1" stroke-linecap="round" /><path d="M 525 420 , 525 300" stroke="#000000" stroke-width="1" stroke-linecap="round" /><path d="M 525 420 , 875 300" stroke="#000000" stroke-width="1" stroke-linecap="round" /><path d="M 1925 420 , 2275 300" stroke="#000000" stroke-width="1" stroke-linecap="round" /><path d="M 2275 420 , 2275 300" stroke="#000000" stroke-width="1" stroke-linecap="round" /><path d="M 1225 300 , 875 180" stroke="#000000" stroke-width="1" stroke-linecap="round" /><path d="M 1575 300 , 875 180" stroke="#000000" stroke-width="1" stroke-linecap="round" /><path d="M 1225 420 , 1225 300" stroke="#000000" stroke-width="1" stroke-linecap="round" /><path d="M 1225 420 , 875 300" stroke="#000000" stroke-width="1" stroke-linecap="round" /><path d="M 875 420 , 1575 300" stroke="#000000" stroke-width="1" stroke-linecap="round" /><path d="M 875 420 , 875 300" stroke="#000000" stroke-width="1" stroke-linecap="round" /><path d="M 1575 420 , 2275 300" stroke="#000000" stroke-width="1" stroke-linecap="round" /><path d="M 2625 420 , 2275 300" stroke="#000000" stroke-width="1" stroke-linecap="round" /><path d="M 525 660 , 875 420" stroke="#000000" stroke-width="1" stroke-linecap="round" /><path d="M 525 660 , 175 540" stroke="#000000" stroke-width="1" stroke-linecap="round" /><path d="M 175 660 , 175 540" stroke="#000000" stroke-width="1" stroke-linecap="round" /><path d="M 875 780 , 525 660" stroke="#000000" stroke-width="1" stroke-linecap="round" /><path d="M 875 780 , 175 660" stroke="#000000" stroke-width="1" stroke-linecap="round" /><path d="M 875 300 , 875 180" stroke="#000000" stroke-width="1" stroke-linecap="round" /><path d="M 525 780 , 525 660" stroke="#000000" stroke-width="1" stroke-linecap="round" /><path d="M 525 780 , 175 660" stroke="#000000" stroke-width="1" stroke-linecap="round" /><path d="M 2275 300 , 2275 180" stroke="#000000" stroke-width="1" stroke-linecap="round" /><path d="M 175 540 , 175 420" stroke="#000000" stroke-width="1" stroke-linecap="round" /><path d="M 525 540 , 175 420" stroke="#000000" stroke-width="1" stroke-linecap="round" /><path d="M 525 540 , 525 420" stroke="#000000" stroke-width="1" stroke-linecap="round" /><path d="M 875 180 , 1400 60" stroke="#000000" stroke-width="1" stroke-linecap="round" stroke-dasharray="1 , 5" /><path d="M 2275 180 , 1400 60" stroke="#000000" stroke-width="1" stroke-linecap="round" stroke-dasharray="1 , 5" /><path d="M 1575 180 , 1400 60" stroke="#000000" stroke-width="1" stroke-linecap="round" stroke-dasharray="1 , 5" /><path d="M 1925 180 , 1400 60" stroke="#000000" stroke-width="1" stroke-linecap="round" stroke-dasharray="1 , 5" /><path d="M 1400 900 , 1925 420" stroke="#000000" stroke-width="1" stroke-linecap="round" stroke-dasharray="1 , 5" /><path d="M 1400 900 , 2275 420" stroke="#000000" stroke-width="1" stroke-linecap="round" stroke-dasharray="1 , 5" /><path d="M 1400 900 , 1225 420" stroke="#000000" stroke-width="1" stroke-linecap="round" stroke-dasharray="1 , 5" /><path d="M 1400 900 , 1575 420" stroke="#000000" stroke-width="1" stroke-linecap="round" stroke-dasharray="1 , 5" /><path d="M 1400 900 , 2625 420" stroke="#000000" stroke-width="1" stroke-linecap="round" stroke-dasharray="1 , 5" /><path d="M 1400 900 , 875 780" stroke="#000000" stroke-width="1" stroke-linecap="round" stroke-dasharray="1 , 5" /><path d="M 1400 900 , 525 780" stroke="#000000" stroke-width="1" stroke-linecap="round" stroke-dasharray="1 , 5" /><path d="M 1400 900 , 1575 180" stroke="#000000" stroke-width="1" stroke-linecap="round" stroke-dasharray="1 , 5" /><path d="M 1400 900 , 1925 180" stroke="#000000" stroke-width="1" stroke-linecap="round" stroke-dasharray="1 , 5" /><path d="M 1400 900 , 525 540" stroke="#000000" stroke-width="1" stroke-linecap="round" stroke-dasharray="1 , 5" /><rect x="1402" y="918" width="-3" height="14" fill="#ffffff" fill-opacity="1.0" /><rect x="1400" y="916" width="1" height="18" fill="#ffffff" fill-opacity="0.9" /><rect x="1398" y="914" width="5" height="22" fill="#ffffff" fill-opacity="0.75" /><rect x="1397" y="913" width="7" height="24" fill="#ffffff" fill-opacity="0.5" /><rect x="1396" y="912" width="9" height="26" fill="#ffffff" fill-opacity="0.25" /><rect x="1394" y="910" width="13" height="30" fill="#ffffff" fill-opacity="0.1" /><text x="1400" y="930" font-size="20" text-anchor="middle" font-family="mono" fill="#000000">ɛ</text><circle r="4" cx="1400" cy="900" fill="#000000" /><rect x="494" y="798" width="62" height="14" fill="#ffffff" fill-opacity="1.0" /><rect x="492" y="796" width="66" height="18" fill="#ffffff" fill-opacity="0.9" /><rect x="490" y="794" width="70" height="22" fill="#ffffff" fill-opacity="0.75" /><rect x="489" y="793" width="72" height="24" fill="#ffffff" fill-opacity="0.5" /><rect x="488" y="792" width="74" height="26" fill="#ffffff" fill-opacity="0.25" /><rect x="486" y="790" width="78" height="30" fill="#ffffff" fill-opacity="0.1" /><text x="525" y="810" font-size="20" text-anchor="middle" font-family="mono" fill="#000000">number</text><circle r="4" cx="525" cy="780" fill="#000000" /><rect x="857" y="798" width="36" height="14" fill="#ffffff" fill-opacity="1.0" /><rect x="855" y="796" width="40" height="18" fill="#ffffff" fill-opacity="0.9" /><rect x="853" y="794" width="44" height="22" fill="#ffffff" fill-opacity="0.75" /><rect x="852" y="793" width="46" height="24" fill="#ffffff" fill-opacity="0.5" /><rect x="851" y="792" width="48" height="26" fill="#ffffff" fill-opacity="0.25" /><rect x="849" y="790" width="52" height="30" fill="#ffffff" fill-opacity="0.1" /><text x="875" y="810" font-size="20" text-anchor="middle" font-family="mono" fill="#000000">bool</text><circle r="4" cx="875" cy="780" fill="#000000" /><rect x="99" y="678" width="153" height="14" fill="#ffffff" fill-opacity="1.0" /><rect x="97" y="676" width="157" height="18" fill="#ffffff" fill-opacity="0.9" /><rect x="95" y="674" width="161" height="22" fill="#ffffff" fill-opacity="0.75" /><rect x="94" y="673" width="163" height="24" fill="#ffffff" fill-opacity="0.5" /><rect x="93" y="672" width="165" height="26" fill="#ffffff" fill-opacity="0.25" /><rect x="91" y="670" width="169" height="30" fill="#ffffff" fill-opacity="0.1" /><text x="175" y="690" font-size="20" text-anchor="middle" font-family="mono" fill="#000000">(value)(✓)in0</text><circle r="4" cx="175" cy="660" fill="#000000" /><rect x="449" y="678" width="153" height="14" fill="#ffffff" fill-opacity="1.0" /><rect x="447" y="676" width="157" height="18" fill="#ffffff" fill-opacity="0.9" /><rect x="445" y="674" width="161" height="22" fill="#ffffff" fill-opacity="0.75" /><rect x="444" y="673" width="163" height="24" fill="#ffffff" fill-opacity="0.5" /><rect x="443" y="672" width="165" height="26" fill="#ffffff" fill-opacity="0.25" /><rect x="441" y="670" width="169" height="30" fill="#ffffff" fill-opacity="0.1" /><text x="525" y="690" font-size="20" text-anchor="middle" font-family="mono" fill="#000000">(value)(⊢)in1</text><circle r="4" cx="525" cy="660" fill="#000000" /><rect x="151" y="558" width="49" height="14" fill="#ffffff" fill-opacity="1.0" /><rect x="149" y="556" width="53" height="18" fill="#ffffff" fill-opacity="0.9" /><rect x="147" y="554" width="57" height="22" fill="#ffffff" fill-opacity="0.75" /><rect x="146" y="553" width="59" height="24" fill="#ffffff" fill-opacity="0.5" /><rect x="145" y="552" width="61" height="26" fill="#ffffff" fill-opacity="0.25" /><rect x="143" y="550" width="65" height="30" fill="#ffffff" fill-opacity="0.1" /><text x="175" y="570" font-size="20" text-anchor="middle" font-family="mono" fill="#000000">value</text><circle r="4" cx="175" cy="540" fill="#000000" /><rect x="514" y="558" width="23" height="14" fill="#ffffff" fill-opacity="1.0" /><rect x="512" y="556" width="27" height="18" fill="#ffffff" fill-opacity="0.9" /><rect x="510" y="554" width="31" height="22" fill="#ffffff" fill-opacity="0.75" /><rect x="509" y="553" width="33" height="24" fill="#ffffff" fill-opacity="0.5" /><rect x="508" y="552" width="35" height="26" fill="#ffffff" fill-opacity="0.25" /><rect x="506" y="550" width="39" height="30" fill="#ffffff" fill-opacity="0.1" /><text x="525" y="570" font-size="20" text-anchor="middle" font-family="mono" fill="#000000">var</text><circle r="4" cx="525" cy="540" fill="#000000" /><rect x="112" y="388" width="127" height="14" fill="#ffffff" fill-opacity="1.0" /><rect x="110" y="386" width="131" height="18" fill="#ffffff" fill-opacity="0.9" /><rect x="108" y="384" width="135" height="22" fill="#ffffff" fill-opacity="0.75" /><rect x="107" y="383" width="137" height="24" fill="#ffffff" fill-opacity="0.5" /><rect x="106" y="382" width="139" height="26" fill="#ffffff" fill-opacity="0.25" /><rect x="104" y="380" width="143" height="30" fill="#ffffff" fill-opacity="0.1" /><text x="175" y="400" font-size="20" text-anchor="middle" font-family="mono" fill="#000000">!(eL)(→)in0</text><circle r="4" cx="175" cy="420" fill="#000000" /><rect x="462" y="388" width="127" height="14" fill="#ffffff" fill-opacity="1.0" /><rect x="460" y="386" width="131" height="18" fill="#ffffff" fill-opacity="0.9" /><rect x="458" y="384" width="135" height="22" fill="#ffffff" fill-opacity="0.75" /><rect x="457" y="383" width="137" height="24" fill="#ffffff" fill-opacity="0.5" /><rect x="456" y="382" width="139" height="26" fill="#ffffff" fill-opacity="0.25" /><rect x="454" y="380" width="143" height="30" fill="#ffffff" fill-opacity="0.1" /><text x="525" y="400" font-size="20" text-anchor="middle" font-family="mono" fill="#000000">!(eL)(⊢)in1</text><circle r="4" cx="525" cy="420" fill="#000000" /><rect x="818" y="388" width="114" height="14" fill="#ffffff" fill-opacity="1.0" /><rect x="816" y="386" width="118" height="18" fill="#ffffff" fill-opacity="0.9" /><rect x="814" y="384" width="122" height="22" fill="#ffffff" fill-opacity="0.75" /><rect x="813" y="383" width="124" height="24" fill="#ffffff" fill-opacity="0.5" /><rect x="812" y="382" width="126" height="26" fill="#ffffff" fill-opacity="0.25" /><rect x="810" y="380" width="130" height="30" fill="#ffffff" fill-opacity="0.1" /><text x="875" y="400" font-size="20" text-anchor="middle" font-family="mono" fill="#000000">(eL)(⊢)in1</text><circle r="4" cx="875" cy="420" fill="#000000" /><rect x="1168" y="388" width="114" height="14" fill="#ffffff" fill-opacity="1.0" /><rect x="1166" y="386" width="118" height="18" fill="#ffffff" fill-opacity="0.9" /><rect x="1164" y="384" width="122" height="22" fill="#ffffff" fill-opacity="0.75" /><rect x="1163" y="383" width="124" height="24" fill="#ffffff" fill-opacity="0.5" /><rect x="1162" y="382" width="126" height="26" fill="#ffffff" fill-opacity="0.25" /><rect x="1160" y="380" width="130" height="30" fill="#ffffff" fill-opacity="0.1" /><text x="1225" y="400" font-size="20" text-anchor="middle" font-family="mono" fill="#000000">(eL)(→)in0</text><circle r="4" cx="1225" cy="420" fill="#000000" /><rect x="1492" y="388" width="166" height="14" fill="#ffffff" fill-opacity="1.0" /><rect x="1490" y="386" width="170" height="18" fill="#ffffff" fill-opacity="0.9" /><rect x="1488" y="384" width="174" height="22" fill="#ffffff" fill-opacity="0.75" /><rect x="1487" y="383" width="176" height="24" fill="#ffffff" fill-opacity="0.5" /><rect x="1486" y="382" width="178" height="26" fill="#ffffff" fill-opacity="0.25" /><rect x="1484" y="380" width="182" height="30" fill="#ffffff" fill-opacity="0.1" /><text x="1575" y="400" font-size="20" text-anchor="middle" font-family="mono" fill="#000000">(typeL)(==)in0</text><circle r="4" cx="1575" cy="420" fill="#000000" /><rect x="1836" y="388" width="179" height="14" fill="#ffffff" fill-opacity="1.0" /><rect x="1834" y="386" width="183" height="18" fill="#ffffff" fill-opacity="0.9" /><rect x="1832" y="384" width="187" height="22" fill="#ffffff" fill-opacity="0.75" /><rect x="1831" y="383" width="189" height="24" fill="#ffffff" fill-opacity="0.5" /><rect x="1830" y="382" width="191" height="26" fill="#ffffff" fill-opacity="0.25" /><rect x="1828" y="380" width="195" height="30" fill="#ffffff" fill-opacity="0.1" /><text x="1925" y="400" font-size="20" text-anchor="middle" font-family="mono" fill="#000000">!(typeL)(==)in0</text><circle r="4" cx="1925" cy="420" fill="#000000" /><rect x="2186" y="388" width="179" height="14" fill="#ffffff" fill-opacity="1.0" /><rect x="2184" y="386" width="183" height="18" fill="#ffffff" fill-opacity="0.9" /><rect x="2182" y="384" width="187" height="22" fill="#ffffff" fill-opacity="0.75" /><rect x="2181" y="383" width="189" height="24" fill="#ffffff" fill-opacity="0.5" /><rect x="2180" y="382" width="191" height="26" fill="#ffffff" fill-opacity="0.25" /><rect x="2178" y="380" width="195" height="30" fill="#ffffff" fill-opacity="0.1" /><text x="2275" y="400" font-size="20" text-anchor="middle" font-family="mono" fill="#000000">!(typeL)(==)in1</text><circle r="4" cx="2275" cy="420" fill="#000000" /><rect x="2542" y="388" width="166" height="14" fill="#ffffff" fill-opacity="1.0" /><rect x="2540" y="386" width="170" height="18" fill="#ffffff" fill-opacity="0.9" /><rect x="2538" y="384" width="174" height="22" fill="#ffffff" fill-opacity="0.75" /><rect x="2537" y="383" width="176" height="24" fill="#ffffff" fill-opacity="0.5" /><rect x="2536" y="382" width="178" height="26" fill="#ffffff" fill-opacity="0.25" /><rect x="2534" y="380" width="182" height="30" fill="#ffffff" fill-opacity="0.1" /><text x="2625" y="400" font-size="20" text-anchor="middle" font-family="mono" fill="#000000">(typeL)(==)in1</text><circle r="4" cx="2625" cy="420" fill="#000000" /><rect x="118" y="268" width="114" height="14" fill="#ffffff" fill-opacity="1.0" /><rect x="116" y="266" width="118" height="18" fill="#ffffff" fill-opacity="0.9" /><rect x="114" y="264" width="122" height="22" fill="#ffffff" fill-opacity="0.75" /><rect x="113" y="263" width="124" height="24" fill="#ffffff" fill-opacity="0.5" /><rect x="112" y="262" width="126" height="26" fill="#ffffff" fill-opacity="0.25" /><rect x="110" y="260" width="130" height="30" fill="#ffffff" fill-opacity="0.1" /><text x="175" y="280" font-size="20" text-anchor="middle" font-family="mono" fill="#000000">!(e)(→)in0</text><circle r="4" cx="175" cy="300" fill="#000000" /><rect x="468" y="268" width="114" height="14" fill="#ffffff" fill-opacity="1.0" /><rect x="466" y="266" width="118" height="18" fill="#ffffff" fill-opacity="0.9" /><rect x="464" y="264" width="122" height="22" fill="#ffffff" fill-opacity="0.75" /><rect x="463" y="263" width="124" height="24" fill="#ffffff" fill-opacity="0.5" /><rect x="462" y="262" width="126" height="26" fill="#ffffff" fill-opacity="0.25" /><rect x="460" y="260" width="130" height="30" fill="#ffffff" fill-opacity="0.1" /><text x="525" y="280" font-size="20" text-anchor="middle" font-family="mono" fill="#000000">!(e)(⊢)in1</text><circle r="4" cx="525" cy="300" fill="#000000" /><rect x="870" y="268" width="10" height="14" fill="#ffffff" fill-opacity="1.0" /><rect x="868" y="266" width="14" height="18" fill="#ffffff" fill-opacity="0.9" /><rect x="866" y="264" width="18" height="22" fill="#ffffff" fill-opacity="0.75" /><rect x="865" y="263" width="20" height="24" fill="#ffffff" fill-opacity="0.5" /><rect x="864" y="262" width="22" height="26" fill="#ffffff" fill-opacity="0.25" /><rect x="862" y="260" width="26" height="30" fill="#ffffff" fill-opacity="0.1" /><text x="875" y="280" font-size="20" text-anchor="middle" font-family="mono" fill="#000000">eL</text><circle r="4" cx="875" cy="300" fill="#000000" /><rect x="1175" y="268" width="101" height="14" fill="#ffffff" fill-opacity="1.0" /><rect x="1173" y="266" width="105" height="18" fill="#ffffff" fill-opacity="0.9" /><rect x="1171" y="264" width="109" height="22" fill="#ffffff" fill-opacity="0.75" /><rect x="1170" y="263" width="111" height="24" fill="#ffffff" fill-opacity="0.5" /><rect x="1169" y="262" width="113" height="26" fill="#ffffff" fill-opacity="0.25" /><rect x="1167" y="260" width="117" height="30" fill="#ffffff" fill-opacity="0.1" /><text x="1225" y="280" font-size="20" text-anchor="middle" font-family="mono" fill="#000000">(e)(→)in0</text><circle r="4" cx="1225" cy="300" fill="#000000" /><rect x="1525" y="268" width="101" height="14" fill="#ffffff" fill-opacity="1.0" /><rect x="1523" y="266" width="105" height="18" fill="#ffffff" fill-opacity="0.9" /><rect x="1521" y="264" width="109" height="22" fill="#ffffff" fill-opacity="0.75" /><rect x="1520" y="263" width="111" height="24" fill="#ffffff" fill-opacity="0.5" /><rect x="1519" y="262" width="113" height="26" fill="#ffffff" fill-opacity="0.25" /><rect x="1517" y="260" width="117" height="30" fill="#ffffff" fill-opacity="0.1" /><text x="1575" y="280" font-size="20" text-anchor="middle" font-family="mono" fill="#000000">(e)(⊢)in1</text><circle r="4" cx="1575" cy="300" fill="#000000" /><rect x="2251" y="268" width="49" height="14" fill="#ffffff" fill-opacity="1.0" /><rect x="2249" y="266" width="53" height="18" fill="#ffffff" fill-opacity="0.9" /><rect x="2247" y="264" width="57" height="22" fill="#ffffff" fill-opacity="0.75" /><rect x="2246" y="263" width="59" height="24" fill="#ffffff" fill-opacity="0.5" /><rect x="2245" y="262" width="61" height="26" fill="#ffffff" fill-opacity="0.25" /><rect x="2243" y="260" width="65" height="30" fill="#ffffff" fill-opacity="0.1" /><text x="2275" y="280" font-size="20" text-anchor="middle" font-family="mono" fill="#000000">typeL</text><circle r="4" cx="2275" cy="300" fill="#000000" /><rect x="877" y="148" width="-3" height="14" fill="#ffffff" fill-opacity="1.0" /><rect x="875" y="146" width="1" height="18" fill="#ffffff" fill-opacity="0.9" /><rect x="873" y="144" width="5" height="22" fill="#ffffff" fill-opacity="0.75" /><rect x="872" y="143" width="7" height="24" fill="#ffffff" fill-opacity="0.5" /><rect x="871" y="142" width="9" height="26" fill="#ffffff" fill-opacity="0.25" /><rect x="869" y="140" width="13" height="30" fill="#ffffff" fill-opacity="0.1" /><text x="875" y="160" font-size="20" text-anchor="middle" font-family="mono" fill="#000000">e</text><circle r="4" cx="875" cy="180" fill="#000000" /><rect x="1544" y="148" width="62" height="14" fill="#ffffff" fill-opacity="1.0" /><rect x="1542" y="146" width="66" height="18" fill="#ffffff" fill-opacity="0.9" /><rect x="1540" y="144" width="70" height="22" fill="#ffffff" fill-opacity="0.75" /><rect x="1539" y="143" width="72" height="24" fill="#ffffff" fill-opacity="0.5" /><rect x="1538" y="142" width="74" height="26" fill="#ffffff" fill-opacity="0.25" /><rect x="1536" y="140" width="78" height="30" fill="#ffffff" fill-opacity="0.1" /><text x="1575" y="160" font-size="20" text-anchor="middle" font-family="mono" fill="#000000">typing</text><circle r="4" cx="1575" cy="180" fill="#000000" /><rect x="1823" y="148" width="205" height="14" fill="#ffffff" fill-opacity="1.0" /><rect x="1821" y="146" width="209" height="18" fill="#ffffff" fill-opacity="0.9" /><rect x="1819" y="144" width="213" height="22" fill="#ffffff" fill-opacity="0.75" /><rect x="1818" y="143" width="215" height="24" fill="#ffffff" fill-opacity="0.5" /><rect x="1817" y="142" width="217" height="26" fill="#ffffff" fill-opacity="0.25" /><rect x="1815" y="140" width="221" height="30" fill="#ffffff" fill-opacity="0.1" /><text x="1925" y="160" font-size="20" text-anchor="middle" font-family="mono" fill="#000000">typingEnvironment</text><circle r="4" cx="1925" cy="180" fill="#000000" /><rect x="2257" y="148" width="36" height="14" fill="#ffffff" fill-opacity="1.0" /><rect x="2255" y="146" width="40" height="18" fill="#ffffff" fill-opacity="0.9" /><rect x="2253" y="144" width="44" height="22" fill="#ffffff" fill-opacity="0.75" /><rect x="2252" y="143" width="46" height="24" fill="#ffffff" fill-opacity="0.5" /><rect x="2251" y="142" width="48" height="26" fill="#ffffff" fill-opacity="0.25" /><rect x="2249" y="140" width="52" height="30" fill="#ffffff" fill-opacity="0.1" /><text x="2275" y="160" font-size="20" text-anchor="middle" font-family="mono" fill="#000000">type</text><circle r="4" cx="2275" cy="180" fill="#000000" /><rect x="1395" y="28" width="10" height="14" fill="#ffffff" fill-opacity="1.0" /><rect x="1393" y="26" width="14" height="18" fill="#ffffff" fill-opacity="0.9" /><rect x="1391" y="24" width="18" height="22" fill="#ffffff" fill-opacity="0.75" /><rect x="1390" y="23" width="20" height="24" fill="#ffffff" fill-opacity="0.5" /><rect x="1389" y="22" width="22" height="26" fill="#ffffff" fill-opacity="0.25" /><rect x="1387" y="20" width="26" height="30" fill="#ffffff" fill-opacity="0.1" /><text x="1400" y="40" font-size="20" text-anchor="middle" font-family="mono" fill="#000000">.*</text><circle r="4" cx="1400" cy="60" fill="#000000" /></svg>